<?xml version="1.0" encoding="utf-8" standalone="no"?>
<!DOCTYPE svg PUBLIC "-//W3C//DTD SVG 1.1//EN"
  "http://www.w3.org/Graphics/SVG/1.1/DTD/svg11.dtd">
<svg xmlns:xlink="http://www.w3.org/1999/xlink" width="921.6pt" height="437.04pt" viewBox="0 0 921.6 437.04" xmlns="http://www.w3.org/2000/svg" version="1.1">
 <metadata>
  <rdf:RDF xmlns:dc="http://purl.org/dc/elements/1.1/" xmlns:cc="http://creativecommons.org/ns#" xmlns:rdf="http://www.w3.org/1999/02/22-rdf-syntax-ns#">
   <cc:Work>
    <dc:type rdf:resource="http://purl.org/dc/dcmitype/StillImage"/>
    <dc:date>2022-08-11T19:22:33.274064</dc:date>
    <dc:format>image/svg+xml</dc:format>
    <dc:creator>
     <cc:Agent>
      <dc:title>Matplotlib v3.5.2, https://matplotlib.org/</dc:title>
     </cc:Agent>
    </dc:creator>
   </cc:Work>
  </rdf:RDF>
 </metadata>
 <defs>
  <style type="text/css">*{stroke-linejoin: round; stroke-linecap: butt}</style>
 </defs>
 <g id="figure_1">
  <g id="patch_1">
   <path d="M 0 437.04 
L 921.6 437.04 
L 921.6 0 
L 0 0 
z
" style="fill: #ffffff"/>
  </g>
  <g id="axes_1">
   <g id="patch_2">
    <path d="M 115.2 388.9656 
L 829.44 388.9656 
L 829.44 52.4448 
L 115.2 52.4448 
z
" style="fill: #ffffff"/>
   </g>
   <g id="matplotlib.axis_1">
    <g id="xtick_1">
     <g id="line2d_1">
      <defs>
       <path id="md000d470bd" d="M 0 0 
L 0 3.5 
" style="stroke: #000000; stroke-width: 0.8"/>
      </defs>
      <g>
       <use xlink:href="#md000d470bd" x="147.665455" y="388.9656" style="stroke: #000000; stroke-width: 0.8"/>
      </g>
     </g>
     <g id="text_1">
      <!-- 0 -->
      <g transform="translate(144.484205 403.564038)scale(0.1 -0.1)">
       <defs>
        <path id="DejaVuSans-30" d="M 2034 4250 
Q 1547 4250 1301 3770 
Q 1056 3291 1056 2328 
Q 1056 1369 1301 889 
Q 1547 409 2034 409 
Q 2525 409 2770 889 
Q 3016 1369 3016 2328 
Q 3016 3291 2770 3770 
Q 2525 4250 2034 4250 
z
M 2034 4750 
Q 2819 4750 3233 4129 
Q 3647 3509 3647 2328 
Q 3647 1150 3233 529 
Q 2819 -91 2034 -91 
Q 1250 -91 836 529 
Q 422 1150 422 2328 
Q 422 3509 836 4129 
Q 1250 4750 2034 4750 
z
" transform="scale(0.015625)"/>
       </defs>
       <use xlink:href="#DejaVuSans-30"/>
      </g>
     </g>
    </g>
    <g id="xtick_2">
     <g id="line2d_2">
      <g>
       <use xlink:href="#md000d470bd" x="255.919721" y="388.9656" style="stroke: #000000; stroke-width: 0.8"/>
      </g>
     </g>
     <g id="text_2">
      <!-- 5 -->
      <g transform="translate(252.738471 403.564038)scale(0.1 -0.1)">
       <defs>
        <path id="DejaVuSans-35" d="M 691 4666 
L 3169 4666 
L 3169 4134 
L 1269 4134 
L 1269 2991 
Q 1406 3038 1543 3061 
Q 1681 3084 1819 3084 
Q 2600 3084 3056 2656 
Q 3513 2228 3513 1497 
Q 3513 744 3044 326 
Q 2575 -91 1722 -91 
Q 1428 -91 1123 -41 
Q 819 9 494 109 
L 494 744 
Q 775 591 1075 516 
Q 1375 441 1709 441 
Q 2250 441 2565 725 
Q 2881 1009 2881 1497 
Q 2881 1984 2565 2268 
Q 2250 2553 1709 2553 
Q 1456 2553 1204 2497 
Q 953 2441 691 2322 
L 691 4666 
z
" transform="scale(0.015625)"/>
       </defs>
       <use xlink:href="#DejaVuSans-35"/>
      </g>
     </g>
    </g>
    <g id="xtick_3">
     <g id="line2d_3">
      <g>
       <use xlink:href="#md000d470bd" x="364.173988" y="388.9656" style="stroke: #000000; stroke-width: 0.8"/>
      </g>
     </g>
     <g id="text_3">
      <!-- 10 -->
      <g transform="translate(357.811488 403.564038)scale(0.1 -0.1)">
       <defs>
        <path id="DejaVuSans-31" d="M 794 531 
L 1825 531 
L 1825 4091 
L 703 3866 
L 703 4441 
L 1819 4666 
L 2450 4666 
L 2450 531 
L 3481 531 
L 3481 0 
L 794 0 
L 794 531 
z
" transform="scale(0.015625)"/>
       </defs>
       <use xlink:href="#DejaVuSans-31"/>
       <use xlink:href="#DejaVuSans-30" x="63.623047"/>
      </g>
     </g>
    </g>
    <g id="xtick_4">
     <g id="line2d_4">
      <g>
       <use xlink:href="#md000d470bd" x="472.428254" y="388.9656" style="stroke: #000000; stroke-width: 0.8"/>
      </g>
     </g>
     <g id="text_4">
      <!-- 15 -->
      <g transform="translate(466.065754 403.564038)scale(0.1 -0.1)">
       <use xlink:href="#DejaVuSans-31"/>
       <use xlink:href="#DejaVuSans-35" x="63.623047"/>
      </g>
     </g>
    </g>
    <g id="xtick_5">
     <g id="line2d_5">
      <g>
       <use xlink:href="#md000d470bd" x="580.682521" y="388.9656" style="stroke: #000000; stroke-width: 0.8"/>
      </g>
     </g>
     <g id="text_5">
      <!-- 20 -->
      <g transform="translate(574.320021 403.564038)scale(0.1 -0.1)">
       <defs>
        <path id="DejaVuSans-32" d="M 1228 531 
L 3431 531 
L 3431 0 
L 469 0 
L 469 531 
Q 828 903 1448 1529 
Q 2069 2156 2228 2338 
Q 2531 2678 2651 2914 
Q 2772 3150 2772 3378 
Q 2772 3750 2511 3984 
Q 2250 4219 1831 4219 
Q 1534 4219 1204 4116 
Q 875 4013 500 3803 
L 500 4441 
Q 881 4594 1212 4672 
Q 1544 4750 1819 4750 
Q 2544 4750 2975 4387 
Q 3406 4025 3406 3419 
Q 3406 3131 3298 2873 
Q 3191 2616 2906 2266 
Q 2828 2175 2409 1742 
Q 1991 1309 1228 531 
z
" transform="scale(0.015625)"/>
       </defs>
       <use xlink:href="#DejaVuSans-32"/>
       <use xlink:href="#DejaVuSans-30" x="63.623047"/>
      </g>
     </g>
    </g>
    <g id="xtick_6">
     <g id="line2d_6">
      <g>
       <use xlink:href="#md000d470bd" x="688.936787" y="388.9656" style="stroke: #000000; stroke-width: 0.8"/>
      </g>
     </g>
     <g id="text_6">
      <!-- 25 -->
      <g transform="translate(682.574287 403.564038)scale(0.1 -0.1)">
       <use xlink:href="#DejaVuSans-32"/>
       <use xlink:href="#DejaVuSans-35" x="63.623047"/>
      </g>
     </g>
    </g>
    <g id="xtick_7">
     <g id="line2d_7">
      <g>
       <use xlink:href="#md000d470bd" x="797.191054" y="388.9656" style="stroke: #000000; stroke-width: 0.8"/>
      </g>
     </g>
     <g id="text_7">
      <!-- 30 -->
      <g transform="translate(790.828554 403.564038)scale(0.1 -0.1)">
       <defs>
        <path id="DejaVuSans-33" d="M 2597 2516 
Q 3050 2419 3304 2112 
Q 3559 1806 3559 1356 
Q 3559 666 3084 287 
Q 2609 -91 1734 -91 
Q 1441 -91 1130 -33 
Q 819 25 488 141 
L 488 750 
Q 750 597 1062 519 
Q 1375 441 1716 441 
Q 2309 441 2620 675 
Q 2931 909 2931 1356 
Q 2931 1769 2642 2001 
Q 2353 2234 1838 2234 
L 1294 2234 
L 1294 2753 
L 1863 2753 
Q 2328 2753 2575 2939 
Q 2822 3125 2822 3475 
Q 2822 3834 2567 4026 
Q 2313 4219 1838 4219 
Q 1578 4219 1281 4162 
Q 984 4106 628 3988 
L 628 4550 
Q 988 4650 1302 4700 
Q 1616 4750 1894 4750 
Q 2613 4750 3031 4423 
Q 3450 4097 3450 3541 
Q 3450 3153 3228 2886 
Q 3006 2619 2597 2516 
z
" transform="scale(0.015625)"/>
       </defs>
       <use xlink:href="#DejaVuSans-33"/>
       <use xlink:href="#DejaVuSans-30" x="63.623047"/>
      </g>
     </g>
    </g>
   </g>
   <g id="matplotlib.axis_2">
    <g id="ytick_1">
     <g id="line2d_8">
      <defs>
       <path id="mb1347a9d7c" d="M 0 0 
L -3.5 0 
" style="stroke: #000000; stroke-width: 0.8"/>
      </defs>
      <g>
       <use xlink:href="#mb1347a9d7c" x="115.2" y="356.957206" style="stroke: #000000; stroke-width: 0.8"/>
      </g>
     </g>
     <g id="text_8">
      <!-- −1 -->
      <g transform="translate(93.457813 360.756425)scale(0.1 -0.1)">
       <defs>
        <path id="DejaVuSans-2212" d="M 678 2272 
L 4684 2272 
L 4684 1741 
L 678 1741 
L 678 2272 
z
" transform="scale(0.015625)"/>
       </defs>
       <use xlink:href="#DejaVuSans-2212"/>
       <use xlink:href="#DejaVuSans-31" x="83.789062"/>
      </g>
     </g>
    </g>
    <g id="ytick_2">
     <g id="line2d_9">
      <g>
       <use xlink:href="#mb1347a9d7c" x="115.2" y="303.082942" style="stroke: #000000; stroke-width: 0.8"/>
      </g>
     </g>
     <g id="text_9">
      <!-- 0 -->
      <g transform="translate(101.8375 306.882161)scale(0.1 -0.1)">
       <use xlink:href="#DejaVuSans-30"/>
      </g>
     </g>
    </g>
    <g id="ytick_3">
     <g id="line2d_10">
      <g>
       <use xlink:href="#mb1347a9d7c" x="115.2" y="249.208678" style="stroke: #000000; stroke-width: 0.8"/>
      </g>
     </g>
     <g id="text_10">
      <!-- 1 -->
      <g transform="translate(101.8375 253.007897)scale(0.1 -0.1)">
       <use xlink:href="#DejaVuSans-31"/>
      </g>
     </g>
    </g>
    <g id="ytick_4">
     <g id="line2d_11">
      <g>
       <use xlink:href="#mb1347a9d7c" x="115.2" y="195.334414" style="stroke: #000000; stroke-width: 0.8"/>
      </g>
     </g>
     <g id="text_11">
      <!-- 2 -->
      <g transform="translate(101.8375 199.133633)scale(0.1 -0.1)">
       <use xlink:href="#DejaVuSans-32"/>
      </g>
     </g>
    </g>
    <g id="ytick_5">
     <g id="line2d_12">
      <g>
       <use xlink:href="#mb1347a9d7c" x="115.2" y="141.46015" style="stroke: #000000; stroke-width: 0.8"/>
      </g>
     </g>
     <g id="text_12">
      <!-- 3 -->
      <g transform="translate(101.8375 145.259369)scale(0.1 -0.1)">
       <use xlink:href="#DejaVuSans-33"/>
      </g>
     </g>
    </g>
    <g id="ytick_6">
     <g id="line2d_13">
      <g>
       <use xlink:href="#mb1347a9d7c" x="115.2" y="87.585886" style="stroke: #000000; stroke-width: 0.8"/>
      </g>
     </g>
     <g id="text_13">
      <!-- 4 -->
      <g transform="translate(101.8375 91.385105)scale(0.1 -0.1)">
       <defs>
        <path id="DejaVuSans-34" d="M 2419 4116 
L 825 1625 
L 2419 1625 
L 2419 4116 
z
M 2253 4666 
L 3047 4666 
L 3047 1625 
L 3713 1625 
L 3713 1100 
L 3047 1100 
L 3047 0 
L 2419 0 
L 2419 1100 
L 313 1100 
L 313 1709 
L 2253 4666 
z
" transform="scale(0.015625)"/>
       </defs>
       <use xlink:href="#DejaVuSans-34"/>
      </g>
     </g>
    </g>
   </g>
   <g id="line2d_14">
    <path d="M 147.665455 372.18631 
L 150.263557 372.394601 
L 152.428642 372.346094 
L 154.160711 372.095447 
L 155.67627 371.656446 
L 156.975321 371.056617 
L 158.057864 370.348514 
L 159.140407 369.396476 
L 160.222949 368.133814 
L 161.305492 366.47474 
L 162.388035 364.308952 
L 163.254069 362.117492 
L 164.120103 359.421068 
L 164.986137 356.108845 
L 165.852171 352.045398 
L 166.718205 347.065279 
L 166.934714 345.654248 
L 167.367731 345.819242 
L 168.233765 346.164449 
L 169.099799 346.242953 
L 169.749325 346.101716 
L 170.398851 345.76535 
L 171.048376 345.208617 
L 171.697902 344.401962 
L 172.347427 343.310821 
L 173.213461 341.3427 
L 174.079496 338.681434 
L 174.94553 335.186113 
L 175.811564 330.684016 
L 176.677598 324.963598 
L 177.543632 317.765924 
L 178.409666 308.774205 
L 179.2757 297.601009 
L 180.141735 283.772653 
L 181.007769 266.710121 
L 181.873803 245.705775 
L 182.739837 219.894888 
L 183.605871 188.220895 
L 184.038888 192.066726 
L 185.987465 211.641299 
L 187.936042 229.132839 
L 189.884619 244.762845 
L 191.833195 258.72917 
L 193.781772 271.20849 
L 195.730349 282.358483 
L 197.678926 292.319747 
L 199.627503 301.217433 
L 201.576079 309.162623 
L 203.524656 316.253391 
L 205.473233 322.575518 
L 207.42181 328.202739 
L 209.370386 333.196368 
L 211.318963 337.604022 
L 213.26754 341.456996 
L 214.999608 344.425141 
L 216.731677 346.952142 
L 218.247236 348.773824 
L 219.546288 350.011041 
L 220.62883 350.780385 
L 221.711373 351.273755 
L 222.577407 351.437701 
L 223.443441 351.36255 
L 224.309475 351.008795 
L 225.175509 350.327529 
L 226.041544 349.258393 
L 226.907578 347.727072 
L 227.773612 345.642233 
L 228.639646 342.891787 
L 229.50568 339.338317 
L 230.371714 334.813495 
L 231.237748 329.111264 
L 232.103782 321.979508 
L 232.969817 313.109871 
L 233.619342 305.093348 
L 233.835851 304.682964 
L 235.784428 312.21896 
L 237.733004 318.921084 
L 239.681581 324.859865 
L 241.630158 330.087983 
L 243.362226 334.164136 
L 245.094294 337.706543 
L 246.609854 340.3526 
L 248.125414 342.540036 
L 249.424465 344.004729 
L 250.507008 344.892276 
L 251.373042 345.351003 
L 252.239076 345.552613 
L 252.888602 345.511708 
L 253.538127 345.284108 
L 254.187653 344.846225 
L 254.837178 344.170414 
L 255.486704 343.224317 
L 256.352738 341.476151 
L 257.218772 339.071877 
L 258.084806 335.879354 
L 258.950841 331.736543 
L 259.816875 326.444921 
L 260.682909 319.761433 
L 261.548943 311.38866 
L 262.414977 300.962808 
L 263.281011 288.039041 
L 264.147045 272.073561 
L 265.01308 252.40172 
L 265.879114 228.211287 
L 266.745148 198.509793 
L 267.611182 162.084643 
L 268.044199 140.899794 
L 268.260708 138.189654 
L 270.209284 163.49729 
L 272.157861 186.112105 
L 274.106438 206.320613 
L 276.055015 224.378832 
L 278.003592 240.515531 
L 279.952168 254.935121 
L 281.900745 267.820238 
L 283.849322 279.334044 
L 285.797899 289.622282 
L 287.746475 298.815087 
L 289.695052 307.028599 
L 291.643629 314.36636 
L 293.592206 320.920523 
L 295.540783 326.772852 
L 297.489359 331.995491 
L 299.437936 336.651471 
L 301.386513 340.794859 
L 303.33509 344.470431 
L 305.283667 347.712648 
L 307.232243 350.543602 
L 309.18082 352.969382 
L 310.912889 354.773229 
L 312.428448 356.054591 
L 313.727499 356.902645 
L 315.026551 357.480955 
L 316.109093 357.718872 
L 316.975127 357.720004 
L 317.841162 357.523526 
L 318.707196 357.095334 
L 319.57323 356.393307 
L 320.439264 355.365548 
L 321.305298 353.948246 
L 322.171332 352.063054 
L 323.037366 349.613895 
L 323.903401 346.483056 
L 324.769435 342.526409 
L 325.635469 337.567588 
L 326.501503 331.390862 
L 327.367537 323.732434 
L 328.233571 314.269821 
L 329.099605 302.608867 
L 329.965639 288.267889 
L 330.831674 270.658317 
L 331.697708 249.061032 
L 332.563742 222.59748 
L 332.78025 215.10032 
L 333.213267 218.498671 
L 335.161844 234.866818 
L 337.110421 249.269191 
L 338.842489 260.488813 
L 340.574558 270.225644 
L 342.090117 277.481583 
L 342.523134 279.325242 
L 342.739643 294.19886 
L 344.038694 296.103194 
L 345.121237 297.346676 
L 346.203779 298.232224 
L 347.069814 298.644194 
L 347.719339 298.755578 
L 348.368865 298.675958 
L 349.01839 298.382117 
L 349.667916 297.846795 
L 350.317442 297.038052 
L 350.966967 295.918513 
L 351.833001 293.865814 
L 352.699035 291.057817 
L 353.56507 287.341969 
L 354.431104 282.531226 
L 355.297138 276.396449 
L 355.730155 273.513546 
L 356.596189 274.86613 
L 357.462223 275.809351 
L 358.111749 276.214899 
L 358.761274 276.330209 
L 359.194291 276.229347 
L 359.843817 275.782745 
L 360.493343 274.941864 
L 361.142868 273.654746 
L 361.792394 271.86059 
L 362.441919 269.488336 
L 363.307954 265.280719 
L 364.173988 259.660406 
L 365.040022 252.338086 
L 365.906056 242.959249 
L 366.555582 235.41282 
L 367.421616 237.21893 
L 368.071141 238.091785 
L 368.504158 238.420268 
L 368.937175 238.528613 
L 369.370192 238.399957 
L 369.80321 238.015506 
L 370.236227 237.354341 
L 370.885752 235.792153 
L 371.535278 233.464648 
L 372.184803 230.266836 
L 372.834329 226.07604 
L 373.700363 218.692806 
L 374.566397 208.879897 
L 375.215923 201.601848 
L 377.1645 215.583115 
L 379.113076 228.07385 
L 381.061653 239.231008 
L 383.01023 249.193909 
L 384.958807 258.085588 
L 386.907384 266.013693 
L 388.85596 273.070819 
L 390.804537 279.334065 
L 392.753114 284.863474 
L 394.701691 289.698818 
L 396.433759 293.426094 
L 398.165827 296.602896 
L 399.681387 298.897494 
L 400.980438 300.461132 
L 402.062981 301.43927 
L 402.929015 301.97799 
L 403.795049 302.268388 
L 404.444575 302.301261 
L 405.0941 302.1549 
L 405.743626 301.807093 
L 406.176643 301.450614 
L 407.042677 302.905181 
L 407.692203 303.994979 
L 408.12522 306.103311 
L 410.073797 313.332891 
L 412.022374 319.672952 
L 413.754442 324.583924 
L 415.48651 328.804833 
L 417.00207 331.898689 
L 418.301121 334.059547 
L 419.383664 335.469479 
L 420.249698 336.307063 
L 421.115732 336.851187 
L 421.765258 337.042032 
L 422.414783 337.023327 
L 423.064309 336.770008 
L 423.713834 336.252632 
L 424.36336 335.436674 
L 425.012886 334.281722 
L 425.662411 332.740532 
L 426.528445 329.988142 
L 427.394479 326.293079 
L 428.260514 321.462889 
L 428.910039 317.351628 
L 429.559565 315.35227 
L 430.20909 312.753376 
L 431.075124 308.203396 
L 431.941159 302.184602 
L 432.807193 294.394299 
L 433.673227 284.461676 
L 434.539261 271.932782 
L 435.405295 256.252164 
L 436.271329 236.740448 
L 437.137363 212.566944 
L 437.57038 215.547537 
L 439.08594 227.155247 
L 440.6015 237.020059 
L 441.900551 243.957384 
L 442.983094 248.535092 
L 443.849128 251.306006 
L 444.498653 252.800962 
L 445.148179 253.739877 
L 445.581196 254.027406 
L 446.014213 254.020507 
L 446.44723 253.855119 
L 448.395807 266.855677 
L 450.344384 278.472942 
L 452.292961 288.854098 
L 454.241537 298.130672 
L 456.190114 306.420194 
L 458.138691 313.827689 
L 460.087268 320.447007 
L 462.035845 326.362011 
L 464.20093 332.199066 
L 466.366015 337.350248 
L 468.531101 341.89615 
L 470.696186 345.907893 
L 472.861271 349.448241 
L 475.026357 352.572584 
L 477.191442 355.329801 
L 479.573036 357.990035 
L 481.95463 360.3085 
L 484.336224 362.329085 
L 486.934326 364.238429 
L 489.532428 365.881681 
L 492.347039 367.404319 
L 495.378159 368.789068 
L 498.625787 370.025533 
L 502.089923 371.108772 
L 505.987077 372.084556 
L 510.100739 372.874163 
L 513.997893 373.401364 
L 517.462029 373.649676 
L 520.060132 373.633133 
L 522.225217 373.408601 
L 523.957285 373.018328 
L 525.472845 372.452785 
L 526.771896 371.736781 
L 527.854439 370.922852 
L 528.936981 369.853048 
L 530.019524 368.456189 
L 531.102067 366.640791 
L 532.184609 364.289296 
L 533.050644 361.921978 
L 533.916678 359.019126 
L 534.782712 355.462726 
L 535.648746 351.108611 
L 536.51478 345.780667 
L 537.380814 339.263766 
L 538.246848 331.295122 
L 539.112882 323.1881 
L 539.978917 316.439702 
L 540.844951 307.955645 
L 541.710985 297.36343 
L 542.577019 284.207512 
L 543.443053 267.930938 
L 544.309087 247.852925 
L 545.175121 223.141471 
L 545.824647 200.963632 
L 546.041156 200.45103 
L 547.989732 219.133902 
L 549.938309 235.828853 
L 551.886886 250.747397 
L 553.835463 264.078537 
L 555.78404 275.991157 
L 557.732616 286.636163 
L 559.681193 296.148388 
L 561.62977 304.648292 
L 563.578347 312.243477 
L 565.526924 319.030035 
L 567.4755 325.093733 
L 569.640586 331.076116 
L 571.805671 336.353151 
L 573.970756 341.006162 
L 576.135842 345.105907 
L 578.300927 348.713165 
L 580.466012 351.878829 
L 582.631098 354.643284 
L 584.796183 357.03471 
L 586.74476 358.87885 
L 588.693337 360.425701 
L 590.425405 361.530851 
L 591.940965 362.259939 
L 593.240016 362.676158 
L 594.539067 362.859623 
L 595.62161 362.796272 
L 596.704152 362.491992 
L 597.570186 362.03871 
L 598.436221 361.360911 
L 599.302255 360.414941 
L 600.168289 359.147186 
L 601.034323 357.491881 
L 601.900357 355.368434 
L 602.766391 352.678154 
L 603.632425 349.300259 
L 604.498459 345.086994 
L 605.364494 339.857675 
L 606.230528 333.391402 
L 607.096562 325.418172 
L 607.962596 315.608013 
L 608.82863 303.557717 
L 609.694664 288.774636 
L 610.127681 280.175106 
L 610.560698 282.214193 
L 612.509275 292.033325 
L 614.457852 300.714503 
L 616.406429 308.325857 
L 618.138497 314.219316 
L 619.654057 318.695411 
L 621.169617 322.501837 
L 622.468668 325.181566 
L 623.55121 326.952941 
L 624.417245 328.028259 
L 626.798838 330.309005 
L 627.448364 330.539627 
L 628.09789 330.526705 
L 628.747415 330.241162 
L 629.396941 329.648836 
L 630.046466 328.709669 
L 630.695992 327.376768 
L 631.345518 325.595311 
L 632.211552 322.41012 
L 633.077586 318.130388 
L 633.94362 312.532768 
L 634.809654 305.343538 
L 635.675688 296.227493 
L 636.541722 284.774373 
L 637.624265 267.584582 
L 639.356333 277.029082 
L 640.871893 284.204388 
L 642.170944 289.50606 
L 642.387453 298.195635 
L 643.686504 299.971149 
L 644.769047 301.146452 
L 645.851589 302.005999 
L 646.717623 302.432999 
L 647.583658 302.592768 
L 648.233183 302.512606 
L 648.882709 302.237843 
L 649.532234 301.743671 
L 650.18176 301.001022 
L 650.831286 299.975885 
L 651.69732 298.09998 
L 652.563354 295.537369 
L 653.429388 292.149247 
L 654.295422 287.765434 
L 655.161456 282.177457 
L 655.594473 278.978518 
L 657.110033 282.46295 
L 658.409084 284.857851 
L 659.491627 286.378638 
L 660.357661 287.239985 
L 661.007187 287.651791 
L 661.656712 287.839059 
L 662.306238 287.776168 
L 662.955763 287.432957 
L 663.605289 286.774003 
L 664.254815 285.757785 
L 664.90434 284.33571 
L 665.553866 282.450981 
L 666.4199 279.102146 
L 667.285934 274.623097 
L 668.151968 268.782561 
L 669.018002 261.297138 
L 670.966579 242.131235 
L 671.616105 238.041225 
L 672.482139 230.918761 
L 673.348173 221.5351 
L 674.214207 209.576223 
L 674.647224 202.457806 
L 674.863733 201.601848 
L 676.379292 210.869913 
L 677.678344 217.605121 
L 678.760886 222.282832 
L 679.843429 226.009987 
L 680.709463 228.220123 
L 681.358989 229.371476 
L 682.008514 230.03921 
L 682.441531 232.181211 
L 684.390108 242.709022 
L 686.338685 251.968095 
L 688.070753 259.175263 
L 689.802822 265.421491 
L 691.318381 270.065603 
L 692.617432 273.384713 
L 693.699975 275.631941 
L 694.782518 277.345416 
L 695.648552 278.278596 
L 696.298078 278.689113 
L 696.947603 278.821554 
L 697.597129 278.643595 
L 698.030146 278.333998 
L 698.246654 278.629708 
L 699.762214 282.493122 
L 701.061265 285.302486 
L 702.360316 287.600258 
L 703.442859 289.073959 
L 704.308893 289.923716 
L 705.174927 290.439585 
L 705.824453 290.578646 
L 706.473979 290.478127 
L 707.123504 290.1089 
L 707.340013 289.920363 
L 707.556521 269.719067 
L 708.206047 267.548498 
L 708.855572 264.473269 
L 709.505098 260.367342 
L 710.154624 255.083534 
L 711.020658 245.905367 
L 711.886692 233.836697 
L 712.752726 218.279424 
L 713.61876 198.500987 
L 714.484794 173.60469 
L 715.783846 128.271051 
L 717.299405 69.96269 
L 717.515914 70.092526 
L 717.732422 70.032467 
L 717.948931 69.775218 
L 718.381948 68.637931 
L 718.598456 67.7412 
L 718.814965 68.707522 
L 720.763542 101.39259 
L 722.712119 130.590965 
L 724.660695 156.668575 
L 726.609272 179.949531 
L 728.557849 200.718944 
L 730.506426 219.224506 
L 732.455003 235.676448 
L 734.403579 250.245212 
L 736.352156 263.055789 
L 738.084224 273.024165 
L 739.816293 281.658688 
L 741.331852 288.072524 
L 742.630904 292.649657 
L 743.713446 295.741479 
L 744.57948 297.684099 
L 745.445515 299.095044 
L 746.09504 299.762386 
L 746.744566 300.054863 
L 747.177583 300.020708 
L 747.6106 299.7865 
L 748.043617 299.336052 
L 748.693143 298.214982 
L 749.342668 296.496881 
L 749.992194 294.100423 
L 750.641719 290.930562 
L 751.507753 285.306598 
L 752.373788 277.792774 
L 753.239822 268.002113 
L 754.105856 255.460425 
L 754.97189 242.353224 
L 756.920467 256.577614 
L 758.869044 269.28849 
L 760.81762 280.646896 
L 762.766197 290.796736 
L 764.714774 299.866605 
L 766.663351 307.971414 
L 768.611928 315.213847 
L 770.560504 321.685661 
L 772.509081 327.468851 
L 774.674167 333.175814 
L 776.839252 338.212169 
L 779.004337 342.6567 
L 781.169423 346.578923 
L 783.334508 350.040171 
L 785.499593 353.094544 
L 787.664679 355.789743 
L 790.046272 358.389619 
L 792.427866 360.654547 
L 794.80946 362.626856 
L 796.974545 364.19666 
L 796.974545 364.19666 
" clip-path="url(#p12037e805b)" style="fill: none; stroke: #000000; stroke-linecap: square"/>
   </g>
   <g id="line2d_15">
    <path d="M 147.665455 222.271546 
L 796.974545 222.271546 
" clip-path="url(#p12037e805b)" style="fill: none; stroke: #ff0000; stroke-width: 1.5; stroke-linecap: square"/>
   </g>
   <g id="line2d_16">
    <defs>
     <path id="m8be2e518b2" d="M -3 3 
L 3 -3 
M -3 -3 
L 3 3 
" style="stroke: #ff0000"/>
    </defs>
    <g clip-path="url(#p12037e805b)">
     <use xlink:href="#m8be2e518b2" x="183.605871" y="188.220895" style="fill: #ff0000; stroke: #ff0000"/>
     <use xlink:href="#m8be2e518b2" x="268.260708" y="138.189654" style="fill: #ff0000; stroke: #ff0000"/>
     <use xlink:href="#m8be2e518b2" x="375.215923" y="201.601848" style="fill: #ff0000; stroke: #ff0000"/>
     <use xlink:href="#m8be2e518b2" x="546.041156" y="200.45103" style="fill: #ff0000; stroke: #ff0000"/>
     <use xlink:href="#m8be2e518b2" x="718.598456" y="67.7412" style="fill: #ff0000; stroke: #ff0000"/>
    </g>
   </g>
   <g id="line2d_17">
    <path d="M 151.129591 372.404233 
L 153.078168 372.278263 
L 154.810236 371.936653 
L 156.325796 371.386458 
L 157.624847 370.657832 
L 158.70739 369.810454 
L 159.789932 368.68116 
L 160.872475 367.192377 
L 161.955018 365.244348 
L 163.03756 362.708841 
L 163.903595 360.148193 
L 164.769629 357.00157 
L 165.635663 353.140164 
L 166.501697 348.406603 
L 166.934714 345.654248 
L 167.367731 345.819242 
L 168.233765 346.164449 
L 169.099799 346.242953 
L 169.749325 346.101716 
L 170.398851 345.76535 
L 171.048376 345.208617 
L 171.697902 344.401962 
L 172.347427 343.310821 
L 173.213461 341.3427 
L 174.079496 338.681434 
L 174.94553 335.186113 
L 175.811564 330.684016 
L 176.677598 324.963598 
L 177.543632 317.765924 
L 178.409666 308.774205 
L 179.2757 297.601009 
L 180.141735 283.772653 
L 181.007769 266.710121 
L 181.873803 245.705775 
L 182.739837 219.894888 
L 183.605871 188.220895 
L 184.038888 192.066726 
L 185.987465 211.641299 
L 187.936042 229.132839 
L 189.884619 244.762845 
L 191.833195 258.72917 
L 193.781772 271.20849 
L 195.730349 282.358483 
L 197.678926 292.319747 
L 199.627503 301.217433 
L 201.576079 309.162623 
L 203.524656 316.253391 
L 205.473233 322.575518 
L 207.42181 328.202739 
L 209.370386 333.196368 
L 211.318963 337.604022 
L 213.26754 341.456996 
L 214.999608 344.425141 
L 216.082151 346.057866 
L 216.082151 346.057866 
" clip-path="url(#p12037e805b)" style="fill: none; stroke: #ffa500; stroke-width: 1.5; stroke-linecap: square"/>
   </g>
   <g id="line2d_18">
    <path d="M 147.665455 372.18631 
L 147.881963 372.212412 
L 148.098472 372.237074 
L 148.31498 372.260258 
L 148.531489 372.281922 
L 148.747997 372.302022 
L 148.964506 372.32051 
L 149.181014 372.337338 
L 149.397523 372.352451 
L 149.614031 372.365795 
L 149.83054 372.377311 
L 150.047048 372.386934 
L 150.263557 372.394601 
L 150.480065 372.40024 
L 150.696574 372.403778 
L 150.913083 372.405136 
" clip-path="url(#p12037e805b)" style="fill: none; stroke-dasharray: 5.55,2.4; stroke-dashoffset: 0; stroke: #ffa500; stroke-width: 1.5"/>
   </g>
   <g id="line2d_19">
    <path d="M 216.29866 346.363218 
L 217.814219 348.29278 
L 219.11327 349.634489 
L 220.412322 350.647278 
L 221.494864 351.199283 
L 222.360898 351.417768 
L 223.226933 351.405767 
L 224.092967 351.125849 
L 224.959001 350.531633 
L 225.825035 349.565838 
L 226.691069 348.157903 
L 227.557103 346.221071 
L 228.423137 343.648833 
L 229.289172 340.310586 
L 230.155206 336.046316 
L 231.02124 330.660116 
L 231.887274 323.912259 
L 232.753308 315.509519 
L 233.835851 304.682964 
L 235.784428 312.21896 
L 237.733004 318.921084 
L 239.681581 324.859865 
L 241.630158 330.087983 
L 243.362226 334.164136 
L 245.094294 337.706543 
L 246.609854 340.3526 
L 248.125414 342.540036 
L 248.341922 342.81194 
L 248.341922 342.81194 
" clip-path="url(#p12037e805b)" style="fill: none; stroke-dasharray: 5.55,2.4; stroke-dashoffset: 0; stroke: #ffa500; stroke-width: 1.5"/>
   </g>
   <g id="line2d_20">
    <path d="M 235.784428 312.21896 
L 237.733004 318.921084 
L 239.681581 324.859865 
L 241.630158 330.087983 
L 243.362226 334.164136 
L 245.094294 337.706543 
L 246.609854 340.3526 
L 248.125414 342.540036 
L 249.424465 344.004729 
L 250.507008 344.892276 
L 251.373042 345.351003 
L 252.239076 345.552613 
L 252.888602 345.511708 
L 253.538127 345.284108 
L 254.187653 344.846225 
L 254.837178 344.170414 
L 255.486704 343.224317 
L 256.352738 341.476151 
L 257.218772 339.071877 
L 258.084806 335.879354 
L 258.950841 331.736543 
L 259.816875 326.444921 
L 260.682909 319.761433 
L 261.548943 311.38866 
L 262.414977 300.962808 
L 263.281011 288.039041 
L 264.147045 272.073561 
L 265.01308 252.40172 
L 265.879114 228.211287 
L 266.745148 198.509793 
L 267.611182 162.084643 
L 268.044199 140.899794 
L 268.260708 138.189654 
L 270.209284 163.49729 
L 272.157861 186.112105 
L 274.106438 206.320613 
L 276.055015 224.378832 
L 278.003592 240.515531 
L 279.952168 254.935121 
L 281.900745 267.820238 
L 283.849322 279.334044 
L 285.797899 289.622282 
L 287.746475 298.815087 
L 289.695052 307.028599 
L 291.643629 314.36636 
L 293.592206 320.920523 
L 295.540783 326.772852 
L 297.489359 331.995491 
L 299.437936 336.651471 
L 300.736987 339.467721 
L 300.736987 339.467721 
" clip-path="url(#p12037e805b)" style="fill: none; stroke: #069af3; stroke-width: 1.5; stroke-linecap: square"/>
   </g>
   <g id="line2d_21">
    <path d="M 203.308148 315.504951 
L 205.256724 321.90862 
L 207.205301 327.60979 
L 209.153878 332.6712 
L 211.102455 337.142087 
L 213.051032 341.055745 
L 214.7831 344.07781 
L 216.515168 346.661339 
L 218.030728 348.537386 
L 219.329779 349.827425 
L 220.412322 350.647278 
L 221.494864 351.199283 
L 222.360898 351.417768 
L 223.226933 351.405767 
L 224.092967 351.125849 
L 224.959001 350.531633 
L 225.825035 349.565838 
L 226.691069 348.157903 
L 227.557103 346.221071 
L 228.423137 343.648833 
L 229.289172 340.310586 
L 230.155206 336.046316 
L 231.02124 330.660116 
L 231.887274 323.912259 
L 232.753308 315.509519 
L 233.835851 304.682964 
L 235.567919 311.424253 
L 235.567919 311.424253 
" clip-path="url(#p12037e805b)" style="fill: none; stroke-dasharray: 5.55,2.4; stroke-dashoffset: 0; stroke: #069af3; stroke-width: 1.5"/>
   </g>
   <g id="line2d_22">
    <path d="M 300.953496 339.915959 
L 302.902073 343.692126 
L 304.85065 347.028256 
L 306.799226 349.949437 
L 308.747803 352.465737 
L 310.479871 354.354759 
L 311.995431 355.718782 
L 313.510991 356.778854 
L 314.810042 357.405335 
L 315.892585 357.691064 
L 316.975127 357.720004 
L 317.841162 357.523526 
L 318.707196 357.095334 
L 319.57323 356.393307 
L 320.439264 355.365548 
L 321.305298 353.948246 
L 322.171332 352.063054 
L 323.037366 349.613895 
L 323.903401 346.483056 
L 324.769435 342.526409 
L 325.635469 337.567588 
L 326.501503 331.390862 
L 327.367537 323.732434 
L 328.233571 314.269821 
L 329.099605 302.608867 
L 329.965639 288.267889 
L 330.831674 270.658317 
L 331.697708 249.061032 
L 332.563742 222.59748 
L 332.78025 215.10032 
L 332.996759 216.552937 
L 332.996759 216.552937 
" clip-path="url(#p12037e805b)" style="fill: none; stroke-dasharray: 5.55,2.4; stroke-dashoffset: 0; stroke: #069af3; stroke-width: 1.5"/>
   </g>
   <g id="line2d_23">
    <path d="M 342.739643 294.19886 
L 344.038694 296.103194 
L 345.121237 297.346676 
L 346.203779 298.232224 
L 347.069814 298.644194 
L 347.719339 298.755578 
L 348.368865 298.675958 
L 349.01839 298.382117 
L 349.667916 297.846795 
L 350.317442 297.038052 
L 350.966967 295.918513 
L 351.833001 293.865814 
L 352.699035 291.057817 
L 353.56507 287.341969 
L 354.431104 282.531226 
L 355.297138 276.396449 
L 355.730155 273.513546 
L 356.596189 274.86613 
L 357.462223 275.809351 
L 358.111749 276.214899 
L 358.761274 276.330209 
L 359.194291 276.229347 
L 359.843817 275.782745 
L 360.493343 274.941864 
L 361.142868 273.654746 
L 361.792394 271.86059 
L 362.441919 269.488336 
L 363.307954 265.280719 
L 364.173988 259.660406 
L 365.040022 252.338086 
L 365.906056 242.959249 
L 366.555582 235.41282 
L 367.421616 237.21893 
L 368.071141 238.091785 
L 368.504158 238.420268 
L 368.937175 238.528613 
L 369.370192 238.399957 
L 369.80321 238.015506 
L 370.236227 237.354341 
L 370.885752 235.792153 
L 371.535278 233.464648 
L 372.184803 230.266836 
L 372.834329 226.07604 
L 373.700363 218.692806 
L 374.566397 208.879897 
L 375.215923 201.601848 
L 377.1645 215.583115 
L 379.113076 228.07385 
L 381.061653 239.231008 
L 383.01023 249.193909 
L 384.958807 258.085588 
L 386.907384 266.013693 
L 388.85596 273.070819 
L 390.804537 279.334065 
L 392.753114 284.863474 
L 394.701691 289.698818 
L 396.433759 293.426094 
L 398.165827 296.602896 
L 399.681387 298.897494 
L 400.980438 300.461132 
L 402.062981 301.43927 
L 402.929015 301.97799 
L 403.795049 302.268388 
L 404.444575 302.301261 
L 405.0941 302.1549 
L 405.743626 301.807093 
L 406.176643 301.450614 
L 407.042677 302.905181 
L 407.692203 303.994979 
L 407.692203 303.994979 
" clip-path="url(#p12037e805b)" style="fill: none; stroke: #ff00ff; stroke-width: 1.5; stroke-linecap: square"/>
   </g>
   <g id="line2d_24">
    <path d="M 310.263363 354.137239 
L 311.778923 355.54156 
L 313.294482 356.647804 
L 314.593534 357.321069 
L 315.676076 357.653024 
L 316.758619 357.73707 
L 317.624653 357.592911 
L 318.490687 357.226256 
L 319.356721 356.597138 
L 320.222755 355.656289 
L 321.08879 354.3431 
L 321.954824 352.583134 
L 322.820858 350.285083 
L 323.686892 347.337053 
L 324.552926 343.602023 
L 325.41896 338.912297 
L 326.284994 333.062734 
L 327.151029 325.802471 
L 328.017063 316.82481 
L 328.883097 305.754878 
L 329.749131 292.134541 
L 330.615165 275.403986 
L 331.481199 254.879216 
L 332.347233 229.724573 
L 332.78025 215.10032 
L 333.213267 218.498671 
L 335.161844 234.866818 
L 337.110421 249.269191 
L 338.842489 260.488813 
L 340.574558 270.225644 
L 342.090117 277.481583 
L 342.523134 279.325242 
L 342.523134 279.325242 
" clip-path="url(#p12037e805b)" style="fill: none; stroke-dasharray: 5.55,2.4; stroke-dashoffset: 0; stroke: #ff00ff; stroke-width: 1.5"/>
   </g>
   <g id="line2d_25">
    <path d="M 407.908711 305.242886 
L 409.857288 312.57434 
L 411.805865 319.0113 
L 413.537933 324.007322 
L 415.270002 328.31605 
L 416.785561 331.492964 
L 418.084612 333.733298 
L 419.167155 335.218273 
L 420.249698 336.307063 
L 421.115732 336.851187 
L 421.765258 337.042032 
L 422.414783 337.023327 
L 423.064309 336.770008 
L 423.713834 336.252632 
L 424.36336 335.436674 
L 425.012886 334.281722 
L 425.662411 332.740532 
L 426.528445 329.988142 
L 427.394479 326.293079 
L 428.260514 321.462889 
L 428.910039 317.351628 
L 429.559565 315.35227 
L 430.20909 312.753376 
L 431.075124 308.203396 
L 431.941159 302.184602 
L 432.807193 294.394299 
L 433.673227 284.461676 
L 434.539261 271.932782 
L 435.405295 256.252164 
L 436.271329 236.740448 
L 437.137363 212.566944 
L 437.57038 215.547537 
L 439.08594 227.155247 
L 439.951974 233.014698 
L 439.951974 233.014698 
" clip-path="url(#p12037e805b)" style="fill: none; stroke-dasharray: 5.55,2.4; stroke-dashoffset: 0; stroke: #ff00ff; stroke-width: 1.5"/>
   </g>
   <g id="line2d_26">
    <path d="M 513.564876 373.354285 
L 517.029012 373.632979 
L 519.843623 373.643487 
L 522.008708 373.442469 
L 523.740777 373.080209 
L 525.256336 372.549401 
L 526.555388 371.87397 
L 527.854439 370.922852 
L 528.936981 369.853048 
L 530.019524 368.456189 
L 531.102067 366.640791 
L 532.184609 364.289296 
L 533.050644 361.921978 
L 533.916678 359.019126 
L 534.782712 355.462726 
L 535.648746 351.108611 
L 536.51478 345.780667 
L 537.380814 339.263766 
L 538.246848 331.295122 
L 539.112882 323.1881 
L 539.978917 316.439702 
L 540.844951 307.955645 
L 541.710985 297.36343 
L 542.577019 284.207512 
L 543.443053 267.930938 
L 544.309087 247.852925 
L 545.175121 223.141471 
L 545.824647 200.963632 
L 546.041156 200.45103 
L 547.989732 219.133902 
L 549.938309 235.828853 
L 551.886886 250.747397 
L 553.835463 264.078537 
L 555.78404 275.991157 
L 557.732616 286.636163 
L 559.681193 296.148388 
L 561.62977 304.648292 
L 563.578347 312.243477 
L 565.526924 319.030035 
L 567.4755 325.093733 
L 569.640586 331.076116 
L 571.805671 336.353151 
L 573.970756 341.006162 
L 576.135842 345.105907 
L 578.300927 348.713165 
L 578.517436 349.048851 
L 578.517436 349.048851 
" clip-path="url(#p12037e805b)" style="fill: none; stroke: #008000; stroke-width: 1.5; stroke-linecap: square"/>
   </g>
   <g id="line2d_27">
    <path d="M 481.088596 359.502066 
L 483.470189 361.626266 
L 486.068292 363.633537 
L 488.666394 365.3611 
L 491.481005 366.961928 
L 494.512125 368.417934 
L 497.759753 369.718369 
L 501.223889 370.858483 
L 504.904534 371.836926 
L 508.801688 372.650132 
L 512.91535 373.277955 
L 513.348367 373.32959 
L 513.348367 373.32959 
" clip-path="url(#p12037e805b)" style="fill: none; stroke-dasharray: 5.55,2.4; stroke-dashoffset: 0; stroke: #008000; stroke-width: 1.5"/>
   </g>
   <g id="line2d_28">
    <path d="M 578.733944 349.380175 
L 580.899029 352.462723 
L 583.064115 355.150755 
L 585.2292 357.469669 
L 587.177777 359.248825 
L 589.126354 360.726978 
L 590.858422 361.763436 
L 592.373982 362.421891 
L 593.673033 362.765481 
L 594.972084 362.860248 
L 596.054627 362.706225 
L 597.137169 362.291025 
L 598.003203 361.730393 
L 598.869238 360.924541 
L 599.735272 359.825083 
L 600.601306 358.372631 
L 601.46734 356.494376 
L 602.333374 354.101126 
L 603.199408 351.083696 
L 604.065442 347.30849 
L 604.931477 342.61211 
L 605.797511 336.794765 
L 606.663545 329.612232 
L 607.529579 320.766019 
L 608.395613 309.891364 
L 609.261647 296.542573 
L 610.127681 280.175106 
L 610.560698 282.214193 
L 610.777207 283.364212 
L 610.777207 283.364212 
" clip-path="url(#p12037e805b)" style="fill: none; stroke-dasharray: 5.55,2.4; stroke-dashoffset: 0; stroke: #008000; stroke-width: 1.5"/>
   </g>
   <g id="line2d_29">
    <path d="M 686.122176 250.999989 
L 687.854245 258.326563 
L 689.586313 264.69425 
L 691.101873 269.451299 
L 692.400924 272.876749 
L 693.483467 275.223025 
L 694.566009 277.048939 
L 695.432043 278.084827 
L 696.081569 278.581724 
L 696.731095 278.81019 
L 697.38062 278.739624 
L 698.030146 278.333998 
L 698.246654 278.629708 
L 699.762214 282.493122 
L 701.061265 285.302486 
L 702.360316 287.600258 
L 703.442859 289.073959 
L 704.308893 289.923716 
L 705.174927 290.439585 
L 705.824453 290.578646 
L 706.473979 290.478127 
L 707.123504 290.1089 
L 707.340013 289.920363 
L 707.556521 269.719067 
L 708.206047 267.548498 
L 708.855572 264.473269 
L 709.505098 260.367342 
L 710.154624 255.083534 
L 711.020658 245.905367 
L 711.886692 233.836697 
L 712.752726 218.279424 
L 713.61876 198.500987 
L 714.484794 173.60469 
L 715.783846 128.271051 
L 717.299405 69.96269 
L 717.515914 70.092526 
L 717.732422 70.032467 
L 717.948931 69.775218 
L 718.381948 68.637931 
L 718.598456 67.7412 
L 718.814965 68.707522 
L 720.763542 101.39259 
L 722.712119 130.590965 
L 724.660695 156.668575 
L 726.609272 179.949531 
L 728.557849 200.718944 
L 730.506426 219.224506 
L 732.455003 235.676448 
L 734.403579 250.245212 
L 736.352156 263.055789 
L 738.084224 273.024165 
L 739.816293 281.658688 
L 741.331852 288.072524 
L 742.630904 292.649657 
L 743.713446 295.741479 
L 744.57948 297.684099 
L 745.445515 299.095044 
L 746.09504 299.762386 
L 746.744566 300.054863 
L 747.177583 300.020708 
L 747.6106 299.7865 
L 748.043617 299.336052 
L 748.693143 298.214982 
L 749.342668 296.496881 
L 749.992194 294.100423 
L 750.641719 290.930562 
L 751.074736 288.333582 
L 751.074736 288.333582 
" clip-path="url(#p12037e805b)" style="fill: none; stroke: #ffa500; stroke-width: 1.5; stroke-linecap: square"/>
   </g>
   <g id="line2d_30">
    <path d="M 653.645897 291.15407 
L 654.511931 286.490429 
L 655.377965 280.56357 
L 655.594473 278.978518 
L 657.110033 282.46295 
L 658.409084 284.857851 
L 659.491627 286.378638 
L 660.357661 287.239985 
L 661.007187 287.651791 
L 661.656712 287.839059 
L 662.306238 287.776168 
L 662.955763 287.432957 
L 663.605289 286.774003 
L 664.254815 285.757785 
L 664.90434 284.33571 
L 665.553866 282.450981 
L 666.4199 279.102146 
L 667.285934 274.623097 
L 668.151968 268.782561 
L 669.018002 261.297138 
L 670.966579 242.131235 
L 671.616105 238.041225 
L 672.482139 230.918761 
L 673.348173 221.5351 
L 674.214207 209.576223 
L 674.647224 202.457806 
L 674.863733 201.601848 
L 676.379292 210.869913 
L 677.678344 217.605121 
L 678.760886 222.282832 
L 679.843429 226.009987 
L 680.709463 228.220123 
L 681.358989 229.371476 
L 682.008514 230.03921 
L 682.441531 232.181211 
L 684.390108 242.709022 
L 685.905668 250.016855 
L 685.905668 250.016855 
" clip-path="url(#p12037e805b)" style="fill: none; stroke-dasharray: 5.55,2.4; stroke-dashoffset: 0; stroke: #ffa500; stroke-width: 1.5"/>
   </g>
   <g id="line2d_31">
    <path d="M 751.291245 286.876326 
L 752.157279 279.868209 
L 753.023313 270.687506 
L 753.889347 258.883486 
L 754.97189 242.353224 
L 756.920467 256.577614 
L 758.869044 269.28849 
L 760.81762 280.646896 
L 762.766197 290.796736 
L 764.714774 299.866605 
L 766.663351 307.971414 
L 768.611928 315.213847 
L 770.560504 321.685661 
L 772.509081 327.468851 
L 774.674167 333.175814 
L 776.839252 338.212169 
L 779.004337 342.6567 
L 781.169423 346.578923 
L 783.334508 350.040171 
L 783.334508 350.040171 
" clip-path="url(#p12037e805b)" style="fill: none; stroke-dasharray: 5.55,2.4; stroke-dashoffset: 0; stroke: #ffa500; stroke-width: 1.5"/>
   </g>
   <g id="patch_3">
    <path d="M 115.2 388.9656 
L 115.2 52.4448 
" style="fill: none; stroke: #000000; stroke-width: 0.8; stroke-linejoin: miter; stroke-linecap: square"/>
   </g>
   <g id="patch_4">
    <path d="M 829.44 388.9656 
L 829.44 52.4448 
" style="fill: none; stroke: #000000; stroke-width: 0.8; stroke-linejoin: miter; stroke-linecap: square"/>
   </g>
   <g id="patch_5">
    <path d="M 115.2 388.9656 
L 829.44 388.9656 
" style="fill: none; stroke: #000000; stroke-width: 0.8; stroke-linejoin: miter; stroke-linecap: square"/>
   </g>
   <g id="patch_6">
    <path d="M 115.2 52.4448 
L 829.44 52.4448 
" style="fill: none; stroke: #000000; stroke-width: 0.8; stroke-linejoin: miter; stroke-linecap: square"/>
   </g>
  </g>
 </g>
 <defs>
  <clipPath id="p12037e805b">
   <rect x="115.2" y="52.4448" width="714.24" height="336.5208"/>
  </clipPath>
 </defs>
</svg>
