<?xml version="1.0" encoding="utf-8" standalone="no"?>
<!DOCTYPE svg PUBLIC "-//W3C//DTD SVG 1.1//EN"
  "http://www.w3.org/Graphics/SVG/1.1/DTD/svg11.dtd">
<svg xmlns:xlink="http://www.w3.org/1999/xlink" width="921.6pt" height="437.04pt" viewBox="0 0 921.6 437.04" xmlns="http://www.w3.org/2000/svg" version="1.1">
 <metadata>
  <rdf:RDF xmlns:dc="http://purl.org/dc/elements/1.1/" xmlns:cc="http://creativecommons.org/ns#" xmlns:rdf="http://www.w3.org/1999/02/22-rdf-syntax-ns#">
   <cc:Work>
    <dc:type rdf:resource="http://purl.org/dc/dcmitype/StillImage"/>
    <dc:date>2022-08-12T11:41:49.393253</dc:date>
    <dc:format>image/svg+xml</dc:format>
    <dc:creator>
     <cc:Agent>
      <dc:title>Matplotlib v3.5.2, https://matplotlib.org/</dc:title>
     </cc:Agent>
    </dc:creator>
   </cc:Work>
  </rdf:RDF>
 </metadata>
 <defs>
  <style type="text/css">*{stroke-linejoin: round; stroke-linecap: butt}</style>
 </defs>
 <g id="figure_1">
  <g id="patch_1">
   <path d="M 0 437.04 
L 921.6 437.04 
L 921.6 0 
L 0 0 
z
" style="fill: #ffffff"/>
  </g>
  <g id="axes_1">
   <g id="patch_2">
    <path d="M 115.2 388.9656 
L 439.854545 388.9656 
L 439.854545 52.4448 
L 115.2 52.4448 
z
" style="fill: #ffffff"/>
   </g>
   <g id="matplotlib.axis_1">
    <g id="xtick_1">
     <g id="line2d_1">
      <defs>
       <path id="m7bbf20a7ae" d="M 0 0 
L 0 3.5 
" style="stroke: #000000; stroke-width: 0.8"/>
      </defs>
      <g>
       <use xlink:href="#m7bbf20a7ae" x="129.957025" y="388.9656" style="stroke: #000000; stroke-width: 0.8"/>
      </g>
     </g>
     <g id="text_1">
      <!-- 0.0 -->
      <g transform="translate(122.005462 403.564038)scale(0.1 -0.1)">
       <defs>
        <path id="DejaVuSans-30" d="M 2034 4250 
Q 1547 4250 1301 3770 
Q 1056 3291 1056 2328 
Q 1056 1369 1301 889 
Q 1547 409 2034 409 
Q 2525 409 2770 889 
Q 3016 1369 3016 2328 
Q 3016 3291 2770 3770 
Q 2525 4250 2034 4250 
z
M 2034 4750 
Q 2819 4750 3233 4129 
Q 3647 3509 3647 2328 
Q 3647 1150 3233 529 
Q 2819 -91 2034 -91 
Q 1250 -91 836 529 
Q 422 1150 422 2328 
Q 422 3509 836 4129 
Q 1250 4750 2034 4750 
z
" transform="scale(0.015625)"/>
        <path id="DejaVuSans-2e" d="M 684 794 
L 1344 794 
L 1344 0 
L 684 0 
L 684 794 
z
" transform="scale(0.015625)"/>
       </defs>
       <use xlink:href="#DejaVuSans-30"/>
       <use xlink:href="#DejaVuSans-2e" x="63.623047"/>
       <use xlink:href="#DejaVuSans-30" x="95.410156"/>
      </g>
     </g>
    </g>
    <g id="xtick_2">
     <g id="line2d_2">
      <g>
       <use xlink:href="#m7bbf20a7ae" x="188.985124" y="388.9656" style="stroke: #000000; stroke-width: 0.8"/>
      </g>
     </g>
     <g id="text_2">
      <!-- 0.1 -->
      <g transform="translate(181.033561 403.564038)scale(0.1 -0.1)">
       <defs>
        <path id="DejaVuSans-31" d="M 794 531 
L 1825 531 
L 1825 4091 
L 703 3866 
L 703 4441 
L 1819 4666 
L 2450 4666 
L 2450 531 
L 3481 531 
L 3481 0 
L 794 0 
L 794 531 
z
" transform="scale(0.015625)"/>
       </defs>
       <use xlink:href="#DejaVuSans-30"/>
       <use xlink:href="#DejaVuSans-2e" x="63.623047"/>
       <use xlink:href="#DejaVuSans-31" x="95.410156"/>
      </g>
     </g>
    </g>
    <g id="xtick_3">
     <g id="line2d_3">
      <g>
       <use xlink:href="#m7bbf20a7ae" x="248.013223" y="388.9656" style="stroke: #000000; stroke-width: 0.8"/>
      </g>
     </g>
     <g id="text_3">
      <!-- 0.2 -->
      <g transform="translate(240.061661 403.564038)scale(0.1 -0.1)">
       <defs>
        <path id="DejaVuSans-32" d="M 1228 531 
L 3431 531 
L 3431 0 
L 469 0 
L 469 531 
Q 828 903 1448 1529 
Q 2069 2156 2228 2338 
Q 2531 2678 2651 2914 
Q 2772 3150 2772 3378 
Q 2772 3750 2511 3984 
Q 2250 4219 1831 4219 
Q 1534 4219 1204 4116 
Q 875 4013 500 3803 
L 500 4441 
Q 881 4594 1212 4672 
Q 1544 4750 1819 4750 
Q 2544 4750 2975 4387 
Q 3406 4025 3406 3419 
Q 3406 3131 3298 2873 
Q 3191 2616 2906 2266 
Q 2828 2175 2409 1742 
Q 1991 1309 1228 531 
z
" transform="scale(0.015625)"/>
       </defs>
       <use xlink:href="#DejaVuSans-30"/>
       <use xlink:href="#DejaVuSans-2e" x="63.623047"/>
       <use xlink:href="#DejaVuSans-32" x="95.410156"/>
      </g>
     </g>
    </g>
    <g id="xtick_4">
     <g id="line2d_4">
      <g>
       <use xlink:href="#m7bbf20a7ae" x="307.041322" y="388.9656" style="stroke: #000000; stroke-width: 0.8"/>
      </g>
     </g>
     <g id="text_4">
      <!-- 0.3 -->
      <g transform="translate(299.08976 403.564038)scale(0.1 -0.1)">
       <defs>
        <path id="DejaVuSans-33" d="M 2597 2516 
Q 3050 2419 3304 2112 
Q 3559 1806 3559 1356 
Q 3559 666 3084 287 
Q 2609 -91 1734 -91 
Q 1441 -91 1130 -33 
Q 819 25 488 141 
L 488 750 
Q 750 597 1062 519 
Q 1375 441 1716 441 
Q 2309 441 2620 675 
Q 2931 909 2931 1356 
Q 2931 1769 2642 2001 
Q 2353 2234 1838 2234 
L 1294 2234 
L 1294 2753 
L 1863 2753 
Q 2328 2753 2575 2939 
Q 2822 3125 2822 3475 
Q 2822 3834 2567 4026 
Q 2313 4219 1838 4219 
Q 1578 4219 1281 4162 
Q 984 4106 628 3988 
L 628 4550 
Q 988 4650 1302 4700 
Q 1616 4750 1894 4750 
Q 2613 4750 3031 4423 
Q 3450 4097 3450 3541 
Q 3450 3153 3228 2886 
Q 3006 2619 2597 2516 
z
" transform="scale(0.015625)"/>
       </defs>
       <use xlink:href="#DejaVuSans-30"/>
       <use xlink:href="#DejaVuSans-2e" x="63.623047"/>
       <use xlink:href="#DejaVuSans-33" x="95.410156"/>
      </g>
     </g>
    </g>
    <g id="xtick_5">
     <g id="line2d_5">
      <g>
       <use xlink:href="#m7bbf20a7ae" x="366.069421" y="388.9656" style="stroke: #000000; stroke-width: 0.8"/>
      </g>
     </g>
     <g id="text_5">
      <!-- 0.4 -->
      <g transform="translate(358.117859 403.564038)scale(0.1 -0.1)">
       <defs>
        <path id="DejaVuSans-34" d="M 2419 4116 
L 825 1625 
L 2419 1625 
L 2419 4116 
z
M 2253 4666 
L 3047 4666 
L 3047 1625 
L 3713 1625 
L 3713 1100 
L 3047 1100 
L 3047 0 
L 2419 0 
L 2419 1100 
L 313 1100 
L 313 1709 
L 2253 4666 
z
" transform="scale(0.015625)"/>
       </defs>
       <use xlink:href="#DejaVuSans-30"/>
       <use xlink:href="#DejaVuSans-2e" x="63.623047"/>
       <use xlink:href="#DejaVuSans-34" x="95.410156"/>
      </g>
     </g>
    </g>
    <g id="xtick_6">
     <g id="line2d_6">
      <g>
       <use xlink:href="#m7bbf20a7ae" x="425.097521" y="388.9656" style="stroke: #000000; stroke-width: 0.8"/>
      </g>
     </g>
     <g id="text_6">
      <!-- 0.5 -->
      <g transform="translate(417.145958 403.564038)scale(0.1 -0.1)">
       <defs>
        <path id="DejaVuSans-35" d="M 691 4666 
L 3169 4666 
L 3169 4134 
L 1269 4134 
L 1269 2991 
Q 1406 3038 1543 3061 
Q 1681 3084 1819 3084 
Q 2600 3084 3056 2656 
Q 3513 2228 3513 1497 
Q 3513 744 3044 326 
Q 2575 -91 1722 -91 
Q 1428 -91 1123 -41 
Q 819 9 494 109 
L 494 744 
Q 775 591 1075 516 
Q 1375 441 1709 441 
Q 2250 441 2565 725 
Q 2881 1009 2881 1497 
Q 2881 1984 2565 2268 
Q 2250 2553 1709 2553 
Q 1456 2553 1204 2497 
Q 953 2441 691 2322 
L 691 4666 
z
" transform="scale(0.015625)"/>
       </defs>
       <use xlink:href="#DejaVuSans-30"/>
       <use xlink:href="#DejaVuSans-2e" x="63.623047"/>
       <use xlink:href="#DejaVuSans-35" x="95.410156"/>
      </g>
     </g>
    </g>
   </g>
   <g id="matplotlib.axis_2">
    <g id="ytick_1">
     <g id="line2d_7">
      <defs>
       <path id="m6514b92e42" d="M 0 0 
L -3.5 0 
" style="stroke: #000000; stroke-width: 0.8"/>
      </defs>
      <g>
       <use xlink:href="#m6514b92e42" x="115.2" y="375.069975" style="stroke: #000000; stroke-width: 0.8"/>
      </g>
     </g>
     <g id="text_7">
      <!-- 0.0 -->
      <g transform="translate(92.296875 378.869193)scale(0.1 -0.1)">
       <use xlink:href="#DejaVuSans-30"/>
       <use xlink:href="#DejaVuSans-2e" x="63.623047"/>
       <use xlink:href="#DejaVuSans-30" x="95.410156"/>
      </g>
     </g>
    </g>
    <g id="ytick_2">
     <g id="line2d_8">
      <g>
       <use xlink:href="#m6514b92e42" x="115.2" y="314.255358" style="stroke: #000000; stroke-width: 0.8"/>
      </g>
     </g>
     <g id="text_8">
      <!-- 0.1 -->
      <g transform="translate(92.296875 318.054576)scale(0.1 -0.1)">
       <use xlink:href="#DejaVuSans-30"/>
       <use xlink:href="#DejaVuSans-2e" x="63.623047"/>
       <use xlink:href="#DejaVuSans-31" x="95.410156"/>
      </g>
     </g>
    </g>
    <g id="ytick_3">
     <g id="line2d_9">
      <g>
       <use xlink:href="#m6514b92e42" x="115.2" y="253.440741" style="stroke: #000000; stroke-width: 0.8"/>
      </g>
     </g>
     <g id="text_9">
      <!-- 0.2 -->
      <g transform="translate(92.296875 257.239959)scale(0.1 -0.1)">
       <use xlink:href="#DejaVuSans-30"/>
       <use xlink:href="#DejaVuSans-2e" x="63.623047"/>
       <use xlink:href="#DejaVuSans-32" x="95.410156"/>
      </g>
     </g>
    </g>
    <g id="ytick_4">
     <g id="line2d_10">
      <g>
       <use xlink:href="#m6514b92e42" x="115.2" y="192.626124" style="stroke: #000000; stroke-width: 0.8"/>
      </g>
     </g>
     <g id="text_10">
      <!-- 0.3 -->
      <g transform="translate(92.296875 196.425342)scale(0.1 -0.1)">
       <use xlink:href="#DejaVuSans-30"/>
       <use xlink:href="#DejaVuSans-2e" x="63.623047"/>
       <use xlink:href="#DejaVuSans-33" x="95.410156"/>
      </g>
     </g>
    </g>
    <g id="ytick_5">
     <g id="line2d_11">
      <g>
       <use xlink:href="#m6514b92e42" x="115.2" y="131.811506" style="stroke: #000000; stroke-width: 0.8"/>
      </g>
     </g>
     <g id="text_11">
      <!-- 0.4 -->
      <g transform="translate(92.296875 135.610725)scale(0.1 -0.1)">
       <use xlink:href="#DejaVuSans-30"/>
       <use xlink:href="#DejaVuSans-2e" x="63.623047"/>
       <use xlink:href="#DejaVuSans-34" x="95.410156"/>
      </g>
     </g>
    </g>
    <g id="ytick_6">
     <g id="line2d_12">
      <g>
       <use xlink:href="#m6514b92e42" x="115.2" y="70.996889" style="stroke: #000000; stroke-width: 0.8"/>
      </g>
     </g>
     <g id="text_12">
      <!-- 0.5 -->
      <g transform="translate(92.296875 74.796108)scale(0.1 -0.1)">
       <use xlink:href="#DejaVuSans-30"/>
       <use xlink:href="#DejaVuSans-2e" x="63.623047"/>
       <use xlink:href="#DejaVuSans-35" x="95.410156"/>
      </g>
     </g>
    </g>
   </g>
   <g id="line2d_13">
    <path d="M 116.469604 388.9656 
L 439.854545 55.793235 
" clip-path="url(#pde3b454681)" style="fill: none; stroke-dasharray: 3.7,1.6; stroke-dashoffset: 0; stroke: #000000"/>
   </g>
   <g id="LineCollection_1">
    <path d="M 129.957025 373.6692 
L 129.957025 373.576473 
" clip-path="url(#pde3b454681)" style="fill: none; stroke: #ff0000"/>
    <path d="M 188.985124 308.003565 
L 188.985124 307.396237 
" clip-path="url(#pde3b454681)" style="fill: none; stroke: #ff0000"/>
    <path d="M 248.013223 246.884707 
L 248.013223 245.859097 
" clip-path="url(#pde3b454681)" style="fill: none; stroke: #ff0000"/>
    <path d="M 307.041322 187.269831 
L 307.041322 186.195009 
" clip-path="url(#pde3b454681)" style="fill: none; stroke: #ff0000"/>
    <path d="M 366.069421 129.141312 
L 366.069421 127.861734 
" clip-path="url(#pde3b454681)" style="fill: none; stroke: #ff0000"/>
    <path d="M 425.097521 71.706414 
L 425.097521 70.389153 
" clip-path="url(#pde3b454681)" style="fill: none; stroke: #ff0000"/>
   </g>
   <g id="line2d_14">
    <defs>
     <path id="me5f03cef51" d="M 8 0 
L -8 -0 
" style="stroke: #ff0000"/>
    </defs>
    <g clip-path="url(#pde3b454681)">
     <use xlink:href="#me5f03cef51" x="129.957025" y="373.6692" style="fill: #ff0000; stroke: #ff0000"/>
     <use xlink:href="#me5f03cef51" x="188.985124" y="308.003565" style="fill: #ff0000; stroke: #ff0000"/>
     <use xlink:href="#me5f03cef51" x="248.013223" y="246.884707" style="fill: #ff0000; stroke: #ff0000"/>
     <use xlink:href="#me5f03cef51" x="307.041322" y="187.269831" style="fill: #ff0000; stroke: #ff0000"/>
     <use xlink:href="#me5f03cef51" x="366.069421" y="129.141312" style="fill: #ff0000; stroke: #ff0000"/>
     <use xlink:href="#me5f03cef51" x="425.097521" y="71.706414" style="fill: #ff0000; stroke: #ff0000"/>
    </g>
   </g>
   <g id="line2d_15">
    <g clip-path="url(#pde3b454681)">
     <use xlink:href="#me5f03cef51" x="129.957025" y="373.576473" style="fill: #ff0000; stroke: #ff0000"/>
     <use xlink:href="#me5f03cef51" x="188.985124" y="307.396237" style="fill: #ff0000; stroke: #ff0000"/>
     <use xlink:href="#me5f03cef51" x="248.013223" y="245.859097" style="fill: #ff0000; stroke: #ff0000"/>
     <use xlink:href="#me5f03cef51" x="307.041322" y="186.195009" style="fill: #ff0000; stroke: #ff0000"/>
     <use xlink:href="#me5f03cef51" x="366.069421" y="127.861734" style="fill: #ff0000; stroke: #ff0000"/>
     <use xlink:href="#me5f03cef51" x="425.097521" y="70.389153" style="fill: #ff0000; stroke: #ff0000"/>
    </g>
   </g>
   <g id="LineCollection_2">
    <path d="M 129.957025 367.974547 
L 129.957025 366.305292 
" clip-path="url(#pde3b454681)" style="fill: none; stroke: #008000"/>
    <path d="M 188.985124 264.801287 
L 188.985124 263.050415 
" clip-path="url(#pde3b454681)" style="fill: none; stroke: #008000"/>
    <path d="M 248.013223 203.267635 
L 248.013223 201.112277 
" clip-path="url(#pde3b454681)" style="fill: none; stroke: #008000"/>
    <path d="M 307.041322 154.243128 
L 307.041322 151.782767 
" clip-path="url(#pde3b454681)" style="fill: none; stroke: #008000"/>
    <path d="M 366.069421 112.040565 
L 366.069421 109.052316 
" clip-path="url(#pde3b454681)" style="fill: none; stroke: #008000"/>
    <path d="M 425.097521 72.38886 
L 425.097521 69.887171 
" clip-path="url(#pde3b454681)" style="fill: none; stroke: #008000"/>
   </g>
   <g id="line2d_16">
    <defs>
     <path id="me3529786f4" d="M 8 0 
L -8 -0 
" style="stroke: #008000"/>
    </defs>
    <g clip-path="url(#pde3b454681)">
     <use xlink:href="#me3529786f4" x="129.957025" y="367.974547" style="fill: #008000; stroke: #008000"/>
     <use xlink:href="#me3529786f4" x="188.985124" y="264.801287" style="fill: #008000; stroke: #008000"/>
     <use xlink:href="#me3529786f4" x="248.013223" y="203.267635" style="fill: #008000; stroke: #008000"/>
     <use xlink:href="#me3529786f4" x="307.041322" y="154.243128" style="fill: #008000; stroke: #008000"/>
     <use xlink:href="#me3529786f4" x="366.069421" y="112.040565" style="fill: #008000; stroke: #008000"/>
     <use xlink:href="#me3529786f4" x="425.097521" y="72.38886" style="fill: #008000; stroke: #008000"/>
    </g>
   </g>
   <g id="line2d_17">
    <g clip-path="url(#pde3b454681)">
     <use xlink:href="#me3529786f4" x="129.957025" y="366.305292" style="fill: #008000; stroke: #008000"/>
     <use xlink:href="#me3529786f4" x="188.985124" y="263.050415" style="fill: #008000; stroke: #008000"/>
     <use xlink:href="#me3529786f4" x="248.013223" y="201.112277" style="fill: #008000; stroke: #008000"/>
     <use xlink:href="#me3529786f4" x="307.041322" y="151.782767" style="fill: #008000; stroke: #008000"/>
     <use xlink:href="#me3529786f4" x="366.069421" y="109.052316" style="fill: #008000; stroke: #008000"/>
     <use xlink:href="#me3529786f4" x="425.097521" y="69.887171" style="fill: #008000; stroke: #008000"/>
    </g>
   </g>
   <g id="LineCollection_3">
    <path d="M 129.957025 207.418452 
L 129.957025 203.365572 
" clip-path="url(#pde3b454681)" style="fill: none; stroke: #0000ff"/>
    <path d="M 188.985124 156.612535 
L 188.985124 152.699714 
" clip-path="url(#pde3b454681)" style="fill: none; stroke: #0000ff"/>
    <path d="M 248.013223 126.331422 
L 248.013223 122.344222 
" clip-path="url(#pde3b454681)" style="fill: none; stroke: #0000ff"/>
    <path d="M 307.041322 105.094627 
L 307.041322 100.953427 
" clip-path="url(#pde3b454681)" style="fill: none; stroke: #0000ff"/>
    <path d="M 366.069421 88.023461 
L 366.069421 84.231837 
" clip-path="url(#pde3b454681)" style="fill: none; stroke: #0000ff"/>
    <path d="M 425.097521 73.380559 
L 425.097521 69.034582 
" clip-path="url(#pde3b454681)" style="fill: none; stroke: #0000ff"/>
   </g>
   <g id="line2d_18">
    <defs>
     <path id="m0d78932ae5" d="M 8 0 
L -8 -0 
" style="stroke: #0000ff"/>
    </defs>
    <g clip-path="url(#pde3b454681)">
     <use xlink:href="#m0d78932ae5" x="129.957025" y="207.418452" style="fill: #0000ff; stroke: #0000ff"/>
     <use xlink:href="#m0d78932ae5" x="188.985124" y="156.612535" style="fill: #0000ff; stroke: #0000ff"/>
     <use xlink:href="#m0d78932ae5" x="248.013223" y="126.331422" style="fill: #0000ff; stroke: #0000ff"/>
     <use xlink:href="#m0d78932ae5" x="307.041322" y="105.094627" style="fill: #0000ff; stroke: #0000ff"/>
     <use xlink:href="#m0d78932ae5" x="366.069421" y="88.023461" style="fill: #0000ff; stroke: #0000ff"/>
     <use xlink:href="#m0d78932ae5" x="425.097521" y="73.380559" style="fill: #0000ff; stroke: #0000ff"/>
    </g>
   </g>
   <g id="line2d_19">
    <g clip-path="url(#pde3b454681)">
     <use xlink:href="#m0d78932ae5" x="129.957025" y="203.365572" style="fill: #0000ff; stroke: #0000ff"/>
     <use xlink:href="#m0d78932ae5" x="188.985124" y="152.699714" style="fill: #0000ff; stroke: #0000ff"/>
     <use xlink:href="#m0d78932ae5" x="248.013223" y="122.344222" style="fill: #0000ff; stroke: #0000ff"/>
     <use xlink:href="#m0d78932ae5" x="307.041322" y="100.953427" style="fill: #0000ff; stroke: #0000ff"/>
     <use xlink:href="#m0d78932ae5" x="366.069421" y="84.231837" style="fill: #0000ff; stroke: #0000ff"/>
     <use xlink:href="#m0d78932ae5" x="425.097521" y="69.034582" style="fill: #0000ff; stroke: #0000ff"/>
    </g>
   </g>
   <g id="LineCollection_4">
    <path d="M 129.957025 74.135573 
L 129.957025 68.475148 
" clip-path="url(#pde3b454681)" style="fill: none; stroke: #bf00bf"/>
    <path d="M 188.985124 74.640949 
L 188.985124 67.7412 
" clip-path="url(#pde3b454681)" style="fill: none; stroke: #bf00bf"/>
    <path d="M 248.013223 74.03022 
L 248.013223 67.96076 
" clip-path="url(#pde3b454681)" style="fill: none; stroke: #bf00bf"/>
    <path d="M 307.041322 73.608461 
L 307.041322 68.334509 
" clip-path="url(#pde3b454681)" style="fill: none; stroke: #bf00bf"/>
    <path d="M 366.069421 73.327053 
L 366.069421 68.246101 
" clip-path="url(#pde3b454681)" style="fill: none; stroke: #bf00bf"/>
    <path d="M 425.097521 73.767624 
L 425.097521 68.318538 
" clip-path="url(#pde3b454681)" style="fill: none; stroke: #bf00bf"/>
   </g>
   <g id="line2d_20">
    <defs>
     <path id="m8ae82fcb93" d="M 8 0 
L -8 -0 
" style="stroke: #bf00bf"/>
    </defs>
    <g clip-path="url(#pde3b454681)">
     <use xlink:href="#m8ae82fcb93" x="129.957025" y="74.135573" style="fill: #bf00bf; stroke: #bf00bf"/>
     <use xlink:href="#m8ae82fcb93" x="188.985124" y="74.640949" style="fill: #bf00bf; stroke: #bf00bf"/>
     <use xlink:href="#m8ae82fcb93" x="248.013223" y="74.03022" style="fill: #bf00bf; stroke: #bf00bf"/>
     <use xlink:href="#m8ae82fcb93" x="307.041322" y="73.608461" style="fill: #bf00bf; stroke: #bf00bf"/>
     <use xlink:href="#m8ae82fcb93" x="366.069421" y="73.327053" style="fill: #bf00bf; stroke: #bf00bf"/>
     <use xlink:href="#m8ae82fcb93" x="425.097521" y="73.767624" style="fill: #bf00bf; stroke: #bf00bf"/>
    </g>
   </g>
   <g id="line2d_21">
    <g clip-path="url(#pde3b454681)">
     <use xlink:href="#m8ae82fcb93" x="129.957025" y="68.475148" style="fill: #bf00bf; stroke: #bf00bf"/>
     <use xlink:href="#m8ae82fcb93" x="188.985124" y="67.7412" style="fill: #bf00bf; stroke: #bf00bf"/>
     <use xlink:href="#m8ae82fcb93" x="248.013223" y="67.96076" style="fill: #bf00bf; stroke: #bf00bf"/>
     <use xlink:href="#m8ae82fcb93" x="307.041322" y="68.334509" style="fill: #bf00bf; stroke: #bf00bf"/>
     <use xlink:href="#m8ae82fcb93" x="366.069421" y="68.246101" style="fill: #bf00bf; stroke: #bf00bf"/>
     <use xlink:href="#m8ae82fcb93" x="425.097521" y="68.318538" style="fill: #bf00bf; stroke: #bf00bf"/>
    </g>
   </g>
   <g id="line2d_22">
    <path d="M 129.957025 373.622836 
L 188.985124 307.699901 
L 248.013223 246.371902 
L 307.041322 186.73242 
L 366.069421 128.501523 
L 425.097521 71.047783 
" clip-path="url(#pde3b454681)" style="fill: none; stroke: #ff0000; stroke-linecap: square"/>
   </g>
   <g id="line2d_23">
    <path d="M 129.957025 367.139919 
L 188.985124 263.925851 
L 248.013223 202.189956 
L 307.041322 153.012948 
L 366.069421 110.54644 
L 425.097521 71.138016 
" clip-path="url(#pde3b454681)" style="fill: none; stroke: #008000; stroke-linecap: square"/>
   </g>
   <g id="line2d_24">
    <path d="M 129.957025 205.392012 
L 188.985124 154.656125 
L 248.013223 124.337822 
L 307.041322 103.024027 
L 366.069421 86.127649 
L 425.097521 71.207571 
" clip-path="url(#pde3b454681)" style="fill: none; stroke: #0000ff; stroke-linecap: square"/>
   </g>
   <g id="line2d_25">
    <path d="M 129.957025 71.30536 
L 188.985124 71.191075 
L 248.013223 70.99549 
L 307.041322 70.971485 
L 366.069421 70.786577 
L 425.097521 71.043081 
" clip-path="url(#pde3b454681)" style="fill: none; stroke: #bf00bf; stroke-linecap: square"/>
   </g>
   <g id="patch_3">
    <path d="M 115.2 388.9656 
L 115.2 52.4448 
" style="fill: none; stroke: #000000; stroke-width: 0.8; stroke-linejoin: miter; stroke-linecap: square"/>
   </g>
   <g id="patch_4">
    <path d="M 439.854545 388.9656 
L 439.854545 52.4448 
" style="fill: none; stroke: #000000; stroke-width: 0.8; stroke-linejoin: miter; stroke-linecap: square"/>
   </g>
   <g id="patch_5">
    <path d="M 115.2 388.9656 
L 439.854545 388.9656 
" style="fill: none; stroke: #000000; stroke-width: 0.8; stroke-linejoin: miter; stroke-linecap: square"/>
   </g>
   <g id="patch_6">
    <path d="M 115.2 52.4448 
L 439.854545 52.4448 
" style="fill: none; stroke: #000000; stroke-width: 0.8; stroke-linejoin: miter; stroke-linecap: square"/>
   </g>
   <g id="text_13">
    <!-- lambda -->
    <g transform="translate(255.044148 46.4448)scale(0.12 -0.12)">
     <defs>
      <path id="DejaVuSans-6c" d="M 603 4863 
L 1178 4863 
L 1178 0 
L 603 0 
L 603 4863 
z
" transform="scale(0.015625)"/>
      <path id="DejaVuSans-61" d="M 2194 1759 
Q 1497 1759 1228 1600 
Q 959 1441 959 1056 
Q 959 750 1161 570 
Q 1363 391 1709 391 
Q 2188 391 2477 730 
Q 2766 1069 2766 1631 
L 2766 1759 
L 2194 1759 
z
M 3341 1997 
L 3341 0 
L 2766 0 
L 2766 531 
Q 2569 213 2275 61 
Q 1981 -91 1556 -91 
Q 1019 -91 701 211 
Q 384 513 384 1019 
Q 384 1609 779 1909 
Q 1175 2209 1959 2209 
L 2766 2209 
L 2766 2266 
Q 2766 2663 2505 2880 
Q 2244 3097 1772 3097 
Q 1472 3097 1187 3025 
Q 903 2953 641 2809 
L 641 3341 
Q 956 3463 1253 3523 
Q 1550 3584 1831 3584 
Q 2591 3584 2966 3190 
Q 3341 2797 3341 1997 
z
" transform="scale(0.015625)"/>
      <path id="DejaVuSans-6d" d="M 3328 2828 
Q 3544 3216 3844 3400 
Q 4144 3584 4550 3584 
Q 5097 3584 5394 3201 
Q 5691 2819 5691 2113 
L 5691 0 
L 5113 0 
L 5113 2094 
Q 5113 2597 4934 2840 
Q 4756 3084 4391 3084 
Q 3944 3084 3684 2787 
Q 3425 2491 3425 1978 
L 3425 0 
L 2847 0 
L 2847 2094 
Q 2847 2600 2669 2842 
Q 2491 3084 2119 3084 
Q 1678 3084 1418 2786 
Q 1159 2488 1159 1978 
L 1159 0 
L 581 0 
L 581 3500 
L 1159 3500 
L 1159 2956 
Q 1356 3278 1631 3431 
Q 1906 3584 2284 3584 
Q 2666 3584 2933 3390 
Q 3200 3197 3328 2828 
z
" transform="scale(0.015625)"/>
      <path id="DejaVuSans-62" d="M 3116 1747 
Q 3116 2381 2855 2742 
Q 2594 3103 2138 3103 
Q 1681 3103 1420 2742 
Q 1159 2381 1159 1747 
Q 1159 1113 1420 752 
Q 1681 391 2138 391 
Q 2594 391 2855 752 
Q 3116 1113 3116 1747 
z
M 1159 2969 
Q 1341 3281 1617 3432 
Q 1894 3584 2278 3584 
Q 2916 3584 3314 3078 
Q 3713 2572 3713 1747 
Q 3713 922 3314 415 
Q 2916 -91 2278 -91 
Q 1894 -91 1617 61 
Q 1341 213 1159 525 
L 1159 0 
L 581 0 
L 581 4863 
L 1159 4863 
L 1159 2969 
z
" transform="scale(0.015625)"/>
      <path id="DejaVuSans-64" d="M 2906 2969 
L 2906 4863 
L 3481 4863 
L 3481 0 
L 2906 0 
L 2906 525 
Q 2725 213 2448 61 
Q 2172 -91 1784 -91 
Q 1150 -91 751 415 
Q 353 922 353 1747 
Q 353 2572 751 3078 
Q 1150 3584 1784 3584 
Q 2172 3584 2448 3432 
Q 2725 3281 2906 2969 
z
M 947 1747 
Q 947 1113 1208 752 
Q 1469 391 1925 391 
Q 2381 391 2643 752 
Q 2906 1113 2906 1747 
Q 2906 2381 2643 2742 
Q 2381 3103 1925 3103 
Q 1469 3103 1208 2742 
Q 947 2381 947 1747 
z
" transform="scale(0.015625)"/>
     </defs>
     <use xlink:href="#DejaVuSans-6c"/>
     <use xlink:href="#DejaVuSans-61" x="27.783203"/>
     <use xlink:href="#DejaVuSans-6d" x="89.0625"/>
     <use xlink:href="#DejaVuSans-62" x="186.474609"/>
     <use xlink:href="#DejaVuSans-64" x="249.951172"/>
     <use xlink:href="#DejaVuSans-61" x="313.427734"/>
    </g>
   </g>
   <g id="legend_1">
    <g id="patch_7">
     <path d="M 384.95142 383.9656 
L 432.854545 383.9656 
Q 434.854545 383.9656 434.854545 381.9656 
L 434.854545 324.2531 
Q 434.854545 322.2531 432.854545 322.2531 
L 384.95142 322.2531 
Q 382.95142 322.2531 382.95142 324.2531 
L 382.95142 381.9656 
Q 382.95142 383.9656 384.95142 383.9656 
z
" style="fill: #ffffff; opacity: 0.8; stroke: #cccccc; stroke-linejoin: miter"/>
    </g>
    <g id="line2d_26">
     <path d="M 386.95142 330.351538 
L 396.95142 330.351538 
L 406.95142 330.351538 
" style="fill: none; stroke: #ff0000; stroke-linecap: square"/>
    </g>
    <g id="text_14">
     <!-- 0.1 -->
     <g transform="translate(414.95142 333.851538)scale(0.1 -0.1)">
      <use xlink:href="#DejaVuSans-30"/>
      <use xlink:href="#DejaVuSans-2e" x="63.623047"/>
      <use xlink:href="#DejaVuSans-31" x="95.410156"/>
     </g>
    </g>
    <g id="line2d_27">
     <path d="M 386.95142 345.029663 
L 396.95142 345.029663 
L 406.95142 345.029663 
" style="fill: none; stroke: #008000; stroke-linecap: square"/>
    </g>
    <g id="text_15">
     <!-- 1 -->
     <g transform="translate(414.95142 348.529663)scale(0.1 -0.1)">
      <use xlink:href="#DejaVuSans-31"/>
     </g>
    </g>
    <g id="line2d_28">
     <path d="M 386.95142 359.707787 
L 396.95142 359.707787 
L 406.95142 359.707787 
" style="fill: none; stroke: #0000ff; stroke-linecap: square"/>
    </g>
    <g id="text_16">
     <!-- 10 -->
     <g transform="translate(414.95142 363.207787)scale(0.1 -0.1)">
      <use xlink:href="#DejaVuSans-31"/>
      <use xlink:href="#DejaVuSans-30" x="63.623047"/>
     </g>
    </g>
    <g id="line2d_29">
     <path d="M 386.95142 374.385913 
L 396.95142 374.385913 
L 406.95142 374.385913 
" style="fill: none; stroke: #bf00bf; stroke-linecap: square"/>
    </g>
    <g id="text_17">
     <!-- inf -->
     <g transform="translate(414.95142 377.885913)scale(0.1 -0.1)">
      <defs>
       <path id="DejaVuSans-69" d="M 603 3500 
L 1178 3500 
L 1178 0 
L 603 0 
L 603 3500 
z
M 603 4863 
L 1178 4863 
L 1178 4134 
L 603 4134 
L 603 4863 
z
" transform="scale(0.015625)"/>
       <path id="DejaVuSans-6e" d="M 3513 2113 
L 3513 0 
L 2938 0 
L 2938 2094 
Q 2938 2591 2744 2837 
Q 2550 3084 2163 3084 
Q 1697 3084 1428 2787 
Q 1159 2491 1159 1978 
L 1159 0 
L 581 0 
L 581 3500 
L 1159 3500 
L 1159 2956 
Q 1366 3272 1645 3428 
Q 1925 3584 2291 3584 
Q 2894 3584 3203 3211 
Q 3513 2838 3513 2113 
z
" transform="scale(0.015625)"/>
       <path id="DejaVuSans-66" d="M 2375 4863 
L 2375 4384 
L 1825 4384 
Q 1516 4384 1395 4259 
Q 1275 4134 1275 3809 
L 1275 3500 
L 2222 3500 
L 2222 3053 
L 1275 3053 
L 1275 0 
L 697 0 
L 697 3053 
L 147 3053 
L 147 3500 
L 697 3500 
L 697 3744 
Q 697 4328 969 4595 
Q 1241 4863 1831 4863 
L 2375 4863 
z
" transform="scale(0.015625)"/>
      </defs>
      <use xlink:href="#DejaVuSans-69"/>
      <use xlink:href="#DejaVuSans-6e" x="27.783203"/>
      <use xlink:href="#DejaVuSans-66" x="91.162109"/>
     </g>
    </g>
   </g>
  </g>
  <g id="axes_2">
   <g id="patch_8">
    <path d="M 504.785455 388.9656 
L 829.44 388.9656 
L 829.44 52.4448 
L 504.785455 52.4448 
z
" style="fill: #ffffff"/>
   </g>
   <g id="matplotlib.axis_3">
    <g id="xtick_7">
     <g id="line2d_30">
      <g>
       <use xlink:href="#m7bbf20a7ae" x="519.542479" y="388.9656" style="stroke: #000000; stroke-width: 0.8"/>
      </g>
     </g>
     <g id="text_18">
      <!-- 0.0 -->
      <g transform="translate(511.590917 403.564038)scale(0.1 -0.1)">
       <use xlink:href="#DejaVuSans-30"/>
       <use xlink:href="#DejaVuSans-2e" x="63.623047"/>
       <use xlink:href="#DejaVuSans-30" x="95.410156"/>
      </g>
     </g>
    </g>
    <g id="xtick_8">
     <g id="line2d_31">
      <g>
       <use xlink:href="#m7bbf20a7ae" x="578.570579" y="388.9656" style="stroke: #000000; stroke-width: 0.8"/>
      </g>
     </g>
     <g id="text_19">
      <!-- 0.1 -->
      <g transform="translate(570.619016 403.564038)scale(0.1 -0.1)">
       <use xlink:href="#DejaVuSans-30"/>
       <use xlink:href="#DejaVuSans-2e" x="63.623047"/>
       <use xlink:href="#DejaVuSans-31" x="95.410156"/>
      </g>
     </g>
    </g>
    <g id="xtick_9">
     <g id="line2d_32">
      <g>
       <use xlink:href="#m7bbf20a7ae" x="637.598678" y="388.9656" style="stroke: #000000; stroke-width: 0.8"/>
      </g>
     </g>
     <g id="text_20">
      <!-- 0.2 -->
      <g transform="translate(629.647115 403.564038)scale(0.1 -0.1)">
       <use xlink:href="#DejaVuSans-30"/>
       <use xlink:href="#DejaVuSans-2e" x="63.623047"/>
       <use xlink:href="#DejaVuSans-32" x="95.410156"/>
      </g>
     </g>
    </g>
    <g id="xtick_10">
     <g id="line2d_33">
      <g>
       <use xlink:href="#m7bbf20a7ae" x="696.626777" y="388.9656" style="stroke: #000000; stroke-width: 0.8"/>
      </g>
     </g>
     <g id="text_21">
      <!-- 0.3 -->
      <g transform="translate(688.675214 403.564038)scale(0.1 -0.1)">
       <use xlink:href="#DejaVuSans-30"/>
       <use xlink:href="#DejaVuSans-2e" x="63.623047"/>
       <use xlink:href="#DejaVuSans-33" x="95.410156"/>
      </g>
     </g>
    </g>
    <g id="xtick_11">
     <g id="line2d_34">
      <g>
       <use xlink:href="#m7bbf20a7ae" x="755.654876" y="388.9656" style="stroke: #000000; stroke-width: 0.8"/>
      </g>
     </g>
     <g id="text_22">
      <!-- 0.4 -->
      <g transform="translate(747.703314 403.564038)scale(0.1 -0.1)">
       <use xlink:href="#DejaVuSans-30"/>
       <use xlink:href="#DejaVuSans-2e" x="63.623047"/>
       <use xlink:href="#DejaVuSans-34" x="95.410156"/>
      </g>
     </g>
    </g>
    <g id="xtick_12">
     <g id="line2d_35">
      <g>
       <use xlink:href="#m7bbf20a7ae" x="814.682975" y="388.9656" style="stroke: #000000; stroke-width: 0.8"/>
      </g>
     </g>
     <g id="text_23">
      <!-- 0.5 -->
      <g transform="translate(806.731413 403.564038)scale(0.1 -0.1)">
       <use xlink:href="#DejaVuSans-30"/>
       <use xlink:href="#DejaVuSans-2e" x="63.623047"/>
       <use xlink:href="#DejaVuSans-35" x="95.410156"/>
      </g>
     </g>
    </g>
   </g>
   <g id="matplotlib.axis_4">
    <g id="ytick_7">
     <g id="line2d_36">
      <g>
       <use xlink:href="#m6514b92e42" x="504.785455" y="334.412145" style="stroke: #000000; stroke-width: 0.8"/>
      </g>
     </g>
     <g id="text_24">
      <!-- 1.0 -->
      <g transform="translate(481.88233 338.211364)scale(0.1 -0.1)">
       <use xlink:href="#DejaVuSans-31"/>
       <use xlink:href="#DejaVuSans-2e" x="63.623047"/>
       <use xlink:href="#DejaVuSans-30" x="95.410156"/>
      </g>
     </g>
    </g>
    <g id="ytick_8">
     <g id="line2d_37">
      <g>
       <use xlink:href="#m6514b92e42" x="504.785455" y="266.294556" style="stroke: #000000; stroke-width: 0.8"/>
      </g>
     </g>
     <g id="text_25">
      <!-- 1.5 -->
      <g transform="translate(481.88233 270.093775)scale(0.1 -0.1)">
       <use xlink:href="#DejaVuSans-31"/>
       <use xlink:href="#DejaVuSans-2e" x="63.623047"/>
       <use xlink:href="#DejaVuSans-35" x="95.410156"/>
      </g>
     </g>
    </g>
    <g id="ytick_9">
     <g id="line2d_38">
      <g>
       <use xlink:href="#m6514b92e42" x="504.785455" y="198.176967" style="stroke: #000000; stroke-width: 0.8"/>
      </g>
     </g>
     <g id="text_26">
      <!-- 2.0 -->
      <g transform="translate(481.88233 201.976186)scale(0.1 -0.1)">
       <use xlink:href="#DejaVuSans-32"/>
       <use xlink:href="#DejaVuSans-2e" x="63.623047"/>
       <use xlink:href="#DejaVuSans-30" x="95.410156"/>
      </g>
     </g>
    </g>
    <g id="ytick_10">
     <g id="line2d_39">
      <g>
       <use xlink:href="#m6514b92e42" x="504.785455" y="130.059378" style="stroke: #000000; stroke-width: 0.8"/>
      </g>
     </g>
     <g id="text_27">
      <!-- 2.5 -->
      <g transform="translate(481.88233 133.858597)scale(0.1 -0.1)">
       <use xlink:href="#DejaVuSans-32"/>
       <use xlink:href="#DejaVuSans-2e" x="63.623047"/>
       <use xlink:href="#DejaVuSans-35" x="95.410156"/>
      </g>
     </g>
    </g>
    <g id="ytick_11">
     <g id="line2d_40">
      <g>
       <use xlink:href="#m6514b92e42" x="504.785455" y="61.941789" style="stroke: #000000; stroke-width: 0.8"/>
      </g>
     </g>
     <g id="text_28">
      <!-- 3.0 -->
      <g transform="translate(481.88233 65.741008)scale(0.1 -0.1)">
       <use xlink:href="#DejaVuSans-33"/>
       <use xlink:href="#DejaVuSans-2e" x="63.623047"/>
       <use xlink:href="#DejaVuSans-30" x="95.410156"/>
      </g>
     </g>
    </g>
   </g>
   <g id="line2d_41">
    <path d="M 504.785455 334.412145 
L 829.44 334.412145 
" clip-path="url(#p910fdd57c6)" style="fill: none; stroke-dasharray: 3.7,1.6; stroke-dashoffset: 0; stroke: #000000"/>
   </g>
   <g id="LineCollection_5">
    <path d="M 519.542479 342.000554 
L 519.542479 341.214287 
" clip-path="url(#p910fdd57c6)" style="fill: none; stroke: #ff0000"/>
    <path d="M 578.570579 340.160628 
L 578.570579 339.266655 
" clip-path="url(#p910fdd57c6)" style="fill: none; stroke: #ff0000"/>
    <path d="M 637.598678 338.500888 
L 637.598678 337.444275 
" clip-path="url(#p910fdd57c6)" style="fill: none; stroke: #ff0000"/>
    <path d="M 696.626777 337.051606 
L 696.626777 336.047309 
" clip-path="url(#p910fdd57c6)" style="fill: none; stroke: #ff0000"/>
    <path d="M 755.654876 335.660575 
L 755.654876 334.858048 
" clip-path="url(#p910fdd57c6)" style="fill: none; stroke: #ff0000"/>
    <path d="M 814.682975 335.367526 
L 814.682975 334.576029 
" clip-path="url(#p910fdd57c6)" style="fill: none; stroke: #ff0000"/>
   </g>
   <g id="line2d_42">
    <g clip-path="url(#p910fdd57c6)">
     <use xlink:href="#me5f03cef51" x="519.542479" y="342.000554" style="fill: #ff0000; stroke: #ff0000"/>
     <use xlink:href="#me5f03cef51" x="578.570579" y="340.160628" style="fill: #ff0000; stroke: #ff0000"/>
     <use xlink:href="#me5f03cef51" x="637.598678" y="338.500888" style="fill: #ff0000; stroke: #ff0000"/>
     <use xlink:href="#me5f03cef51" x="696.626777" y="337.051606" style="fill: #ff0000; stroke: #ff0000"/>
     <use xlink:href="#me5f03cef51" x="755.654876" y="335.660575" style="fill: #ff0000; stroke: #ff0000"/>
     <use xlink:href="#me5f03cef51" x="814.682975" y="335.367526" style="fill: #ff0000; stroke: #ff0000"/>
    </g>
   </g>
   <g id="line2d_43">
    <g clip-path="url(#p910fdd57c6)">
     <use xlink:href="#me5f03cef51" x="519.542479" y="341.214287" style="fill: #ff0000; stroke: #ff0000"/>
     <use xlink:href="#me5f03cef51" x="578.570579" y="339.266655" style="fill: #ff0000; stroke: #ff0000"/>
     <use xlink:href="#me5f03cef51" x="637.598678" y="337.444275" style="fill: #ff0000; stroke: #ff0000"/>
     <use xlink:href="#me5f03cef51" x="696.626777" y="336.047309" style="fill: #ff0000; stroke: #ff0000"/>
     <use xlink:href="#me5f03cef51" x="755.654876" y="334.858048" style="fill: #ff0000; stroke: #ff0000"/>
     <use xlink:href="#me5f03cef51" x="814.682975" y="334.576029" style="fill: #ff0000; stroke: #ff0000"/>
    </g>
   </g>
   <g id="LineCollection_6">
    <path d="M 519.542479 373.6692 
L 519.542479 372.236785 
" clip-path="url(#p910fdd57c6)" style="fill: none; stroke: #008000"/>
    <path d="M 578.570579 353.12813 
L 578.570579 351.485685 
" clip-path="url(#p910fdd57c6)" style="fill: none; stroke: #008000"/>
    <path d="M 637.598678 342.358692 
L 637.598678 340.391175 
" clip-path="url(#p910fdd57c6)" style="fill: none; stroke: #008000"/>
    <path d="M 696.626777 332.814081 
L 696.626777 330.591999 
" clip-path="url(#p910fdd57c6)" style="fill: none; stroke: #008000"/>
    <path d="M 755.654876 325.570372 
L 755.654876 323.791033 
" clip-path="url(#p910fdd57c6)" style="fill: none; stroke: #008000"/>
    <path d="M 814.682975 322.876425 
L 814.682975 320.85659 
" clip-path="url(#p910fdd57c6)" style="fill: none; stroke: #008000"/>
   </g>
   <g id="line2d_44">
    <g clip-path="url(#p910fdd57c6)">
     <use xlink:href="#me3529786f4" x="519.542479" y="373.6692" style="fill: #008000; stroke: #008000"/>
     <use xlink:href="#me3529786f4" x="578.570579" y="353.12813" style="fill: #008000; stroke: #008000"/>
     <use xlink:href="#me3529786f4" x="637.598678" y="342.358692" style="fill: #008000; stroke: #008000"/>
     <use xlink:href="#me3529786f4" x="696.626777" y="332.814081" style="fill: #008000; stroke: #008000"/>
     <use xlink:href="#me3529786f4" x="755.654876" y="325.570372" style="fill: #008000; stroke: #008000"/>
     <use xlink:href="#me3529786f4" x="814.682975" y="322.876425" style="fill: #008000; stroke: #008000"/>
    </g>
   </g>
   <g id="line2d_45">
    <g clip-path="url(#p910fdd57c6)">
     <use xlink:href="#me3529786f4" x="519.542479" y="372.236785" style="fill: #008000; stroke: #008000"/>
     <use xlink:href="#me3529786f4" x="578.570579" y="351.485685" style="fill: #008000; stroke: #008000"/>
     <use xlink:href="#me3529786f4" x="637.598678" y="340.391175" style="fill: #008000; stroke: #008000"/>
     <use xlink:href="#me3529786f4" x="696.626777" y="330.591999" style="fill: #008000; stroke: #008000"/>
     <use xlink:href="#me3529786f4" x="755.654876" y="323.791033" style="fill: #008000; stroke: #008000"/>
     <use xlink:href="#me3529786f4" x="814.682975" y="320.85659" style="fill: #008000; stroke: #008000"/>
    </g>
   </g>
   <g id="LineCollection_7">
    <path d="M 519.542479 346.969825 
L 519.542479 343.793528 
" clip-path="url(#p910fdd57c6)" style="fill: none; stroke: #0000ff"/>
    <path d="M 578.570579 334.235911 
L 578.570579 330.488907 
" clip-path="url(#p910fdd57c6)" style="fill: none; stroke: #0000ff"/>
    <path d="M 637.598678 308.556314 
L 637.598678 304.254798 
" clip-path="url(#p910fdd57c6)" style="fill: none; stroke: #0000ff"/>
    <path d="M 696.626777 283.705001 
L 696.626777 278.89494 
" clip-path="url(#p910fdd57c6)" style="fill: none; stroke: #0000ff"/>
    <path d="M 755.654876 265.90452 
L 755.654876 260.121998 
" clip-path="url(#p910fdd57c6)" style="fill: none; stroke: #0000ff"/>
    <path d="M 814.682975 259.1169 
L 814.682975 253.569538 
" clip-path="url(#p910fdd57c6)" style="fill: none; stroke: #0000ff"/>
   </g>
   <g id="line2d_46">
    <g clip-path="url(#p910fdd57c6)">
     <use xlink:href="#m0d78932ae5" x="519.542479" y="346.969825" style="fill: #0000ff; stroke: #0000ff"/>
     <use xlink:href="#m0d78932ae5" x="578.570579" y="334.235911" style="fill: #0000ff; stroke: #0000ff"/>
     <use xlink:href="#m0d78932ae5" x="637.598678" y="308.556314" style="fill: #0000ff; stroke: #0000ff"/>
     <use xlink:href="#m0d78932ae5" x="696.626777" y="283.705001" style="fill: #0000ff; stroke: #0000ff"/>
     <use xlink:href="#m0d78932ae5" x="755.654876" y="265.90452" style="fill: #0000ff; stroke: #0000ff"/>
     <use xlink:href="#m0d78932ae5" x="814.682975" y="259.1169" style="fill: #0000ff; stroke: #0000ff"/>
    </g>
   </g>
   <g id="line2d_47">
    <g clip-path="url(#p910fdd57c6)">
     <use xlink:href="#m0d78932ae5" x="519.542479" y="343.793528" style="fill: #0000ff; stroke: #0000ff"/>
     <use xlink:href="#m0d78932ae5" x="578.570579" y="330.488907" style="fill: #0000ff; stroke: #0000ff"/>
     <use xlink:href="#m0d78932ae5" x="637.598678" y="304.254798" style="fill: #0000ff; stroke: #0000ff"/>
     <use xlink:href="#m0d78932ae5" x="696.626777" y="278.89494" style="fill: #0000ff; stroke: #0000ff"/>
     <use xlink:href="#m0d78932ae5" x="755.654876" y="260.121998" style="fill: #0000ff; stroke: #0000ff"/>
     <use xlink:href="#m0d78932ae5" x="814.682975" y="253.569538" style="fill: #0000ff; stroke: #0000ff"/>
    </g>
   </g>
   <g id="LineCollection_8">
    <path d="M 519.542479 304.693527 
L 519.542479 296.800712 
" clip-path="url(#p910fdd57c6)" style="fill: none; stroke: #bf00bf"/>
    <path d="M 578.570579 277.340556 
L 578.570579 268.711915 
" clip-path="url(#p910fdd57c6)" style="fill: none; stroke: #bf00bf"/>
    <path d="M 637.598678 224.63771 
L 637.598678 208.898731 
" clip-path="url(#p910fdd57c6)" style="fill: none; stroke: #bf00bf"/>
    <path d="M 696.626777 161.82979 
L 696.626777 142.209928 
" clip-path="url(#p910fdd57c6)" style="fill: none; stroke: #bf00bf"/>
    <path d="M 755.654876 115.074137 
L 755.654876 90.358449 
" clip-path="url(#p910fdd57c6)" style="fill: none; stroke: #bf00bf"/>
    <path d="M 814.682975 95.876388 
L 814.682975 67.7412 
" clip-path="url(#p910fdd57c6)" style="fill: none; stroke: #bf00bf"/>
   </g>
   <g id="line2d_48">
    <g clip-path="url(#p910fdd57c6)">
     <use xlink:href="#m8ae82fcb93" x="519.542479" y="304.693527" style="fill: #bf00bf; stroke: #bf00bf"/>
     <use xlink:href="#m8ae82fcb93" x="578.570579" y="277.340556" style="fill: #bf00bf; stroke: #bf00bf"/>
     <use xlink:href="#m8ae82fcb93" x="637.598678" y="224.63771" style="fill: #bf00bf; stroke: #bf00bf"/>
     <use xlink:href="#m8ae82fcb93" x="696.626777" y="161.82979" style="fill: #bf00bf; stroke: #bf00bf"/>
     <use xlink:href="#m8ae82fcb93" x="755.654876" y="115.074137" style="fill: #bf00bf; stroke: #bf00bf"/>
     <use xlink:href="#m8ae82fcb93" x="814.682975" y="95.876388" style="fill: #bf00bf; stroke: #bf00bf"/>
    </g>
   </g>
   <g id="line2d_49">
    <g clip-path="url(#p910fdd57c6)">
     <use xlink:href="#m8ae82fcb93" x="519.542479" y="296.800712" style="fill: #bf00bf; stroke: #bf00bf"/>
     <use xlink:href="#m8ae82fcb93" x="578.570579" y="268.711915" style="fill: #bf00bf; stroke: #bf00bf"/>
     <use xlink:href="#m8ae82fcb93" x="637.598678" y="208.898731" style="fill: #bf00bf; stroke: #bf00bf"/>
     <use xlink:href="#m8ae82fcb93" x="696.626777" y="142.209928" style="fill: #bf00bf; stroke: #bf00bf"/>
     <use xlink:href="#m8ae82fcb93" x="755.654876" y="90.358449" style="fill: #bf00bf; stroke: #bf00bf"/>
     <use xlink:href="#m8ae82fcb93" x="814.682975" y="67.7412" style="fill: #bf00bf; stroke: #bf00bf"/>
    </g>
   </g>
   <g id="line2d_50">
    <path d="M 519.542479 341.60742 
L 578.570579 339.713642 
L 637.598678 337.972582 
L 696.626777 336.549457 
L 755.654876 335.259312 
L 814.682975 334.971778 
" clip-path="url(#p910fdd57c6)" style="fill: none; stroke: #ff0000; stroke-linecap: square"/>
   </g>
   <g id="line2d_51">
    <path d="M 519.542479 372.952992 
L 578.570579 352.306908 
L 637.598678 341.374933 
L 696.626777 331.70304 
L 755.654876 324.680703 
L 814.682975 321.866507 
" clip-path="url(#p910fdd57c6)" style="fill: none; stroke: #008000; stroke-linecap: square"/>
   </g>
   <g id="line2d_52">
    <path d="M 519.542479 345.381677 
L 578.570579 332.362409 
L 637.598678 306.405556 
L 696.626777 281.299971 
L 755.654876 263.013259 
L 814.682975 256.343219 
" clip-path="url(#p910fdd57c6)" style="fill: none; stroke: #0000ff; stroke-linecap: square"/>
   </g>
   <g id="line2d_53">
    <path d="M 519.542479 300.747119 
L 578.570579 273.026235 
L 637.598678 216.76822 
L 696.626777 152.019859 
L 755.654876 102.716293 
L 814.682975 81.808794 
" clip-path="url(#p910fdd57c6)" style="fill: none; stroke: #bf00bf; stroke-linecap: square"/>
   </g>
   <g id="patch_9">
    <path d="M 504.785455 388.9656 
L 504.785455 52.4448 
" style="fill: none; stroke: #000000; stroke-width: 0.8; stroke-linejoin: miter; stroke-linecap: square"/>
   </g>
   <g id="patch_10">
    <path d="M 829.44 388.9656 
L 829.44 52.4448 
" style="fill: none; stroke: #000000; stroke-width: 0.8; stroke-linejoin: miter; stroke-linecap: square"/>
   </g>
   <g id="patch_11">
    <path d="M 504.785455 388.9656 
L 829.44 388.9656 
" style="fill: none; stroke: #000000; stroke-width: 0.8; stroke-linejoin: miter; stroke-linecap: square"/>
   </g>
   <g id="patch_12">
    <path d="M 504.785455 52.4448 
L 829.44 52.4448 
" style="fill: none; stroke: #000000; stroke-width: 0.8; stroke-linejoin: miter; stroke-linecap: square"/>
   </g>
   <g id="text_29">
    <!-- tau_d -->
    <g transform="translate(650.472102 46.4448)scale(0.12 -0.12)">
     <defs>
      <path id="DejaVuSans-74" d="M 1172 4494 
L 1172 3500 
L 2356 3500 
L 2356 3053 
L 1172 3053 
L 1172 1153 
Q 1172 725 1289 603 
Q 1406 481 1766 481 
L 2356 481 
L 2356 0 
L 1766 0 
Q 1100 0 847 248 
Q 594 497 594 1153 
L 594 3053 
L 172 3053 
L 172 3500 
L 594 3500 
L 594 4494 
L 1172 4494 
z
" transform="scale(0.015625)"/>
      <path id="DejaVuSans-75" d="M 544 1381 
L 544 3500 
L 1119 3500 
L 1119 1403 
Q 1119 906 1312 657 
Q 1506 409 1894 409 
Q 2359 409 2629 706 
Q 2900 1003 2900 1516 
L 2900 3500 
L 3475 3500 
L 3475 0 
L 2900 0 
L 2900 538 
Q 2691 219 2414 64 
Q 2138 -91 1772 -91 
Q 1169 -91 856 284 
Q 544 659 544 1381 
z
M 1991 3584 
L 1991 3584 
z
" transform="scale(0.015625)"/>
      <path id="DejaVuSans-5f" d="M 3263 -1063 
L 3263 -1509 
L -63 -1509 
L -63 -1063 
L 3263 -1063 
z
" transform="scale(0.015625)"/>
     </defs>
     <use xlink:href="#DejaVuSans-74"/>
     <use xlink:href="#DejaVuSans-61" x="39.208984"/>
     <use xlink:href="#DejaVuSans-75" x="100.488281"/>
     <use xlink:href="#DejaVuSans-5f" x="163.867188"/>
     <use xlink:href="#DejaVuSans-64" x="213.867188"/>
    </g>
   </g>
  </g>
  <g id="text_30">
   <!-- Mean pulse parameter estimates -->
   <g transform="translate(361.431563 17.858925)scale(0.12 -0.12)">
    <defs>
     <path id="DejaVuSans-4d" d="M 628 4666 
L 1569 4666 
L 2759 1491 
L 3956 4666 
L 4897 4666 
L 4897 0 
L 4281 0 
L 4281 4097 
L 3078 897 
L 2444 897 
L 1241 4097 
L 1241 0 
L 628 0 
L 628 4666 
z
" transform="scale(0.015625)"/>
     <path id="DejaVuSans-65" d="M 3597 1894 
L 3597 1613 
L 953 1613 
Q 991 1019 1311 708 
Q 1631 397 2203 397 
Q 2534 397 2845 478 
Q 3156 559 3463 722 
L 3463 178 
Q 3153 47 2828 -22 
Q 2503 -91 2169 -91 
Q 1331 -91 842 396 
Q 353 884 353 1716 
Q 353 2575 817 3079 
Q 1281 3584 2069 3584 
Q 2775 3584 3186 3129 
Q 3597 2675 3597 1894 
z
M 3022 2063 
Q 3016 2534 2758 2815 
Q 2500 3097 2075 3097 
Q 1594 3097 1305 2825 
Q 1016 2553 972 2059 
L 3022 2063 
z
" transform="scale(0.015625)"/>
     <path id="DejaVuSans-20" transform="scale(0.015625)"/>
     <path id="DejaVuSans-70" d="M 1159 525 
L 1159 -1331 
L 581 -1331 
L 581 3500 
L 1159 3500 
L 1159 2969 
Q 1341 3281 1617 3432 
Q 1894 3584 2278 3584 
Q 2916 3584 3314 3078 
Q 3713 2572 3713 1747 
Q 3713 922 3314 415 
Q 2916 -91 2278 -91 
Q 1894 -91 1617 61 
Q 1341 213 1159 525 
z
M 3116 1747 
Q 3116 2381 2855 2742 
Q 2594 3103 2138 3103 
Q 1681 3103 1420 2742 
Q 1159 2381 1159 1747 
Q 1159 1113 1420 752 
Q 1681 391 2138 391 
Q 2594 391 2855 752 
Q 3116 1113 3116 1747 
z
" transform="scale(0.015625)"/>
     <path id="DejaVuSans-73" d="M 2834 3397 
L 2834 2853 
Q 2591 2978 2328 3040 
Q 2066 3103 1784 3103 
Q 1356 3103 1142 2972 
Q 928 2841 928 2578 
Q 928 2378 1081 2264 
Q 1234 2150 1697 2047 
L 1894 2003 
Q 2506 1872 2764 1633 
Q 3022 1394 3022 966 
Q 3022 478 2636 193 
Q 2250 -91 1575 -91 
Q 1294 -91 989 -36 
Q 684 19 347 128 
L 347 722 
Q 666 556 975 473 
Q 1284 391 1588 391 
Q 1994 391 2212 530 
Q 2431 669 2431 922 
Q 2431 1156 2273 1281 
Q 2116 1406 1581 1522 
L 1381 1569 
Q 847 1681 609 1914 
Q 372 2147 372 2553 
Q 372 3047 722 3315 
Q 1072 3584 1716 3584 
Q 2034 3584 2315 3537 
Q 2597 3491 2834 3397 
z
" transform="scale(0.015625)"/>
     <path id="DejaVuSans-72" d="M 2631 2963 
Q 2534 3019 2420 3045 
Q 2306 3072 2169 3072 
Q 1681 3072 1420 2755 
Q 1159 2438 1159 1844 
L 1159 0 
L 581 0 
L 581 3500 
L 1159 3500 
L 1159 2956 
Q 1341 3275 1631 3429 
Q 1922 3584 2338 3584 
Q 2397 3584 2469 3576 
Q 2541 3569 2628 3553 
L 2631 2963 
z
" transform="scale(0.015625)"/>
    </defs>
    <use xlink:href="#DejaVuSans-4d"/>
    <use xlink:href="#DejaVuSans-65" x="86.279297"/>
    <use xlink:href="#DejaVuSans-61" x="147.802734"/>
    <use xlink:href="#DejaVuSans-6e" x="209.082031"/>
    <use xlink:href="#DejaVuSans-20" x="272.460938"/>
    <use xlink:href="#DejaVuSans-70" x="304.248047"/>
    <use xlink:href="#DejaVuSans-75" x="367.724609"/>
    <use xlink:href="#DejaVuSans-6c" x="431.103516"/>
    <use xlink:href="#DejaVuSans-73" x="458.886719"/>
    <use xlink:href="#DejaVuSans-65" x="510.986328"/>
    <use xlink:href="#DejaVuSans-20" x="572.509766"/>
    <use xlink:href="#DejaVuSans-70" x="604.296875"/>
    <use xlink:href="#DejaVuSans-61" x="667.773438"/>
    <use xlink:href="#DejaVuSans-72" x="729.052734"/>
    <use xlink:href="#DejaVuSans-61" x="770.166016"/>
    <use xlink:href="#DejaVuSans-6d" x="831.445312"/>
    <use xlink:href="#DejaVuSans-65" x="928.857422"/>
    <use xlink:href="#DejaVuSans-74" x="990.380859"/>
    <use xlink:href="#DejaVuSans-65" x="1029.589844"/>
    <use xlink:href="#DejaVuSans-72" x="1091.113281"/>
    <use xlink:href="#DejaVuSans-20" x="1132.226562"/>
    <use xlink:href="#DejaVuSans-65" x="1164.013672"/>
    <use xlink:href="#DejaVuSans-73" x="1225.537109"/>
    <use xlink:href="#DejaVuSans-74" x="1277.636719"/>
    <use xlink:href="#DejaVuSans-69" x="1316.845703"/>
    <use xlink:href="#DejaVuSans-6d" x="1344.628906"/>
    <use xlink:href="#DejaVuSans-61" x="1442.041016"/>
    <use xlink:href="#DejaVuSans-74" x="1503.320312"/>
    <use xlink:href="#DejaVuSans-65" x="1542.529297"/>
    <use xlink:href="#DejaVuSans-73" x="1604.052734"/>
   </g>
  </g>
 </g>
 <defs>
  <clipPath id="pde3b454681">
   <rect x="115.2" y="52.4448" width="324.654545" height="336.5208"/>
  </clipPath>
  <clipPath id="p910fdd57c6">
   <rect x="504.785455" y="52.4448" width="324.654545" height="336.5208"/>
  </clipPath>
 </defs>
</svg>
