<?xml version="1.0" encoding="utf-8" standalone="no"?>
<!DOCTYPE svg PUBLIC "-//W3C//DTD SVG 1.1//EN"
  "http://www.w3.org/Graphics/SVG/1.1/DTD/svg11.dtd">
<svg xmlns:xlink="http://www.w3.org/1999/xlink" width="921.6pt" height="437.04pt" viewBox="0 0 921.6 437.04" xmlns="http://www.w3.org/2000/svg" version="1.1">
 <metadata>
  <rdf:RDF xmlns:dc="http://purl.org/dc/elements/1.1/" xmlns:cc="http://creativecommons.org/ns#" xmlns:rdf="http://www.w3.org/1999/02/22-rdf-syntax-ns#">
   <cc:Work>
    <dc:type rdf:resource="http://purl.org/dc/dcmitype/StillImage"/>
    <dc:date>2022-08-11T18:49:43.181743</dc:date>
    <dc:format>image/svg+xml</dc:format>
    <dc:creator>
     <cc:Agent>
      <dc:title>Matplotlib v3.5.2, https://matplotlib.org/</dc:title>
     </cc:Agent>
    </dc:creator>
   </cc:Work>
  </rdf:RDF>
 </metadata>
 <defs>
  <style type="text/css">*{stroke-linejoin: round; stroke-linecap: butt}</style>
 </defs>
 <g id="figure_1">
  <g id="patch_1">
   <path d="M 0 437.04 
L 921.6 437.04 
L 921.6 0 
L 0 0 
z
" style="fill: #ffffff"/>
  </g>
  <g id="axes_1">
   <g id="patch_2">
    <path d="M 115.2 388.9656 
L 439.854545 388.9656 
L 439.854545 52.4448 
L 115.2 52.4448 
z
" style="fill: #ffffff"/>
   </g>
   <g id="matplotlib.axis_1">
    <g id="xtick_1">
     <g id="line2d_1">
      <defs>
       <path id="mc2c59f7b9f" d="M 0 0 
L 0 3.5 
" style="stroke: #000000; stroke-width: 0.8"/>
      </defs>
      <g>
       <use xlink:href="#mc2c59f7b9f" x="129.957025" y="388.9656" style="stroke: #000000; stroke-width: 0.8"/>
      </g>
     </g>
     <g id="text_1">
      <!-- −1.5 -->
      <g transform="translate(117.815619 403.564038)scale(0.1 -0.1)">
       <defs>
        <path id="DejaVuSans-2212" d="M 678 2272 
L 4684 2272 
L 4684 1741 
L 678 1741 
L 678 2272 
z
" transform="scale(0.015625)"/>
        <path id="DejaVuSans-31" d="M 794 531 
L 1825 531 
L 1825 4091 
L 703 3866 
L 703 4441 
L 1819 4666 
L 2450 4666 
L 2450 531 
L 3481 531 
L 3481 0 
L 794 0 
L 794 531 
z
" transform="scale(0.015625)"/>
        <path id="DejaVuSans-2e" d="M 684 794 
L 1344 794 
L 1344 0 
L 684 0 
L 684 794 
z
" transform="scale(0.015625)"/>
        <path id="DejaVuSans-35" d="M 691 4666 
L 3169 4666 
L 3169 4134 
L 1269 4134 
L 1269 2991 
Q 1406 3038 1543 3061 
Q 1681 3084 1819 3084 
Q 2600 3084 3056 2656 
Q 3513 2228 3513 1497 
Q 3513 744 3044 326 
Q 2575 -91 1722 -91 
Q 1428 -91 1123 -41 
Q 819 9 494 109 
L 494 744 
Q 775 591 1075 516 
Q 1375 441 1709 441 
Q 2250 441 2565 725 
Q 2881 1009 2881 1497 
Q 2881 1984 2565 2268 
Q 2250 2553 1709 2553 
Q 1456 2553 1204 2497 
Q 953 2441 691 2322 
L 691 4666 
z
" transform="scale(0.015625)"/>
       </defs>
       <use xlink:href="#DejaVuSans-2212"/>
       <use xlink:href="#DejaVuSans-31" x="83.789062"/>
       <use xlink:href="#DejaVuSans-2e" x="147.412109"/>
       <use xlink:href="#DejaVuSans-35" x="179.199219"/>
      </g>
     </g>
    </g>
    <g id="xtick_2">
     <g id="line2d_2">
      <g>
       <use xlink:href="#mc2c59f7b9f" x="179.147107" y="388.9656" style="stroke: #000000; stroke-width: 0.8"/>
      </g>
     </g>
     <g id="text_2">
      <!-- −1.0 -->
      <g transform="translate(167.005701 403.564038)scale(0.1 -0.1)">
       <defs>
        <path id="DejaVuSans-30" d="M 2034 4250 
Q 1547 4250 1301 3770 
Q 1056 3291 1056 2328 
Q 1056 1369 1301 889 
Q 1547 409 2034 409 
Q 2525 409 2770 889 
Q 3016 1369 3016 2328 
Q 3016 3291 2770 3770 
Q 2525 4250 2034 4250 
z
M 2034 4750 
Q 2819 4750 3233 4129 
Q 3647 3509 3647 2328 
Q 3647 1150 3233 529 
Q 2819 -91 2034 -91 
Q 1250 -91 836 529 
Q 422 1150 422 2328 
Q 422 3509 836 4129 
Q 1250 4750 2034 4750 
z
" transform="scale(0.015625)"/>
       </defs>
       <use xlink:href="#DejaVuSans-2212"/>
       <use xlink:href="#DejaVuSans-31" x="83.789062"/>
       <use xlink:href="#DejaVuSans-2e" x="147.412109"/>
       <use xlink:href="#DejaVuSans-30" x="179.199219"/>
      </g>
     </g>
    </g>
    <g id="xtick_3">
     <g id="line2d_3">
      <g>
       <use xlink:href="#mc2c59f7b9f" x="228.33719" y="388.9656" style="stroke: #000000; stroke-width: 0.8"/>
      </g>
     </g>
     <g id="text_3">
      <!-- −0.5 -->
      <g transform="translate(216.195784 403.564038)scale(0.1 -0.1)">
       <use xlink:href="#DejaVuSans-2212"/>
       <use xlink:href="#DejaVuSans-30" x="83.789062"/>
       <use xlink:href="#DejaVuSans-2e" x="147.412109"/>
       <use xlink:href="#DejaVuSans-35" x="179.199219"/>
      </g>
     </g>
    </g>
    <g id="xtick_4">
     <g id="line2d_4">
      <g>
       <use xlink:href="#mc2c59f7b9f" x="277.527273" y="388.9656" style="stroke: #000000; stroke-width: 0.8"/>
      </g>
     </g>
     <g id="text_4">
      <!-- 0.0 -->
      <g transform="translate(269.57571 403.564038)scale(0.1 -0.1)">
       <use xlink:href="#DejaVuSans-30"/>
       <use xlink:href="#DejaVuSans-2e" x="63.623047"/>
       <use xlink:href="#DejaVuSans-30" x="95.410156"/>
      </g>
     </g>
    </g>
    <g id="xtick_5">
     <g id="line2d_5">
      <g>
       <use xlink:href="#mc2c59f7b9f" x="326.717355" y="388.9656" style="stroke: #000000; stroke-width: 0.8"/>
      </g>
     </g>
     <g id="text_5">
      <!-- 0.5 -->
      <g transform="translate(318.765793 403.564038)scale(0.1 -0.1)">
       <use xlink:href="#DejaVuSans-30"/>
       <use xlink:href="#DejaVuSans-2e" x="63.623047"/>
       <use xlink:href="#DejaVuSans-35" x="95.410156"/>
      </g>
     </g>
    </g>
    <g id="xtick_6">
     <g id="line2d_6">
      <g>
       <use xlink:href="#mc2c59f7b9f" x="375.907438" y="388.9656" style="stroke: #000000; stroke-width: 0.8"/>
      </g>
     </g>
     <g id="text_6">
      <!-- 1.0 -->
      <g transform="translate(367.955876 403.564038)scale(0.1 -0.1)">
       <use xlink:href="#DejaVuSans-31"/>
       <use xlink:href="#DejaVuSans-2e" x="63.623047"/>
       <use xlink:href="#DejaVuSans-30" x="95.410156"/>
      </g>
     </g>
    </g>
    <g id="xtick_7">
     <g id="line2d_7">
      <g>
       <use xlink:href="#mc2c59f7b9f" x="425.097521" y="388.9656" style="stroke: #000000; stroke-width: 0.8"/>
      </g>
     </g>
     <g id="text_7">
      <!-- 1.5 -->
      <g transform="translate(417.145958 403.564038)scale(0.1 -0.1)">
       <use xlink:href="#DejaVuSans-31"/>
       <use xlink:href="#DejaVuSans-2e" x="63.623047"/>
       <use xlink:href="#DejaVuSans-35" x="95.410156"/>
      </g>
     </g>
    </g>
   </g>
   <g id="matplotlib.axis_2">
    <g id="ytick_1">
     <g id="line2d_8">
      <defs>
       <path id="maca2955e28" d="M 0 0 
L -3.5 0 
" style="stroke: #000000; stroke-width: 0.8"/>
      </defs>
      <g>
       <use xlink:href="#maca2955e28" x="115.2" y="357.851189" style="stroke: #000000; stroke-width: 0.8"/>
      </g>
     </g>
     <g id="text_8">
      <!-- 0.0 -->
      <g transform="translate(92.296875 361.650408)scale(0.1 -0.1)">
       <use xlink:href="#DejaVuSans-30"/>
       <use xlink:href="#DejaVuSans-2e" x="63.623047"/>
       <use xlink:href="#DejaVuSans-30" x="95.410156"/>
      </g>
     </g>
    </g>
    <g id="ytick_2">
     <g id="line2d_9">
      <g>
       <use xlink:href="#maca2955e28" x="115.2" y="299.678543" style="stroke: #000000; stroke-width: 0.8"/>
      </g>
     </g>
     <g id="text_9">
      <!-- 0.2 -->
      <g transform="translate(92.296875 303.477762)scale(0.1 -0.1)">
       <defs>
        <path id="DejaVuSans-32" d="M 1228 531 
L 3431 531 
L 3431 0 
L 469 0 
L 469 531 
Q 828 903 1448 1529 
Q 2069 2156 2228 2338 
Q 2531 2678 2651 2914 
Q 2772 3150 2772 3378 
Q 2772 3750 2511 3984 
Q 2250 4219 1831 4219 
Q 1534 4219 1204 4116 
Q 875 4013 500 3803 
L 500 4441 
Q 881 4594 1212 4672 
Q 1544 4750 1819 4750 
Q 2544 4750 2975 4387 
Q 3406 4025 3406 3419 
Q 3406 3131 3298 2873 
Q 3191 2616 2906 2266 
Q 2828 2175 2409 1742 
Q 1991 1309 1228 531 
z
" transform="scale(0.015625)"/>
       </defs>
       <use xlink:href="#DejaVuSans-30"/>
       <use xlink:href="#DejaVuSans-2e" x="63.623047"/>
       <use xlink:href="#DejaVuSans-32" x="95.410156"/>
      </g>
     </g>
    </g>
    <g id="ytick_3">
     <g id="line2d_10">
      <g>
       <use xlink:href="#maca2955e28" x="115.2" y="241.505898" style="stroke: #000000; stroke-width: 0.8"/>
      </g>
     </g>
     <g id="text_10">
      <!-- 0.4 -->
      <g transform="translate(92.296875 245.305117)scale(0.1 -0.1)">
       <defs>
        <path id="DejaVuSans-34" d="M 2419 4116 
L 825 1625 
L 2419 1625 
L 2419 4116 
z
M 2253 4666 
L 3047 4666 
L 3047 1625 
L 3713 1625 
L 3713 1100 
L 3047 1100 
L 3047 0 
L 2419 0 
L 2419 1100 
L 313 1100 
L 313 1709 
L 2253 4666 
z
" transform="scale(0.015625)"/>
       </defs>
       <use xlink:href="#DejaVuSans-30"/>
       <use xlink:href="#DejaVuSans-2e" x="63.623047"/>
       <use xlink:href="#DejaVuSans-34" x="95.410156"/>
      </g>
     </g>
    </g>
    <g id="ytick_4">
     <g id="line2d_11">
      <g>
       <use xlink:href="#maca2955e28" x="115.2" y="183.333252" style="stroke: #000000; stroke-width: 0.8"/>
      </g>
     </g>
     <g id="text_11">
      <!-- 0.6 -->
      <g transform="translate(92.296875 187.132471)scale(0.1 -0.1)">
       <defs>
        <path id="DejaVuSans-36" d="M 2113 2584 
Q 1688 2584 1439 2293 
Q 1191 2003 1191 1497 
Q 1191 994 1439 701 
Q 1688 409 2113 409 
Q 2538 409 2786 701 
Q 3034 994 3034 1497 
Q 3034 2003 2786 2293 
Q 2538 2584 2113 2584 
z
M 3366 4563 
L 3366 3988 
Q 3128 4100 2886 4159 
Q 2644 4219 2406 4219 
Q 1781 4219 1451 3797 
Q 1122 3375 1075 2522 
Q 1259 2794 1537 2939 
Q 1816 3084 2150 3084 
Q 2853 3084 3261 2657 
Q 3669 2231 3669 1497 
Q 3669 778 3244 343 
Q 2819 -91 2113 -91 
Q 1303 -91 875 529 
Q 447 1150 447 2328 
Q 447 3434 972 4092 
Q 1497 4750 2381 4750 
Q 2619 4750 2861 4703 
Q 3103 4656 3366 4563 
z
" transform="scale(0.015625)"/>
       </defs>
       <use xlink:href="#DejaVuSans-30"/>
       <use xlink:href="#DejaVuSans-2e" x="63.623047"/>
       <use xlink:href="#DejaVuSans-36" x="95.410156"/>
      </g>
     </g>
    </g>
    <g id="ytick_5">
     <g id="line2d_12">
      <g>
       <use xlink:href="#maca2955e28" x="115.2" y="125.160607" style="stroke: #000000; stroke-width: 0.8"/>
      </g>
     </g>
     <g id="text_12">
      <!-- 0.8 -->
      <g transform="translate(92.296875 128.959826)scale(0.1 -0.1)">
       <defs>
        <path id="DejaVuSans-38" d="M 2034 2216 
Q 1584 2216 1326 1975 
Q 1069 1734 1069 1313 
Q 1069 891 1326 650 
Q 1584 409 2034 409 
Q 2484 409 2743 651 
Q 3003 894 3003 1313 
Q 3003 1734 2745 1975 
Q 2488 2216 2034 2216 
z
M 1403 2484 
Q 997 2584 770 2862 
Q 544 3141 544 3541 
Q 544 4100 942 4425 
Q 1341 4750 2034 4750 
Q 2731 4750 3128 4425 
Q 3525 4100 3525 3541 
Q 3525 3141 3298 2862 
Q 3072 2584 2669 2484 
Q 3125 2378 3379 2068 
Q 3634 1759 3634 1313 
Q 3634 634 3220 271 
Q 2806 -91 2034 -91 
Q 1263 -91 848 271 
Q 434 634 434 1313 
Q 434 1759 690 2068 
Q 947 2378 1403 2484 
z
M 1172 3481 
Q 1172 3119 1398 2916 
Q 1625 2713 2034 2713 
Q 2441 2713 2670 2916 
Q 2900 3119 2900 3481 
Q 2900 3844 2670 4047 
Q 2441 4250 2034 4250 
Q 1625 4250 1398 4047 
Q 1172 3844 1172 3481 
z
" transform="scale(0.015625)"/>
       </defs>
       <use xlink:href="#DejaVuSans-30"/>
       <use xlink:href="#DejaVuSans-2e" x="63.623047"/>
       <use xlink:href="#DejaVuSans-38" x="95.410156"/>
      </g>
     </g>
    </g>
    <g id="ytick_6">
     <g id="line2d_13">
      <g>
       <use xlink:href="#maca2955e28" x="115.2" y="66.987961" style="stroke: #000000; stroke-width: 0.8"/>
      </g>
     </g>
     <g id="text_13">
      <!-- 1.0 -->
      <g transform="translate(92.296875 70.78718)scale(0.1 -0.1)">
       <use xlink:href="#DejaVuSans-31"/>
       <use xlink:href="#DejaVuSans-2e" x="63.623047"/>
       <use xlink:href="#DejaVuSans-30" x="95.410156"/>
      </g>
     </g>
    </g>
   </g>
   <g id="line2d_14">
    <path d="M 129.957025 357.851189 
L 276.543471 357.851189 
L 277.527273 66.987961 
L 282.446281 81.173528 
L 287.365289 94.667257 
L 292.284298 107.502889 
L 297.203306 119.71252 
L 302.122314 131.32668 
L 307.041322 142.37441 
L 311.960331 152.883337 
L 316.879339 162.879737 
L 321.798347 172.388607 
L 326.717355 181.433724 
L 331.636364 190.037705 
L 336.555372 198.222065 
L 341.47438 206.007269 
L 346.393388 213.412785 
L 351.312397 220.457129 
L 356.231405 227.157916 
L 361.150413 233.531902 
L 366.069421 239.595025 
L 370.98843 245.362447 
L 376.89124 251.913281 
L 382.79405 258.082624 
L 388.69686 263.892693 
L 394.599669 269.36441 
L 400.502479 274.517479 
L 406.405289 279.370456 
L 412.308099 283.940818 
L 418.210909 288.245023 
L 424.113719 292.298571 
L 424.113719 292.298571 
" clip-path="url(#p0e460c79ac)" style="fill: none; stroke-dasharray: 7.4,3.2; stroke-dashoffset: 0; stroke: #ff0000; stroke-width: 2"/>
   </g>
   <g id="line2d_15">
    <path d="M 129.957025 269.474001 
L 132.90843 271.737661 
L 135.859835 274.101011 
L 143.730248 279.286378 
L 144.71405 279.786645 
L 150.61686 283.635871 
L 152.584463 284.834155 
L 158.487273 288.202577 
L 160.454876 289.034066 
L 162.422479 290.344044 
L 167.341488 292.810686 
L 169.309091 293.420271 
L 170.292893 294.051593 
L 171.276694 294.550649 
L 172.260496 294.883754 
L 173.244298 295.039955 
L 177.179504 296.728484 
L 179.147107 297.649486 
L 184.066116 299.607697 
L 185.049917 300.02668 
L 186.033719 300.133711 
L 189.968926 301.746822 
L 191.936529 302.250091 
L 192.920331 302.734938 
L 200.790744 305.064689 
L 201.774545 305.434786 
L 202.758347 305.674443 
L 207.677355 307.53316 
L 208.661157 307.686035 
L 215.547769 310.037717 
L 220.466777 311.581442 
L 221.450579 311.703746 
L 225.385785 313.091336 
L 228.33719 313.974839 
L 235.223802 315.797773 
L 236.207603 316.009942 
L 237.191405 316.373586 
L 239.159008 316.869065 
L 240.14281 317.223749 
L 242.110413 317.790263 
L 255.883636 321.084498 
L 265.721653 322.647151 
L 268.673058 323.38904 
L 270.640661 323.647077 
L 273.592066 324.32124 
L 275.559669 324.503967 
L 276.543471 324.705047 
L 277.527273 66.987961 
L 282.446281 81.516463 
L 288.349091 97.808387 
L 289.332893 100.02594 
L 292.284298 107.75455 
L 299.170909 124.605853 
L 302.122314 131.273461 
L 309.008926 146.380618 
L 315.895537 160.472529 
L 319.830744 167.713818 
L 321.798347 171.329247 
L 332.620165 189.285554 
L 334.587769 192.049105 
L 338.522975 198.151474 
L 340.490579 200.799019 
L 347.37719 210.33964 
L 350.328595 214.14961 
L 351.312397 215.317601 
L 354.263802 219.178448 
L 358.199008 224.270686 
L 360.166612 226.556454 
L 363.118017 229.838305 
L 365.08562 232.073029 
L 370.98843 239.234494 
L 371.972231 240.18004 
L 374.923636 243.431021 
L 380.826446 249.702829 
L 388.69686 257.345668 
L 391.648264 259.968178 
L 394.599669 262.629224 
L 402.470083 269.047836 
L 404.437686 270.653514 
L 408.372893 273.520889 
L 421.162314 281.987817 
L 422.146116 282.445235 
L 424.113719 283.769943 
L 425.097521 284.467558 
L 425.097521 284.467558 
" clip-path="url(#p0e460c79ac)" style="fill: none; stroke: #0000ff; stroke-linecap: square"/>
   </g>
   <g id="line2d_16">
    <path d="M 129.957025 291.832805 
L 132.90843 291.466593 
L 136.843636 291.109618 
L 140.778843 290.531616 
L 143.730248 290.347333 
L 144.71405 290.421752 
L 145.697851 290.270385 
L 146.681653 290.277957 
L 151.600661 289.702241 
L 155.535868 289.465887 
L 158.487273 288.907237 
L 159.471074 288.674348 
L 164.390083 288.277373 
L 167.341488 287.727759 
L 168.325289 287.893575 
L 169.309091 287.717232 
L 170.292893 287.711067 
L 172.260496 287.404823 
L 173.244298 287.340489 
L 174.228099 287.541691 
L 175.211901 287.360555 
L 177.179504 287.47898 
L 185.049917 286.878764 
L 186.033719 288.378456 
L 188.001322 288.173221 
L 189.968926 288.118995 
L 191.936529 287.785077 
L 196.855537 287.40955 
L 197.839339 287.521616 
L 199.806942 287.407996 
L 202.758347 287.026169 
L 203.742149 285.68551 
L 204.72595 285.648076 
L 205.709752 285.251411 
L 206.693554 285.117197 
L 207.677355 284.789552 
L 208.661157 285.365014 
L 212.596364 284.606514 
L 214.563967 284.378898 
L 216.53157 284.016625 
L 217.515372 284.437194 
L 220.466777 283.94703 
L 222.43438 283.501314 
L 226.369587 283.047317 
L 227.353388 283.015427 
L 230.304793 282.330211 
L 232.272397 282.001165 
L 233.256198 281.888559 
L 234.24 281.951678 
L 237.191405 281.510653 
L 238.175207 280.979465 
L 248.997025 279.524861 
L 249.980826 279.485058 
L 251.94843 278.989663 
L 254.899835 278.511992 
L 256.867438 278.046183 
L 257.85124 278.013445 
L 258.835041 277.839917 
L 259.818843 277.54988 
L 261.786446 277.241113 
L 262.770248 276.917002 
L 263.75405 276.341428 
L 264.737851 276.193498 
L 265.721653 275.921632 
L 266.705455 275.774014 
L 267.689256 275.272355 
L 270.640661 275.121217 
L 271.624463 274.978031 
L 274.575868 275.007778 
L 276.543471 274.625157 
L 277.527273 66.987961 
L 288.349091 67.395868 
L 289.332893 69.171523 
L 292.284298 69.341116 
L 293.268099 69.841163 
L 294.251901 69.910184 
L 295.235702 70.103251 
L 296.219504 70.681419 
L 299.170909 70.895431 
L 300.154711 71.730799 
L 301.138512 71.805813 
L 303.106116 72.459571 
L 306.057521 73.017279 
L 307.041322 73.419263 
L 311.960331 73.954102 
L 312.944132 73.972666 
L 314.911736 74.412786 
L 315.895537 74.483045 
L 316.879339 75.267596 
L 317.86314 76.299169 
L 318.846942 76.533532 
L 319.830744 76.980248 
L 320.814545 77.048882 
L 322.782149 78.253031 
L 323.76595 78.520797 
L 324.749752 80.50693 
L 325.733554 80.739761 
L 326.717355 81.869782 
L 327.701157 82.06782 
L 328.684959 82.797512 
L 330.652562 83.244835 
L 331.636364 83.848742 
L 332.620165 84.260746 
L 333.603967 86.125003 
L 334.587769 87.073602 
L 335.57157 87.360189 
L 336.555372 87.795036 
L 337.539174 87.892772 
L 338.522975 89.199617 
L 340.490579 91.188005 
L 341.47438 91.742615 
L 342.458182 92.447822 
L 344.425785 93.537747 
L 346.393388 93.738934 
L 347.37719 95.89026 
L 348.360992 96.452933 
L 349.344793 98.142014 
L 350.328595 98.662897 
L 351.312397 102.825296 
L 352.296198 103.233606 
L 353.28 104.831729 
L 355.247603 105.279903 
L 356.231405 105.864782 
L 357.215207 106.042121 
L 358.199008 108.032717 
L 359.18281 108.775564 
L 360.166612 109.364032 
L 361.150413 110.328721 
L 362.134215 111.886564 
L 363.118017 113.807746 
L 364.101818 115.307677 
L 365.08562 115.756179 
L 368.037025 116.217493 
L 369.020826 116.571164 
L 370.98843 116.851566 
L 371.972231 118.996931 
L 372.956033 119.04085 
L 373.939835 119.439763 
L 374.923636 119.551217 
L 377.875041 120.46516 
L 378.858843 121.171918 
L 379.842645 121.476086 
L 380.826446 121.587843 
L 381.810248 122.034507 
L 382.79405 123.596342 
L 383.777851 124.150931 
L 384.761653 122.861006 
L 385.745455 123.451045 
L 386.729256 124.332832 
L 387.713058 125.017076 
L 388.69686 125.453741 
L 389.680661 126.700179 
L 392.632066 128.172747 
L 393.615868 129.727632 
L 395.583471 131.419798 
L 396.567273 134.629389 
L 397.551074 134.741423 
L 398.534876 135.33017 
L 399.518678 136.0881 
L 400.502479 136.652759 
L 401.486281 138.49878 
L 403.453884 138.785305 
L 404.437686 139.449539 
L 406.405289 141.785482 
L 407.389091 142.330183 
L 408.372893 144.991121 
L 410.340496 147.650054 
L 411.324298 150.391162 
L 412.308099 154.464435 
L 413.291901 155.261267 
L 414.275702 154.832258 
L 415.259504 157.306289 
L 416.243306 157.786566 
L 417.227107 158.99291 
L 418.210909 159.224024 
L 419.194711 159.847333 
L 420.178512 160.084569 
L 421.162314 160.777921 
L 422.146116 164.214243 
L 423.129917 164.268702 
L 424.113719 164.786236 
L 425.097521 164.944618 
L 425.097521 164.944618 
" clip-path="url(#p0e460c79ac)" style="fill: none; stroke-dasharray: 1,1.65; stroke-dashoffset: 0; stroke: #0000ff"/>
   </g>
   <g id="line2d_17">
    <path d="M 129.957025 292.87377 
L 130.940826 292.806305 
L 133.892231 292.070343 
L 141.762645 291.242016 
L 143.730248 290.531318 
L 145.697851 290.33138 
L 147.665455 289.820407 
L 148.649256 289.721034 
L 149.633058 289.368222 
L 150.61686 289.229842 
L 151.600661 288.855095 
L 153.568264 288.467 
L 158.487273 287.495722 
L 159.471074 287.518849 
L 160.454876 287.209765 
L 162.422479 287.073224 
L 163.406281 286.701729 
L 169.309091 285.568702 
L 174.228099 284.29861 
L 175.211901 283.912841 
L 177.179504 283.757313 
L 179.147107 282.902377 
L 181.114711 282.148844 
L 182.098512 282.099843 
L 183.082314 281.752892 
L 184.066116 281.203198 
L 188.001322 280.276399 
L 188.985124 280.16819 
L 194.887934 278.680862 
L 196.855537 278.396112 
L 197.839339 278.054906 
L 200.790744 276.690674 
L 203.742149 275.495707 
L 204.72595 274.857373 
L 206.693554 274.167293 
L 207.677355 273.764576 
L 209.644959 273.169189 
L 210.62876 272.712732 
L 211.612562 272.430573 
L 213.580165 271.584407 
L 214.563967 271.347713 
L 221.450579 268.744767 
L 222.43438 268.211993 
L 225.385785 267.250318 
L 235.223802 262.626952 
L 237.191405 261.700013 
L 239.159008 260.943524 
L 240.14281 260.648714 
L 241.126612 260.075229 
L 243.094215 259.475764 
L 245.061818 258.943856 
L 247.029421 258.070006 
L 248.013223 257.440821 
L 250.964628 256.078253 
L 252.932231 255.587385 
L 254.899835 254.488271 
L 255.883636 254.151135 
L 256.867438 253.596368 
L 257.85124 253.268906 
L 259.818843 252.360565 
L 265.721653 248.880981 
L 269.65686 245.960435 
L 273.592066 243.751476 
L 275.559669 241.900227 
L 276.543471 241.270533 
L 277.527273 66.987961 
L 279.494876 72.226147 
L 280.478678 74.302402 
L 287.365289 91.131192 
L 290.316694 97.771586 
L 291.300496 99.324998 
L 292.284298 101.24407 
L 294.251901 105.614108 
L 300.154711 115.687015 
L 304.089917 122.49853 
L 305.073719 123.77876 
L 306.057521 125.401682 
L 307.041322 126.745987 
L 308.025124 128.543925 
L 309.008926 129.778473 
L 310.976529 132.978526 
L 313.927934 137.031588 
L 314.911736 138.457691 
L 316.879339 140.880963 
L 320.814545 145.955284 
L 323.76595 149.561141 
L 325.733554 152.140213 
L 327.701157 153.805896 
L 329.66876 155.829789 
L 330.652562 157.179531 
L 331.636364 158.257037 
L 332.620165 158.689062 
L 333.603967 159.707951 
L 336.555372 163.354035 
L 337.539174 164.317419 
L 338.522975 165.466611 
L 339.506777 166.255121 
L 340.490579 167.217007 
L 342.458182 168.66099 
L 343.441983 169.610804 
L 344.425785 170.231999 
L 346.393388 172.247399 
L 347.37719 172.815474 
L 351.312397 175.804883 
L 352.296198 176.639602 
L 361.150413 181.905487 
L 363.118017 183.330254 
L 364.101818 183.70951 
L 365.08562 184.484471 
L 367.053223 185.712198 
L 370.004628 187.698535 
L 370.98843 187.963171 
L 372.956033 189.324797 
L 373.939835 189.573101 
L 378.858843 191.91539 
L 379.842645 192.268539 
L 381.810248 193.365854 
L 382.79405 193.579577 
L 383.777851 194.065756 
L 384.761653 194.256235 
L 386.729256 195.073518 
L 387.713058 195.254234 
L 388.69686 195.710718 
L 390.664463 196.222864 
L 392.632066 197.032152 
L 393.615868 197.693342 
L 394.599669 197.809403 
L 395.583471 198.6828 
L 396.567273 198.819899 
L 401.486281 201.149429 
L 402.470083 202.051654 
L 403.453884 202.474703 
L 405.421488 203.52775 
L 411.324298 206.503513 
L 413.291901 207.109005 
L 415.259504 208.119131 
L 416.243306 208.538793 
L 417.227107 209.096473 
L 418.210909 209.394741 
L 420.178512 210.655048 
L 421.162314 210.85145 
L 423.129917 211.666603 
L 425.097521 213.245622 
L 425.097521 213.245622 
" clip-path="url(#p0e460c79ac)" style="fill: none; stroke: #ff00ff; stroke-linecap: square"/>
   </g>
   <g id="line2d_18">
    <path d="M 129.957025 163.370187 
L 130.940826 164.82589 
L 131.924628 167.078112 
L 132.90843 168.306831 
L 133.892231 169.77362 
L 135.859835 171.974157 
L 136.843636 173.458369 
L 137.827438 174.248455 
L 138.81124 175.189308 
L 139.795041 176.40784 
L 140.778843 176.953659 
L 141.762645 177.957244 
L 142.746446 179.519194 
L 143.730248 180.688009 
L 145.697851 181.910593 
L 148.649256 184.789591 
L 149.633058 186.239904 
L 150.61686 186.974187 
L 151.600661 187.483261 
L 152.584463 188.428543 
L 153.568264 189.165721 
L 155.535868 189.862237 
L 156.519669 191.144047 
L 157.503471 191.710288 
L 158.487273 192.407269 
L 159.471074 192.250795 
L 160.454876 192.955489 
L 162.422479 193.515695 
L 163.406281 194.062266 
L 164.390083 194.296129 
L 165.373884 194.966861 
L 166.357686 195.113455 
L 167.341488 195.613316 
L 169.309091 196.115182 
L 171.276694 196.306356 
L 172.260496 196.042603 
L 175.211901 197.104915 
L 176.195702 196.937735 
L 177.179504 196.931907 
L 178.163306 197.644112 
L 179.147107 197.750609 
L 180.130909 197.979982 
L 183.082314 197.934088 
L 184.066116 198.610446 
L 186.033719 198.375814 
L 187.017521 198.392596 
L 188.001322 198.687306 
L 189.968926 198.385053 
L 191.936529 198.15514 
L 192.920331 198.461895 
L 193.904132 198.142426 
L 196.855537 198.024484 
L 197.839339 197.648623 
L 199.806942 197.705866 
L 201.774545 198.345594 
L 202.758347 197.935371 
L 204.72595 197.672834 
L 205.709752 197.492286 
L 206.693554 197.469024 
L 212.596364 196.050865 
L 213.580165 195.767628 
L 214.563967 195.67591 
L 216.53157 194.816922 
L 217.515372 194.666643 
L 218.499174 194.246772 
L 219.482975 194.029703 
L 223.418182 192.568675 
L 224.401983 192.429187 
L 225.385785 192.045007 
L 226.369587 191.348477 
L 228.33719 190.648364 
L 229.320992 190.200188 
L 230.304793 189.921936 
L 233.256198 188.20196 
L 234.24 188.350168 
L 236.207603 187.32458 
L 237.191405 186.769376 
L 239.159008 185.396936 
L 240.14281 184.946427 
L 241.126612 184.279727 
L 242.110413 183.76447 
L 243.094215 182.837198 
L 244.078017 182.587903 
L 245.061818 182.133748 
L 248.013223 179.240886 
L 248.997025 178.440638 
L 249.980826 177.839736 
L 253.916033 174.5292 
L 254.899835 173.462839 
L 255.883636 172.682143 
L 256.867438 171.507597 
L 257.85124 170.599902 
L 258.835041 169.884893 
L 261.786446 166.528097 
L 263.75405 164.175912 
L 266.705455 161.293313 
L 270.640661 156.695547 
L 276.543471 150.582394 
L 277.527273 66.987961 
L 279.494876 70.291002 
L 280.478678 72.57384 
L 284.413884 78.252751 
L 286.381488 80.519104 
L 288.349091 83.296479 
L 290.316694 85.666122 
L 291.300496 87.740783 
L 292.284298 89.337157 
L 293.268099 90.4839 
L 294.251901 91.412372 
L 299.170909 99.459061 
L 300.154711 100.431713 
L 301.138512 102.166596 
L 303.106116 104.788993 
L 304.089917 105.738092 
L 305.073719 107.488103 
L 306.057521 108.606433 
L 307.041322 109.997617 
L 308.025124 110.71758 
L 309.008926 112.146662 
L 311.960331 115.064926 
L 313.927934 117.355399 
L 314.911736 118.180141 
L 315.895537 119.767593 
L 316.879339 121.013236 
L 319.830744 123.932669 
L 320.814545 124.744109 
L 321.798347 126.421709 
L 322.782149 127.470288 
L 324.749752 129.10135 
L 325.733554 129.674431 
L 326.717355 131.037025 
L 327.701157 132.667554 
L 330.652562 134.942989 
L 331.636364 135.554373 
L 332.620165 137.650152 
L 333.603967 138.080249 
L 334.587769 138.810062 
L 336.555372 139.746588 
L 337.539174 140.728012 
L 340.490579 142.899535 
L 341.47438 144.331342 
L 342.458182 145.39905 
L 343.441983 145.625355 
L 344.425785 147.192931 
L 345.409587 148.203425 
L 346.393388 148.872985 
L 347.37719 150.224973 
L 349.344793 151.685043 
L 351.312397 153.235177 
L 354.263802 155.199028 
L 355.247603 156.473224 
L 356.231405 157.401024 
L 357.215207 157.959844 
L 358.199008 159.648925 
L 359.18281 160.75375 
L 360.166612 161.2752 
L 361.150413 162.063135 
L 362.134215 162.630292 
L 365.08562 163.574326 
L 366.069421 164.28592 
L 367.053223 165.401118 
L 368.037025 165.931855 
L 369.020826 166.163328 
L 370.004628 167.18517 
L 370.98843 168.002849 
L 371.972231 168.14882 
L 372.956033 168.927381 
L 373.939835 170.705872 
L 374.923636 171.439508 
L 375.907438 171.94159 
L 376.89124 172.04331 
L 377.875041 171.974674 
L 378.858843 172.967436 
L 379.842645 174.406666 
L 380.826446 174.640682 
L 381.810248 175.695364 
L 382.79405 177.351791 
L 383.777851 177.788747 
L 384.761653 178.866264 
L 386.729256 179.949255 
L 387.713058 181.412254 
L 388.69686 181.800536 
L 389.680661 182.47087 
L 390.664463 183.3158 
L 391.648264 183.687713 
L 392.632066 184.321096 
L 393.615868 183.618949 
L 394.599669 184.554125 
L 395.583471 185.035966 
L 396.567273 186.061138 
L 398.534876 186.239169 
L 400.502479 187.230381 
L 401.486281 188.134594 
L 402.470083 187.921446 
L 403.453884 188.335129 
L 404.437686 189.267018 
L 405.421488 189.708865 
L 407.389091 189.81 
L 408.372893 190.405193 
L 409.356694 190.754384 
L 410.340496 191.605126 
L 411.324298 192.661176 
L 412.308099 193.163399 
L 413.291901 193.421864 
L 414.275702 193.529991 
L 416.243306 195.430387 
L 419.194711 197.191107 
L 420.178512 197.715343 
L 421.162314 198.934839 
L 423.129917 200.161343 
L 424.113719 200.167228 
L 425.097521 200.461355 
L 425.097521 200.461355 
" clip-path="url(#p0e460c79ac)" style="fill: none; stroke-dasharray: 1,1.65; stroke-dashoffset: 0; stroke: #ff00ff"/>
   </g>
   <g id="line2d_19">
    <path d="M 129.957025 284.477254 
L 130.940826 284.527927 
L 132.90843 284.069841 
L 134.876033 284.408411 
L 135.859835 284.398089 
L 136.843636 284.121132 
L 137.827438 283.677511 
L 139.795041 283.835768 
L 140.778843 283.191144 
L 143.730248 282.735604 
L 144.71405 282.618706 
L 146.681653 282.02382 
L 147.665455 281.422213 
L 149.633058 280.852615 
L 150.61686 280.413471 
L 152.584463 279.233614 
L 154.552066 278.986278 
L 155.535868 278.404901 
L 156.519669 277.995099 
L 159.471074 275.969198 
L 160.454876 275.758179 
L 161.438678 274.959043 
L 162.422479 274.494274 
L 163.406281 273.777234 
L 164.390083 273.382657 
L 165.373884 272.179948 
L 166.357686 271.689756 
L 167.341488 271.389235 
L 169.309091 269.698554 
L 170.292893 269.081139 
L 171.276694 268.232601 
L 172.260496 267.942685 
L 173.244298 267.165073 
L 176.195702 266.14331 
L 177.179504 266.096728 
L 178.163306 264.921546 
L 179.147107 264.717089 
L 180.130909 264.167524 
L 181.114711 262.903524 
L 182.098512 262.374357 
L 183.082314 261.514047 
L 184.066116 261.196947 
L 185.049917 260.64513 
L 186.033719 259.64444 
L 187.017521 259.027287 
L 188.001322 258.119011 
L 190.952727 254.706206 
L 191.936529 254.447753 
L 192.920331 253.483565 
L 193.904132 252.192544 
L 194.887934 251.462781 
L 195.871736 250.559478 
L 196.855537 249.97302 
L 199.806942 246.548298 
L 200.790744 245.564783 
L 202.758347 242.527398 
L 203.742149 241.329898 
L 204.72595 240.548883 
L 205.709752 239.937588 
L 206.693554 239.550496 
L 208.661157 237.432385 
L 211.612562 234.535248 
L 212.596364 234.279487 
L 214.563967 231.190274 
L 215.547769 230.693024 
L 218.499174 227.884531 
L 219.482975 226.062122 
L 221.450579 223.787703 
L 222.43438 222.779497 
L 224.401983 219.968638 
L 225.385785 219.177749 
L 226.369587 218.186116 
L 229.320992 213.901341 
L 230.304793 211.933811 
L 231.288595 210.349186 
L 232.272397 209.179891 
L 233.256198 207.676556 
L 234.24 206.385819 
L 235.223802 204.58983 
L 236.207603 203.440128 
L 238.175207 199.222458 
L 239.159008 197.737824 
L 241.126612 193.523928 
L 243.094215 190.287542 
L 244.078017 189.233426 
L 245.061818 187.465636 
L 246.04562 185.266542 
L 247.029421 184.262931 
L 248.013223 182.710082 
L 248.997025 180.893119 
L 249.980826 179.413395 
L 250.964628 176.860321 
L 251.94843 175.236999 
L 253.916033 172.881963 
L 254.899835 171.320306 
L 256.867438 167.213876 
L 257.85124 165.662786 
L 258.835041 163.321718 
L 260.802645 159.581938 
L 261.786446 156.719311 
L 262.770248 153.097 
L 263.75405 150.20115 
L 264.737851 147.684738 
L 265.721653 145.673274 
L 267.689256 140.198016 
L 268.673058 138.289619 
L 270.640661 131.868459 
L 271.624463 129.434926 
L 273.592066 122.740487 
L 274.575868 118.636875 
L 275.559669 115.235285 
L 276.543471 110.84511 
L 277.527273 66.987961 
L 279.494876 74.245287 
L 283.430083 91.677977 
L 284.413884 95.428233 
L 285.397686 97.574958 
L 286.381488 100.839304 
L 287.365289 102.81193 
L 288.349091 106.000304 
L 290.316694 111.232389 
L 291.300496 114.134822 
L 293.268099 118.180682 
L 295.235702 124.68187 
L 298.187107 130.872608 
L 299.170909 132.985867 
L 300.154711 134.596119 
L 301.138512 136.607421 
L 302.122314 139.526682 
L 305.073719 146.846409 
L 308.025124 152.25643 
L 309.008926 154.119407 
L 309.992727 156.379918 
L 310.976529 158.090998 
L 311.960331 156.306486 
L 312.944132 158.914005 
L 313.927934 159.840823 
L 314.911736 161.318843 
L 315.895537 163.209282 
L 316.879339 160.956892 
L 317.86314 162.815227 
L 318.846942 164.153149 
L 319.830744 165.889183 
L 320.814545 168.200669 
L 321.798347 169.693838 
L 322.782149 167.116255 
L 323.76595 169.060113 
L 324.749752 170.484372 
L 326.717355 173.945464 
L 327.701157 175.216257 
L 328.684959 176.27342 
L 329.66876 177.946165 
L 330.652562 174.554666 
L 331.636364 176.361637 
L 332.620165 173.670832 
L 333.603967 171.38656 
L 334.587769 170.530132 
L 335.57157 172.325612 
L 336.555372 171.024261 
L 337.539174 172.629387 
L 338.522975 170.731592 
L 340.490579 174.069392 
L 341.47438 172.30971 
L 342.458182 173.951006 
L 343.441983 176.459 
L 344.425785 177.20788 
L 345.409587 175.287751 
L 346.393388 173.713275 
L 348.360992 170.119091 
L 349.344793 170.55424 
L 350.328595 172.235642 
L 351.312397 170.520719 
L 352.296198 171.599144 
L 353.28 172.355272 
L 354.263802 169.89725 
L 355.247603 170.75724 
L 356.231405 169.063908 
L 357.215207 167.037715 
L 358.199008 167.929242 
L 359.18281 168.608638 
L 360.166612 170.098933 
L 361.150413 171.30496 
L 362.134215 173.419151 
L 363.118017 174.480812 
L 364.101818 169.222817 
L 365.08562 167.465954 
L 366.069421 165.441216 
L 368.037025 167.610691 
L 369.020826 168.962899 
L 370.98843 151.413388 
L 371.972231 151.219895 
L 372.956033 148.14448 
L 373.939835 144.358056 
L 374.923636 129.855937 
L 375.907438 131.598088 
L 376.89124 129.932984 
L 377.875041 127.113226 
L 378.858843 122.350215 
L 379.842645 121.673802 
L 381.810248 109.615532 
L 382.79405 111.476603 
L 383.777851 112.14354 
L 384.761653 105.932484 
L 385.745455 96.818 
L 386.729256 94.384523 
L 387.713058 89.960926 
L 388.69686 84.168078 
L 389.680661 71.087471 
L 390.664463 64.994985 
L 391.648264 63.57283 
L 392.632066 59.018773 
L 393.615868 49.834293 
L 394.599669 50.129091 
L 395.583471 42.446645 
L 396.567273 32.575008 
L 397.551074 28.673162 
L 398.534876 25.655922 
L 399.518678 0.95244 
L 400.502479 -0.084081 
L 400.583705 -1 
L 400.583705 -1 
" clip-path="url(#p0e460c79ac)" style="fill: none; stroke: #008000; stroke-linecap: square"/>
   </g>
   <g id="line2d_20">
    <path d="M 129.957025 216.204712 
L 130.940826 216.313734 
L 131.924628 216.034051 
L 132.90843 215.58368 
L 135.859835 216.032926 
L 137.827438 215.422448 
L 138.81124 215.684391 
L 139.795041 215.604671 
L 140.778843 215.302414 
L 141.762645 215.331177 
L 142.746446 214.949697 
L 143.730248 214.83211 
L 144.71405 214.405201 
L 145.697851 214.338101 
L 146.681653 214.465673 
L 148.649256 214.146751 
L 149.633058 214.16307 
L 150.61686 214.043148 
L 153.568264 212.876175 
L 154.552066 212.62155 
L 155.535868 211.611658 
L 156.519669 211.385646 
L 157.503471 211.317208 
L 158.487273 210.605556 
L 159.471074 210.093324 
L 160.454876 209.872138 
L 162.422479 208.213537 
L 163.406281 207.931091 
L 164.390083 207.47467 
L 165.373884 206.632898 
L 166.357686 206.016977 
L 167.341488 205.629928 
L 168.325289 204.809332 
L 169.309091 203.570574 
L 170.292893 202.761395 
L 171.276694 201.770006 
L 172.260496 201.114446 
L 173.244298 200.226634 
L 174.228099 200.081857 
L 175.211901 199.575702 
L 176.195702 198.702156 
L 177.179504 198.442905 
L 178.163306 197.445705 
L 179.147107 197.411078 
L 180.130909 196.673971 
L 181.114711 195.417551 
L 182.098512 194.866278 
L 183.082314 194.046165 
L 184.066116 194.060451 
L 187.017521 191.822807 
L 189.968926 188.556745 
L 191.936529 187.130691 
L 192.920331 186.448123 
L 193.904132 185.023781 
L 194.887934 184.339715 
L 195.871736 183.103408 
L 196.855537 182.259334 
L 198.82314 180.033545 
L 200.790744 179.129059 
L 201.774545 177.59867 
L 202.758347 176.730002 
L 203.742149 175.195403 
L 204.72595 174.859216 
L 206.693554 173.903705 
L 207.677355 172.745402 
L 208.661157 171.366967 
L 209.644959 170.478286 
L 210.62876 169.393503 
L 211.612562 168.718379 
L 212.596364 168.483008 
L 213.580165 166.880297 
L 214.563967 166.017105 
L 215.547769 165.339767 
L 216.53157 165.005985 
L 217.515372 164.337037 
L 218.499174 163.453004 
L 219.482975 161.824587 
L 220.466777 160.782115 
L 221.450579 159.433587 
L 222.43438 158.658478 
L 223.418182 156.850223 
L 225.385785 154.876238 
L 226.369587 154.566314 
L 227.353388 152.87796 
L 228.33719 151.700722 
L 229.320992 150.042754 
L 231.288595 147.050483 
L 232.272397 146.3406 
L 234.24 144.328438 
L 235.223802 142.93491 
L 236.207603 142.160477 
L 237.191405 140.856671 
L 238.175207 139.025514 
L 239.159008 137.505677 
L 240.14281 135.391999 
L 241.126612 134.081723 
L 242.110413 133.060511 
L 243.094215 131.852432 
L 244.078017 131.181424 
L 245.061818 129.934782 
L 246.04562 128.204024 
L 248.013223 125.930606 
L 248.997025 124.035482 
L 251.94843 119.320765 
L 252.932231 119.166445 
L 253.916033 118.11976 
L 255.883636 115.052523 
L 256.867438 113.160128 
L 257.85124 112.260644 
L 260.802645 107.704834 
L 261.786446 105.724307 
L 262.770248 103.336214 
L 263.75405 101.526819 
L 264.737851 100.248533 
L 265.721653 99.331766 
L 266.705455 97.16498 
L 267.689256 95.58357 
L 268.673058 94.487329 
L 269.65686 92.455331 
L 271.624463 89.115146 
L 272.608264 87.041431 
L 274.575868 81.81826 
L 276.543471 77.677367 
L 277.527273 66.987961 
L 278.511074 67.717949 
L 279.494876 68.695785 
L 281.462479 72.907358 
L 282.446281 75.879223 
L 283.430083 77.633704 
L 284.413884 79.631488 
L 285.397686 80.187589 
L 286.381488 81.948169 
L 287.365289 82.526245 
L 288.349091 84.299213 
L 289.332893 85.583646 
L 290.316694 87.380438 
L 291.300496 88.930977 
L 292.284298 89.983368 
L 293.268099 90.804104 
L 295.235702 94.777206 
L 296.219504 95.576853 
L 297.203306 96.862929 
L 299.170909 99.041541 
L 300.154711 99.592409 
L 301.138512 100.389436 
L 302.122314 102.436472 
L 303.106116 104.200524 
L 304.089917 106.287486 
L 305.073719 107.752738 
L 306.057521 108.261321 
L 307.041322 109.567544 
L 308.025124 110.324479 
L 309.008926 111.626179 
L 309.992727 113.720042 
L 310.976529 114.763013 
L 311.960331 186.388 
L 312.944132 187.948965 
L 313.927934 187.609385 
L 315.895537 188.211276 
L 316.879339 216.49891 
L 317.86314 216.818422 
L 318.846942 216.737459 
L 319.830744 216.854345 
L 320.814545 219.850517 
L 321.798347 220.056714 
L 322.782149 237.409473 
L 323.76595 237.769409 
L 324.749752 237.644844 
L 325.733554 237.900141 
L 326.717355 238.036207 
L 328.684959 237.440492 
L 329.66876 240.545073 
L 330.652562 260.098061 
L 331.636364 260.297841 
L 332.620165 273.032496 
L 333.603967 281.439108 
L 334.587769 285.778084 
L 335.57157 285.873893 
L 336.555372 290.476272 
L 337.539174 290.654962 
L 338.522975 293.692839 
L 339.506777 293.604367 
L 340.490579 292.963256 
L 341.47438 295.443175 
L 342.458182 295.409973 
L 343.441983 296.891859 
L 344.425785 297.086369 
L 345.409587 299.910396 
L 347.37719 304.2314 
L 348.360992 305.428077 
L 349.344793 305.301541 
L 350.328595 305.508564 
L 351.312397 306.758478 
L 352.296198 307.512933 
L 353.28 307.833455 
L 354.263802 308.963113 
L 355.247603 308.967954 
L 356.231405 309.653272 
L 357.215207 310.670459 
L 358.199008 311.029554 
L 359.18281 311.599136 
L 360.166612 311.45961 
L 361.150413 312.101519 
L 363.118017 312.302984 
L 364.101818 314.326581 
L 365.08562 314.914627 
L 366.069421 315.805442 
L 367.053223 316.427778 
L 368.037025 316.463372 
L 369.020826 316.22469 
L 370.004628 317.739639 
L 370.98843 318.800688 
L 371.972231 319.142882 
L 372.956033 320.158411 
L 373.939835 320.795979 
L 374.923636 321.688908 
L 375.907438 322.002443 
L 377.875041 321.851498 
L 378.858843 322.154627 
L 379.842645 322.010928 
L 380.826446 322.493893 
L 381.810248 322.579803 
L 382.79405 322.897822 
L 383.777851 323.045168 
L 384.761653 322.910674 
L 385.745455 322.420208 
L 386.729256 322.528512 
L 389.680661 321.873691 
L 393.615868 320.297792 
L 394.599669 320.213865 
L 395.583471 320.360525 
L 396.567273 319.376435 
L 397.551074 319.136058 
L 398.534876 319.260428 
L 399.518678 317.344432 
L 401.486281 316.751295 
L 402.470083 316.010126 
L 403.453884 315.117077 
L 404.437686 314.509384 
L 405.421488 314.109235 
L 408.372893 311.661035 
L 409.356694 311.02836 
L 410.340496 310.559045 
L 411.324298 309.361237 
L 412.308099 307.984177 
L 413.291901 306.967326 
L 414.275702 306.142493 
L 416.243306 304.893378 
L 417.227107 303.017179 
L 418.210909 302.019565 
L 419.194711 299.991094 
L 420.178512 298.712699 
L 421.162314 297.230028 
L 422.146116 296.233388 
L 423.129917 295.851968 
L 424.113719 295.185082 
L 425.097521 295.266433 
L 425.097521 295.266433 
" clip-path="url(#p0e460c79ac)" style="fill: none; stroke-dasharray: 1,1.65; stroke-dashoffset: 0; stroke: #008000"/>
   </g>
   <g id="line2d_21">
    <path d="M 130.940812 339.26375 
L 133.892217 336.900978 
L 135.859821 336.035038 
L 136.843622 335.066478 
L 137.827424 334.410337 
L 139.795028 332.822559 
L 142.746433 330.68318 
L 145.697838 329.071795 
L 146.68164 328.196778 
L 147.665442 327.780254 
L 149.633045 326.520173 
L 153.568252 323.698994 
L 154.552054 322.869577 
L 155.535856 322.206288 
L 156.519657 321.708227 
L 157.503459 321.084702 
L 158.487261 320.634971 
L 159.471063 319.830481 
L 160.454864 319.218781 
L 161.438666 318.207782 
L 164.390071 316.066998 
L 165.373873 314.979086 
L 166.357675 314.239491 
L 172.260485 308.982885 
L 173.244287 308.394832 
L 176.195692 305.846236 
L 177.179494 305.10007 
L 178.163296 304.090679 
L 180.130899 301.863267 
L 181.114701 301.252874 
L 182.098503 300.422422 
L 183.082305 299.349386 
L 184.066106 298.697719 
L 185.049908 297.7675 
L 187.017512 295.349845 
L 188.001313 293.837205 
L 188.985115 292.934015 
L 189.968917 291.702138 
L 190.952719 290.904253 
L 193.904124 287.58975 
L 194.887926 286.843605 
L 195.871727 285.737685 
L 201.774538 278.06302 
L 202.75834 276.990036 
L 203.742141 275.640767 
L 205.709745 273.617325 
L 206.693547 272.011208 
L 207.677348 270.986517 
L 208.66115 269.756661 
L 209.644952 268.238965 
L 211.612555 266.002388 
L 214.563961 261.939233 
L 216.531564 259.077319 
L 218.499168 255.939447 
L 219.482969 254.663335 
L 220.466771 252.890682 
L 225.38578 245.330582 
L 226.369582 243.655985 
L 227.353383 241.64258 
L 231.28859 234.948532 
L 234.239996 229.620307 
L 236.207599 225.223564 
L 237.191401 223.591832 
L 239.159004 219.688065 
L 240.142806 217.221113 
L 243.094211 210.601307 
L 244.078013 208.266703 
L 245.061815 206.417903 
L 247.029418 201.717343 
L 249.980824 193.989255 
L 251.948427 188.676796 
L 253.916031 183.169847 
L 257.851238 171.204318 
L 260.802643 161.408947 
L 262.770246 154.744376 
L 264.73785 147.275517 
L 271.624462 117.083006 
L 272.608264 112.269397 
L 274.575867 101.316693 
L 275.559669 94.666622 
L 276.543471 85.78659 
L 277.527273 66.987961 
L 278.511074 84.075692 
L 279.494876 92.591593 
L 280.478678 96.301035 
L 282.446281 104.744186 
L 283.430083 107.326685 
L 284.413885 109.228113 
L 285.397687 111.733395 
L 286.381488 114.948109 
L 287.36529 117.404778 
L 288.349092 118.941026 
L 289.332894 120.84279 
L 290.316695 123.499699 
L 291.300497 122.378618 
L 292.284299 123.092028 
L 293.268101 123.039835 
L 294.251902 125.930556 
L 295.235704 125.472612 
L 296.219506 127.010307 
L 297.203308 129.556989 
L 298.18711 131.622369 
L 299.170911 131.976289 
L 300.154713 134.893551 
L 301.138515 133.436229 
L 302.122317 134.336398 
L 303.106118 135.974825 
L 304.08992 136.91942 
L 305.073722 137.623517 
L 306.057524 138.850378 
L 307.041325 139.168972 
L 308.025127 139.73131 
L 309.008929 141.185012 
L 309.992731 142.383768 
L 310.976532 144.627244 
L 311.960334 145.318321 
L 312.944136 146.786083 
L 313.927938 147.916412 
L 314.911739 149.286588 
L 315.895541 150.053966 
L 316.879343 152.092138 
L 317.863145 153.774795 
L 318.846946 154.371933 
L 319.830748 157.501859 
L 320.81455 158.669563 
L 321.798352 158.638524 
L 322.782153 159.119023 
L 323.765955 159.345927 
L 324.749757 160.903125 
L 325.733559 163.032182 
L 327.701162 165.696684 
L 328.684964 166.605335 
L 329.668766 169.453759 
L 330.652567 170.891868 
L 331.636369 170.452786 
L 332.620171 172.013923 
L 334.587774 172.985272 
L 335.571576 173.857015 
L 336.555378 174.459011 
L 337.53918 176.12308 
L 338.522981 176.277015 
L 339.506783 177.067348 
L 340.490585 178.294846 
L 341.474387 179.879926 
L 342.458188 178.646736 
L 344.425792 179.743401 
L 345.409594 182.016461 
L 346.393395 182.360699 
L 347.377197 181.431286 
L 348.360999 181.667167 
L 349.344801 182.578849 
L 350.328602 183.962013 
L 351.312404 184.151292 
L 352.296206 182.704792 
L 353.280008 183.426508 
L 354.263809 183.200254 
L 355.247611 181.620969 
L 356.231413 183.073664 
L 357.215215 183.928163 
L 358.199016 184.082473 
L 359.182818 185.626351 
L 360.16662 186.286915 
L 361.150422 184.572425 
L 362.134223 188.378673 
L 363.118025 187.342145 
L 364.101827 187.39702 
L 365.085629 188.59581 
L 366.06943 188.171906 
L 367.053232 191.391863 
L 368.037034 191.502064 
L 369.020836 191.180018 
L 370.004637 191.567226 
L 370.988439 190.826617 
L 372.956043 191.004371 
L 373.939844 191.317068 
L 374.923646 193.009554 
L 375.907448 190.97087 
L 377.875051 194.876108 
L 378.858853 192.910962 
L 379.842655 190.135689 
L 380.826457 190.25812 
L 381.810258 188.829189 
L 383.777862 186.754027 
L 384.761664 188.385601 
L 385.745465 185.379196 
L 386.729267 187.441154 
L 387.713069 187.405004 
L 388.696871 188.520192 
L 389.680672 188.047706 
L 390.664474 190.124319 
L 391.648276 189.376789 
L 392.632078 188.856711 
L 394.599681 187.483963 
L 395.583483 188.856841 
L 396.567285 187.331498 
L 397.551086 183.200275 
L 398.534888 181.044695 
L 399.51869 181.493879 
L 400.502492 183.074623 
L 401.486293 185.750693 
L 402.470095 183.706289 
L 403.453897 182.20222 
L 405.4215 180.071913 
L 406.405302 176.053949 
L 407.389104 170.75618 
L 408.372906 170.884001 
L 409.356707 169.971626 
L 410.340509 171.281712 
L 411.324311 168.708874 
L 412.308113 164.407582 
L 413.291914 165.295567 
L 414.275716 167.151392 
L 415.259518 163.968708 
L 416.24332 163.033883 
L 417.227121 159.802657 
L 418.210923 154.06679 
L 419.194725 153.527021 
L 420.178527 143.051339 
L 421.162328 134.882602 
L 422.14613 133.716168 
L 423.129932 123.682444 
L 424.113734 129.369315 
L 424.113734 129.369315 
" clip-path="url(#p0e460c79ac)" style="fill: none; stroke: #ffa500; stroke-linecap: square"/>
   </g>
   <g id="line2d_22">
    <path d="M 130.940812 347.619134 
L 133.892217 345.139254 
L 134.876019 344.808206 
L 135.859821 344.286562 
L 136.843622 343.149417 
L 137.827424 342.366719 
L 139.795028 340.463221 
L 141.762631 338.703795 
L 142.746433 337.659744 
L 145.697838 335.602672 
L 146.68164 334.409662 
L 147.665442 333.841589 
L 148.649243 333.038379 
L 152.58445 329.212154 
L 153.568252 327.979892 
L 155.535856 325.24614 
L 156.519657 324.485575 
L 158.487261 322.784079 
L 160.454864 320.254757 
L 161.438666 318.358489 
L 164.390071 314.431457 
L 165.373873 312.545916 
L 166.357675 310.911107 
L 172.260485 299.747095 
L 173.244287 298.755569 
L 174.228089 296.856406 
L 175.211891 295.418132 
L 176.195692 293.370509 
L 177.179494 291.870744 
L 178.163296 289.950562 
L 179.147098 287.637985 
L 180.130899 285.612534 
L 181.114701 284.369965 
L 182.098503 282.657275 
L 183.082305 280.232212 
L 184.066106 278.93177 
L 185.049908 276.57646 
L 186.03371 273.857293 
L 187.017512 271.55233 
L 188.001313 268.254563 
L 188.985115 266.682794 
L 189.968917 264.419669 
L 190.952719 262.934903 
L 191.93652 261.103408 
L 193.904124 256.249368 
L 194.887926 254.35859 
L 197.839331 247.172644 
L 199.806934 242.678402 
L 200.790736 240.27655 
L 202.75834 236.347976 
L 203.742141 233.517796 
L 205.709745 229.54081 
L 206.693547 226.682724 
L 207.677348 225.081297 
L 208.66115 222.693348 
L 209.644952 219.937229 
L 210.628754 218.450026 
L 211.612555 216.338564 
L 215.547762 205.775082 
L 217.515366 200.775554 
L 218.499168 198.095344 
L 219.482969 195.97596 
L 220.466771 192.727207 
L 223.418176 186.000435 
L 225.38578 180.969679 
L 226.369582 178.506419 
L 228.337185 173.06124 
L 233.256194 160.654332 
L 235.223797 155.313226 
L 236.207599 152.638083 
L 237.191401 150.435689 
L 238.175203 147.573829 
L 239.159004 145.2001 
L 240.142806 142.219801 
L 244.078013 132.170762 
L 247.029418 125.393558 
L 248.997022 120.400845 
L 249.980824 118.347888 
L 250.964625 115.862317 
L 253.916031 109.751096 
L 254.899832 107.489523 
L 257.851238 101.313865 
L 258.835039 98.921872 
L 260.802643 95.173709 
L 268.673057 80.956614 
L 273.592066 72.791157 
L 277.527273 66.987961 
L 278.511074 95.717605 
L 279.494876 96.330066 
L 280.478678 133.270655 
L 282.446281 156.514779 
L 284.413885 194.910875 
L 285.397687 205.642508 
L 286.381488 212.998995 
L 287.36529 223.362539 
L 289.332894 241.119959 
L 290.316695 243.943275 
L 291.300497 254.166805 
L 292.284299 259.999154 
L 293.268101 263.656146 
L 294.251902 265.01242 
L 295.235704 270.997871 
L 296.219506 274.064728 
L 297.203308 274.846898 
L 298.18711 276.051808 
L 299.170911 278.699838 
L 300.154713 279.324498 
L 301.138515 285.378581 
L 302.122317 286.32532 
L 304.08992 291.297761 
L 306.057524 295.418932 
L 308.025127 297.820398 
L 309.992731 300.390286 
L 310.976532 300.781921 
L 311.960334 301.918896 
L 313.927938 303.183399 
L 314.911739 304.598222 
L 315.895541 305.138777 
L 316.879343 306.048516 
L 318.846946 308.213949 
L 319.830748 307.717429 
L 321.798352 309.074876 
L 322.782153 311.22608 
L 323.765955 311.678916 
L 324.749757 311.940039 
L 325.733559 312.489012 
L 328.684964 315.197992 
L 329.668766 315.700542 
L 330.652567 315.896003 
L 331.636369 317.198906 
L 332.620171 316.919906 
L 334.587774 318.12388 
L 335.571576 318.352017 
L 336.555378 318.7461 
L 337.53918 319.333688 
L 339.506783 320.97985 
L 340.490585 322.306075 
L 341.474387 322.062109 
L 342.458188 322.66774 
L 343.44199 323.546155 
L 344.425792 324.204492 
L 345.409594 324.710689 
L 346.393395 325.548725 
L 347.377197 325.799473 
L 348.360999 326.562909 
L 350.328602 327.807633 
L 351.312404 328.391939 
L 352.296206 329.156461 
L 356.231413 330.807816 
L 357.215215 331.665532 
L 358.199016 332.164349 
L 361.150422 332.391267 
L 362.134223 333.494711 
L 364.101827 334.482411 
L 365.085629 334.913071 
L 366.06943 334.757227 
L 367.053232 335.992011 
L 368.037034 336.293136 
L 369.020836 336.348555 
L 370.004637 336.974373 
L 372.956043 338.288836 
L 373.939844 338.481436 
L 374.923646 339.047562 
L 375.907448 339.111555 
L 376.89125 339.979264 
L 377.875051 340.469546 
L 379.842655 340.086642 
L 380.826457 340.492474 
L 381.810258 340.65553 
L 382.79406 341.036184 
L 383.777862 341.147454 
L 384.761664 341.678578 
L 385.745465 341.640684 
L 386.729267 342.097844 
L 388.696871 342.587067 
L 389.680672 342.642956 
L 391.648276 343.294211 
L 396.567285 344.615929 
L 397.551086 344.474315 
L 399.51869 345.076995 
L 401.486293 346.362236 
L 403.453897 346.520898 
L 405.4215 346.980894 
L 407.389104 346.3709 
L 410.340509 347.382463 
L 411.324311 347.47024 
L 412.308113 347.375105 
L 414.275716 348.489651 
L 416.24332 348.755797 
L 417.227121 348.872636 
L 418.210923 348.867817 
L 419.194725 349.310516 
L 420.178527 348.896739 
L 421.162328 348.746025 
L 422.14613 349.071832 
L 423.129932 348.778486 
L 424.113734 349.21081 
L 424.113734 349.21081 
" clip-path="url(#p0e460c79ac)" style="fill: none; stroke-dasharray: 1,1.65; stroke-dashoffset: 0; stroke: #ffa500"/>
   </g>
   <g id="patch_3">
    <path d="M 115.2 388.9656 
L 115.2 52.4448 
" style="fill: none; stroke: #000000; stroke-width: 0.8; stroke-linejoin: miter; stroke-linecap: square"/>
   </g>
   <g id="patch_4">
    <path d="M 439.854545 388.9656 
L 439.854545 52.4448 
" style="fill: none; stroke: #000000; stroke-width: 0.8; stroke-linejoin: miter; stroke-linecap: square"/>
   </g>
   <g id="patch_5">
    <path d="M 115.2 388.9656 
L 439.854545 388.9656 
" style="fill: none; stroke: #000000; stroke-width: 0.8; stroke-linejoin: miter; stroke-linecap: square"/>
   </g>
   <g id="patch_6">
    <path d="M 115.2 52.4448 
L 439.854545 52.4448 
" style="fill: none; stroke: #000000; stroke-width: 0.8; stroke-linejoin: miter; stroke-linecap: square"/>
   </g>
   <g id="text_14">
    <!-- lambda=0 -->
    <g transform="translate(246.198835 46.4448)scale(0.12 -0.12)">
     <defs>
      <path id="DejaVuSans-6c" d="M 603 4863 
L 1178 4863 
L 1178 0 
L 603 0 
L 603 4863 
z
" transform="scale(0.015625)"/>
      <path id="DejaVuSans-61" d="M 2194 1759 
Q 1497 1759 1228 1600 
Q 959 1441 959 1056 
Q 959 750 1161 570 
Q 1363 391 1709 391 
Q 2188 391 2477 730 
Q 2766 1069 2766 1631 
L 2766 1759 
L 2194 1759 
z
M 3341 1997 
L 3341 0 
L 2766 0 
L 2766 531 
Q 2569 213 2275 61 
Q 1981 -91 1556 -91 
Q 1019 -91 701 211 
Q 384 513 384 1019 
Q 384 1609 779 1909 
Q 1175 2209 1959 2209 
L 2766 2209 
L 2766 2266 
Q 2766 2663 2505 2880 
Q 2244 3097 1772 3097 
Q 1472 3097 1187 3025 
Q 903 2953 641 2809 
L 641 3341 
Q 956 3463 1253 3523 
Q 1550 3584 1831 3584 
Q 2591 3584 2966 3190 
Q 3341 2797 3341 1997 
z
" transform="scale(0.015625)"/>
      <path id="DejaVuSans-6d" d="M 3328 2828 
Q 3544 3216 3844 3400 
Q 4144 3584 4550 3584 
Q 5097 3584 5394 3201 
Q 5691 2819 5691 2113 
L 5691 0 
L 5113 0 
L 5113 2094 
Q 5113 2597 4934 2840 
Q 4756 3084 4391 3084 
Q 3944 3084 3684 2787 
Q 3425 2491 3425 1978 
L 3425 0 
L 2847 0 
L 2847 2094 
Q 2847 2600 2669 2842 
Q 2491 3084 2119 3084 
Q 1678 3084 1418 2786 
Q 1159 2488 1159 1978 
L 1159 0 
L 581 0 
L 581 3500 
L 1159 3500 
L 1159 2956 
Q 1356 3278 1631 3431 
Q 1906 3584 2284 3584 
Q 2666 3584 2933 3390 
Q 3200 3197 3328 2828 
z
" transform="scale(0.015625)"/>
      <path id="DejaVuSans-62" d="M 3116 1747 
Q 3116 2381 2855 2742 
Q 2594 3103 2138 3103 
Q 1681 3103 1420 2742 
Q 1159 2381 1159 1747 
Q 1159 1113 1420 752 
Q 1681 391 2138 391 
Q 2594 391 2855 752 
Q 3116 1113 3116 1747 
z
M 1159 2969 
Q 1341 3281 1617 3432 
Q 1894 3584 2278 3584 
Q 2916 3584 3314 3078 
Q 3713 2572 3713 1747 
Q 3713 922 3314 415 
Q 2916 -91 2278 -91 
Q 1894 -91 1617 61 
Q 1341 213 1159 525 
L 1159 0 
L 581 0 
L 581 4863 
L 1159 4863 
L 1159 2969 
z
" transform="scale(0.015625)"/>
      <path id="DejaVuSans-64" d="M 2906 2969 
L 2906 4863 
L 3481 4863 
L 3481 0 
L 2906 0 
L 2906 525 
Q 2725 213 2448 61 
Q 2172 -91 1784 -91 
Q 1150 -91 751 415 
Q 353 922 353 1747 
Q 353 2572 751 3078 
Q 1150 3584 1784 3584 
Q 2172 3584 2448 3432 
Q 2725 3281 2906 2969 
z
M 947 1747 
Q 947 1113 1208 752 
Q 1469 391 1925 391 
Q 2381 391 2643 752 
Q 2906 1113 2906 1747 
Q 2906 2381 2643 2742 
Q 2381 3103 1925 3103 
Q 1469 3103 1208 2742 
Q 947 2381 947 1747 
z
" transform="scale(0.015625)"/>
      <path id="DejaVuSans-3d" d="M 678 2906 
L 4684 2906 
L 4684 2381 
L 678 2381 
L 678 2906 
z
M 678 1631 
L 4684 1631 
L 4684 1100 
L 678 1100 
L 678 1631 
z
" transform="scale(0.015625)"/>
     </defs>
     <use xlink:href="#DejaVuSans-6c"/>
     <use xlink:href="#DejaVuSans-61" x="27.783203"/>
     <use xlink:href="#DejaVuSans-6d" x="89.0625"/>
     <use xlink:href="#DejaVuSans-62" x="186.474609"/>
     <use xlink:href="#DejaVuSans-64" x="249.951172"/>
     <use xlink:href="#DejaVuSans-61" x="313.427734"/>
     <use xlink:href="#DejaVuSans-3d" x="374.707031"/>
     <use xlink:href="#DejaVuSans-30" x="458.496094"/>
    </g>
   </g>
   <g id="legend_1">
    <g id="patch_7">
     <path d="M 379.62017 383.9656 
L 432.854545 383.9656 
Q 434.854545 383.9656 434.854545 381.9656 
L 434.854545 309.574975 
Q 434.854545 307.574975 432.854545 307.574975 
L 379.62017 307.574975 
Q 377.62017 307.574975 377.62017 309.574975 
L 377.62017 381.9656 
Q 377.62017 383.9656 379.62017 383.9656 
z
" style="fill: #ffffff; opacity: 0.8; stroke: #cccccc; stroke-linejoin: miter"/>
    </g>
    <g id="line2d_23">
     <path d="M 381.62017 315.673413 
L 391.62017 315.673413 
L 401.62017 315.673413 
" style="fill: none; stroke-dasharray: 7.4,3.2; stroke-dashoffset: 0; stroke: #ff0000; stroke-width: 2"/>
    </g>
    <g id="text_15">
     <!-- True -->
     <g transform="translate(409.62017 319.173413)scale(0.1 -0.1)">
      <defs>
       <path id="DejaVuSans-54" d="M -19 4666 
L 3928 4666 
L 3928 4134 
L 2272 4134 
L 2272 0 
L 1638 0 
L 1638 4134 
L -19 4134 
L -19 4666 
z
" transform="scale(0.015625)"/>
       <path id="DejaVuSans-72" d="M 2631 2963 
Q 2534 3019 2420 3045 
Q 2306 3072 2169 3072 
Q 1681 3072 1420 2755 
Q 1159 2438 1159 1844 
L 1159 0 
L 581 0 
L 581 3500 
L 1159 3500 
L 1159 2956 
Q 1341 3275 1631 3429 
Q 1922 3584 2338 3584 
Q 2397 3584 2469 3576 
Q 2541 3569 2628 3553 
L 2631 2963 
z
" transform="scale(0.015625)"/>
       <path id="DejaVuSans-75" d="M 544 1381 
L 544 3500 
L 1119 3500 
L 1119 1403 
Q 1119 906 1312 657 
Q 1506 409 1894 409 
Q 2359 409 2629 706 
Q 2900 1003 2900 1516 
L 2900 3500 
L 3475 3500 
L 3475 0 
L 2900 0 
L 2900 538 
Q 2691 219 2414 64 
Q 2138 -91 1772 -91 
Q 1169 -91 856 284 
Q 544 659 544 1381 
z
M 1991 3584 
L 1991 3584 
z
" transform="scale(0.015625)"/>
       <path id="DejaVuSans-65" d="M 3597 1894 
L 3597 1613 
L 953 1613 
Q 991 1019 1311 708 
Q 1631 397 2203 397 
Q 2534 397 2845 478 
Q 3156 559 3463 722 
L 3463 178 
Q 3153 47 2828 -22 
Q 2503 -91 2169 -91 
Q 1331 -91 842 396 
Q 353 884 353 1716 
Q 353 2575 817 3079 
Q 1281 3584 2069 3584 
Q 2775 3584 3186 3129 
Q 3597 2675 3597 1894 
z
M 3022 2063 
Q 3016 2534 2758 2815 
Q 2500 3097 2075 3097 
Q 1594 3097 1305 2825 
Q 1016 2553 972 2059 
L 3022 2063 
z
" transform="scale(0.015625)"/>
      </defs>
      <use xlink:href="#DejaVuSans-54"/>
      <use xlink:href="#DejaVuSans-72" x="46.333984"/>
      <use xlink:href="#DejaVuSans-75" x="87.447266"/>
      <use xlink:href="#DejaVuSans-65" x="150.826172"/>
     </g>
    </g>
    <g id="line2d_24">
     <path d="M 381.62017 330.351538 
L 391.62017 330.351538 
L 401.62017 330.351538 
" style="fill: none; stroke: #0000ff; stroke-linecap: square"/>
    </g>
    <g id="text_16">
     <!-- 0.1 -->
     <g transform="translate(409.62017 333.851538)scale(0.1 -0.1)">
      <use xlink:href="#DejaVuSans-30"/>
      <use xlink:href="#DejaVuSans-2e" x="63.623047"/>
      <use xlink:href="#DejaVuSans-31" x="95.410156"/>
     </g>
    </g>
    <g id="line2d_25">
     <path d="M 381.62017 345.029663 
L 391.62017 345.029663 
L 401.62017 345.029663 
" style="fill: none; stroke: #ff00ff; stroke-linecap: square"/>
    </g>
    <g id="text_17">
     <!-- 1 -->
     <g transform="translate(409.62017 348.529663)scale(0.1 -0.1)">
      <use xlink:href="#DejaVuSans-31"/>
     </g>
    </g>
    <g id="line2d_26">
     <path d="M 381.62017 359.707787 
L 391.62017 359.707787 
L 401.62017 359.707787 
" style="fill: none; stroke: #008000; stroke-linecap: square"/>
    </g>
    <g id="text_18">
     <!-- 10 -->
     <g transform="translate(409.62017 363.207787)scale(0.1 -0.1)">
      <use xlink:href="#DejaVuSans-31"/>
      <use xlink:href="#DejaVuSans-30" x="63.623047"/>
     </g>
    </g>
    <g id="line2d_27">
     <path d="M 381.62017 374.385913 
L 391.62017 374.385913 
L 401.62017 374.385913 
" style="fill: none; stroke: #ffa500; stroke-linecap: square"/>
    </g>
    <g id="text_19">
     <!-- inf -->
     <g transform="translate(409.62017 377.885913)scale(0.1 -0.1)">
      <defs>
       <path id="DejaVuSans-69" d="M 603 3500 
L 1178 3500 
L 1178 0 
L 603 0 
L 603 3500 
z
M 603 4863 
L 1178 4863 
L 1178 4134 
L 603 4134 
L 603 4863 
z
" transform="scale(0.015625)"/>
       <path id="DejaVuSans-6e" d="M 3513 2113 
L 3513 0 
L 2938 0 
L 2938 2094 
Q 2938 2591 2744 2837 
Q 2550 3084 2163 3084 
Q 1697 3084 1428 2787 
Q 1159 2491 1159 1978 
L 1159 0 
L 581 0 
L 581 3500 
L 1159 3500 
L 1159 2956 
Q 1366 3272 1645 3428 
Q 1925 3584 2291 3584 
Q 2894 3584 3203 3211 
Q 3513 2838 3513 2113 
z
" transform="scale(0.015625)"/>
       <path id="DejaVuSans-66" d="M 2375 4863 
L 2375 4384 
L 1825 4384 
Q 1516 4384 1395 4259 
Q 1275 4134 1275 3809 
L 1275 3500 
L 2222 3500 
L 2222 3053 
L 1275 3053 
L 1275 0 
L 697 0 
L 697 3053 
L 147 3053 
L 147 3500 
L 697 3500 
L 697 3744 
Q 697 4328 969 4595 
Q 1241 4863 1831 4863 
L 2375 4863 
z
" transform="scale(0.015625)"/>
      </defs>
      <use xlink:href="#DejaVuSans-69"/>
      <use xlink:href="#DejaVuSans-6e" x="27.783203"/>
      <use xlink:href="#DejaVuSans-66" x="91.162109"/>
     </g>
    </g>
   </g>
  </g>
  <g id="axes_2">
   <g id="patch_8">
    <path d="M 504.785455 388.9656 
L 829.44 388.9656 
L 829.44 52.4448 
L 504.785455 52.4448 
z
" style="fill: #ffffff"/>
   </g>
   <g id="matplotlib.axis_3">
    <g id="xtick_8">
     <g id="line2d_28">
      <g>
       <use xlink:href="#mc2c59f7b9f" x="519.542479" y="388.9656" style="stroke: #000000; stroke-width: 0.8"/>
      </g>
     </g>
     <g id="text_20">
      <!-- −1.5 -->
      <g transform="translate(507.401073 403.564038)scale(0.1 -0.1)">
       <use xlink:href="#DejaVuSans-2212"/>
       <use xlink:href="#DejaVuSans-31" x="83.789062"/>
       <use xlink:href="#DejaVuSans-2e" x="147.412109"/>
       <use xlink:href="#DejaVuSans-35" x="179.199219"/>
      </g>
     </g>
    </g>
    <g id="xtick_9">
     <g id="line2d_29">
      <g>
       <use xlink:href="#mc2c59f7b9f" x="568.732562" y="388.9656" style="stroke: #000000; stroke-width: 0.8"/>
      </g>
     </g>
     <g id="text_21">
      <!-- −1.0 -->
      <g transform="translate(556.591156 403.564038)scale(0.1 -0.1)">
       <use xlink:href="#DejaVuSans-2212"/>
       <use xlink:href="#DejaVuSans-31" x="83.789062"/>
       <use xlink:href="#DejaVuSans-2e" x="147.412109"/>
       <use xlink:href="#DejaVuSans-30" x="179.199219"/>
      </g>
     </g>
    </g>
    <g id="xtick_10">
     <g id="line2d_30">
      <g>
       <use xlink:href="#mc2c59f7b9f" x="617.922645" y="388.9656" style="stroke: #000000; stroke-width: 0.8"/>
      </g>
     </g>
     <g id="text_22">
      <!-- −0.5 -->
      <g transform="translate(605.781238 403.564038)scale(0.1 -0.1)">
       <use xlink:href="#DejaVuSans-2212"/>
       <use xlink:href="#DejaVuSans-30" x="83.789062"/>
       <use xlink:href="#DejaVuSans-2e" x="147.412109"/>
       <use xlink:href="#DejaVuSans-35" x="179.199219"/>
      </g>
     </g>
    </g>
    <g id="xtick_11">
     <g id="line2d_31">
      <g>
       <use xlink:href="#mc2c59f7b9f" x="667.112727" y="388.9656" style="stroke: #000000; stroke-width: 0.8"/>
      </g>
     </g>
     <g id="text_23">
      <!-- 0.0 -->
      <g transform="translate(659.161165 403.564038)scale(0.1 -0.1)">
       <use xlink:href="#DejaVuSans-30"/>
       <use xlink:href="#DejaVuSans-2e" x="63.623047"/>
       <use xlink:href="#DejaVuSans-30" x="95.410156"/>
      </g>
     </g>
    </g>
    <g id="xtick_12">
     <g id="line2d_32">
      <g>
       <use xlink:href="#mc2c59f7b9f" x="716.30281" y="388.9656" style="stroke: #000000; stroke-width: 0.8"/>
      </g>
     </g>
     <g id="text_24">
      <!-- 0.5 -->
      <g transform="translate(708.351247 403.564038)scale(0.1 -0.1)">
       <use xlink:href="#DejaVuSans-30"/>
       <use xlink:href="#DejaVuSans-2e" x="63.623047"/>
       <use xlink:href="#DejaVuSans-35" x="95.410156"/>
      </g>
     </g>
    </g>
    <g id="xtick_13">
     <g id="line2d_33">
      <g>
       <use xlink:href="#mc2c59f7b9f" x="765.492893" y="388.9656" style="stroke: #000000; stroke-width: 0.8"/>
      </g>
     </g>
     <g id="text_25">
      <!-- 1.0 -->
      <g transform="translate(757.54133 403.564038)scale(0.1 -0.1)">
       <use xlink:href="#DejaVuSans-31"/>
       <use xlink:href="#DejaVuSans-2e" x="63.623047"/>
       <use xlink:href="#DejaVuSans-30" x="95.410156"/>
      </g>
     </g>
    </g>
    <g id="xtick_14">
     <g id="line2d_34">
      <g>
       <use xlink:href="#mc2c59f7b9f" x="814.682975" y="388.9656" style="stroke: #000000; stroke-width: 0.8"/>
      </g>
     </g>
     <g id="text_26">
      <!-- 1.5 -->
      <g transform="translate(806.731413 403.564038)scale(0.1 -0.1)">
       <use xlink:href="#DejaVuSans-31"/>
       <use xlink:href="#DejaVuSans-2e" x="63.623047"/>
       <use xlink:href="#DejaVuSans-35" x="95.410156"/>
      </g>
     </g>
    </g>
   </g>
   <g id="matplotlib.axis_4">
    <g id="ytick_7">
     <g id="line2d_35">
      <g>
       <use xlink:href="#maca2955e28" x="504.785455" y="357.851189" style="stroke: #000000; stroke-width: 0.8"/>
      </g>
     </g>
    </g>
    <g id="ytick_8">
     <g id="line2d_36">
      <g>
       <use xlink:href="#maca2955e28" x="504.785455" y="299.678543" style="stroke: #000000; stroke-width: 0.8"/>
      </g>
     </g>
    </g>
    <g id="ytick_9">
     <g id="line2d_37">
      <g>
       <use xlink:href="#maca2955e28" x="504.785455" y="241.505898" style="stroke: #000000; stroke-width: 0.8"/>
      </g>
     </g>
    </g>
    <g id="ytick_10">
     <g id="line2d_38">
      <g>
       <use xlink:href="#maca2955e28" x="504.785455" y="183.333252" style="stroke: #000000; stroke-width: 0.8"/>
      </g>
     </g>
    </g>
    <g id="ytick_11">
     <g id="line2d_39">
      <g>
       <use xlink:href="#maca2955e28" x="504.785455" y="125.160607" style="stroke: #000000; stroke-width: 0.8"/>
      </g>
     </g>
    </g>
    <g id="ytick_12">
     <g id="line2d_40">
      <g>
       <use xlink:href="#maca2955e28" x="504.785455" y="66.987961" style="stroke: #000000; stroke-width: 0.8"/>
      </g>
     </g>
    </g>
   </g>
   <g id="line2d_41">
    <path d="M 519.542479 357.690317 
L 538.234711 357.435221 
L 551.024132 357.054385 
L 560.862149 356.537482 
L 568.732562 355.891368 
L 574.635372 355.205707 
L 580.538182 354.280162 
L 585.45719 353.2659 
L 589.392397 352.250704 
L 593.327603 351.010741 
L 597.26281 349.496247 
L 600.214215 348.144132 
L 603.16562 346.573198 
L 606.117025 344.748032 
L 609.06843 342.627493 
L 612.019835 340.163778 
L 614.97124 337.301349 
L 616.938843 335.140103 
L 618.906446 332.751558 
L 620.87405 330.111807 
L 622.841653 327.19443 
L 624.809256 323.970231 
L 626.77686 320.406939 
L 628.744463 316.468893 
L 630.712066 312.116679 
L 632.679669 307.306739 
L 634.647273 301.990933 
L 636.614876 296.116058 
L 638.582479 289.623318 
L 640.550083 282.44773 
L 642.517686 274.517479 
L 644.485289 265.753196 
L 646.452893 256.067166 
L 648.420496 245.362447 
L 650.388099 233.531902 
L 652.355702 220.457129 
L 654.323306 206.007269 
L 656.290909 190.037705 
L 658.258512 172.388607 
L 660.226116 152.883337 
L 662.193719 131.32668 
L 664.161322 107.502889 
L 666.128926 81.173528 
L 667.112727 66.987961 
L 671.047934 81.173528 
L 674.98314 94.667257 
L 678.918347 107.502889 
L 682.853554 119.71252 
L 686.78876 131.32668 
L 690.723967 142.37441 
L 694.659174 152.883337 
L 698.59438 162.879737 
L 702.529587 172.388607 
L 707.448595 183.625217 
L 712.367603 194.181035 
L 717.286612 204.097308 
L 722.20562 213.412785 
L 727.124628 222.163865 
L 732.043636 230.384745 
L 736.962645 238.107546 
L 741.881653 245.362447 
L 746.800661 252.177795 
L 751.719669 258.580222 
L 756.638678 264.594746 
L 761.557686 270.244868 
L 766.476694 275.552667 
L 771.395702 280.538882 
L 776.314711 285.222998 
L 781.233719 289.623318 
L 786.152727 293.757036 
L 791.071736 297.640304 
L 796.974545 301.990933 
L 802.877355 306.0272 
L 808.780165 309.771821 
L 813.699174 312.684802 
L 813.699174 312.684802 
" clip-path="url(#pfa22911a65)" style="fill: none; stroke-dasharray: 7.4,3.2; stroke-dashoffset: 0; stroke: #ff0000; stroke-width: 2"/>
   </g>
   <g id="line2d_42">
    <path d="M 519.542479 339.918436 
L 526.429091 343.043618 
L 536.267107 346.855138 
L 545.121322 349.731399 
L 555.94314 352.907411 
L 564.797355 355.031479 
L 568.732562 355.722187 
L 574.635372 356.422745 
L 580.538182 356.705202 
L 589.392397 356.535393 
L 591.36 356.285736 
L 593.327603 356.058935 
L 596.279008 355.479311 
L 600.214215 354.573122 
L 603.16562 353.670355 
L 606.117025 352.435581 
L 608.084628 351.501724 
L 611.036033 349.72429 
L 613.987438 347.661412 
L 616.938843 345.146916 
L 618.906446 343.231004 
L 620.87405 340.994876 
L 623.825455 337.161319 
L 625.793058 334.27127 
L 627.760661 331.036094 
L 630.712066 325.473285 
L 632.679669 321.222427 
L 634.647273 316.460322 
L 636.614876 311.146312 
L 638.582479 305.145101 
L 640.550083 298.466301 
L 643.501488 287.446443 
L 645.469091 279.135717 
L 647.436694 269.642863 
L 649.404298 259.164102 
L 651.371901 247.727862 
L 654.323306 228.342301 
L 656.290909 213.657975 
L 658.258512 197.21423 
L 660.226116 178.968141 
L 662.193719 158.681075 
L 664.161322 136.126365 
L 666.128926 111.429124 
L 667.112727 66.987961 
L 668.096529 72.110678 
L 673.015537 92.017606 
L 675.966942 103.68979 
L 680.88595 121.281232 
L 685.804959 138.132791 
L 688.756364 147.819691 
L 698.59438 177.215385 
L 701.545785 185.280865 
L 708.432397 202.639011 
L 711.383802 209.661421 
L 715.319008 218.886386 
L 718.270413 225.348345 
L 719.254215 227.185494 
L 723.189421 235.541056 
L 727.124628 243.249179 
L 734.995041 257.051703 
L 742.865455 269.72804 
L 746.800661 275.327663 
L 748.768264 277.959419 
L 750.735868 280.647161 
L 751.719669 281.831855 
L 754.671074 285.848427 
L 761.557686 294.341341 
L 765.492893 298.913157 
L 769.428099 303.19934 
L 774.347107 308.077539 
L 777.298512 310.815286 
L 784.185124 316.589952 
L 790.087934 321.174125 
L 792.055537 322.545651 
L 796.974545 326.093041 
L 798.942149 327.315668 
L 800.909752 328.551377 
L 803.861157 330.140029 
L 805.82876 331.414429 
L 806.812562 332.287919 
L 810.747769 334.626043 
L 814.682975 336.725706 
L 814.682975 336.725706 
" clip-path="url(#pfa22911a65)" style="fill: none; stroke: #0000ff; stroke-linecap: square"/>
   </g>
   <g id="line2d_43">
    <path d="M 519.542479 350.371998 
L 530.364298 352.778024 
L 538.234711 354.325516 
L 547.088926 355.696497 
L 552.991736 356.451043 
L 559.878347 357.127707 
L 565.781157 357.496668 
L 572.667769 357.701529 
L 583.489587 357.766813 
L 592.343802 357.650923 
L 596.279008 357.419458 
L 600.214215 356.973694 
L 603.16562 356.345716 
L 605.133223 355.625539 
L 607.100826 354.700604 
L 608.084628 354.084457 
L 610.052231 352.450239 
L 612.019835 350.236996 
L 613.003636 348.864196 
L 613.987438 347.243302 
L 614.97124 345.362875 
L 615.955041 343.229694 
L 616.938843 340.714917 
L 617.922645 337.860344 
L 618.906446 334.556705 
L 619.890248 330.77213 
L 620.87405 326.446176 
L 622.841653 316.20037 
L 623.825455 310.310926 
L 625.793058 296.63341 
L 627.760661 280.517691 
L 629.728264 262.182166 
L 633.663471 218.458391 
L 636.614876 187.631382 
L 638.582479 169.589731 
L 639.566281 166.725532 
L 641.533884 152.963516 
L 642.517686 147.052935 
L 643.501488 135.298643 
L 644.485289 126.810716 
L 645.469091 122.719005 
L 646.452893 119.240578 
L 648.420496 113.31099 
L 649.404298 111.506844 
L 650.388099 105.284942 
L 651.371901 104.031572 
L 652.355702 103.219407 
L 653.339504 102.198627 
L 654.323306 98.349017 
L 656.290909 95.185155 
L 659.242314 95.583064 
L 662.193719 96.796415 
L 665.145124 98.26322 
L 666.128926 98.831447 
L 667.112727 66.987961 
L 668.096529 68.140425 
L 671.047934 68.212514 
L 676.950744 68.787177 
L 678.918347 68.917062 
L 679.902149 68.988933 
L 680.88595 76.845582 
L 682.853554 77.428038 
L 685.804959 77.738852 
L 687.772562 78.095352 
L 688.756364 78.436592 
L 689.740165 80.296332 
L 692.69157 80.875724 
L 693.675372 81.598229 
L 695.642975 82.021284 
L 696.626777 84.049759 
L 700.561983 85.053782 
L 701.545785 86.147765 
L 702.529587 89.152106 
L 703.513388 89.45831 
L 704.49719 92.876459 
L 705.480992 93.523329 
L 706.464793 94.868185 
L 707.448595 95.313387 
L 708.432397 96.226076 
L 709.416198 98.082522 
L 711.383802 98.853357 
L 717.286612 101.76641 
L 718.270413 102.846538 
L 719.254215 106.926122 
L 723.189421 109.498582 
L 725.157025 110.831244 
L 726.140826 111.770647 
L 727.124628 112.483417 
L 728.10843 114.384145 
L 730.076033 116.098456 
L 731.059835 118.557177 
L 732.043636 120.105857 
L 733.027438 122.159006 
L 734.01124 123.299753 
L 734.995041 126.082653 
L 735.978843 128.329051 
L 736.962645 129.859118 
L 737.946446 132.318837 
L 740.897851 136.696879 
L 742.865455 139.659596 
L 743.849256 142.493519 
L 745.81686 149.440053 
L 746.800661 151.267496 
L 747.784463 157.094937 
L 749.752066 160.914568 
L 750.735868 163.47737 
L 751.719669 172.202874 
L 753.687273 177.473005 
L 754.671074 179.716321 
L 758.606281 190.086547 
L 759.590083 192.258114 
L 760.573884 196.002437 
L 762.541488 201.093764 
L 764.509091 206.625381 
L 766.476694 212.817007 
L 770.411901 226.658209 
L 772.379504 234.28542 
L 775.330909 246.888059 
L 777.298512 255.702825 
L 780.249917 269.782547 
L 782.217521 278.847205 
L 785.168926 291.121831 
L 786.152727 294.258168 
L 788.120331 299.226314 
L 790.087934 303.414977 
L 791.071736 306.412536 
L 796.974545 317.175977 
L 797.958347 319.789867 
L 800.909752 324.53957 
L 801.893554 326.498313 
L 803.861157 329.374638 
L 805.82876 331.248904 
L 806.812562 329.852612 
L 812.715372 335.228736 
L 814.682975 336.890053 
L 814.682975 336.890053 
" clip-path="url(#pfa22911a65)" style="fill: none; stroke-dasharray: 1,1.65; stroke-dashoffset: 0; stroke: #0000ff"/>
   </g>
   <g id="line2d_44">
    <path d="M 519.542479 356.02218 
L 527.412893 353.572757 
L 545.121322 347.941354 
L 548.072727 346.926823 
L 555.94314 344.404992 
L 560.862149 342.832185 
L 570.700165 339.373559 
L 576.602975 336.847909 
L 585.45719 332.755406 
L 590.376198 330.144848 
L 594.311405 327.87249 
L 601.198017 323.167993 
L 605.133223 319.971899 
L 608.084628 317.234418 
L 611.036033 314.134237 
L 613.003636 311.841278 
L 615.955041 308.073802 
L 618.906446 303.897402 
L 620.87405 300.731257 
L 623.825455 295.53468 
L 626.77686 289.726622 
L 629.728264 283.213395 
L 631.695868 278.500903 
L 634.647273 270.567908 
L 636.614876 264.680638 
L 638.582479 258.373865 
L 640.550083 251.528232 
L 642.517686 243.900125 
L 644.485289 235.501394 
L 646.452893 226.458868 
L 648.420496 216.543457 
L 650.388099 205.648884 
L 652.355702 193.777117 
L 654.323306 180.815013 
L 656.290909 166.616441 
L 658.258512 151.27657 
L 660.226116 134.576301 
L 662.193719 116.269965 
L 664.161322 96.229984 
L 666.128926 74.279974 
L 667.112727 66.987961 
L 668.096529 69.950917 
L 670.064132 77.173011 
L 672.031736 84.17275 
L 673.999339 91.05008 
L 679.902149 111.141463 
L 682.853554 120.317806 
L 684.821157 126.494652 
L 686.78876 132.077876 
L 692.69157 148.651465 
L 695.642975 156.457585 
L 699.578182 166.306298 
L 701.545785 170.89788 
L 706.464793 181.864113 
L 707.448595 183.795249 
L 709.416198 188.188443 
L 711.383802 192.296847 
L 714.335207 198.264637 
L 716.30281 202.122849 
L 719.254215 207.805744 
L 722.20562 213.025278 
L 727.124628 221.739095 
L 730.076033 226.527078 
L 732.043636 229.279064 
L 734.995041 233.88985 
L 736.962645 236.789458 
L 741.881653 243.338471 
L 753.687273 258.971237 
L 760.573884 267.181619 
L 770.411901 277.47689 
L 778.282314 285.068856 
L 786.152727 291.890813 
L 790.087934 295.023532 
L 795.006942 298.732094 
L 800.909752 302.780483 
L 808.780165 308.001474 
L 813.699174 310.990514 
L 814.682975 311.550589 
L 814.682975 311.550589 
" clip-path="url(#pfa22911a65)" style="fill: none; stroke: #ff00ff; stroke-linecap: square"/>
   </g>
   <g id="line2d_45">
    <path d="M 519.542479 357.682337 
L 524.461488 357.329055 
L 529.380496 356.812066 
L 540.202314 355.196353 
L 547.088926 353.852391 
L 556.926942 351.613485 
L 565.781157 348.890726 
L 569.716364 347.388763 
L 573.65157 345.560515 
L 576.602975 343.987341 
L 580.538182 341.696074 
L 585.45719 338.339933 
L 588.408595 335.877406 
L 590.376198 334.083292 
L 593.327603 331.059488 
L 595.295207 328.758542 
L 598.246612 324.833746 
L 601.198017 320.284744 
L 604.149421 314.99883 
L 606.117025 311.032293 
L 608.084628 306.700295 
L 610.052231 301.821474 
L 612.019835 296.534987 
L 613.987438 290.594284 
L 615.955041 284.120135 
L 618.906446 273.176383 
L 620.87405 264.999435 
L 623.825455 251.690398 
L 626.77686 236.790856 
L 629.728264 220.452958 
L 632.679669 202.920865 
L 643.501488 135.545949 
L 646.452893 119.0629 
L 648.420496 109.060564 
L 650.388099 100.161616 
L 652.355702 92.341177 
L 654.323306 85.631746 
L 656.290909 79.988835 
L 658.258512 75.488394 
L 660.226116 72.094161 
L 661.209917 70.717236 
L 662.193719 69.609247 
L 663.177521 68.709217 
L 664.161322 67.983981 
L 666.128926 67.168491 
L 667.112727 66.987961 
L 668.096529 68.243731 
L 669.080331 68.853851 
L 670.064132 70.561306 
L 671.047934 71.492559 
L 672.031736 74.070887 
L 673.015537 75.568854 
L 673.999339 76.250568 
L 675.966942 77.963311 
L 676.950744 78.393435 
L 677.934545 78.630607 
L 678.918347 81.449185 
L 679.902149 81.979158 
L 680.88595 83.670415 
L 681.869752 84.903209 
L 682.853554 85.239585 
L 683.837355 85.704652 
L 684.821157 86.515017 
L 685.804959 88.182435 
L 686.78876 89.042509 
L 688.756364 91.232922 
L 689.740165 91.691641 
L 690.723967 92.638506 
L 692.69157 95.133816 
L 693.675372 96.035985 
L 694.659174 97.506681 
L 696.626777 99.462005 
L 698.59438 101.430124 
L 700.561983 104.165397 
L 701.545785 106.309459 
L 702.529587 108.186588 
L 703.513388 109.382534 
L 704.49719 112.051221 
L 705.480992 113.087896 
L 706.464793 114.634895 
L 707.448595 116.863654 
L 708.432397 117.959319 
L 709.416198 119.260419 
L 710.4 120.898313 
L 711.383802 122.070849 
L 714.335207 126.72381 
L 715.319008 128.677843 
L 716.30281 130.01323 
L 719.254215 134.690815 
L 724.173223 143.637665 
L 725.157025 146.319736 
L 728.10843 151.51695 
L 730.076033 155.200678 
L 731.059835 163.956365 
L 732.043636 166.528984 
L 734.01124 170.052599 
L 736.962645 176.311712 
L 737.946446 178.871282 
L 738.930248 183.513645 
L 739.91405 185.918526 
L 740.897851 189.195111 
L 754.671074 221.200597 
L 756.638678 225.315061 
L 760.573884 232.98354 
L 762.541488 237.423271 
L 765.492893 243.83831 
L 769.428099 252.667377 
L 776.314711 265.226926 
L 778.282314 268.669581 
L 781.233719 274.002292 
L 786.152727 281.703638 
L 789.104132 286.140863 
L 791.071736 289.154982 
L 795.990744 295.510348 
L 796.974545 297.09798 
L 801.893554 302.982781 
L 803.861157 304.998456 
L 808.780165 309.479644 
L 814.682975 314.555753 
L 814.682975 314.555753 
" clip-path="url(#pfa22911a65)" style="fill: none; stroke-dasharray: 1,1.65; stroke-dashoffset: 0; stroke: #ff00ff"/>
   </g>
   <g id="line2d_46">
    <path d="M 519.542479 326.342263 
L 523.477686 324.664437 
L 526.429091 323.436353 
L 530.364298 321.655311 
L 535.283306 319.281673 
L 542.169917 315.471048 
L 554.959339 308.068797 
L 559.878347 305.014804 
L 565.781157 300.858622 
L 569.716364 297.803748 
L 573.65157 294.416068 
L 576.602975 291.700909 
L 582.505785 285.958008 
L 587.424793 280.809299 
L 590.376198 277.363024 
L 595.295207 271.117738 
L 600.214215 264.203849 
L 605.133223 256.839475 
L 609.06843 250.534326 
L 614.97124 240.322065 
L 617.922645 234.903803 
L 620.87405 229.083865 
L 623.825455 222.790629 
L 627.760661 213.696175 
L 630.712066 206.287317 
L 634.647273 195.495575 
L 637.598678 186.829266 
L 640.550083 177.521609 
L 643.501488 167.475066 
L 646.452893 156.800315 
L 649.404298 145.449235 
L 653.339504 129.144812 
L 656.290909 116.058051 
L 661.209917 93.368854 
L 666.128926 70.262186 
L 667.112727 66.987961 
L 668.096529 69.701389 
L 680.88595 111.965533 
L 684.821157 124.095905 
L 688.756364 135.750614 
L 693.675372 149.518379 
L 697.610579 159.899723 
L 700.561983 167.304401 
L 705.480992 178.867447 
L 710.4 189.828352 
L 713.351405 195.956047 
L 716.30281 201.726259 
L 722.20562 212.609353 
L 727.124628 221.052997 
L 730.076033 225.775694 
L 735.978843 234.895625 
L 740.897851 242.063935 
L 747.784463 251.615267 
L 751.719669 256.622782 
L 758.606281 264.793817 
L 763.525289 270.210179 
L 767.460496 274.26052 
L 773.363306 279.918494 
L 780.249917 285.990226 
L 783.201322 288.413577 
L 791.071736 294.490437 
L 796.974545 298.685642 
L 801.893554 302.031061 
L 814.682975 309.927505 
L 814.682975 309.927505 
" clip-path="url(#pfa22911a65)" style="fill: none; stroke: #008000; stroke-linecap: square"/>
   </g>
   <g id="line2d_47">
    <path d="M 519.542479 334.676456 
L 527.412893 330.015291 
L 531.348099 327.381441 
L 535.283306 324.601248 
L 538.234711 322.201633 
L 543.153719 317.857588 
L 546.105124 315.10434 
L 552.007934 309.182043 
L 555.94314 304.960836 
L 559.878347 300.308982 
L 562.829752 296.636493 
L 567.74876 289.796816 
L 571.683967 283.99619 
L 575.619174 277.60369 
L 579.55438 270.614257 
L 583.489587 263.287592 
L 586.440992 257.325282 
L 591.36 246.636405 
L 594.311405 239.724467 
L 597.26281 232.320016 
L 601.198017 221.846044 
L 606.117025 207.663592 
L 609.06843 198.712595 
L 614.97124 180.135431 
L 620.87405 160.607655 
L 631.695868 124.306415 
L 634.647273 115.054632 
L 637.598678 106.382233 
L 640.550083 98.41658 
L 642.517686 93.572205 
L 644.485289 89.124483 
L 646.452893 85.199286 
L 648.420496 81.597778 
L 650.388099 78.469709 
L 652.355702 75.789166 
L 654.323306 73.468716 
L 656.290909 71.514997 
L 658.258512 69.968693 
L 660.226116 68.791392 
L 662.193719 67.916718 
L 664.161322 67.350785 
L 667.112727 66.987961 
L 669.080331 67.11221 
L 672.031736 67.338511 
L 674.98314 67.749935 
L 677.934545 68.3986 
L 680.88595 69.284641 
L 682.853554 70.055486 
L 685.804959 71.458657 
L 688.756364 73.256773 
L 692.69157 76.175993 
L 695.642975 78.822478 
L 698.59438 81.858651 
L 700.561983 84.135295 
L 703.513388 87.83141 
L 707.448595 93.411793 
L 711.383802 99.607487 
L 714.335207 104.728373 
L 717.286612 110.186507 
L 722.20562 119.90729 
L 726.140826 128.011795 
L 733.027438 143.203149 
L 742.865455 165.458544 
L 756.638678 196.284876 
L 773.363306 231.073834 
L 779.266116 242.458413 
L 792.055537 266.25788 
L 795.990744 273.085334 
L 800.909752 280.893011 
L 803.861157 285.537217 
L 808.780165 292.594997 
L 814.682975 300.361306 
L 814.682975 300.361306 
" clip-path="url(#pfa22911a65)" style="fill: none; stroke-dasharray: 1,1.65; stroke-dashoffset: 0; stroke: #008000"/>
   </g>
   <g id="line2d_48">
    <path d="M 520.526266 329.004176 
L 522.49387 327.750662 
L 523.477672 326.963263 
L 528.39668 323.698162 
L 530.364284 322.392347 
L 532.331887 320.830964 
L 534.299491 319.430134 
L 535.283293 318.837951 
L 536.267094 318.093007 
L 543.153707 313.766732 
L 550.040319 308.747334 
L 552.007922 307.057342 
L 552.991724 306.217462 
L 553.975526 305.176067 
L 555.943129 303.433469 
L 557.910733 301.624915 
L 558.894535 300.325918 
L 560.862138 298.361014 
L 562.829742 295.963894 
L 564.797345 293.838014 
L 565.781147 292.834352 
L 566.764949 291.457219 
L 569.716354 288.015719 
L 575.619164 281.007954 
L 578.57057 277.163752 
L 586.440984 265.220961 
L 588.408587 262.190723 
L 595.295199 251.825424 
L 600.214208 243.367691 
L 602.181812 239.63325 
L 604.149415 235.74758 
L 607.10082 229.975274 
L 611.036027 221.705827 
L 614.971234 213.43818 
L 616.938838 208.763017 
L 619.890243 201.838482 
L 620.874045 199.148501 
L 622.841648 194.302878 
L 625.793054 186.954754 
L 626.776855 184.536428 
L 630.712062 173.52222 
L 631.695864 169.992704 
L 633.663468 164.400555 
L 638.582476 150.174829 
L 639.566278 146.517167 
L 643.501485 135.000821 
L 647.436692 123.234336 
L 649.404296 116.912408 
L 652.355701 108.070984 
L 653.339503 104.631468 
L 663.17752 77.278423 
L 664.161322 74.9503 
L 666.128926 71.54522 
L 667.112727 66.987961 
L 668.096529 70.232993 
L 669.080331 71.755938 
L 670.064133 69.870806 
L 671.047934 71.8334 
L 673.99934 79.080288 
L 674.983141 81.789739 
L 675.966943 80.879873 
L 676.950745 83.5921 
L 677.934547 83.50141 
L 679.90215 89.326347 
L 680.885952 89.44631 
L 683.837357 98.978436 
L 684.821159 99.258988 
L 689.740168 114.678672 
L 690.723969 114.539105 
L 693.675375 123.95511 
L 695.642978 130.197028 
L 696.62678 130.751187 
L 700.561987 143.087632 
L 701.545789 141.92504 
L 703.513392 147.807965 
L 705.480996 153.157415 
L 706.464797 150.689674 
L 708.432401 156.169297 
L 709.416203 156.16215 
L 710.400004 158.819494 
L 711.383806 157.027705 
L 712.367608 157.531818 
L 713.35141 160.257944 
L 714.335211 158.662347 
L 716.302815 164.318287 
L 720.238022 174.8756 
L 721.221824 172.386957 
L 722.205625 171.120344 
L 723.189427 172.275529 
L 726.140832 179.579055 
L 728.108436 175.738873 
L 730.076039 181.492334 
L 731.059841 186.989726 
L 734.995048 197.310816 
L 735.97885 199.754921 
L 736.962652 201.463038 
L 737.946453 202.704051 
L 739.914057 204.713417 
L 740.897859 207.180787 
L 741.88166 208.115267 
L 742.865462 209.339495 
L 743.849264 209.85795 
L 746.800669 216.679423 
L 748.768273 220.450885 
L 749.752074 221.914504 
L 750.735876 220.922691 
L 751.719678 225.056426 
L 752.70348 226.574847 
L 753.687281 226.891962 
L 754.671083 225.455939 
L 755.654885 224.821053 
L 756.638687 226.89414 
L 757.622488 228.703257 
L 759.590092 231.795612 
L 762.541497 237.087912 
L 763.525299 238.369094 
L 764.509101 239.156083 
L 765.492902 237.144815 
L 767.460506 240.326431 
L 768.444308 238.730106 
L 769.428109 237.55575 
L 770.411911 238.407404 
L 771.395713 240.038978 
L 772.379515 239.616229 
L 773.363316 240.55488 
L 774.347118 241.699462 
L 777.298523 236.258189 
L 778.282325 234.68716 
L 779.266127 234.84876 
L 780.249929 237.800759 
L 781.23373 239.421848 
L 783.201334 237.304693 
L 784.185136 230.482268 
L 785.168937 231.695451 
L 786.152739 230.826496 
L 787.136541 230.831228 
L 788.120343 236.351534 
L 789.104144 238.532841 
L 790.087946 238.919905 
L 791.071748 240.072901 
L 792.05555 240.748155 
L 793.039351 239.658937 
L 794.023153 240.956248 
L 795.006955 242.844985 
L 795.990757 246.86727 
L 796.974558 246.778014 
L 797.95836 249.628358 
L 798.942162 249.981758 
L 799.925964 247.85147 
L 800.909765 252.163654 
L 801.893567 247.719347 
L 802.877369 250.108966 
L 803.861171 253.474951 
L 804.844972 257.825052 
L 805.828774 259.547801 
L 806.812576 257.599827 
L 807.796378 258.85201 
L 808.780179 258.562245 
L 809.763981 257.459134 
L 810.747783 258.930476 
L 811.731585 258.408612 
L 812.715386 259.662905 
L 813.699188 260.694085 
L 813.699188 260.694085 
" clip-path="url(#pfa22911a65)" style="fill: none; stroke: #ffa500; stroke-linecap: square"/>
   </g>
   <g id="line2d_49">
    <path d="M 520.526266 335.639801 
L 522.49387 333.738506 
L 523.477672 332.56912 
L 526.429077 329.67431 
L 528.39668 327.440235 
L 531.348086 323.996697 
L 534.299491 320.308388 
L 535.283293 319.252363 
L 537.250896 316.855413 
L 543.153707 309.703627 
L 545.12131 306.931078 
L 546.105112 305.594043 
L 548.072715 302.552453 
L 550.040319 299.34253 
L 552.007922 295.712023 
L 552.991724 293.876326 
L 553.975526 291.712277 
L 554.959328 289.979416 
L 557.910733 283.767229 
L 558.894535 281.139517 
L 561.84594 274.27275 
L 564.797345 266.755898 
L 565.781147 264.323521 
L 569.716354 253.525195 
L 573.651561 242.738229 
L 579.554371 225.596636 
L 585.457182 207.346629 
L 587.424785 201.802437 
L 589.392389 195.814826 
L 599.230406 168.65178 
L 605.133217 151.56059 
L 608.084622 143.582224 
L 610.052226 138.46147 
L 613.987433 129.069738 
L 614.971234 126.957131 
L 615.955036 124.451479 
L 618.906441 118.558276 
L 619.890243 116.723622 
L 620.874045 114.568526 
L 622.841648 110.917556 
L 623.82545 109.054962 
L 627.760657 102.468793 
L 628.744459 100.465394 
L 630.712062 97.54964 
L 631.695864 95.289027 
L 635.631071 90.195867 
L 637.598675 88.103364 
L 638.582476 86.741 
L 639.566278 84.802662 
L 643.501485 81.429533 
L 644.485287 80.763803 
L 645.469089 79.943114 
L 647.436692 78.81449 
L 648.420494 77.903144 
L 649.404296 77.245646 
L 650.388098 76.84057 
L 651.371899 76.072345 
L 652.355701 75.745869 
L 653.339503 74.826426 
L 658.258512 73.655734 
L 659.242313 73.547732 
L 660.226115 72.623355 
L 661.209917 72.144497 
L 662.193719 71.891326 
L 664.161322 71.007058 
L 665.145124 70.997346 
L 666.128926 70.57307 
L 667.112727 66.987961 
L 668.096529 69.30972 
L 669.080331 69.525446 
L 670.064133 115.778575 
L 671.047934 115.401232 
L 674.983141 114.494705 
L 675.966943 147.947803 
L 676.950745 147.438217 
L 677.934547 164.766716 
L 678.918348 163.441102 
L 679.90215 162.305131 
L 680.885952 176.363247 
L 681.869754 174.78565 
L 682.853555 172.833281 
L 683.837357 171.529065 
L 684.821159 186.954394 
L 685.804961 185.574235 
L 686.788762 184.617599 
L 687.772564 183.991788 
L 688.756366 183.184154 
L 689.740168 182.730518 
L 690.723969 202.227769 
L 691.707771 201.647417 
L 692.691573 201.527185 
L 694.659176 200.321651 
L 695.642978 200.285575 
L 696.62678 211.721606 
L 697.610582 212.269157 
L 698.594383 213.248498 
L 699.578185 213.895749 
L 700.561987 214.393976 
L 701.545789 238.847298 
L 703.513392 241.237926 
L 704.497194 242.710209 
L 705.480996 243.840083 
L 706.464797 257.96185 
L 708.432401 259.405808 
L 709.416203 265.02499 
L 710.400004 265.440834 
L 711.383806 271.416188 
L 712.367608 274.243252 
L 713.35141 274.679445 
L 714.335211 279.310509 
L 717.286617 280.352011 
L 720.238022 281.372584 
L 722.205625 294.192912 
L 723.189427 294.924021 
L 725.157031 295.877063 
L 726.140832 296.730627 
L 727.124634 299.843317 
L 728.108436 301.900766 
L 730.076039 302.576241 
L 731.059841 300.557227 
L 732.043643 300.802269 
L 733.027445 301.19678 
L 734.011246 301.785949 
L 735.97885 303.294752 
L 737.946453 304.767933 
L 738.930255 305.914488 
L 739.914057 306.532999 
L 740.897859 307.346272 
L 741.88166 308.922844 
L 742.865462 309.570011 
L 743.849264 310.761846 
L 745.816867 312.505935 
L 747.784471 314.645577 
L 749.752074 316.637209 
L 750.735876 318.884287 
L 751.719678 318.980269 
L 752.70348 320.565349 
L 753.687281 321.580296 
L 755.654885 324.284059 
L 756.638687 325.59233 
L 758.60629 327.539244 
L 760.573894 329.240201 
L 761.557695 330.384192 
L 763.525299 331.814002 
L 764.509101 332.273498 
L 765.492902 333.544472 
L 767.460506 334.825456 
L 768.444308 336.229918 
L 769.428109 337.044375 
L 771.395713 338.097523 
L 772.379515 338.76429 
L 774.347118 339.449507 
L 775.33092 340.01731 
L 777.298523 339.996461 
L 778.282325 340.414413 
L 779.266127 340.552213 
L 781.23373 342.199323 
L 782.217532 342.266109 
L 784.185136 342.109916 
L 785.168937 342.400024 
L 787.136541 342.599026 
L 788.120343 344.342096 
L 789.104144 344.825425 
L 794.023153 346.163022 
L 795.006955 347.104846 
L 795.990757 347.821055 
L 796.974558 347.865415 
L 797.95836 348.365834 
L 798.942162 348.621587 
L 799.925964 348.393874 
L 800.909765 349.174187 
L 801.893567 348.87138 
L 802.877369 349.287778 
L 803.861171 349.844313 
L 804.844972 350.531928 
L 805.828774 350.779038 
L 806.812576 350.813697 
L 807.796378 351.003478 
L 809.763981 351.0254 
L 810.747783 351.20556 
L 811.731585 351.193403 
L 813.699188 351.441083 
L 813.699188 351.441083 
" clip-path="url(#pfa22911a65)" style="fill: none; stroke-dasharray: 1,1.65; stroke-dashoffset: 0; stroke: #ffa500"/>
   </g>
   <g id="patch_9">
    <path d="M 504.785455 388.9656 
L 504.785455 52.4448 
" style="fill: none; stroke: #000000; stroke-width: 0.8; stroke-linejoin: miter; stroke-linecap: square"/>
   </g>
   <g id="patch_10">
    <path d="M 829.44 388.9656 
L 829.44 52.4448 
" style="fill: none; stroke: #000000; stroke-width: 0.8; stroke-linejoin: miter; stroke-linecap: square"/>
   </g>
   <g id="patch_11">
    <path d="M 504.785455 388.9656 
L 829.44 388.9656 
" style="fill: none; stroke: #000000; stroke-width: 0.8; stroke-linejoin: miter; stroke-linecap: square"/>
   </g>
   <g id="patch_12">
    <path d="M 504.785455 52.4448 
L 829.44 52.4448 
" style="fill: none; stroke: #000000; stroke-width: 0.8; stroke-linejoin: miter; stroke-linecap: square"/>
   </g>
   <g id="text_27">
    <!-- lambda=0.2 -->
    <g transform="translate(630.059915 46.4448)scale(0.12 -0.12)">
     <use xlink:href="#DejaVuSans-6c"/>
     <use xlink:href="#DejaVuSans-61" x="27.783203"/>
     <use xlink:href="#DejaVuSans-6d" x="89.0625"/>
     <use xlink:href="#DejaVuSans-62" x="186.474609"/>
     <use xlink:href="#DejaVuSans-64" x="249.951172"/>
     <use xlink:href="#DejaVuSans-61" x="313.427734"/>
     <use xlink:href="#DejaVuSans-3d" x="374.707031"/>
     <use xlink:href="#DejaVuSans-30" x="458.496094"/>
     <use xlink:href="#DejaVuSans-2e" x="522.119141"/>
     <use xlink:href="#DejaVuSans-32" x="553.90625"/>
    </g>
   </g>
  </g>
  <g id="text_28">
   <!-- Conditionally averaged waveforms with variance -->
   <g transform="translate(314.102813 17.858925)scale(0.12 -0.12)">
    <defs>
     <path id="DejaVuSans-43" d="M 4122 4306 
L 4122 3641 
Q 3803 3938 3442 4084 
Q 3081 4231 2675 4231 
Q 1875 4231 1450 3742 
Q 1025 3253 1025 2328 
Q 1025 1406 1450 917 
Q 1875 428 2675 428 
Q 3081 428 3442 575 
Q 3803 722 4122 1019 
L 4122 359 
Q 3791 134 3420 21 
Q 3050 -91 2638 -91 
Q 1578 -91 968 557 
Q 359 1206 359 2328 
Q 359 3453 968 4101 
Q 1578 4750 2638 4750 
Q 3056 4750 3426 4639 
Q 3797 4528 4122 4306 
z
" transform="scale(0.015625)"/>
     <path id="DejaVuSans-6f" d="M 1959 3097 
Q 1497 3097 1228 2736 
Q 959 2375 959 1747 
Q 959 1119 1226 758 
Q 1494 397 1959 397 
Q 2419 397 2687 759 
Q 2956 1122 2956 1747 
Q 2956 2369 2687 2733 
Q 2419 3097 1959 3097 
z
M 1959 3584 
Q 2709 3584 3137 3096 
Q 3566 2609 3566 1747 
Q 3566 888 3137 398 
Q 2709 -91 1959 -91 
Q 1206 -91 779 398 
Q 353 888 353 1747 
Q 353 2609 779 3096 
Q 1206 3584 1959 3584 
z
" transform="scale(0.015625)"/>
     <path id="DejaVuSans-74" d="M 1172 4494 
L 1172 3500 
L 2356 3500 
L 2356 3053 
L 1172 3053 
L 1172 1153 
Q 1172 725 1289 603 
Q 1406 481 1766 481 
L 2356 481 
L 2356 0 
L 1766 0 
Q 1100 0 847 248 
Q 594 497 594 1153 
L 594 3053 
L 172 3053 
L 172 3500 
L 594 3500 
L 594 4494 
L 1172 4494 
z
" transform="scale(0.015625)"/>
     <path id="DejaVuSans-79" d="M 2059 -325 
Q 1816 -950 1584 -1140 
Q 1353 -1331 966 -1331 
L 506 -1331 
L 506 -850 
L 844 -850 
Q 1081 -850 1212 -737 
Q 1344 -625 1503 -206 
L 1606 56 
L 191 3500 
L 800 3500 
L 1894 763 
L 2988 3500 
L 3597 3500 
L 2059 -325 
z
" transform="scale(0.015625)"/>
     <path id="DejaVuSans-20" transform="scale(0.015625)"/>
     <path id="DejaVuSans-76" d="M 191 3500 
L 800 3500 
L 1894 563 
L 2988 3500 
L 3597 3500 
L 2284 0 
L 1503 0 
L 191 3500 
z
" transform="scale(0.015625)"/>
     <path id="DejaVuSans-67" d="M 2906 1791 
Q 2906 2416 2648 2759 
Q 2391 3103 1925 3103 
Q 1463 3103 1205 2759 
Q 947 2416 947 1791 
Q 947 1169 1205 825 
Q 1463 481 1925 481 
Q 2391 481 2648 825 
Q 2906 1169 2906 1791 
z
M 3481 434 
Q 3481 -459 3084 -895 
Q 2688 -1331 1869 -1331 
Q 1566 -1331 1297 -1286 
Q 1028 -1241 775 -1147 
L 775 -588 
Q 1028 -725 1275 -790 
Q 1522 -856 1778 -856 
Q 2344 -856 2625 -561 
Q 2906 -266 2906 331 
L 2906 616 
Q 2728 306 2450 153 
Q 2172 0 1784 0 
Q 1141 0 747 490 
Q 353 981 353 1791 
Q 353 2603 747 3093 
Q 1141 3584 1784 3584 
Q 2172 3584 2450 3431 
Q 2728 3278 2906 2969 
L 2906 3500 
L 3481 3500 
L 3481 434 
z
" transform="scale(0.015625)"/>
     <path id="DejaVuSans-77" d="M 269 3500 
L 844 3500 
L 1563 769 
L 2278 3500 
L 2956 3500 
L 3675 769 
L 4391 3500 
L 4966 3500 
L 4050 0 
L 3372 0 
L 2619 2869 
L 1863 0 
L 1184 0 
L 269 3500 
z
" transform="scale(0.015625)"/>
     <path id="DejaVuSans-73" d="M 2834 3397 
L 2834 2853 
Q 2591 2978 2328 3040 
Q 2066 3103 1784 3103 
Q 1356 3103 1142 2972 
Q 928 2841 928 2578 
Q 928 2378 1081 2264 
Q 1234 2150 1697 2047 
L 1894 2003 
Q 2506 1872 2764 1633 
Q 3022 1394 3022 966 
Q 3022 478 2636 193 
Q 2250 -91 1575 -91 
Q 1294 -91 989 -36 
Q 684 19 347 128 
L 347 722 
Q 666 556 975 473 
Q 1284 391 1588 391 
Q 1994 391 2212 530 
Q 2431 669 2431 922 
Q 2431 1156 2273 1281 
Q 2116 1406 1581 1522 
L 1381 1569 
Q 847 1681 609 1914 
Q 372 2147 372 2553 
Q 372 3047 722 3315 
Q 1072 3584 1716 3584 
Q 2034 3584 2315 3537 
Q 2597 3491 2834 3397 
z
" transform="scale(0.015625)"/>
     <path id="DejaVuSans-68" d="M 3513 2113 
L 3513 0 
L 2938 0 
L 2938 2094 
Q 2938 2591 2744 2837 
Q 2550 3084 2163 3084 
Q 1697 3084 1428 2787 
Q 1159 2491 1159 1978 
L 1159 0 
L 581 0 
L 581 4863 
L 1159 4863 
L 1159 2956 
Q 1366 3272 1645 3428 
Q 1925 3584 2291 3584 
Q 2894 3584 3203 3211 
Q 3513 2838 3513 2113 
z
" transform="scale(0.015625)"/>
     <path id="DejaVuSans-63" d="M 3122 3366 
L 3122 2828 
Q 2878 2963 2633 3030 
Q 2388 3097 2138 3097 
Q 1578 3097 1268 2742 
Q 959 2388 959 1747 
Q 959 1106 1268 751 
Q 1578 397 2138 397 
Q 2388 397 2633 464 
Q 2878 531 3122 666 
L 3122 134 
Q 2881 22 2623 -34 
Q 2366 -91 2075 -91 
Q 1284 -91 818 406 
Q 353 903 353 1747 
Q 353 2603 823 3093 
Q 1294 3584 2113 3584 
Q 2378 3584 2631 3529 
Q 2884 3475 3122 3366 
z
" transform="scale(0.015625)"/>
    </defs>
    <use xlink:href="#DejaVuSans-43"/>
    <use xlink:href="#DejaVuSans-6f" x="69.824219"/>
    <use xlink:href="#DejaVuSans-6e" x="131.005859"/>
    <use xlink:href="#DejaVuSans-64" x="194.384766"/>
    <use xlink:href="#DejaVuSans-69" x="257.861328"/>
    <use xlink:href="#DejaVuSans-74" x="285.644531"/>
    <use xlink:href="#DejaVuSans-69" x="324.853516"/>
    <use xlink:href="#DejaVuSans-6f" x="352.636719"/>
    <use xlink:href="#DejaVuSans-6e" x="413.818359"/>
    <use xlink:href="#DejaVuSans-61" x="477.197266"/>
    <use xlink:href="#DejaVuSans-6c" x="538.476562"/>
    <use xlink:href="#DejaVuSans-6c" x="566.259766"/>
    <use xlink:href="#DejaVuSans-79" x="594.042969"/>
    <use xlink:href="#DejaVuSans-20" x="653.222656"/>
    <use xlink:href="#DejaVuSans-61" x="685.009766"/>
    <use xlink:href="#DejaVuSans-76" x="746.289062"/>
    <use xlink:href="#DejaVuSans-65" x="805.46875"/>
    <use xlink:href="#DejaVuSans-72" x="866.992188"/>
    <use xlink:href="#DejaVuSans-61" x="908.105469"/>
    <use xlink:href="#DejaVuSans-67" x="969.384766"/>
    <use xlink:href="#DejaVuSans-65" x="1032.861328"/>
    <use xlink:href="#DejaVuSans-64" x="1094.384766"/>
    <use xlink:href="#DejaVuSans-20" x="1157.861328"/>
    <use xlink:href="#DejaVuSans-77" x="1189.648438"/>
    <use xlink:href="#DejaVuSans-61" x="1271.435547"/>
    <use xlink:href="#DejaVuSans-76" x="1332.714844"/>
    <use xlink:href="#DejaVuSans-65" x="1391.894531"/>
    <use xlink:href="#DejaVuSans-66" x="1453.417969"/>
    <use xlink:href="#DejaVuSans-6f" x="1488.623047"/>
    <use xlink:href="#DejaVuSans-72" x="1549.804688"/>
    <use xlink:href="#DejaVuSans-6d" x="1589.167969"/>
    <use xlink:href="#DejaVuSans-73" x="1686.580078"/>
    <use xlink:href="#DejaVuSans-20" x="1738.679688"/>
    <use xlink:href="#DejaVuSans-77" x="1770.466797"/>
    <use xlink:href="#DejaVuSans-69" x="1852.253906"/>
    <use xlink:href="#DejaVuSans-74" x="1880.037109"/>
    <use xlink:href="#DejaVuSans-68" x="1919.246094"/>
    <use xlink:href="#DejaVuSans-20" x="1982.625"/>
    <use xlink:href="#DejaVuSans-76" x="2014.412109"/>
    <use xlink:href="#DejaVuSans-61" x="2073.591797"/>
    <use xlink:href="#DejaVuSans-72" x="2134.871094"/>
    <use xlink:href="#DejaVuSans-69" x="2175.984375"/>
    <use xlink:href="#DejaVuSans-61" x="2203.767578"/>
    <use xlink:href="#DejaVuSans-6e" x="2265.046875"/>
    <use xlink:href="#DejaVuSans-63" x="2328.425781"/>
    <use xlink:href="#DejaVuSans-65" x="2383.40625"/>
   </g>
  </g>
 </g>
 <defs>
  <clipPath id="p0e460c79ac">
   <rect x="115.2" y="52.4448" width="324.654545" height="336.5208"/>
  </clipPath>
  <clipPath id="pfa22911a65">
   <rect x="504.785455" y="52.4448" width="324.654545" height="336.5208"/>
  </clipPath>
 </defs>
</svg>
