<?xml version="1.0" encoding="utf-8" standalone="no"?>
<!DOCTYPE svg PUBLIC "-//W3C//DTD SVG 1.1//EN"
  "http://www.w3.org/Graphics/SVG/1.1/DTD/svg11.dtd">
<svg xmlns:xlink="http://www.w3.org/1999/xlink" width="921.6pt" height="437.04pt" viewBox="0 0 921.6 437.04" xmlns="http://www.w3.org/2000/svg" version="1.1">
 <metadata>
  <rdf:RDF xmlns:dc="http://purl.org/dc/elements/1.1/" xmlns:cc="http://creativecommons.org/ns#" xmlns:rdf="http://www.w3.org/1999/02/22-rdf-syntax-ns#">
   <cc:Work>
    <dc:type rdf:resource="http://purl.org/dc/dcmitype/StillImage"/>
    <dc:date>2022-08-11T19:15:32.602821</dc:date>
    <dc:format>image/svg+xml</dc:format>
    <dc:creator>
     <cc:Agent>
      <dc:title>Matplotlib v3.5.2, https://matplotlib.org/</dc:title>
     </cc:Agent>
    </dc:creator>
   </cc:Work>
  </rdf:RDF>
 </metadata>
 <defs>
  <style type="text/css">*{stroke-linejoin: round; stroke-linecap: butt}</style>
 </defs>
 <g id="figure_1">
  <g id="patch_1">
   <path d="M 0 437.04 
L 921.6 437.04 
L 921.6 0 
L 0 0 
z
" style="fill: #ffffff"/>
  </g>
  <g id="axes_1">
   <g id="patch_2">
    <path d="M 115.2 388.9656 
L 439.854545 388.9656 
L 439.854545 52.4448 
L 115.2 52.4448 
z
" style="fill: #ffffff"/>
   </g>
   <g id="matplotlib.axis_1">
    <g id="xtick_1">
     <g id="line2d_1">
      <defs>
       <path id="md8ffc015af" d="M 0 0 
L 0 3.5 
" style="stroke: #000000; stroke-width: 0.8"/>
      </defs>
      <g>
       <use xlink:href="#md8ffc015af" x="129.957025" y="388.9656" style="stroke: #000000; stroke-width: 0.8"/>
      </g>
     </g>
     <g id="text_1">
      <!-- −1.5 -->
      <g transform="translate(117.815619 403.564038)scale(0.1 -0.1)">
       <defs>
        <path id="DejaVuSans-2212" d="M 678 2272 
L 4684 2272 
L 4684 1741 
L 678 1741 
L 678 2272 
z
" transform="scale(0.015625)"/>
        <path id="DejaVuSans-31" d="M 794 531 
L 1825 531 
L 1825 4091 
L 703 3866 
L 703 4441 
L 1819 4666 
L 2450 4666 
L 2450 531 
L 3481 531 
L 3481 0 
L 794 0 
L 794 531 
z
" transform="scale(0.015625)"/>
        <path id="DejaVuSans-2e" d="M 684 794 
L 1344 794 
L 1344 0 
L 684 0 
L 684 794 
z
" transform="scale(0.015625)"/>
        <path id="DejaVuSans-35" d="M 691 4666 
L 3169 4666 
L 3169 4134 
L 1269 4134 
L 1269 2991 
Q 1406 3038 1543 3061 
Q 1681 3084 1819 3084 
Q 2600 3084 3056 2656 
Q 3513 2228 3513 1497 
Q 3513 744 3044 326 
Q 2575 -91 1722 -91 
Q 1428 -91 1123 -41 
Q 819 9 494 109 
L 494 744 
Q 775 591 1075 516 
Q 1375 441 1709 441 
Q 2250 441 2565 725 
Q 2881 1009 2881 1497 
Q 2881 1984 2565 2268 
Q 2250 2553 1709 2553 
Q 1456 2553 1204 2497 
Q 953 2441 691 2322 
L 691 4666 
z
" transform="scale(0.015625)"/>
       </defs>
       <use xlink:href="#DejaVuSans-2212"/>
       <use xlink:href="#DejaVuSans-31" x="83.789062"/>
       <use xlink:href="#DejaVuSans-2e" x="147.412109"/>
       <use xlink:href="#DejaVuSans-35" x="179.199219"/>
      </g>
     </g>
    </g>
    <g id="xtick_2">
     <g id="line2d_2">
      <g>
       <use xlink:href="#md8ffc015af" x="179.147107" y="388.9656" style="stroke: #000000; stroke-width: 0.8"/>
      </g>
     </g>
     <g id="text_2">
      <!-- −1.0 -->
      <g transform="translate(167.005701 403.564038)scale(0.1 -0.1)">
       <defs>
        <path id="DejaVuSans-30" d="M 2034 4250 
Q 1547 4250 1301 3770 
Q 1056 3291 1056 2328 
Q 1056 1369 1301 889 
Q 1547 409 2034 409 
Q 2525 409 2770 889 
Q 3016 1369 3016 2328 
Q 3016 3291 2770 3770 
Q 2525 4250 2034 4250 
z
M 2034 4750 
Q 2819 4750 3233 4129 
Q 3647 3509 3647 2328 
Q 3647 1150 3233 529 
Q 2819 -91 2034 -91 
Q 1250 -91 836 529 
Q 422 1150 422 2328 
Q 422 3509 836 4129 
Q 1250 4750 2034 4750 
z
" transform="scale(0.015625)"/>
       </defs>
       <use xlink:href="#DejaVuSans-2212"/>
       <use xlink:href="#DejaVuSans-31" x="83.789062"/>
       <use xlink:href="#DejaVuSans-2e" x="147.412109"/>
       <use xlink:href="#DejaVuSans-30" x="179.199219"/>
      </g>
     </g>
    </g>
    <g id="xtick_3">
     <g id="line2d_3">
      <g>
       <use xlink:href="#md8ffc015af" x="228.33719" y="388.9656" style="stroke: #000000; stroke-width: 0.8"/>
      </g>
     </g>
     <g id="text_3">
      <!-- −0.5 -->
      <g transform="translate(216.195784 403.564038)scale(0.1 -0.1)">
       <use xlink:href="#DejaVuSans-2212"/>
       <use xlink:href="#DejaVuSans-30" x="83.789062"/>
       <use xlink:href="#DejaVuSans-2e" x="147.412109"/>
       <use xlink:href="#DejaVuSans-35" x="179.199219"/>
      </g>
     </g>
    </g>
    <g id="xtick_4">
     <g id="line2d_4">
      <g>
       <use xlink:href="#md8ffc015af" x="277.527273" y="388.9656" style="stroke: #000000; stroke-width: 0.8"/>
      </g>
     </g>
     <g id="text_4">
      <!-- 0.0 -->
      <g transform="translate(269.57571 403.564038)scale(0.1 -0.1)">
       <use xlink:href="#DejaVuSans-30"/>
       <use xlink:href="#DejaVuSans-2e" x="63.623047"/>
       <use xlink:href="#DejaVuSans-30" x="95.410156"/>
      </g>
     </g>
    </g>
    <g id="xtick_5">
     <g id="line2d_5">
      <g>
       <use xlink:href="#md8ffc015af" x="326.717355" y="388.9656" style="stroke: #000000; stroke-width: 0.8"/>
      </g>
     </g>
     <g id="text_5">
      <!-- 0.5 -->
      <g transform="translate(318.765793 403.564038)scale(0.1 -0.1)">
       <use xlink:href="#DejaVuSans-30"/>
       <use xlink:href="#DejaVuSans-2e" x="63.623047"/>
       <use xlink:href="#DejaVuSans-35" x="95.410156"/>
      </g>
     </g>
    </g>
    <g id="xtick_6">
     <g id="line2d_6">
      <g>
       <use xlink:href="#md8ffc015af" x="375.907438" y="388.9656" style="stroke: #000000; stroke-width: 0.8"/>
      </g>
     </g>
     <g id="text_6">
      <!-- 1.0 -->
      <g transform="translate(367.955876 403.564038)scale(0.1 -0.1)">
       <use xlink:href="#DejaVuSans-31"/>
       <use xlink:href="#DejaVuSans-2e" x="63.623047"/>
       <use xlink:href="#DejaVuSans-30" x="95.410156"/>
      </g>
     </g>
    </g>
    <g id="xtick_7">
     <g id="line2d_7">
      <g>
       <use xlink:href="#md8ffc015af" x="425.097521" y="388.9656" style="stroke: #000000; stroke-width: 0.8"/>
      </g>
     </g>
     <g id="text_7">
      <!-- 1.5 -->
      <g transform="translate(417.145958 403.564038)scale(0.1 -0.1)">
       <use xlink:href="#DejaVuSans-31"/>
       <use xlink:href="#DejaVuSans-2e" x="63.623047"/>
       <use xlink:href="#DejaVuSans-35" x="95.410156"/>
      </g>
     </g>
    </g>
   </g>
   <g id="matplotlib.axis_2">
    <g id="ytick_1">
     <g id="line2d_8">
      <defs>
       <path id="m78726306cf" d="M 0 0 
L -3.5 0 
" style="stroke: #000000; stroke-width: 0.8"/>
      </defs>
      <g>
       <use xlink:href="#m78726306cf" x="115.2" y="373.6692" style="stroke: #000000; stroke-width: 0.8"/>
      </g>
     </g>
     <g id="text_8">
      <!-- 0.0 -->
      <g transform="translate(92.296875 377.468419)scale(0.1 -0.1)">
       <use xlink:href="#DejaVuSans-30"/>
       <use xlink:href="#DejaVuSans-2e" x="63.623047"/>
       <use xlink:href="#DejaVuSans-30" x="95.410156"/>
      </g>
     </g>
    </g>
    <g id="ytick_2">
     <g id="line2d_9">
      <g>
       <use xlink:href="#m78726306cf" x="115.2" y="312.4836" style="stroke: #000000; stroke-width: 0.8"/>
      </g>
     </g>
     <g id="text_9">
      <!-- 0.2 -->
      <g transform="translate(92.296875 316.282819)scale(0.1 -0.1)">
       <defs>
        <path id="DejaVuSans-32" d="M 1228 531 
L 3431 531 
L 3431 0 
L 469 0 
L 469 531 
Q 828 903 1448 1529 
Q 2069 2156 2228 2338 
Q 2531 2678 2651 2914 
Q 2772 3150 2772 3378 
Q 2772 3750 2511 3984 
Q 2250 4219 1831 4219 
Q 1534 4219 1204 4116 
Q 875 4013 500 3803 
L 500 4441 
Q 881 4594 1212 4672 
Q 1544 4750 1819 4750 
Q 2544 4750 2975 4387 
Q 3406 4025 3406 3419 
Q 3406 3131 3298 2873 
Q 3191 2616 2906 2266 
Q 2828 2175 2409 1742 
Q 1991 1309 1228 531 
z
" transform="scale(0.015625)"/>
       </defs>
       <use xlink:href="#DejaVuSans-30"/>
       <use xlink:href="#DejaVuSans-2e" x="63.623047"/>
       <use xlink:href="#DejaVuSans-32" x="95.410156"/>
      </g>
     </g>
    </g>
    <g id="ytick_3">
     <g id="line2d_10">
      <g>
       <use xlink:href="#m78726306cf" x="115.2" y="251.298" style="stroke: #000000; stroke-width: 0.8"/>
      </g>
     </g>
     <g id="text_10">
      <!-- 0.4 -->
      <g transform="translate(92.296875 255.097219)scale(0.1 -0.1)">
       <defs>
        <path id="DejaVuSans-34" d="M 2419 4116 
L 825 1625 
L 2419 1625 
L 2419 4116 
z
M 2253 4666 
L 3047 4666 
L 3047 1625 
L 3713 1625 
L 3713 1100 
L 3047 1100 
L 3047 0 
L 2419 0 
L 2419 1100 
L 313 1100 
L 313 1709 
L 2253 4666 
z
" transform="scale(0.015625)"/>
       </defs>
       <use xlink:href="#DejaVuSans-30"/>
       <use xlink:href="#DejaVuSans-2e" x="63.623047"/>
       <use xlink:href="#DejaVuSans-34" x="95.410156"/>
      </g>
     </g>
    </g>
    <g id="ytick_4">
     <g id="line2d_11">
      <g>
       <use xlink:href="#m78726306cf" x="115.2" y="190.1124" style="stroke: #000000; stroke-width: 0.8"/>
      </g>
     </g>
     <g id="text_11">
      <!-- 0.6 -->
      <g transform="translate(92.296875 193.911619)scale(0.1 -0.1)">
       <defs>
        <path id="DejaVuSans-36" d="M 2113 2584 
Q 1688 2584 1439 2293 
Q 1191 2003 1191 1497 
Q 1191 994 1439 701 
Q 1688 409 2113 409 
Q 2538 409 2786 701 
Q 3034 994 3034 1497 
Q 3034 2003 2786 2293 
Q 2538 2584 2113 2584 
z
M 3366 4563 
L 3366 3988 
Q 3128 4100 2886 4159 
Q 2644 4219 2406 4219 
Q 1781 4219 1451 3797 
Q 1122 3375 1075 2522 
Q 1259 2794 1537 2939 
Q 1816 3084 2150 3084 
Q 2853 3084 3261 2657 
Q 3669 2231 3669 1497 
Q 3669 778 3244 343 
Q 2819 -91 2113 -91 
Q 1303 -91 875 529 
Q 447 1150 447 2328 
Q 447 3434 972 4092 
Q 1497 4750 2381 4750 
Q 2619 4750 2861 4703 
Q 3103 4656 3366 4563 
z
" transform="scale(0.015625)"/>
       </defs>
       <use xlink:href="#DejaVuSans-30"/>
       <use xlink:href="#DejaVuSans-2e" x="63.623047"/>
       <use xlink:href="#DejaVuSans-36" x="95.410156"/>
      </g>
     </g>
    </g>
    <g id="ytick_5">
     <g id="line2d_12">
      <g>
       <use xlink:href="#m78726306cf" x="115.2" y="128.9268" style="stroke: #000000; stroke-width: 0.8"/>
      </g>
     </g>
     <g id="text_12">
      <!-- 0.8 -->
      <g transform="translate(92.296875 132.726019)scale(0.1 -0.1)">
       <defs>
        <path id="DejaVuSans-38" d="M 2034 2216 
Q 1584 2216 1326 1975 
Q 1069 1734 1069 1313 
Q 1069 891 1326 650 
Q 1584 409 2034 409 
Q 2484 409 2743 651 
Q 3003 894 3003 1313 
Q 3003 1734 2745 1975 
Q 2488 2216 2034 2216 
z
M 1403 2484 
Q 997 2584 770 2862 
Q 544 3141 544 3541 
Q 544 4100 942 4425 
Q 1341 4750 2034 4750 
Q 2731 4750 3128 4425 
Q 3525 4100 3525 3541 
Q 3525 3141 3298 2862 
Q 3072 2584 2669 2484 
Q 3125 2378 3379 2068 
Q 3634 1759 3634 1313 
Q 3634 634 3220 271 
Q 2806 -91 2034 -91 
Q 1263 -91 848 271 
Q 434 634 434 1313 
Q 434 1759 690 2068 
Q 947 2378 1403 2484 
z
M 1172 3481 
Q 1172 3119 1398 2916 
Q 1625 2713 2034 2713 
Q 2441 2713 2670 2916 
Q 2900 3119 2900 3481 
Q 2900 3844 2670 4047 
Q 2441 4250 2034 4250 
Q 1625 4250 1398 4047 
Q 1172 3844 1172 3481 
z
" transform="scale(0.015625)"/>
       </defs>
       <use xlink:href="#DejaVuSans-30"/>
       <use xlink:href="#DejaVuSans-2e" x="63.623047"/>
       <use xlink:href="#DejaVuSans-38" x="95.410156"/>
      </g>
     </g>
    </g>
    <g id="ytick_6">
     <g id="line2d_13">
      <g>
       <use xlink:href="#m78726306cf" x="115.2" y="67.7412" style="stroke: #000000; stroke-width: 0.8"/>
      </g>
     </g>
     <g id="text_13">
      <!-- 1.0 -->
      <g transform="translate(92.296875 71.540419)scale(0.1 -0.1)">
       <use xlink:href="#DejaVuSans-31"/>
       <use xlink:href="#DejaVuSans-2e" x="63.623047"/>
       <use xlink:href="#DejaVuSans-30" x="95.410156"/>
      </g>
     </g>
    </g>
   </g>
   <g id="line2d_14">
    <path d="M 129.957025 373.6692 
L 276.543471 373.6692 
L 277.527273 67.7412 
L 282.446281 82.661485 
L 287.365289 96.854098 
L 292.284298 110.35453 
L 297.203306 123.196538 
L 302.122314 135.412234 
L 307.041322 147.032163 
L 311.960331 158.085382 
L 316.879339 168.599529 
L 321.798347 178.600895 
L 326.717355 188.114488 
L 331.636364 197.164098 
L 336.555372 205.772354 
L 341.47438 213.96078 
L 346.393388 221.749851 
L 351.312397 229.159045 
L 356.231405 236.206889 
L 361.150413 242.911005 
L 366.069421 249.288157 
L 370.98843 255.354292 
L 375.907438 261.124578 
L 381.810248 267.678667 
L 387.713058 273.851075 
L 393.615868 279.66403 
L 399.518678 285.138465 
L 405.421488 290.294094 
L 411.324298 295.149482 
L 417.227107 299.722114 
L 423.129917 304.028457 
L 424.113719 304.721394 
L 424.113719 304.721394 
" clip-path="url(#p810d5a1551)" style="fill: none; stroke-dasharray: 7.4,3.2; stroke-dashoffset: 0; stroke: #ff0000; stroke-width: 2"/>
   </g>
   <g id="line2d_15">
    <path d="M 129.957025 346.201396 
L 132.90843 346.712837 
L 136.843636 347.518626 
L 138.81124 347.823636 
L 139.795041 347.860772 
L 141.762645 348.318912 
L 142.746446 348.426186 
L 144.71405 348.869459 
L 146.681653 349.139111 
L 151.600661 349.930079 
L 155.535868 350.673396 
L 156.519669 350.745601 
L 158.487273 351.076514 
L 161.438678 351.483314 
L 164.390083 351.865748 
L 166.357686 351.855684 
L 169.309091 352.061149 
L 171.276694 352.38165 
L 173.244298 352.538201 
L 175.211901 352.830762 
L 179.147107 353.178631 
L 181.114711 353.45517 
L 185.049917 353.958489 
L 190.952727 354.333865 
L 191.936529 354.283626 
L 192.920331 354.402249 
L 193.904132 354.407247 
L 194.887934 354.555303 
L 196.855537 354.703342 
L 201.774545 355.051971 
L 206.693554 355.329631 
L 208.661157 355.311732 
L 209.644959 355.332183 
L 210.62876 355.200503 
L 212.596364 355.304583 
L 214.563967 355.405824 
L 218.499174 355.471767 
L 220.466777 355.557649 
L 221.450579 355.372232 
L 222.43438 355.359729 
L 227.353388 355.755536 
L 230.304793 355.519503 
L 231.288595 355.54754 
L 232.272397 355.441813 
L 235.223802 355.580507 
L 236.207603 355.341694 
L 237.191405 355.46034 
L 239.159008 355.25218 
L 242.110413 355.416785 
L 244.078017 355.478672 
L 245.061818 355.567148 
L 246.04562 355.4384 
L 249.980826 355.601031 
L 250.964628 355.475127 
L 252.932231 355.585576 
L 253.916033 355.466543 
L 255.883636 355.440735 
L 271.624463 354.881879 
L 273.592066 354.881542 
L 274.575868 354.60781 
L 276.543471 354.629375 
L 277.527273 67.7412 
L 281.462479 79.963753 
L 287.365289 97.202152 
L 293.268099 113.405437 
L 298.187107 126.562471 
L 301.138512 134.12469 
L 303.106116 139.125489 
L 305.073719 143.941561 
L 309.992727 155.378078 
L 316.879339 170.305083 
L 323.76595 184.253006 
L 330.652562 197.228904 
L 338.522975 211.073697 
L 346.393388 223.471209 
L 353.28 233.509754 
L 360.166612 242.962766 
L 363.118017 246.796381 
L 369.020826 254.238078 
L 372.956033 258.857201 
L 378.858843 265.402191 
L 382.79405 269.587991 
L 386.729256 273.644838 
L 394.599669 281.200579 
L 399.518678 285.452984 
L 401.486281 287.07221 
L 410.340496 294.409301 
L 412.308099 295.916702 
L 414.275702 297.304918 
L 423.129917 303.707064 
L 425.097521 305.038064 
L 425.097521 305.038064 
" clip-path="url(#p810d5a1551)" style="fill: none; stroke: #0000ff; stroke-linecap: square"/>
   </g>
   <g id="line2d_16">
    <path d="M 129.957025 336.110604 
L 132.90843 335.66588 
L 136.843636 335.181203 
L 138.81124 334.86422 
L 139.795041 334.528467 
L 141.762645 334.406311 
L 142.746446 334.270753 
L 144.71405 334.176049 
L 145.697851 333.963223 
L 146.681653 333.923399 
L 149.633058 333.459915 
L 151.600661 333.177835 
L 152.584463 333.104384 
L 154.552066 333.129909 
L 155.535868 333.022968 
L 156.519669 332.737252 
L 157.503471 332.687529 
L 159.471074 332.364235 
L 162.422479 332.179137 
L 173.244298 330.446564 
L 174.228099 330.390453 
L 177.179504 329.917117 
L 179.147107 329.729452 
L 185.049917 329.414674 
L 187.017521 329.013488 
L 188.985124 328.98093 
L 190.952727 328.744834 
L 191.936529 328.545095 
L 194.887934 328.467843 
L 195.871736 328.644284 
L 196.855537 328.538883 
L 197.839339 329.088346 
L 198.82314 328.897183 
L 201.774545 328.644478 
L 203.742149 328.426779 
L 204.72595 328.497298 
L 207.677355 328.311278 
L 208.661157 328.406023 
L 209.644959 328.282952 
L 210.62876 328.550478 
L 211.612562 328.678407 
L 212.596364 328.516376 
L 213.580165 328.521766 
L 215.547769 328.286704 
L 216.53157 328.54352 
L 217.515372 328.455805 
L 218.499174 328.990219 
L 222.43438 328.788279 
L 223.418182 328.618312 
L 224.401983 328.644492 
L 225.385785 328.475224 
L 226.369587 328.743129 
L 231.288595 328.005201 
L 232.272397 328.335607 
L 235.223802 328.549885 
L 236.207603 330.485039 
L 238.175207 330.338195 
L 239.159008 330.868717 
L 246.04562 330.420296 
L 248.013223 330.129423 
L 249.980826 330.26294 
L 252.932231 330.000196 
L 254.899835 329.853412 
L 255.883636 330.194202 
L 256.867438 329.933017 
L 257.85124 330.019784 
L 258.835041 329.769556 
L 259.818843 329.379952 
L 261.786446 329.512302 
L 262.770248 329.186635 
L 264.737851 328.961678 
L 266.705455 328.578869 
L 272.608264 329.065908 
L 273.592066 331.127649 
L 274.575868 331.390249 
L 276.543471 330.922395 
L 277.527273 90.067335 
L 279.494876 90.10337 
L 281.462479 90.020152 
L 289.332893 89.933108 
L 292.284298 89.892335 
L 294.251901 89.967689 
L 295.235702 89.210303 
L 297.203306 89.116623 
L 303.106116 88.855606 
L 304.089917 88.639462 
L 308.025124 88.615127 
L 309.008926 88.254468 
L 311.960331 88.259332 
L 312.944132 88.579102 
L 315.895537 88.30986 
L 319.830744 88.337451 
L 321.798347 88.088439 
L 332.620165 88.126226 
L 333.603967 87.697715 
L 349.344793 88.189956 
L 350.328595 88.058104 
L 353.28 88.157501 
L 365.08562 88.418423 
L 366.069421 87.96602 
L 367.053223 88.09602 
L 370.98843 88.067923 
L 372.956033 88.133021 
L 374.923636 88.967757 
L 377.875041 89.105102 
L 378.858843 89.107626 
L 380.826446 89.266522 
L 381.810248 89.262886 
L 382.79405 89.474657 
L 385.745455 89.433947 
L 386.729256 89.67336 
L 387.713058 90.403809 
L 391.648264 90.540204 
L 392.632066 90.729472 
L 394.599669 90.822618 
L 396.567273 91.565032 
L 398.534876 91.932141 
L 399.518678 92.367244 
L 400.502479 94.714997 
L 401.486281 94.758416 
L 402.470083 95.085678 
L 403.453884 95.10732 
L 404.437686 95.71459 
L 406.405289 95.731064 
L 407.389091 95.993532 
L 408.372893 96.121821 
L 409.356694 96.063916 
L 410.340496 96.507769 
L 415.259504 97.470023 
L 417.227107 97.557105 
L 418.210909 97.888805 
L 422.146116 97.903391 
L 424.113719 98.685874 
L 425.097521 98.955855 
L 425.097521 98.955855 
" clip-path="url(#p810d5a1551)" style="fill: none; stroke-dasharray: 1,1.65; stroke-dashoffset: 0; stroke: #0000ff"/>
   </g>
   <g id="line2d_17">
    <path d="M 129.957025 304.137645 
L 130.940826 304.346606 
L 132.90843 304.106116 
L 135.859835 304.405604 
L 138.81124 304.707071 
L 141.762645 304.947013 
L 143.730248 304.80608 
L 144.71405 304.950101 
L 147.665455 304.816728 
L 148.649256 304.964593 
L 149.633058 304.966119 
L 150.61686 305.082951 
L 151.600661 305.02429 
L 152.584463 305.086312 
L 153.568264 304.950786 
L 154.552066 304.937311 
L 156.519669 305.247403 
L 158.487273 305.176864 
L 159.471074 305.245798 
L 160.454876 305.145467 
L 161.438678 305.341788 
L 162.422479 305.403067 
L 163.406281 305.245359 
L 165.373884 305.235055 
L 167.341488 305.312622 
L 168.325289 305.190205 
L 169.309091 305.282294 
L 172.260496 305.022355 
L 174.228099 304.988197 
L 175.211901 304.845592 
L 177.179504 305.1166 
L 178.163306 305.016782 
L 179.147107 304.717343 
L 180.130909 304.66939 
L 181.114711 304.296725 
L 182.098512 304.248474 
L 183.082314 303.973866 
L 187.017521 303.485661 
L 188.985124 303.58001 
L 189.968926 303.507489 
L 193.904132 302.746702 
L 194.887934 302.606459 
L 196.855537 302.570028 
L 200.790744 301.825402 
L 201.774545 301.82253 
L 202.758347 301.351762 
L 203.742149 301.238865 
L 204.72595 300.871043 
L 205.709752 300.68335 
L 207.677355 300.000887 
L 209.644959 299.855534 
L 211.612562 299.43015 
L 212.596364 298.993055 
L 213.580165 298.800778 
L 214.563967 298.771552 
L 216.53157 298.228074 
L 217.515372 298.045324 
L 218.499174 297.693761 
L 221.450579 297.202488 
L 222.43438 296.661191 
L 223.418182 296.387377 
L 225.385785 296.004668 
L 226.369587 295.701693 
L 227.353388 295.518257 
L 229.320992 294.696242 
L 231.288595 293.832782 
L 235.223802 292.823723 
L 236.207603 292.306198 
L 239.159008 291.14656 
L 240.14281 290.890066 
L 241.126612 290.46166 
L 242.110413 290.179757 
L 243.094215 289.643178 
L 245.061818 289.188875 
L 247.029421 288.160392 
L 248.997025 287.070842 
L 249.980826 286.721629 
L 250.964628 286.065542 
L 252.932231 285.438087 
L 253.916033 284.73294 
L 254.899835 283.809732 
L 255.883636 283.260099 
L 257.85124 281.769057 
L 258.835041 281.244857 
L 259.818843 280.454921 
L 261.786446 278.622386 
L 263.75405 276.876358 
L 265.721653 274.906573 
L 268.673058 271.169509 
L 269.65686 270.414516 
L 273.592066 266.518103 
L 275.559669 263.773483 
L 276.543471 262.617069 
L 277.527273 67.7412 
L 281.462479 81.991653 
L 286.381488 98.490381 
L 289.332893 107.881182 
L 296.219504 128.336595 
L 304.089917 148.594148 
L 311.960331 166.739637 
L 313.927934 170.97775 
L 319.830744 182.928178 
L 321.798347 186.649783 
L 328.684959 198.914641 
L 331.636364 203.960543 
L 333.603967 206.948192 
L 334.587769 208.643721 
L 336.555372 211.678128 
L 338.522975 214.544991 
L 349.344793 229.265906 
L 351.312397 231.556183 
L 353.28 233.991365 
L 357.215207 238.353333 
L 363.118017 244.628051 
L 364.101818 245.453114 
L 366.069421 247.653829 
L 368.037025 249.707125 
L 375.907438 256.535583 
L 376.89124 257.151671 
L 378.858843 258.787233 
L 383.777851 263.119212 
L 388.69686 266.960156 
L 389.680661 267.553412 
L 392.632066 269.688097 
L 395.583471 271.63404 
L 397.551074 272.952366 
L 399.518678 274.101982 
L 401.486281 275.412276 
L 402.470083 276.168313 
L 404.437686 277.17151 
L 405.421488 277.703322 
L 406.405289 278.102651 
L 408.372893 279.2701 
L 409.356694 280.011701 
L 412.308099 281.713571 
L 414.275702 282.48998 
L 416.243306 283.689475 
L 417.227107 284.28179 
L 418.210909 284.690455 
L 420.178512 285.776465 
L 422.146116 286.515515 
L 425.097521 287.899576 
L 425.097521 287.899576 
" clip-path="url(#p810d5a1551)" style="fill: none; stroke: #ff00ff; stroke-linecap: square"/>
   </g>
   <g id="line2d_18">
    <path d="M 129.957025 174.374768 
L 130.940826 174.324289 
L 131.924628 175.313345 
L 132.90843 175.76852 
L 134.876033 176.194732 
L 135.859835 176.560205 
L 136.843636 176.703597 
L 138.81124 177.57156 
L 140.778843 178.185579 
L 141.762645 178.184657 
L 142.746446 178.839698 
L 143.730248 179.152463 
L 145.697851 180.059313 
L 146.681653 180.360508 
L 147.665455 180.960559 
L 150.61686 181.832504 
L 151.600661 181.838396 
L 153.568264 182.178732 
L 154.552066 182.608192 
L 157.503471 183.271687 
L 158.487273 183.960502 
L 159.471074 184.15522 
L 160.454876 184.759808 
L 163.406281 185.851023 
L 164.390083 186.463723 
L 165.373884 186.830377 
L 166.357686 186.925276 
L 167.341488 187.639889 
L 168.325289 187.930532 
L 169.309091 187.912867 
L 170.292893 188.241762 
L 171.276694 188.37969 
L 172.260496 187.937986 
L 173.244298 187.832604 
L 174.228099 187.97166 
L 175.211901 188.258144 
L 176.195702 188.268786 
L 177.179504 188.155064 
L 178.163306 188.422086 
L 179.147107 189.097969 
L 180.130909 189.357275 
L 181.114711 189.798211 
L 182.098512 190.007378 
L 183.082314 190.040855 
L 185.049917 190.645954 
L 186.033719 190.648553 
L 188.985124 190.100902 
L 189.968926 190.057079 
L 190.952727 190.452878 
L 192.920331 190.869133 
L 193.904132 190.865413 
L 194.887934 191.527688 
L 195.871736 191.874052 
L 196.855537 191.913832 
L 197.839339 191.709391 
L 198.82314 191.670798 
L 199.806942 192.204076 
L 202.758347 191.936284 
L 204.72595 191.774018 
L 205.709752 191.88175 
L 206.693554 192.411758 
L 208.661157 192.32988 
L 209.644959 192.459356 
L 210.62876 192.29925 
L 211.612562 192.463578 
L 212.596364 193.039598 
L 213.580165 192.869205 
L 216.53157 192.845497 
L 217.515372 192.519907 
L 218.499174 192.485284 
L 219.482975 193.026717 
L 220.466777 192.695596 
L 221.450579 192.829813 
L 222.43438 193.270114 
L 223.418182 193.551037 
L 224.401983 193.398688 
L 227.353388 192.696624 
L 228.33719 192.771949 
L 229.320992 192.578565 
L 230.304793 192.56745 
L 231.288595 192.126753 
L 232.272397 191.833595 
L 233.256198 191.693122 
L 234.24 192.019733 
L 235.223802 191.849433 
L 236.207603 191.338731 
L 238.175207 190.893816 
L 240.14281 190.165675 
L 241.126612 189.906361 
L 242.110413 190.032524 
L 243.094215 189.606513 
L 244.078017 189.66466 
L 246.04562 189.346295 
L 247.029421 188.517542 
L 248.013223 188.060764 
L 249.980826 187.891237 
L 250.964628 187.537734 
L 252.932231 186.408684 
L 255.883636 185.742112 
L 256.867438 185.754961 
L 257.85124 185.438206 
L 258.835041 185.415925 
L 259.818843 184.650437 
L 260.802645 184.441115 
L 262.770248 182.912638 
L 263.75405 182.432028 
L 264.737851 182.862964 
L 265.721653 182.478715 
L 266.705455 182.51881 
L 267.689256 181.846132 
L 268.673058 180.929381 
L 269.65686 179.860751 
L 272.608264 177.726387 
L 273.592066 177.232349 
L 274.575868 176.180151 
L 276.543471 175.734598 
L 277.527273 80.659583 
L 282.446281 82.259547 
L 283.430083 82.475741 
L 288.349091 84.147338 
L 291.300496 84.957217 
L 296.219504 86.413185 
L 297.203306 86.516691 
L 298.187107 86.829769 
L 301.138512 87.459502 
L 303.106116 88.153043 
L 304.089917 88.347258 
L 305.073719 88.418286 
L 306.057521 88.724832 
L 308.025124 89.166937 
L 317.86314 91.87495 
L 323.76595 93.73858 
L 325.733554 94.290666 
L 326.717355 94.744223 
L 329.66876 95.547491 
L 330.652562 96.013076 
L 332.620165 96.40519 
L 334.587769 97.118258 
L 338.522975 98.189898 
L 342.458182 99.541672 
L 344.425785 99.973115 
L 346.393388 101.02902 
L 349.344793 102.106053 
L 350.328595 102.757326 
L 352.296198 103.407124 
L 356.231405 105.644155 
L 358.199008 106.385971 
L 359.18281 106.695482 
L 362.134215 108.31828 
L 368.037025 110.682773 
L 369.020826 111.35107 
L 370.004628 111.776396 
L 371.972231 113.442677 
L 372.956033 113.894792 
L 373.939835 114.648653 
L 375.907438 115.497982 
L 376.89124 116.234153 
L 378.858843 117.063307 
L 379.842645 117.788995 
L 384.761653 120.472957 
L 386.729256 121.802188 
L 387.713058 122.257466 
L 389.680661 123.427904 
L 390.664463 123.750982 
L 393.615868 125.427676 
L 394.599669 126.210916 
L 395.583471 126.723453 
L 396.567273 127.410082 
L 397.551074 127.703245 
L 398.534876 128.934903 
L 400.502479 130.090431 
L 401.486281 130.499616 
L 402.470083 131.06351 
L 403.453884 132.081315 
L 404.437686 132.910889 
L 405.421488 133.388516 
L 406.405289 134.206931 
L 408.372893 135.282251 
L 409.356694 135.464413 
L 410.340496 136.224686 
L 411.324298 136.765473 
L 412.308099 137.12128 
L 414.275702 138.274507 
L 416.243306 139.13921 
L 417.227107 139.284705 
L 419.194711 140.274636 
L 420.178512 140.802053 
L 422.146116 142.249417 
L 423.129917 142.363929 
L 424.113719 142.657216 
L 425.097521 143.250722 
L 425.097521 143.250722 
" clip-path="url(#p810d5a1551)" style="fill: none; stroke-dasharray: 1,1.65; stroke-dashoffset: 0; stroke: #ff00ff"/>
   </g>
   <g id="line2d_19">
    <path d="M 129.957025 299.853255 
L 130.940826 299.818989 
L 131.924628 299.521899 
L 135.859835 299.924181 
L 136.843636 299.499653 
L 137.827438 298.929975 
L 139.795041 298.782697 
L 140.778843 297.944484 
L 143.730248 297.898474 
L 144.71405 297.56318 
L 145.697851 297.393944 
L 147.665455 296.328471 
L 148.649256 296.106793 
L 150.61686 294.673616 
L 151.600661 294.443081 
L 152.584463 293.786711 
L 153.568264 293.388486 
L 154.552066 293.30845 
L 155.535868 292.572315 
L 156.519669 292.01441 
L 157.503471 291.092503 
L 158.487273 290.49517 
L 159.471074 290.072455 
L 160.454876 290.266362 
L 162.422479 289.759672 
L 164.390083 289.631474 
L 165.373884 288.428497 
L 167.341488 287.889056 
L 169.309091 285.734837 
L 170.292893 285.249846 
L 171.276694 284.350526 
L 172.260496 283.983754 
L 174.228099 282.572782 
L 176.195702 281.534953 
L 177.179504 281.412871 
L 178.163306 280.691561 
L 179.147107 280.534425 
L 180.130909 279.994342 
L 182.098512 277.785431 
L 183.082314 277.017872 
L 184.066116 276.744397 
L 185.049917 276.105065 
L 186.033719 274.830822 
L 187.017521 274.543317 
L 188.001322 273.902811 
L 188.985124 273.042148 
L 189.968926 271.634501 
L 190.952727 270.728401 
L 191.936529 270.830879 
L 192.920331 270.4775 
L 193.904132 269.254263 
L 194.887934 268.632239 
L 195.871736 268.474863 
L 196.855537 267.809542 
L 197.839339 266.494643 
L 198.82314 265.679235 
L 200.790744 263.184477 
L 201.774545 261.40416 
L 202.758347 260.400286 
L 203.742149 259.083018 
L 204.72595 258.73817 
L 206.693554 257.787096 
L 207.677355 256.877885 
L 208.661157 256.329341 
L 209.644959 255.165795 
L 210.62876 254.459652 
L 211.612562 253.356352 
L 212.596364 253.143383 
L 213.580165 252.341443 
L 214.563967 251.350695 
L 215.547769 250.666826 
L 216.53157 249.597295 
L 217.515372 248.206267 
L 218.499174 247.111502 
L 220.466777 244.004787 
L 221.450579 242.68537 
L 222.43438 242.673371 
L 223.418182 241.848562 
L 224.401983 240.315351 
L 226.369587 238.759707 
L 227.353388 236.47052 
L 228.33719 235.235811 
L 229.320992 233.626087 
L 231.288595 231.791093 
L 232.272397 230.40803 
L 233.256198 229.481363 
L 235.223802 226.250141 
L 236.207603 225.313295 
L 237.191405 223.225326 
L 238.175207 220.786292 
L 239.159008 219.569178 
L 240.14281 217.751972 
L 241.126612 216.283979 
L 243.094215 212.813199 
L 244.078017 211.57253 
L 245.061818 210.567092 
L 246.04562 208.83324 
L 247.029421 207.873774 
L 248.013223 206.61451 
L 248.997025 205.744864 
L 249.980826 204.090545 
L 250.964628 202.013919 
L 251.94843 200.689542 
L 252.932231 199.706152 
L 253.916033 197.788333 
L 255.883636 194.488052 
L 256.867438 192.514584 
L 257.85124 190.897686 
L 259.818843 185.498095 
L 260.802645 183.351241 
L 261.786446 180.009513 
L 262.770248 176.06254 
L 264.737851 169.800122 
L 265.721653 167.473049 
L 266.705455 164.291641 
L 268.673058 159.255486 
L 269.65686 154.029933 
L 270.640661 150.803106 
L 271.624463 148.080607 
L 272.608264 143.745173 
L 274.575868 132.283038 
L 275.559669 126.246257 
L 276.543471 119.403657 
L 277.527273 67.7412 
L 279.494876 76.708469 
L 281.462479 87.792774 
L 283.430083 97.800897 
L 284.413884 102.99309 
L 285.397686 105.539157 
L 286.381488 110.110517 
L 287.365289 112.579874 
L 288.349091 116.322787 
L 289.332893 119.048444 
L 290.316694 122.666294 
L 291.300496 125.437225 
L 293.268099 129.944271 
L 294.251901 133.278781 
L 295.235702 137.545793 
L 296.219504 139.289536 
L 298.187107 145.162817 
L 299.170909 147.366554 
L 300.154711 149.081382 
L 301.138512 151.323491 
L 302.122314 155.21256 
L 304.089917 159.287895 
L 305.073719 162.107318 
L 307.041322 166.370833 
L 308.025124 167.670683 
L 309.008926 169.19961 
L 309.992727 171.557228 
L 310.976529 173.071956 
L 312.944132 178.729188 
L 313.927934 179.967752 
L 314.911736 181.845451 
L 315.895537 183.207343 
L 318.846942 188.758917 
L 319.830744 190.021324 
L 320.814545 191.941836 
L 321.798347 193.500778 
L 322.782149 194.51307 
L 323.76595 196.523473 
L 324.749752 197.706673 
L 325.733554 200.106684 
L 326.717355 200.888996 
L 328.684959 202.87482 
L 329.66876 204.367739 
L 330.652562 204.895773 
L 331.636364 206.763969 
L 332.620165 207.707025 
L 335.57157 212.767657 
L 336.555372 214.815726 
L 337.539174 216.368525 
L 338.522975 217.058734 
L 339.506777 218.41215 
L 340.490579 219.102234 
L 342.458182 221.272313 
L 343.441983 223.75627 
L 344.425785 224.676118 
L 345.409587 225.760418 
L 346.393388 227.086196 
L 348.360992 230.289268 
L 349.344793 230.912947 
L 350.328595 231.686054 
L 352.296198 234.460368 
L 353.28 235.138349 
L 355.247603 235.805045 
L 357.215207 237.285027 
L 358.199008 238.632552 
L 359.18281 239.670973 
L 360.166612 240.369499 
L 362.134215 243.431252 
L 367.053223 248.012624 
L 368.037025 248.558985 
L 369.020826 249.886553 
L 370.004628 250.413903 
L 370.98843 251.239531 
L 371.972231 251.707669 
L 372.956033 252.449723 
L 373.939835 253.942757 
L 374.923636 254.46943 
L 375.907438 256.601452 
L 377.875041 258.538064 
L 379.842645 261.314426 
L 381.810248 262.787963 
L 382.79405 263.911465 
L 384.761653 265.88592 
L 385.745455 266.013362 
L 386.729256 266.986207 
L 387.713058 267.333486 
L 388.69686 268.297017 
L 389.680661 268.933999 
L 390.664463 269.112546 
L 391.648264 269.479688 
L 392.632066 270.293235 
L 395.583471 272.241798 
L 396.567273 272.819067 
L 397.551074 272.958987 
L 400.502479 275.190032 
L 401.486281 275.534358 
L 402.470083 276.791219 
L 403.453884 277.471011 
L 404.437686 277.734239 
L 405.421488 278.184858 
L 406.405289 279.056594 
L 407.389091 279.448815 
L 408.372893 279.608573 
L 409.356694 280.058414 
L 410.340496 281.073986 
L 411.324298 281.36822 
L 413.291901 283.144953 
L 414.275702 284.628283 
L 415.259504 285.203149 
L 416.243306 286.172419 
L 417.227107 286.550869 
L 418.210909 286.525971 
L 419.194711 287.218679 
L 420.178512 287.215798 
L 423.129917 287.951133 
L 424.113719 288.495043 
L 425.097521 288.615107 
L 425.097521 288.615107 
" clip-path="url(#p810d5a1551)" style="fill: none; stroke: #008000; stroke-linecap: square"/>
   </g>
   <g id="line2d_20">
    <path d="M 129.957025 226.994903 
L 130.940826 227.261816 
L 131.924628 227.206769 
L 132.90843 226.692563 
L 133.892231 226.845097 
L 134.876033 227.214173 
L 135.859835 227.182179 
L 136.843636 226.781084 
L 137.827438 226.616295 
L 138.81124 227.011853 
L 139.795041 226.922466 
L 140.778843 227.076776 
L 141.762645 227.057875 
L 142.746446 226.597167 
L 143.730248 226.270636 
L 144.71405 225.466408 
L 146.681653 225.612783 
L 147.665455 225.174263 
L 148.649256 224.912095 
L 149.633058 224.891949 
L 150.61686 224.28137 
L 152.584463 224.06721 
L 154.552066 223.100285 
L 155.535868 221.82362 
L 156.519669 221.526005 
L 157.503471 220.820644 
L 158.487273 220.564291 
L 159.471074 219.909288 
L 160.454876 219.770476 
L 162.422479 218.662685 
L 163.406281 218.847328 
L 164.390083 218.567025 
L 166.357686 216.605821 
L 167.341488 216.48229 
L 168.325289 215.251285 
L 169.309091 213.424269 
L 170.292893 212.753348 
L 172.260496 210.391645 
L 173.244298 209.679757 
L 174.228099 209.525117 
L 176.195702 207.630401 
L 177.179504 207.432475 
L 178.163306 206.897193 
L 179.147107 207.154218 
L 181.114711 205.06075 
L 183.082314 203.543583 
L 184.066116 203.683125 
L 185.049917 202.313552 
L 186.033719 201.36286 
L 188.001322 200.301206 
L 188.985124 198.880568 
L 189.968926 197.232209 
L 190.952727 196.908122 
L 191.936529 196.221384 
L 192.920331 195.864044 
L 193.904132 194.400387 
L 195.871736 193.462981 
L 196.855537 192.284378 
L 197.839339 190.887843 
L 198.82314 189.806908 
L 200.790744 188.50388 
L 201.774545 186.91878 
L 202.758347 185.719025 
L 203.742149 183.716571 
L 204.72595 183.005031 
L 205.709752 182.608836 
L 206.693554 181.837493 
L 207.677355 180.854897 
L 209.644959 178.593063 
L 210.62876 177.98826 
L 211.612562 176.947862 
L 212.596364 176.397934 
L 213.580165 175.424808 
L 216.53157 173.167202 
L 218.499174 170.852371 
L 219.482975 169.823074 
L 220.466777 169.148371 
L 221.450579 167.559988 
L 222.43438 167.373403 
L 223.418182 165.84619 
L 225.385785 163.842699 
L 226.369587 163.55769 
L 227.353388 161.738857 
L 228.33719 160.490909 
L 229.320992 159.008026 
L 230.304793 158.002434 
L 231.288595 157.489821 
L 232.272397 156.196101 
L 233.256198 156.079309 
L 234.24 154.906397 
L 235.223802 153.316828 
L 236.207603 152.482336 
L 237.191405 150.835191 
L 238.175207 148.594089 
L 239.159008 147.788047 
L 240.14281 145.705742 
L 241.126612 144.952159 
L 242.110413 143.000228 
L 245.061818 140.25926 
L 246.04562 138.6378 
L 247.029421 137.612845 
L 248.013223 136.860092 
L 248.997025 135.685493 
L 250.964628 130.893767 
L 251.94843 129.356834 
L 252.932231 129.476042 
L 253.916033 128.227489 
L 255.883636 125.241526 
L 257.85124 123.011583 
L 258.835041 121.530655 
L 260.802645 117.538368 
L 262.770248 112.512018 
L 264.737851 109.271015 
L 265.721653 108.451192 
L 266.705455 105.924386 
L 267.689256 104.31135 
L 268.673058 103.242277 
L 269.65686 100.275206 
L 270.640661 99.63638 
L 271.624463 98.086546 
L 272.608264 95.330883 
L 276.543471 82.21274 
L 277.527273 68.699364 
L 278.511074 69.963984 
L 279.494876 71.635232 
L 280.478678 74.573017 
L 281.462479 77.076311 
L 282.446281 79.150047 
L 284.413884 85.002171 
L 285.397686 85.447041 
L 286.381488 87.964044 
L 287.365289 88.397865 
L 288.349091 90.096087 
L 289.332893 90.922358 
L 290.316694 93.060266 
L 293.268099 95.712094 
L 294.251901 97.386644 
L 295.235702 100.39905 
L 296.219504 100.861893 
L 298.187107 104.20275 
L 299.170909 105.098389 
L 300.154711 105.529441 
L 301.138512 106.389959 
L 302.122314 109.390831 
L 303.106116 110.689468 
L 305.073719 114.160288 
L 306.057521 115.022934 
L 307.041322 116.331028 
L 308.025124 116.836297 
L 309.008926 117.788849 
L 309.992727 119.529527 
L 310.976529 120.443851 
L 312.944132 125.542446 
L 313.927934 126.098552 
L 314.911736 127.462247 
L 315.895537 127.938018 
L 316.879339 129.26841 
L 317.86314 130.070243 
L 318.846942 131.375973 
L 319.830744 131.875631 
L 320.814545 133.188365 
L 321.798347 134.049581 
L 322.782149 134.458983 
L 323.76595 135.752419 
L 324.749752 136.655317 
L 325.733554 138.759789 
L 326.717355 138.692779 
L 327.701157 139.113058 
L 329.66876 141.099917 
L 330.652562 141.210906 
L 331.636364 142.525807 
L 332.620165 143.09769 
L 333.603967 144.40804 
L 334.587769 145.278832 
L 335.57157 146.461976 
L 336.555372 148.580608 
L 337.539174 150.403805 
L 338.522975 151.438143 
L 339.506777 152.734017 
L 340.490579 152.766412 
L 341.47438 153.68994 
L 342.458182 154.948315 
L 343.441983 157.01447 
L 345.409587 158.745424 
L 346.393388 159.65339 
L 348.360992 162.225811 
L 349.344793 162.848065 
L 350.328595 163.323676 
L 351.312397 165.09862 
L 352.296198 165.978772 
L 354.263802 166.9423 
L 355.247603 166.983152 
L 357.215207 167.838706 
L 358.199008 169.30279 
L 359.18281 170.467148 
L 360.166612 170.959064 
L 361.150413 172.705022 
L 362.134215 174.165872 
L 363.118017 174.506335 
L 364.101818 175.497801 
L 365.08562 176.911346 
L 366.069421 177.33754 
L 367.053223 178.159235 
L 368.037025 178.224831 
L 369.020826 179.330475 
L 370.004628 179.698323 
L 370.98843 180.805811 
L 371.972231 180.80532 
L 372.956033 182.113834 
L 373.939835 183.933094 
L 374.923636 184.350889 
L 375.907438 186.657855 
L 376.89124 187.786806 
L 377.875041 188.577214 
L 378.858843 189.603383 
L 379.842645 190.312105 
L 380.826446 191.540527 
L 381.810248 191.909261 
L 382.79405 193.587148 
L 384.761653 195.00376 
L 385.745455 195.005257 
L 386.729256 196.252791 
L 387.713058 196.152051 
L 388.69686 197.380081 
L 389.680661 197.901659 
L 390.664463 197.855832 
L 392.632066 199.596073 
L 393.615868 200.120268 
L 394.599669 200.472635 
L 395.583471 201.261084 
L 397.551074 201.958714 
L 399.518678 203.585724 
L 400.502479 203.977808 
L 401.486281 204.916017 
L 402.470083 206.589769 
L 403.453884 207.272882 
L 404.437686 207.781596 
L 405.421488 208.460603 
L 406.405289 209.600691 
L 407.389091 210.093326 
L 408.372893 209.842402 
L 409.356694 210.379766 
L 410.340496 211.048925 
L 411.324298 211.44137 
L 412.308099 212.065188 
L 413.291901 213.14483 
L 414.275702 214.594114 
L 416.243306 216.532354 
L 417.227107 217.055308 
L 418.210909 217.262946 
L 419.194711 218.033759 
L 421.162314 217.819216 
L 422.146116 218.406126 
L 423.129917 218.298086 
L 424.113719 218.813772 
L 425.097521 218.917597 
L 425.097521 218.917597 
" clip-path="url(#p810d5a1551)" style="fill: none; stroke-dasharray: 1,1.65; stroke-dashoffset: 0; stroke: #008000"/>
   </g>
   <g id="line2d_21">
    <path d="M 130.940812 357.89815 
L 131.924614 356.881936 
L 133.892217 356.238597 
L 134.876019 356.133973 
L 135.859821 355.627338 
L 136.843622 354.739677 
L 137.827424 354.130896 
L 138.811226 353.238288 
L 139.795028 353.036415 
L 140.778829 352.956633 
L 141.762631 352.210058 
L 142.746433 351.719608 
L 143.730235 351.623861 
L 144.714036 351.27662 
L 145.697838 350.69421 
L 146.68164 349.523422 
L 147.665442 349.162532 
L 148.649243 348.480221 
L 149.633045 348.132341 
L 150.616847 347.264645 
L 151.600649 347.59567 
L 154.552054 345.953908 
L 155.535856 345.588321 
L 156.519657 345.499196 
L 158.487261 343.966175 
L 159.471063 343.344217 
L 160.454864 342.345167 
L 164.390071 339.904719 
L 165.373873 338.554452 
L 167.341477 337.507355 
L 170.292882 334.130154 
L 172.260485 332.005964 
L 173.244287 331.458983 
L 174.228089 330.260054 
L 175.211891 329.965235 
L 178.163296 328.290487 
L 180.130899 326.341309 
L 182.098503 324.591157 
L 183.082305 323.544056 
L 184.066106 323.084342 
L 185.049908 322.23282 
L 186.03371 320.784869 
L 188.001313 318.732568 
L 189.968917 316.689189 
L 190.952719 315.982826 
L 192.920322 313.716459 
L 195.871727 311.106864 
L 196.855529 309.902334 
L 197.839331 308.929617 
L 198.823133 307.506136 
L 199.806934 306.405594 
L 200.790736 305.630701 
L 203.742141 302.150847 
L 204.725943 301.374443 
L 208.66115 296.666712 
L 209.644952 294.944801 
L 213.580159 290.077339 
L 216.531564 285.169168 
L 217.515366 283.878883 
L 218.499168 282.398734 
L 219.482969 281.283945 
L 220.466771 279.658012 
L 223.418176 276.103038 
L 225.38578 273.227541 
L 226.369582 271.353972 
L 227.353383 269.851052 
L 229.320987 266.392854 
L 231.28859 262.9541 
L 233.256194 258.842725 
L 234.239996 257.063385 
L 236.207599 252.577828 
L 237.191401 250.958713 
L 239.159004 246.895065 
L 240.142806 244.388084 
L 241.126608 242.700724 
L 247.029418 228.061679 
L 252.932229 211.490212 
L 254.899832 204.998728 
L 255.883634 202.289641 
L 256.867436 198.728691 
L 257.851238 195.948994 
L 258.835039 191.912865 
L 262.770246 177.605809 
L 264.73785 169.459547 
L 265.721652 164.36901 
L 266.705453 160.373821 
L 268.673057 150.006425 
L 271.624462 133.407359 
L 272.608264 126.743007 
L 273.592066 119.300043 
L 274.575867 110.743358 
L 275.559669 100.724689 
L 276.543471 88.145884 
L 277.527273 67.7412 
L 278.511074 88.739225 
L 279.494876 101.651359 
L 280.478678 111.85261 
L 282.446281 127.721235 
L 283.430083 134.257014 
L 287.36529 156.608688 
L 291.300497 174.983874 
L 296.219506 193.129254 
L 298.18711 199.574754 
L 299.170911 202.367133 
L 301.138515 208.925199 
L 304.08992 216.837988 
L 305.073722 219.329091 
L 306.057524 222.437132 
L 307.041325 224.593534 
L 310.976532 234.529063 
L 317.863145 248.599653 
L 318.846946 251.12724 
L 319.830748 253.118645 
L 320.81455 254.581415 
L 321.798352 256.796841 
L 322.782153 258.098765 
L 324.749757 261.337448 
L 325.733559 263.227274 
L 328.684964 269.720629 
L 329.668766 271.72107 
L 330.652567 272.886863 
L 331.636369 274.637697 
L 332.620171 275.810654 
L 333.603973 277.569191 
L 335.571576 280.336063 
L 336.555378 281.92834 
L 338.522981 284.658086 
L 339.506783 286.170712 
L 340.490585 288.016512 
L 341.474387 288.933371 
L 342.458188 290.660883 
L 343.44199 291.820114 
L 345.409594 295.195467 
L 346.393395 296.050148 
L 349.344801 301.538286 
L 350.328602 302.692075 
L 352.296206 305.690184 
L 353.280008 306.546205 
L 357.215215 310.889533 
L 358.199016 312.454615 
L 359.182818 313.39986 
L 361.150422 314.731568 
L 362.134223 315.383095 
L 363.118025 316.173216 
L 366.06943 319.251044 
L 367.053232 320.562422 
L 368.037034 321.617347 
L 369.020836 322.127303 
L 370.004637 322.945156 
L 372.956043 327.124463 
L 373.939844 327.872276 
L 374.923646 328.885324 
L 375.907448 329.38202 
L 376.89125 330.181161 
L 377.875051 331.148861 
L 378.858853 331.70273 
L 379.842655 332.007284 
L 380.826457 332.11427 
L 381.810258 333.029525 
L 382.79406 333.403358 
L 383.777862 334.345769 
L 384.761664 335.076423 
L 385.745465 335.595885 
L 386.729267 337.024871 
L 387.713069 337.553003 
L 388.696871 338.681587 
L 389.680672 338.974801 
L 390.664474 340.122716 
L 391.648276 340.627985 
L 392.632078 341.542595 
L 394.599681 342.729795 
L 395.583483 343.238892 
L 396.567285 344.051541 
L 397.551086 344.283344 
L 399.51869 345.752377 
L 400.502492 345.904418 
L 401.486293 346.585916 
L 403.453897 347.150602 
L 405.4215 349.256402 
L 406.405302 349.53267 
L 408.372906 350.927734 
L 410.340509 351.914925 
L 411.324311 351.874694 
L 413.291914 353.404663 
L 414.275716 354.156041 
L 416.24332 354.782459 
L 417.227121 354.766034 
L 418.210923 354.967412 
L 419.194725 355.657449 
L 423.129932 357.481893 
L 424.113734 357.427638 
L 424.113734 357.427638 
" clip-path="url(#p810d5a1551)" style="fill: none; stroke: #ffa500; stroke-linecap: square"/>
   </g>
   <g id="line2d_22">
    <path d="M 130.940812 366.716937 
L 131.924614 365.770335 
L 133.892217 365.308213 
L 134.876019 365.29362 
L 135.859821 364.896604 
L 136.843622 364.08563 
L 137.827424 363.479176 
L 138.811226 362.572376 
L 140.778829 362.253747 
L 141.762631 361.37908 
L 142.746433 360.676016 
L 143.730235 360.538683 
L 144.714036 360.170273 
L 145.697838 359.555451 
L 146.68164 358.266304 
L 147.665442 357.691809 
L 148.649243 356.775288 
L 149.633045 356.420377 
L 150.616847 355.323923 
L 151.600649 355.662928 
L 154.552054 353.24043 
L 155.535856 352.537239 
L 156.519657 352.446157 
L 159.471063 349.246589 
L 160.454864 347.824332 
L 161.438666 346.696748 
L 162.422468 345.366671 
L 163.40627 344.484087 
L 164.390071 343.281206 
L 165.373873 341.126003 
L 166.357675 340.073515 
L 167.341477 338.750908 
L 168.325278 336.529552 
L 169.30908 334.768853 
L 170.292882 332.112406 
L 172.260485 327.984629 
L 173.244287 327.10936 
L 174.228089 324.50027 
L 175.211891 323.824892 
L 176.195692 322.167569 
L 178.163296 319.409902 
L 182.098503 310.945083 
L 183.082305 308.376923 
L 184.066106 307.410457 
L 185.049908 305.809952 
L 186.03371 302.495319 
L 188.985115 295.761437 
L 189.968917 293.563001 
L 190.952719 291.759783 
L 192.920322 287.217852 
L 193.904124 284.708494 
L 194.887926 282.544011 
L 195.871727 279.314408 
L 197.839331 274.659396 
L 198.823133 271.55847 
L 200.790736 266.583055 
L 202.75834 262.325782 
L 203.742141 258.968079 
L 204.725943 257.348973 
L 206.693547 251.882386 
L 209.644952 242.133751 
L 210.628754 239.699377 
L 211.612555 237.841395 
L 212.596357 235.315816 
L 216.531564 221.161959 
L 217.515366 218.657718 
L 218.499168 215.668855 
L 219.482969 213.154594 
L 220.466771 209.281582 
L 221.450573 207.281359 
L 222.434375 204.585164 
L 223.418176 203.104344 
L 228.337185 188.072991 
L 231.28859 178.372458 
L 233.256194 173.143373 
L 236.207599 163.623796 
L 237.191401 160.894957 
L 238.175203 157.775922 
L 239.159004 155.141569 
L 240.142806 151.832833 
L 242.11041 146.8452 
L 243.094211 143.312474 
L 246.045617 134.454238 
L 247.029418 130.78836 
L 248.01322 127.880075 
L 249.980824 123.008067 
L 251.948427 117.585104 
L 252.932229 115.444684 
L 254.899832 110.379075 
L 255.883634 108.418666 
L 259.818841 99.469031 
L 260.802643 97.82048 
L 263.754048 91.468373 
L 264.73785 89.674098 
L 266.705453 86.728872 
L 267.689255 84.988432 
L 268.673057 82.959945 
L 269.656859 81.598991 
L 270.64066 79.686345 
L 273.592066 75.305745 
L 276.543471 71.065915 
L 277.527273 69.313441 
L 278.511074 71.70824 
L 279.494876 73.352893 
L 280.478678 74.489542 
L 281.46248 76.096785 
L 285.397687 81.313416 
L 287.36529 84.431219 
L 288.349092 85.833576 
L 289.332894 88.121018 
L 292.284299 92.897339 
L 295.235704 98.67716 
L 296.219506 100.546273 
L 297.203308 102.689038 
L 298.18711 105.116577 
L 299.170911 106.670145 
L 300.154713 109.347901 
L 301.138515 111.546557 
L 302.122317 114.274759 
L 303.106118 116.101597 
L 305.073722 120.734865 
L 306.057524 123.691511 
L 308.025127 128.09729 
L 309.008929 129.581537 
L 309.992731 132.63295 
L 311.960334 137.660761 
L 312.944136 141.033143 
L 314.911739 145.822328 
L 316.879343 151.47339 
L 319.830748 162.404068 
L 320.81455 165.255483 
L 321.798352 169.281904 
L 322.782153 171.005762 
L 324.749757 175.478354 
L 327.701162 184.979586 
L 328.684964 190.137243 
L 329.668766 194.097116 
L 330.652567 197.418394 
L 331.636369 200.280898 
L 332.620171 202.761677 
L 334.587774 209.789102 
L 336.555378 216.290411 
L 337.53918 219.538844 
L 339.506783 224.719195 
L 340.490585 227.811221 
L 341.474387 230.276376 
L 342.458188 233.785158 
L 343.44199 236.508663 
L 345.409594 242.857722 
L 346.393395 244.638374 
L 347.377197 248.11835 
L 349.344801 256.938754 
L 350.328602 259.781318 
L 352.296206 266.656874 
L 353.280008 268.776857 
L 354.263809 271.56309 
L 355.247611 275.434726 
L 356.231413 277.375128 
L 357.215215 279.918767 
L 358.199016 283.280466 
L 359.182818 285.549074 
L 360.16662 286.875856 
L 361.150422 288.685778 
L 362.134223 290.018529 
L 363.118025 291.762579 
L 365.085629 297.009103 
L 366.06943 298.977871 
L 367.053232 301.869816 
L 368.037034 304.385838 
L 369.020836 305.322964 
L 370.004637 307.39179 
L 370.988439 310.343386 
L 371.972241 312.836354 
L 372.956043 316.059255 
L 373.939844 317.466121 
L 374.923646 319.796358 
L 375.907448 320.722175 
L 376.89125 322.309798 
L 377.875051 324.591257 
L 378.858853 326.165211 
L 379.842655 327.141935 
L 380.826457 327.388154 
L 381.810258 329.014152 
L 382.79406 329.764378 
L 383.777862 331.732798 
L 384.761664 333.388531 
L 385.745465 334.151453 
L 386.729267 337.25481 
L 387.713069 338.259303 
L 388.696871 340.487381 
L 389.680672 341.16458 
L 390.664474 343.223354 
L 391.648276 343.871419 
L 393.615879 346.522837 
L 394.599681 347.640588 
L 395.583483 348.459608 
L 396.567285 349.775156 
L 397.551086 350.352649 
L 398.534888 351.24479 
L 399.51869 352.330118 
L 400.502492 352.707746 
L 401.486293 353.659111 
L 402.470095 353.942918 
L 403.453897 354.503032 
L 405.4215 357.349896 
L 406.405302 357.936857 
L 408.372906 359.838831 
L 410.340509 360.998244 
L 411.324311 360.874861 
L 413.291914 362.538981 
L 414.275716 363.468379 
L 416.24332 364.020841 
L 417.227121 364.031229 
L 418.210923 364.196551 
L 419.194725 364.889362 
L 420.178527 365.3705 
L 423.129932 366.437793 
L 424.113734 366.439204 
L 424.113734 366.439204 
" clip-path="url(#p810d5a1551)" style="fill: none; stroke-dasharray: 1,1.65; stroke-dashoffset: 0; stroke: #ffa500"/>
   </g>
   <g id="patch_3">
    <path d="M 115.2 388.9656 
L 115.2 52.4448 
" style="fill: none; stroke: #000000; stroke-width: 0.8; stroke-linejoin: miter; stroke-linecap: square"/>
   </g>
   <g id="patch_4">
    <path d="M 439.854545 388.9656 
L 439.854545 52.4448 
" style="fill: none; stroke: #000000; stroke-width: 0.8; stroke-linejoin: miter; stroke-linecap: square"/>
   </g>
   <g id="patch_5">
    <path d="M 115.2 388.9656 
L 439.854545 388.9656 
" style="fill: none; stroke: #000000; stroke-width: 0.8; stroke-linejoin: miter; stroke-linecap: square"/>
   </g>
   <g id="patch_6">
    <path d="M 115.2 52.4448 
L 439.854545 52.4448 
" style="fill: none; stroke: #000000; stroke-width: 0.8; stroke-linejoin: miter; stroke-linecap: square"/>
   </g>
   <g id="text_14">
    <!-- lambda=0 -->
    <g transform="translate(246.198835 46.4448)scale(0.12 -0.12)">
     <defs>
      <path id="DejaVuSans-6c" d="M 603 4863 
L 1178 4863 
L 1178 0 
L 603 0 
L 603 4863 
z
" transform="scale(0.015625)"/>
      <path id="DejaVuSans-61" d="M 2194 1759 
Q 1497 1759 1228 1600 
Q 959 1441 959 1056 
Q 959 750 1161 570 
Q 1363 391 1709 391 
Q 2188 391 2477 730 
Q 2766 1069 2766 1631 
L 2766 1759 
L 2194 1759 
z
M 3341 1997 
L 3341 0 
L 2766 0 
L 2766 531 
Q 2569 213 2275 61 
Q 1981 -91 1556 -91 
Q 1019 -91 701 211 
Q 384 513 384 1019 
Q 384 1609 779 1909 
Q 1175 2209 1959 2209 
L 2766 2209 
L 2766 2266 
Q 2766 2663 2505 2880 
Q 2244 3097 1772 3097 
Q 1472 3097 1187 3025 
Q 903 2953 641 2809 
L 641 3341 
Q 956 3463 1253 3523 
Q 1550 3584 1831 3584 
Q 2591 3584 2966 3190 
Q 3341 2797 3341 1997 
z
" transform="scale(0.015625)"/>
      <path id="DejaVuSans-6d" d="M 3328 2828 
Q 3544 3216 3844 3400 
Q 4144 3584 4550 3584 
Q 5097 3584 5394 3201 
Q 5691 2819 5691 2113 
L 5691 0 
L 5113 0 
L 5113 2094 
Q 5113 2597 4934 2840 
Q 4756 3084 4391 3084 
Q 3944 3084 3684 2787 
Q 3425 2491 3425 1978 
L 3425 0 
L 2847 0 
L 2847 2094 
Q 2847 2600 2669 2842 
Q 2491 3084 2119 3084 
Q 1678 3084 1418 2786 
Q 1159 2488 1159 1978 
L 1159 0 
L 581 0 
L 581 3500 
L 1159 3500 
L 1159 2956 
Q 1356 3278 1631 3431 
Q 1906 3584 2284 3584 
Q 2666 3584 2933 3390 
Q 3200 3197 3328 2828 
z
" transform="scale(0.015625)"/>
      <path id="DejaVuSans-62" d="M 3116 1747 
Q 3116 2381 2855 2742 
Q 2594 3103 2138 3103 
Q 1681 3103 1420 2742 
Q 1159 2381 1159 1747 
Q 1159 1113 1420 752 
Q 1681 391 2138 391 
Q 2594 391 2855 752 
Q 3116 1113 3116 1747 
z
M 1159 2969 
Q 1341 3281 1617 3432 
Q 1894 3584 2278 3584 
Q 2916 3584 3314 3078 
Q 3713 2572 3713 1747 
Q 3713 922 3314 415 
Q 2916 -91 2278 -91 
Q 1894 -91 1617 61 
Q 1341 213 1159 525 
L 1159 0 
L 581 0 
L 581 4863 
L 1159 4863 
L 1159 2969 
z
" transform="scale(0.015625)"/>
      <path id="DejaVuSans-64" d="M 2906 2969 
L 2906 4863 
L 3481 4863 
L 3481 0 
L 2906 0 
L 2906 525 
Q 2725 213 2448 61 
Q 2172 -91 1784 -91 
Q 1150 -91 751 415 
Q 353 922 353 1747 
Q 353 2572 751 3078 
Q 1150 3584 1784 3584 
Q 2172 3584 2448 3432 
Q 2725 3281 2906 2969 
z
M 947 1747 
Q 947 1113 1208 752 
Q 1469 391 1925 391 
Q 2381 391 2643 752 
Q 2906 1113 2906 1747 
Q 2906 2381 2643 2742 
Q 2381 3103 1925 3103 
Q 1469 3103 1208 2742 
Q 947 2381 947 1747 
z
" transform="scale(0.015625)"/>
      <path id="DejaVuSans-3d" d="M 678 2906 
L 4684 2906 
L 4684 2381 
L 678 2381 
L 678 2906 
z
M 678 1631 
L 4684 1631 
L 4684 1100 
L 678 1100 
L 678 1631 
z
" transform="scale(0.015625)"/>
     </defs>
     <use xlink:href="#DejaVuSans-6c"/>
     <use xlink:href="#DejaVuSans-61" x="27.783203"/>
     <use xlink:href="#DejaVuSans-6d" x="89.0625"/>
     <use xlink:href="#DejaVuSans-62" x="186.474609"/>
     <use xlink:href="#DejaVuSans-64" x="249.951172"/>
     <use xlink:href="#DejaVuSans-61" x="313.427734"/>
     <use xlink:href="#DejaVuSans-3d" x="374.707031"/>
     <use xlink:href="#DejaVuSans-30" x="458.496094"/>
    </g>
   </g>
   <g id="legend_1">
    <g id="patch_7">
     <path d="M 379.62017 133.835425 
L 432.854545 133.835425 
Q 434.854545 133.835425 434.854545 131.835425 
L 434.854545 59.4448 
Q 434.854545 57.4448 432.854545 57.4448 
L 379.62017 57.4448 
Q 377.62017 57.4448 377.62017 59.4448 
L 377.62017 131.835425 
Q 377.62017 133.835425 379.62017 133.835425 
z
" style="fill: #ffffff; opacity: 0.8; stroke: #cccccc; stroke-linejoin: miter"/>
    </g>
    <g id="line2d_23">
     <path d="M 381.62017 65.543238 
L 391.62017 65.543238 
L 401.62017 65.543238 
" style="fill: none; stroke-dasharray: 7.4,3.2; stroke-dashoffset: 0; stroke: #ff0000; stroke-width: 2"/>
    </g>
    <g id="text_15">
     <!-- True -->
     <g transform="translate(409.62017 69.043238)scale(0.1 -0.1)">
      <defs>
       <path id="DejaVuSans-54" d="M -19 4666 
L 3928 4666 
L 3928 4134 
L 2272 4134 
L 2272 0 
L 1638 0 
L 1638 4134 
L -19 4134 
L -19 4666 
z
" transform="scale(0.015625)"/>
       <path id="DejaVuSans-72" d="M 2631 2963 
Q 2534 3019 2420 3045 
Q 2306 3072 2169 3072 
Q 1681 3072 1420 2755 
Q 1159 2438 1159 1844 
L 1159 0 
L 581 0 
L 581 3500 
L 1159 3500 
L 1159 2956 
Q 1341 3275 1631 3429 
Q 1922 3584 2338 3584 
Q 2397 3584 2469 3576 
Q 2541 3569 2628 3553 
L 2631 2963 
z
" transform="scale(0.015625)"/>
       <path id="DejaVuSans-75" d="M 544 1381 
L 544 3500 
L 1119 3500 
L 1119 1403 
Q 1119 906 1312 657 
Q 1506 409 1894 409 
Q 2359 409 2629 706 
Q 2900 1003 2900 1516 
L 2900 3500 
L 3475 3500 
L 3475 0 
L 2900 0 
L 2900 538 
Q 2691 219 2414 64 
Q 2138 -91 1772 -91 
Q 1169 -91 856 284 
Q 544 659 544 1381 
z
M 1991 3584 
L 1991 3584 
z
" transform="scale(0.015625)"/>
       <path id="DejaVuSans-65" d="M 3597 1894 
L 3597 1613 
L 953 1613 
Q 991 1019 1311 708 
Q 1631 397 2203 397 
Q 2534 397 2845 478 
Q 3156 559 3463 722 
L 3463 178 
Q 3153 47 2828 -22 
Q 2503 -91 2169 -91 
Q 1331 -91 842 396 
Q 353 884 353 1716 
Q 353 2575 817 3079 
Q 1281 3584 2069 3584 
Q 2775 3584 3186 3129 
Q 3597 2675 3597 1894 
z
M 3022 2063 
Q 3016 2534 2758 2815 
Q 2500 3097 2075 3097 
Q 1594 3097 1305 2825 
Q 1016 2553 972 2059 
L 3022 2063 
z
" transform="scale(0.015625)"/>
      </defs>
      <use xlink:href="#DejaVuSans-54"/>
      <use xlink:href="#DejaVuSans-72" x="46.333984"/>
      <use xlink:href="#DejaVuSans-75" x="87.447266"/>
      <use xlink:href="#DejaVuSans-65" x="150.826172"/>
     </g>
    </g>
    <g id="line2d_24">
     <path d="M 381.62017 80.221363 
L 391.62017 80.221363 
L 401.62017 80.221363 
" style="fill: none; stroke: #0000ff; stroke-linecap: square"/>
    </g>
    <g id="text_16">
     <!-- 0.1 -->
     <g transform="translate(409.62017 83.721363)scale(0.1 -0.1)">
      <use xlink:href="#DejaVuSans-30"/>
      <use xlink:href="#DejaVuSans-2e" x="63.623047"/>
      <use xlink:href="#DejaVuSans-31" x="95.410156"/>
     </g>
    </g>
    <g id="line2d_25">
     <path d="M 381.62017 94.899488 
L 391.62017 94.899488 
L 401.62017 94.899488 
" style="fill: none; stroke: #ff00ff; stroke-linecap: square"/>
    </g>
    <g id="text_17">
     <!-- 1 -->
     <g transform="translate(409.62017 98.399488)scale(0.1 -0.1)">
      <use xlink:href="#DejaVuSans-31"/>
     </g>
    </g>
    <g id="line2d_26">
     <path d="M 381.62017 109.577613 
L 391.62017 109.577613 
L 401.62017 109.577613 
" style="fill: none; stroke: #008000; stroke-linecap: square"/>
    </g>
    <g id="text_18">
     <!-- 10 -->
     <g transform="translate(409.62017 113.077613)scale(0.1 -0.1)">
      <use xlink:href="#DejaVuSans-31"/>
      <use xlink:href="#DejaVuSans-30" x="63.623047"/>
     </g>
    </g>
    <g id="line2d_27">
     <path d="M 381.62017 124.255738 
L 391.62017 124.255738 
L 401.62017 124.255738 
" style="fill: none; stroke: #ffa500; stroke-linecap: square"/>
    </g>
    <g id="text_19">
     <!-- inf -->
     <g transform="translate(409.62017 127.755738)scale(0.1 -0.1)">
      <defs>
       <path id="DejaVuSans-69" d="M 603 3500 
L 1178 3500 
L 1178 0 
L 603 0 
L 603 3500 
z
M 603 4863 
L 1178 4863 
L 1178 4134 
L 603 4134 
L 603 4863 
z
" transform="scale(0.015625)"/>
       <path id="DejaVuSans-6e" d="M 3513 2113 
L 3513 0 
L 2938 0 
L 2938 2094 
Q 2938 2591 2744 2837 
Q 2550 3084 2163 3084 
Q 1697 3084 1428 2787 
Q 1159 2491 1159 1978 
L 1159 0 
L 581 0 
L 581 3500 
L 1159 3500 
L 1159 2956 
Q 1366 3272 1645 3428 
Q 1925 3584 2291 3584 
Q 2894 3584 3203 3211 
Q 3513 2838 3513 2113 
z
" transform="scale(0.015625)"/>
       <path id="DejaVuSans-66" d="M 2375 4863 
L 2375 4384 
L 1825 4384 
Q 1516 4384 1395 4259 
Q 1275 4134 1275 3809 
L 1275 3500 
L 2222 3500 
L 2222 3053 
L 1275 3053 
L 1275 0 
L 697 0 
L 697 3053 
L 147 3053 
L 147 3500 
L 697 3500 
L 697 3744 
Q 697 4328 969 4595 
Q 1241 4863 1831 4863 
L 2375 4863 
z
" transform="scale(0.015625)"/>
      </defs>
      <use xlink:href="#DejaVuSans-69"/>
      <use xlink:href="#DejaVuSans-6e" x="27.783203"/>
      <use xlink:href="#DejaVuSans-66" x="91.162109"/>
     </g>
    </g>
   </g>
  </g>
  <g id="axes_2">
   <g id="patch_8">
    <path d="M 504.785455 388.9656 
L 829.44 388.9656 
L 829.44 52.4448 
L 504.785455 52.4448 
z
" style="fill: #ffffff"/>
   </g>
   <g id="matplotlib.axis_3">
    <g id="xtick_8">
     <g id="line2d_28">
      <g>
       <use xlink:href="#md8ffc015af" x="519.542479" y="388.9656" style="stroke: #000000; stroke-width: 0.8"/>
      </g>
     </g>
     <g id="text_20">
      <!-- −1.5 -->
      <g transform="translate(507.401073 403.564038)scale(0.1 -0.1)">
       <use xlink:href="#DejaVuSans-2212"/>
       <use xlink:href="#DejaVuSans-31" x="83.789062"/>
       <use xlink:href="#DejaVuSans-2e" x="147.412109"/>
       <use xlink:href="#DejaVuSans-35" x="179.199219"/>
      </g>
     </g>
    </g>
    <g id="xtick_9">
     <g id="line2d_29">
      <g>
       <use xlink:href="#md8ffc015af" x="568.732562" y="388.9656" style="stroke: #000000; stroke-width: 0.8"/>
      </g>
     </g>
     <g id="text_21">
      <!-- −1.0 -->
      <g transform="translate(556.591156 403.564038)scale(0.1 -0.1)">
       <use xlink:href="#DejaVuSans-2212"/>
       <use xlink:href="#DejaVuSans-31" x="83.789062"/>
       <use xlink:href="#DejaVuSans-2e" x="147.412109"/>
       <use xlink:href="#DejaVuSans-30" x="179.199219"/>
      </g>
     </g>
    </g>
    <g id="xtick_10">
     <g id="line2d_30">
      <g>
       <use xlink:href="#md8ffc015af" x="617.922645" y="388.9656" style="stroke: #000000; stroke-width: 0.8"/>
      </g>
     </g>
     <g id="text_22">
      <!-- −0.5 -->
      <g transform="translate(605.781238 403.564038)scale(0.1 -0.1)">
       <use xlink:href="#DejaVuSans-2212"/>
       <use xlink:href="#DejaVuSans-30" x="83.789062"/>
       <use xlink:href="#DejaVuSans-2e" x="147.412109"/>
       <use xlink:href="#DejaVuSans-35" x="179.199219"/>
      </g>
     </g>
    </g>
    <g id="xtick_11">
     <g id="line2d_31">
      <g>
       <use xlink:href="#md8ffc015af" x="667.112727" y="388.9656" style="stroke: #000000; stroke-width: 0.8"/>
      </g>
     </g>
     <g id="text_23">
      <!-- 0.0 -->
      <g transform="translate(659.161165 403.564038)scale(0.1 -0.1)">
       <use xlink:href="#DejaVuSans-30"/>
       <use xlink:href="#DejaVuSans-2e" x="63.623047"/>
       <use xlink:href="#DejaVuSans-30" x="95.410156"/>
      </g>
     </g>
    </g>
    <g id="xtick_12">
     <g id="line2d_32">
      <g>
       <use xlink:href="#md8ffc015af" x="716.30281" y="388.9656" style="stroke: #000000; stroke-width: 0.8"/>
      </g>
     </g>
     <g id="text_24">
      <!-- 0.5 -->
      <g transform="translate(708.351247 403.564038)scale(0.1 -0.1)">
       <use xlink:href="#DejaVuSans-30"/>
       <use xlink:href="#DejaVuSans-2e" x="63.623047"/>
       <use xlink:href="#DejaVuSans-35" x="95.410156"/>
      </g>
     </g>
    </g>
    <g id="xtick_13">
     <g id="line2d_33">
      <g>
       <use xlink:href="#md8ffc015af" x="765.492893" y="388.9656" style="stroke: #000000; stroke-width: 0.8"/>
      </g>
     </g>
     <g id="text_25">
      <!-- 1.0 -->
      <g transform="translate(757.54133 403.564038)scale(0.1 -0.1)">
       <use xlink:href="#DejaVuSans-31"/>
       <use xlink:href="#DejaVuSans-2e" x="63.623047"/>
       <use xlink:href="#DejaVuSans-30" x="95.410156"/>
      </g>
     </g>
    </g>
    <g id="xtick_14">
     <g id="line2d_34">
      <g>
       <use xlink:href="#md8ffc015af" x="814.682975" y="388.9656" style="stroke: #000000; stroke-width: 0.8"/>
      </g>
     </g>
     <g id="text_26">
      <!-- 1.5 -->
      <g transform="translate(806.731413 403.564038)scale(0.1 -0.1)">
       <use xlink:href="#DejaVuSans-31"/>
       <use xlink:href="#DejaVuSans-2e" x="63.623047"/>
       <use xlink:href="#DejaVuSans-35" x="95.410156"/>
      </g>
     </g>
    </g>
   </g>
   <g id="matplotlib.axis_4">
    <g id="ytick_7">
     <g id="line2d_35">
      <g>
       <use xlink:href="#m78726306cf" x="504.785455" y="373.6692" style="stroke: #000000; stroke-width: 0.8"/>
      </g>
     </g>
    </g>
    <g id="ytick_8">
     <g id="line2d_36">
      <g>
       <use xlink:href="#m78726306cf" x="504.785455" y="312.4836" style="stroke: #000000; stroke-width: 0.8"/>
      </g>
     </g>
    </g>
    <g id="ytick_9">
     <g id="line2d_37">
      <g>
       <use xlink:href="#m78726306cf" x="504.785455" y="251.298" style="stroke: #000000; stroke-width: 0.8"/>
      </g>
     </g>
    </g>
    <g id="ytick_10">
     <g id="line2d_38">
      <g>
       <use xlink:href="#m78726306cf" x="504.785455" y="190.1124" style="stroke: #000000; stroke-width: 0.8"/>
      </g>
     </g>
    </g>
    <g id="ytick_11">
     <g id="line2d_39">
      <g>
       <use xlink:href="#m78726306cf" x="504.785455" y="128.9268" style="stroke: #000000; stroke-width: 0.8"/>
      </g>
     </g>
    </g>
    <g id="ytick_12">
     <g id="line2d_40">
      <g>
       <use xlink:href="#m78726306cf" x="504.785455" y="67.7412" style="stroke: #000000; stroke-width: 0.8"/>
      </g>
     </g>
    </g>
   </g>
   <g id="line2d_41">
    <path d="M 519.542479 373.499996 
L 538.234711 373.231688 
L 551.024132 372.831127 
L 559.878347 372.35484 
L 567.74876 371.708405 
L 573.65157 371.022404 
L 579.55438 370.096399 
L 584.473388 369.081633 
L 588.408595 368.065933 
L 592.343802 366.825355 
L 596.279008 365.310108 
L 599.230413 363.957321 
L 602.181818 362.385606 
L 605.133223 360.559535 
L 608.084628 358.437942 
L 611.036033 355.973003 
L 613.987438 353.109152 
L 615.955041 350.946833 
L 617.922645 348.557101 
L 619.890248 345.916038 
L 621.857851 342.997212 
L 623.825455 339.771411 
L 625.793058 336.20635 
L 627.760661 332.266347 
L 629.728264 327.911971 
L 631.695868 323.099642 
L 633.663471 317.781195 
L 635.631074 311.903402 
L 637.598678 305.407436 
L 639.566281 298.228284 
L 641.533884 290.294094 
L 643.501488 281.525457 
L 645.469091 271.834615 
L 647.436694 261.124578 
L 649.404298 249.288157 
L 651.371901 236.206889 
L 653.339504 221.749851 
L 655.307107 205.772354 
L 657.274711 188.114488 
L 659.242314 168.599529 
L 661.209917 147.032163 
L 663.177521 123.196538 
L 665.145124 96.854098 
L 667.112727 67.7412 
L 671.047934 82.661485 
L 674.98314 96.854098 
L 678.918347 110.35453 
L 682.853554 123.196538 
L 686.78876 135.412234 
L 690.723967 147.032163 
L 694.659174 158.085382 
L 698.59438 168.599529 
L 702.529587 178.600895 
L 706.464793 188.114488 
L 711.383802 199.35668 
L 716.30281 209.917742 
L 721.221818 219.838941 
L 726.140826 229.159045 
L 731.059835 237.914473 
L 735.978843 246.139436 
L 740.897851 253.866074 
L 745.81686 261.124578 
L 750.735868 267.943312 
L 755.654876 274.34892 
L 760.573884 280.366432 
L 765.492893 286.019361 
L 770.411901 291.329796 
L 775.330909 296.318488 
L 780.249917 301.004931 
L 785.168926 305.407436 
L 790.087934 309.543208 
L 795.006942 313.428405 
L 800.909752 317.781195 
L 806.812562 321.819467 
L 812.715372 325.565948 
L 813.699174 326.163496 
L 813.699174 326.163496 
" clip-path="url(#pabb5caf028)" style="fill: none; stroke-dasharray: 7.4,3.2; stroke-dashoffset: 0; stroke: #ff0000; stroke-width: 2"/>
   </g>
   <g id="line2d_42">
    <path d="M 519.542479 369.66619 
L 525.445289 371.836641 
L 529.380496 373.187443 
L 538.234711 375.731042 
L 550.040331 378.514087 
L 555.94314 379.671637 
L 559.878347 380.432934 
L 565.781157 381.400194 
L 569.716364 381.766596 
L 572.667769 382.014548 
L 582.505785 381.926259 
L 585.45719 381.777647 
L 589.392397 381.386012 
L 593.327603 380.644245 
L 598.246612 379.097657 
L 603.16562 377.127039 
L 605.133223 376.060798 
L 607.100826 375.008635 
L 608.084628 374.392174 
L 611.036033 372.141524 
L 613.987438 369.778252 
L 616.938843 366.883549 
L 618.906446 364.747145 
L 619.890248 363.56402 
L 622.841653 359.284984 
L 624.809256 356.294892 
L 626.77686 353.000803 
L 628.744463 349.247529 
L 630.712066 345.057545 
L 632.679669 340.263989 
L 635.631074 332.305098 
L 637.598678 326.198696 
L 641.533884 311.804229 
L 643.501488 303.729655 
L 645.469091 294.749336 
L 648.420496 279.078544 
L 650.388099 267.15724 
L 653.339504 246.910691 
L 655.307107 231.799816 
L 658.258512 205.646066 
L 661.209917 175.377743 
L 663.177521 152.511826 
L 666.128926 113.361979 
L 667.112727 67.7412 
L 668.096529 73.885802 
L 670.064132 82.509634 
L 677.934545 115.501317 
L 680.88595 126.882616 
L 690.723967 162.181355 
L 692.69157 168.757285 
L 700.561983 193.788275 
L 706.464793 210.397059 
L 708.432397 216.000804 
L 716.30281 235.439107 
L 725.157025 255.236056 
L 728.10843 261.155671 
L 733.027438 270.875103 
L 736.962645 277.965221 
L 739.91405 283.118081 
L 747.784463 295.911281 
L 755.654876 307.354809 
L 761.557686 315.015707 
L 766.476694 321.111641 
L 770.411901 325.603842 
L 778.282314 333.871323 
L 784.185124 339.34621 
L 789.104132 343.543854 
L 795.006942 348.214259 
L 799.92595 351.790257 
L 804.844959 354.979211 
L 808.780165 357.258007 
L 812.715372 359.317017 
L 814.682975 360.274743 
L 814.682975 360.274743 
" clip-path="url(#pabb5caf028)" style="fill: none; stroke: #0000ff; stroke-linecap: square"/>
   </g>
   <g id="line2d_43">
    <path d="M 519.542479 373.071218 
L 525.445289 373.531054 
L 530.364298 373.667634 
L 535.283306 373.59625 
L 541.186116 373.244431 
L 549.056529 372.386858 
L 554.959339 371.508141 
L 561.84595 370.03482 
L 567.74876 368.716047 
L 574.635372 367.739967 
L 579.55438 367.437157 
L 580.538182 367.497608 
L 584.473388 367.316388 
L 588.408595 367.519357 
L 590.376198 367.869774 
L 592.343802 368.16914 
L 595.295207 369.266169 
L 600.214215 371.199815 
L 602.181818 372.006411 
L 607.100826 373.459607 
L 609.06843 373.668658 
L 610.052231 373.601986 
L 611.036033 373.408477 
L 612.019835 373.085743 
L 613.003636 372.603155 
L 613.987438 371.932117 
L 614.97124 371.009253 
L 615.955041 369.873745 
L 616.938843 368.405019 
L 617.922645 366.665959 
L 618.906446 364.516659 
L 619.890248 361.879286 
L 620.87405 358.720798 
L 622.841653 351.063594 
L 623.825455 346.483964 
L 625.793058 335.485518 
L 627.760661 322.244867 
L 629.728264 307.135991 
L 636.614876 250.847665 
L 637.598678 243.233402 
L 638.582479 239.065249 
L 639.566281 231.940755 
L 642.517686 213.412927 
L 644.485289 202.774509 
L 645.469091 198.254944 
L 646.452893 195.155708 
L 647.436694 191.351927 
L 648.420496 188.180951 
L 650.388099 182.999102 
L 651.371901 181.358036 
L 653.339504 177.208459 
L 654.323306 175.515951 
L 655.307107 174.249526 
L 656.290909 173.861068 
L 657.274711 172.660299 
L 658.258512 171.664494 
L 659.242314 171.537154 
L 660.226116 170.672805 
L 661.209917 170.098258 
L 663.177521 168.751475 
L 664.161322 168.245136 
L 666.128926 167.614584 
L 667.112727 144.798369 
L 668.096529 145.540734 
L 669.080331 145.33343 
L 671.047934 145.607452 
L 672.031736 145.83231 
L 673.999339 146.072579 
L 674.98314 145.928922 
L 676.950744 146.315974 
L 684.821157 147.782212 
L 686.78876 147.884621 
L 687.772562 146.950277 
L 690.723967 147.766259 
L 691.707769 147.669167 
L 695.642975 148.576324 
L 696.626777 148.709712 
L 700.561983 147.687328 
L 703.513388 148.431139 
L 704.49719 148.301977 
L 705.480992 148.31271 
L 706.464793 148.693577 
L 707.448595 147.989408 
L 708.432397 147.488789 
L 710.4 148.113513 
L 714.335207 149.633646 
L 716.30281 149.954715 
L 720.238017 151.571869 
L 721.221818 151.380379 
L 722.20562 151.309536 
L 723.189421 150.925925 
L 725.157025 151.853955 
L 726.140826 151.968368 
L 728.10843 152.937088 
L 729.092231 153.135797 
L 731.059835 154.256784 
L 732.043636 154.040275 
L 734.995041 156.023987 
L 736.962645 157.596544 
L 738.930248 159.054789 
L 740.897851 160.620705 
L 742.865455 162.382782 
L 743.849256 162.686148 
L 744.833058 163.436544 
L 745.81686 164.365947 
L 746.800661 164.935356 
L 752.703471 170.503291 
L 753.687273 169.842033 
L 755.654876 171.71892 
L 759.590083 176.000014 
L 760.573884 176.766124 
L 764.509091 181.987363 
L 765.492893 181.371745 
L 766.476694 182.037389 
L 769.428099 186.618428 
L 771.395702 189.958304 
L 773.363306 193.536152 
L 776.314711 199.011005 
L 780.249917 207.825027 
L 782.217521 212.916386 
L 784.185124 218.570042 
L 788.120331 231.198232 
L 795.006942 255.141168 
L 796.974545 262.550598 
L 797.958347 265.218007 
L 800.909752 277.335255 
L 803.861157 290.244217 
L 806.812562 303.292092 
L 811.73157 322.953566 
L 814.682975 333.494123 
L 814.682975 333.494123 
" clip-path="url(#pabb5caf028)" style="fill: none; stroke-dasharray: 1,1.65; stroke-dashoffset: 0; stroke: #0000ff"/>
   </g>
   <g id="line2d_44">
    <path d="M 519.542479 375.751187 
L 536.267107 373.614939 
L 545.121322 372.216815 
L 552.991736 370.39514 
L 564.797355 367.335236 
L 568.732562 366.061416 
L 573.65157 364.195084 
L 578.570579 362.144365 
L 582.505785 360.195415 
L 587.424793 357.471698 
L 591.36 354.981633 
L 594.311405 352.87492 
L 598.246612 349.703919 
L 601.198017 347.024641 
L 604.149421 344.032648 
L 607.100826 340.723348 
L 610.052231 337.024756 
L 613.003636 332.988126 
L 615.955041 328.425723 
L 618.906446 323.297593 
L 621.857851 317.55826 
L 624.809256 311.235983 
L 627.760661 304.212044 
L 630.712066 296.391433 
L 632.679669 290.692431 
L 635.631074 281.24198 
L 637.598678 274.267499 
L 639.566281 266.746609 
L 641.533884 258.583386 
L 643.501488 249.70307 
L 645.469091 240.086448 
L 647.436694 229.686261 
L 649.404298 218.439303 
L 651.371901 206.284511 
L 653.339504 193.0456 
L 655.307107 178.713777 
L 657.274711 163.17631 
L 659.242314 146.314987 
L 661.209917 128.056942 
L 663.177521 108.242285 
L 665.145124 86.605362 
L 666.128926 75.101707 
L 667.112727 67.7412 
L 668.096529 71.351269 
L 672.031736 87.933506 
L 675.966942 103.633008 
L 679.902149 118.488338 
L 683.837355 132.547244 
L 687.772562 145.89304 
L 691.707769 158.539681 
L 695.642975 170.494062 
L 699.578182 181.866831 
L 703.513388 192.707258 
L 707.448595 202.995622 
L 712.367603 215.092927 
L 716.30281 224.182136 
L 720.238017 232.790489 
L 724.173223 240.964289 
L 728.10843 248.682891 
L 732.043636 255.90315 
L 736.962645 264.381497 
L 740.897851 270.758478 
L 744.833058 276.763814 
L 748.768264 282.430489 
L 753.687273 289.070097 
L 758.606281 295.313585 
L 763.525289 301.230983 
L 768.444298 306.80375 
L 772.379504 310.969699 
L 777.298512 315.774641 
L 782.217521 320.245875 
L 787.136529 324.321139 
L 793.039339 328.89338 
L 797.958347 332.420366 
L 802.877355 335.740654 
L 808.780165 339.496984 
L 813.699174 342.381747 
L 814.682975 342.936325 
L 814.682975 342.936325 
" clip-path="url(#pabb5caf028)" style="fill: none; stroke: #ff00ff; stroke-linecap: square"/>
   </g>
   <g id="line2d_45">
    <path d="M 519.542479 373.381621 
L 529.380496 373.613974 
L 538.234711 373.661801 
L 545.121322 373.535593 
L 551.024132 373.186371 
L 556.926942 372.602221 
L 561.84595 371.891494 
L 565.781157 371.121566 
L 568.732562 370.365784 
L 571.683967 369.429415 
L 574.635372 368.299872 
L 577.586777 366.976311 
L 580.538182 365.357369 
L 583.489587 363.406184 
L 586.440992 361.120077 
L 588.408595 359.357188 
L 590.376198 357.397311 
L 592.343802 355.218574 
L 594.311405 352.764733 
L 596.279008 350.018785 
L 598.246612 346.975725 
L 600.214215 343.595772 
L 602.181818 339.842499 
L 604.149421 335.682816 
L 606.117025 331.090396 
L 608.084628 325.965607 
L 610.052231 320.284177 
L 612.019835 314.026165 
L 613.987438 307.210184 
L 616.938843 296.0314 
L 619.890248 283.693327 
L 622.841653 270.42326 
L 625.793058 256.105635 
L 629.728264 235.781783 
L 636.614876 198.455016 
L 641.533884 172.343362 
L 644.485289 157.863884 
L 647.436694 144.582899 
L 649.404298 136.494302 
L 651.371901 129.14985 
L 653.339504 122.644861 
L 655.307107 116.833796 
L 657.274711 111.770864 
L 659.242314 107.603684 
L 661.209917 104.134441 
L 662.193719 102.644737 
L 663.177521 101.364865 
L 665.145124 99.338196 
L 666.128926 98.564973 
L 667.112727 98.110933 
L 672.031736 99.0901 
L 676.950744 100.259165 
L 681.869752 101.648812 
L 686.78876 103.305428 
L 690.723967 104.797007 
L 694.659174 106.532718 
L 700.561983 109.478868 
L 705.480992 112.164895 
L 708.432397 113.965783 
L 713.351405 117.252136 
L 716.30281 119.527953 
L 721.221818 123.590415 
L 724.173223 126.293678 
L 727.124628 129.333479 
L 730.076033 132.743023 
L 734.995041 138.93928 
L 737.946446 143.04073 
L 741.881653 149.007313 
L 745.81686 155.509327 
L 750.735868 164.060865 
L 753.687273 169.761236 
L 759.590083 181.893778 
L 764.509091 192.225526 
L 770.411901 205.269048 
L 773.363306 212.140997 
L 783.201322 236.464189 
L 789.104132 251.156927 
L 795.006942 265.513287 
L 798.942149 274.901071 
L 804.844959 288.230447 
L 808.780165 296.823215 
L 813.699174 306.899006 
L 814.682975 308.809288 
L 814.682975 308.809288 
" clip-path="url(#pabb5caf028)" style="fill: none; stroke-dasharray: 1,1.65; stroke-dashoffset: 0; stroke: #ff00ff"/>
   </g>
   <g id="line2d_46">
    <path d="M 519.542479 358.243597 
L 534.299504 353.260749 
L 538.234711 351.566689 
L 547.088926 347.423477 
L 552.991736 344.294316 
L 557.910744 341.37282 
L 562.829752 338.116983 
L 565.781157 335.984394 
L 571.683967 331.272465 
L 574.635372 328.653629 
L 578.570579 324.842945 
L 583.489587 319.767564 
L 587.424793 315.223403 
L 590.376198 311.430611 
L 594.311405 305.907666 
L 597.26281 301.336758 
L 601.198017 294.820519 
L 605.133223 287.859254 
L 609.06843 280.428944 
L 613.003636 272.367427 
L 616.938843 263.796585 
L 620.87405 254.528682 
L 623.825455 246.874175 
L 626.77686 238.632663 
L 629.728264 229.86141 
L 632.679669 220.450712 
L 635.631074 210.315637 
L 638.582479 199.617011 
L 641.533884 188.203741 
L 645.469091 171.838973 
L 648.420496 158.829989 
L 651.371901 144.993431 
L 655.307107 125.757328 
L 666.128926 70.962941 
L 667.112727 67.7412 
L 668.096529 70.316936 
L 674.98314 94.528568 
L 683.837355 125.396398 
L 689.740165 144.964856 
L 694.659174 160.623131 
L 698.59438 172.459257 
L 702.529587 183.67339 
L 707.448595 196.967451 
L 711.383802 207.045234 
L 715.319008 216.434207 
L 720.238017 227.460405 
L 724.173223 235.755596 
L 727.124628 241.604902 
L 731.059835 248.904794 
L 736.962645 259.45388 
L 740.897851 265.984649 
L 746.800661 275.235609 
L 750.735868 280.92293 
L 756.638678 288.916822 
L 760.573884 293.898763 
L 764.509091 298.618686 
L 768.444298 303.001448 
L 773.363306 308.008121 
L 779.266116 313.435774 
L 784.185124 317.652957 
L 792.055537 324.254219 
L 797.958347 328.802962 
L 805.82876 334.433908 
L 810.747769 337.655733 
L 814.682975 340.120622 
L 814.682975 340.120622 
" clip-path="url(#pabb5caf028)" style="fill: none; stroke: #008000; stroke-linecap: square"/>
   </g>
   <g id="line2d_47">
    <path d="M 519.542479 365.80878 
L 526.429091 363.380583 
L 530.364298 361.717795 
L 534.299504 359.888329 
L 537.250909 358.174763 
L 541.186116 355.524174 
L 544.137521 353.379893 
L 547.088926 350.899312 
L 551.024132 347.335268 
L 553.975537 344.368083 
L 556.926942 341.056894 
L 559.878347 337.431272 
L 561.84595 334.777071 
L 564.797355 330.426594 
L 567.74876 325.584809 
L 570.700165 320.449675 
L 573.65157 314.83363 
L 577.586777 306.605437 
L 580.538182 299.847482 
L 583.489587 292.628456 
L 586.440992 284.712719 
L 590.376198 273.218217 
L 594.311405 260.833831 
L 597.26281 250.854342 
L 601.198017 236.832842 
L 608.084628 211.03174 
L 620.87405 162.004656 
L 625.793058 144.066645 
L 629.728264 130.286367 
L 632.679669 120.600874 
L 635.631074 111.734708 
L 638.582479 103.545309 
L 641.533884 96.055963 
L 643.501488 91.594489 
L 645.469091 87.586899 
L 647.436694 83.94737 
L 649.404298 80.692485 
L 651.371901 77.868126 
L 653.339504 75.397756 
L 655.307107 73.268785 
L 657.274711 71.508837 
L 659.242314 70.146031 
L 661.209917 69.109198 
L 663.177521 68.381071 
L 665.145124 67.978127 
L 667.112727 67.861289 
L 671.047934 68.036681 
L 673.999339 68.366072 
L 676.950744 68.880021 
L 679.902149 69.574023 
L 682.853554 70.481595 
L 685.804959 71.623316 
L 688.756364 72.995366 
L 690.723967 74.00351 
L 693.675372 75.814261 
L 696.626777 77.914278 
L 699.578182 80.379527 
L 702.529587 83.225591 
L 705.480992 86.423621 
L 708.432397 89.945667 
L 711.383802 93.913791 
L 714.335207 98.266785 
L 717.286612 103.070845 
L 720.238017 108.172841 
L 723.189421 113.618761 
L 727.124628 121.632505 
L 730.076033 128.218269 
L 734.995041 139.949679 
L 739.91405 152.58252 
L 745.81686 168.45411 
L 751.719669 184.973763 
L 758.606281 204.313189 
L 764.509091 220.511009 
L 775.330909 250.489972 
L 780.249917 263.271869 
L 785.168926 275.497416 
L 792.055537 292.15859 
L 795.006942 298.754153 
L 798.942149 306.818424 
L 802.877355 314.357116 
L 806.812562 321.243287 
L 809.763967 326.051715 
L 813.699174 331.998019 
L 814.682975 333.382498 
L 814.682975 333.382498 
" clip-path="url(#pabb5caf028)" style="fill: none; stroke-dasharray: 1,1.65; stroke-dashoffset: 0; stroke: #008000"/>
   </g>
   <g id="line2d_48">
    <path d="M 520.526266 345.277462 
L 522.49387 344.118101 
L 523.477672 343.35989 
L 531.348086 338.78256 
L 534.299491 336.617756 
L 537.250896 334.704308 
L 539.2185 333.373413 
L 545.12131 329.290047 
L 546.105112 328.603406 
L 548.072715 327.026648 
L 550.040319 325.447364 
L 552.007922 323.629497 
L 555.943129 319.903746 
L 557.910733 318.005626 
L 558.894535 316.721712 
L 561.84594 313.617366 
L 563.813543 311.271965 
L 567.74875 306.888513 
L 572.667759 300.920387 
L 576.602966 295.801698 
L 578.57057 293.053511 
L 582.505777 286.6671 
L 584.47338 283.735648 
L 585.457182 281.903984 
L 587.424785 278.875942 
L 589.392389 275.589079 
L 591.359992 272.460368 
L 592.343794 270.643922 
L 596.279001 264.372668 
L 598.246605 260.942593 
L 602.181812 253.049772 
L 604.149415 248.900158 
L 608.084622 240.506813 
L 611.036027 233.867588 
L 613.987433 227.106947 
L 614.971234 224.859497 
L 616.938838 219.800489 
L 619.890243 212.364707 
L 625.793054 196.498616 
L 627.760657 191.222679 
L 628.744459 187.867678 
L 630.712062 182.14098 
L 632.679666 176.138754 
L 637.598675 161.233475 
L 638.582476 158.078221 
L 639.566278 153.955561 
L 641.533882 147.856204 
L 643.501485 141.436775 
L 647.436692 128.790454 
L 649.404296 121.935006 
L 652.355701 112.409079 
L 653.339503 108.548567 
L 661.209917 84.280393 
L 664.161322 76.941608 
L 666.128926 73.150344 
L 667.112727 67.7412 
L 668.096529 71.88356 
L 670.064133 75.422845 
L 671.047934 77.501193 
L 673.99934 85.434008 
L 675.966943 91.224443 
L 678.918348 100.140988 
L 682.853555 112.690366 
L 684.821159 119.080336 
L 686.788762 125.462646 
L 688.756366 131.800595 
L 692.691573 144.122078 
L 694.659176 150.528148 
L 700.561987 169.447472 
L 702.52959 175.418921 
L 705.480996 183.851043 
L 710.400004 197.020238 
L 716.302815 211.869671 
L 721.221824 223.068261 
L 727.124634 235.691429 
L 728.108436 237.566129 
L 730.076039 242.124911 
L 734.995048 251.991931 
L 736.962652 255.982866 
L 740.897859 263.769698 
L 741.88166 266.046567 
L 746.800669 274.75651 
L 749.752074 279.45619 
L 755.654885 288.356564 
L 761.557695 296.02922 
L 766.476704 301.869719 
L 767.460506 302.948614 
L 768.444308 304.263886 
L 777.298523 313.960054 
L 784.185136 320.820921 
L 787.136541 323.415673 
L 792.05555 327.48757 
L 793.039351 328.609892 
L 795.990757 331.082823 
L 798.942162 333.495548 
L 801.893567 335.804538 
L 804.844972 338.452817 
L 807.796378 340.609701 
L 811.731585 342.956605 
L 813.699188 343.872994 
L 813.699188 343.872994 
" clip-path="url(#pabb5caf028)" style="fill: none; stroke: #ffa500; stroke-linecap: square"/>
   </g>
   <g id="line2d_49">
    <path d="M 520.526266 352.829407 
L 522.49387 351.021496 
L 523.477672 349.898414 
L 528.39668 345.31453 
L 532.331887 340.99731 
L 534.299491 338.504651 
L 536.267094 336.262124 
L 542.169905 328.800801 
L 543.153707 327.470337 
L 545.12131 324.475372 
L 546.105112 323.036442 
L 548.072715 319.67019 
L 550.040319 316.155368 
L 553.975526 307.884156 
L 554.959328 305.996261 
L 558.894535 296.6261 
L 561.84594 289.363848 
L 563.813543 283.925586 
L 566.764949 275.746155 
L 568.732552 270.007917 
L 573.651561 254.906627 
L 581.521975 229.078301 
L 583.489578 222.552817 
L 590.376191 200.627907 
L 591.359992 197.771663 
L 592.343794 194.493991 
L 597.262803 180.879244 
L 598.246605 177.925514 
L 600.214208 171.513702 
L 606.117019 153.513499 
L 608.084622 147.778256 
L 610.052226 142.103709 
L 613.003631 134.299878 
L 614.971234 129.732604 
L 615.955036 126.976171 
L 618.906441 120.724533 
L 621.857847 114.820353 
L 623.82545 110.684787 
L 626.776855 105.55989 
L 627.760657 103.972053 
L 628.744459 101.727345 
L 629.728261 100.245923 
L 631.695864 96.944721 
L 634.647269 92.858502 
L 638.582476 88.283802 
L 639.566278 86.083801 
L 643.501485 82.618823 
L 646.45289 80.735507 
L 647.436692 80.195365 
L 649.404296 78.763509 
L 650.388098 78.35992 
L 651.371899 77.74745 
L 652.355701 77.431729 
L 653.339503 76.36393 
L 658.258512 75.172403 
L 659.242313 75.065686 
L 660.226115 74.188477 
L 661.209917 73.85655 
L 662.193719 73.803099 
L 664.161322 73.203217 
L 665.145124 73.187258 
L 666.128926 72.655828 
L 667.112727 68.446016 
L 668.096529 71.28132 
L 669.080331 71.532806 
L 671.047934 71.574389 
L 673.015538 72.169278 
L 673.99934 72.24025 
L 674.983141 72.583202 
L 677.934547 73.008232 
L 680.885952 73.690035 
L 681.869754 74.239685 
L 682.853555 74.560185 
L 683.837357 75.179888 
L 685.804961 76.011854 
L 687.772564 77.528271 
L 689.740168 78.663348 
L 690.723969 79.568446 
L 692.691573 81.055321 
L 693.675375 82.428056 
L 694.659176 83.325813 
L 697.610582 86.975596 
L 699.578185 89.701436 
L 701.545789 92.429845 
L 706.464797 99.613475 
L 707.448599 101.221539 
L 709.416203 104.875582 
L 712.367608 110.237132 
L 714.335211 114.107434 
L 716.302815 118.445741 
L 719.25422 124.677633 
L 721.221824 129.261687 
L 722.205625 131.519442 
L 724.173229 136.391735 
L 725.157031 138.66262 
L 727.124634 144.426695 
L 728.108436 147.015032 
L 730.076039 153.104381 
L 733.027445 161.839868 
L 734.995048 168.208663 
L 736.962652 174.676496 
L 738.930255 180.985663 
L 743.849264 198.28339 
L 746.800669 208.074254 
L 755.654885 235.647845 
L 762.541497 255.059962 
L 764.509101 260.372738 
L 766.476704 265.915344 
L 776.314722 290.788988 
L 784.185136 308.492847 
L 786.152739 312.474066 
L 788.120343 316.284127 
L 789.104144 317.978082 
L 790.087946 319.899886 
L 792.05555 323.177195 
L 793.039351 325.154647 
L 798.942162 334.82798 
L 802.877369 340.668364 
L 803.861171 342.304769 
L 807.796378 347.028344 
L 810.747783 349.744131 
L 811.731585 350.61256 
L 813.699188 351.920766 
L 813.699188 351.920766 
" clip-path="url(#pabb5caf028)" style="fill: none; stroke-dasharray: 1,1.65; stroke-dashoffset: 0; stroke: #ffa500"/>
   </g>
   <g id="patch_9">
    <path d="M 504.785455 388.9656 
L 504.785455 52.4448 
" style="fill: none; stroke: #000000; stroke-width: 0.8; stroke-linejoin: miter; stroke-linecap: square"/>
   </g>
   <g id="patch_10">
    <path d="M 829.44 388.9656 
L 829.44 52.4448 
" style="fill: none; stroke: #000000; stroke-width: 0.8; stroke-linejoin: miter; stroke-linecap: square"/>
   </g>
   <g id="patch_11">
    <path d="M 504.785455 388.9656 
L 829.44 388.9656 
" style="fill: none; stroke: #000000; stroke-width: 0.8; stroke-linejoin: miter; stroke-linecap: square"/>
   </g>
   <g id="patch_12">
    <path d="M 504.785455 52.4448 
L 829.44 52.4448 
" style="fill: none; stroke: #000000; stroke-width: 0.8; stroke-linejoin: miter; stroke-linecap: square"/>
   </g>
   <g id="text_27">
    <!-- lambda=0.2 -->
    <g transform="translate(630.059915 46.4448)scale(0.12 -0.12)">
     <use xlink:href="#DejaVuSans-6c"/>
     <use xlink:href="#DejaVuSans-61" x="27.783203"/>
     <use xlink:href="#DejaVuSans-6d" x="89.0625"/>
     <use xlink:href="#DejaVuSans-62" x="186.474609"/>
     <use xlink:href="#DejaVuSans-64" x="249.951172"/>
     <use xlink:href="#DejaVuSans-61" x="313.427734"/>
     <use xlink:href="#DejaVuSans-3d" x="374.707031"/>
     <use xlink:href="#DejaVuSans-30" x="458.496094"/>
     <use xlink:href="#DejaVuSans-2e" x="522.119141"/>
     <use xlink:href="#DejaVuSans-32" x="553.90625"/>
    </g>
   </g>
  </g>
  <g id="text_28">
   <!-- Conditionally averaged waveforms with variance -->
   <g transform="translate(314.102813 17.858925)scale(0.12 -0.12)">
    <defs>
     <path id="DejaVuSans-43" d="M 4122 4306 
L 4122 3641 
Q 3803 3938 3442 4084 
Q 3081 4231 2675 4231 
Q 1875 4231 1450 3742 
Q 1025 3253 1025 2328 
Q 1025 1406 1450 917 
Q 1875 428 2675 428 
Q 3081 428 3442 575 
Q 3803 722 4122 1019 
L 4122 359 
Q 3791 134 3420 21 
Q 3050 -91 2638 -91 
Q 1578 -91 968 557 
Q 359 1206 359 2328 
Q 359 3453 968 4101 
Q 1578 4750 2638 4750 
Q 3056 4750 3426 4639 
Q 3797 4528 4122 4306 
z
" transform="scale(0.015625)"/>
     <path id="DejaVuSans-6f" d="M 1959 3097 
Q 1497 3097 1228 2736 
Q 959 2375 959 1747 
Q 959 1119 1226 758 
Q 1494 397 1959 397 
Q 2419 397 2687 759 
Q 2956 1122 2956 1747 
Q 2956 2369 2687 2733 
Q 2419 3097 1959 3097 
z
M 1959 3584 
Q 2709 3584 3137 3096 
Q 3566 2609 3566 1747 
Q 3566 888 3137 398 
Q 2709 -91 1959 -91 
Q 1206 -91 779 398 
Q 353 888 353 1747 
Q 353 2609 779 3096 
Q 1206 3584 1959 3584 
z
" transform="scale(0.015625)"/>
     <path id="DejaVuSans-74" d="M 1172 4494 
L 1172 3500 
L 2356 3500 
L 2356 3053 
L 1172 3053 
L 1172 1153 
Q 1172 725 1289 603 
Q 1406 481 1766 481 
L 2356 481 
L 2356 0 
L 1766 0 
Q 1100 0 847 248 
Q 594 497 594 1153 
L 594 3053 
L 172 3053 
L 172 3500 
L 594 3500 
L 594 4494 
L 1172 4494 
z
" transform="scale(0.015625)"/>
     <path id="DejaVuSans-79" d="M 2059 -325 
Q 1816 -950 1584 -1140 
Q 1353 -1331 966 -1331 
L 506 -1331 
L 506 -850 
L 844 -850 
Q 1081 -850 1212 -737 
Q 1344 -625 1503 -206 
L 1606 56 
L 191 3500 
L 800 3500 
L 1894 763 
L 2988 3500 
L 3597 3500 
L 2059 -325 
z
" transform="scale(0.015625)"/>
     <path id="DejaVuSans-20" transform="scale(0.015625)"/>
     <path id="DejaVuSans-76" d="M 191 3500 
L 800 3500 
L 1894 563 
L 2988 3500 
L 3597 3500 
L 2284 0 
L 1503 0 
L 191 3500 
z
" transform="scale(0.015625)"/>
     <path id="DejaVuSans-67" d="M 2906 1791 
Q 2906 2416 2648 2759 
Q 2391 3103 1925 3103 
Q 1463 3103 1205 2759 
Q 947 2416 947 1791 
Q 947 1169 1205 825 
Q 1463 481 1925 481 
Q 2391 481 2648 825 
Q 2906 1169 2906 1791 
z
M 3481 434 
Q 3481 -459 3084 -895 
Q 2688 -1331 1869 -1331 
Q 1566 -1331 1297 -1286 
Q 1028 -1241 775 -1147 
L 775 -588 
Q 1028 -725 1275 -790 
Q 1522 -856 1778 -856 
Q 2344 -856 2625 -561 
Q 2906 -266 2906 331 
L 2906 616 
Q 2728 306 2450 153 
Q 2172 0 1784 0 
Q 1141 0 747 490 
Q 353 981 353 1791 
Q 353 2603 747 3093 
Q 1141 3584 1784 3584 
Q 2172 3584 2450 3431 
Q 2728 3278 2906 2969 
L 2906 3500 
L 3481 3500 
L 3481 434 
z
" transform="scale(0.015625)"/>
     <path id="DejaVuSans-77" d="M 269 3500 
L 844 3500 
L 1563 769 
L 2278 3500 
L 2956 3500 
L 3675 769 
L 4391 3500 
L 4966 3500 
L 4050 0 
L 3372 0 
L 2619 2869 
L 1863 0 
L 1184 0 
L 269 3500 
z
" transform="scale(0.015625)"/>
     <path id="DejaVuSans-73" d="M 2834 3397 
L 2834 2853 
Q 2591 2978 2328 3040 
Q 2066 3103 1784 3103 
Q 1356 3103 1142 2972 
Q 928 2841 928 2578 
Q 928 2378 1081 2264 
Q 1234 2150 1697 2047 
L 1894 2003 
Q 2506 1872 2764 1633 
Q 3022 1394 3022 966 
Q 3022 478 2636 193 
Q 2250 -91 1575 -91 
Q 1294 -91 989 -36 
Q 684 19 347 128 
L 347 722 
Q 666 556 975 473 
Q 1284 391 1588 391 
Q 1994 391 2212 530 
Q 2431 669 2431 922 
Q 2431 1156 2273 1281 
Q 2116 1406 1581 1522 
L 1381 1569 
Q 847 1681 609 1914 
Q 372 2147 372 2553 
Q 372 3047 722 3315 
Q 1072 3584 1716 3584 
Q 2034 3584 2315 3537 
Q 2597 3491 2834 3397 
z
" transform="scale(0.015625)"/>
     <path id="DejaVuSans-68" d="M 3513 2113 
L 3513 0 
L 2938 0 
L 2938 2094 
Q 2938 2591 2744 2837 
Q 2550 3084 2163 3084 
Q 1697 3084 1428 2787 
Q 1159 2491 1159 1978 
L 1159 0 
L 581 0 
L 581 4863 
L 1159 4863 
L 1159 2956 
Q 1366 3272 1645 3428 
Q 1925 3584 2291 3584 
Q 2894 3584 3203 3211 
Q 3513 2838 3513 2113 
z
" transform="scale(0.015625)"/>
     <path id="DejaVuSans-63" d="M 3122 3366 
L 3122 2828 
Q 2878 2963 2633 3030 
Q 2388 3097 2138 3097 
Q 1578 3097 1268 2742 
Q 959 2388 959 1747 
Q 959 1106 1268 751 
Q 1578 397 2138 397 
Q 2388 397 2633 464 
Q 2878 531 3122 666 
L 3122 134 
Q 2881 22 2623 -34 
Q 2366 -91 2075 -91 
Q 1284 -91 818 406 
Q 353 903 353 1747 
Q 353 2603 823 3093 
Q 1294 3584 2113 3584 
Q 2378 3584 2631 3529 
Q 2884 3475 3122 3366 
z
" transform="scale(0.015625)"/>
    </defs>
    <use xlink:href="#DejaVuSans-43"/>
    <use xlink:href="#DejaVuSans-6f" x="69.824219"/>
    <use xlink:href="#DejaVuSans-6e" x="131.005859"/>
    <use xlink:href="#DejaVuSans-64" x="194.384766"/>
    <use xlink:href="#DejaVuSans-69" x="257.861328"/>
    <use xlink:href="#DejaVuSans-74" x="285.644531"/>
    <use xlink:href="#DejaVuSans-69" x="324.853516"/>
    <use xlink:href="#DejaVuSans-6f" x="352.636719"/>
    <use xlink:href="#DejaVuSans-6e" x="413.818359"/>
    <use xlink:href="#DejaVuSans-61" x="477.197266"/>
    <use xlink:href="#DejaVuSans-6c" x="538.476562"/>
    <use xlink:href="#DejaVuSans-6c" x="566.259766"/>
    <use xlink:href="#DejaVuSans-79" x="594.042969"/>
    <use xlink:href="#DejaVuSans-20" x="653.222656"/>
    <use xlink:href="#DejaVuSans-61" x="685.009766"/>
    <use xlink:href="#DejaVuSans-76" x="746.289062"/>
    <use xlink:href="#DejaVuSans-65" x="805.46875"/>
    <use xlink:href="#DejaVuSans-72" x="866.992188"/>
    <use xlink:href="#DejaVuSans-61" x="908.105469"/>
    <use xlink:href="#DejaVuSans-67" x="969.384766"/>
    <use xlink:href="#DejaVuSans-65" x="1032.861328"/>
    <use xlink:href="#DejaVuSans-64" x="1094.384766"/>
    <use xlink:href="#DejaVuSans-20" x="1157.861328"/>
    <use xlink:href="#DejaVuSans-77" x="1189.648438"/>
    <use xlink:href="#DejaVuSans-61" x="1271.435547"/>
    <use xlink:href="#DejaVuSans-76" x="1332.714844"/>
    <use xlink:href="#DejaVuSans-65" x="1391.894531"/>
    <use xlink:href="#DejaVuSans-66" x="1453.417969"/>
    <use xlink:href="#DejaVuSans-6f" x="1488.623047"/>
    <use xlink:href="#DejaVuSans-72" x="1549.804688"/>
    <use xlink:href="#DejaVuSans-6d" x="1589.167969"/>
    <use xlink:href="#DejaVuSans-73" x="1686.580078"/>
    <use xlink:href="#DejaVuSans-20" x="1738.679688"/>
    <use xlink:href="#DejaVuSans-77" x="1770.466797"/>
    <use xlink:href="#DejaVuSans-69" x="1852.253906"/>
    <use xlink:href="#DejaVuSans-74" x="1880.037109"/>
    <use xlink:href="#DejaVuSans-68" x="1919.246094"/>
    <use xlink:href="#DejaVuSans-20" x="1982.625"/>
    <use xlink:href="#DejaVuSans-76" x="2014.412109"/>
    <use xlink:href="#DejaVuSans-61" x="2073.591797"/>
    <use xlink:href="#DejaVuSans-72" x="2134.871094"/>
    <use xlink:href="#DejaVuSans-69" x="2175.984375"/>
    <use xlink:href="#DejaVuSans-61" x="2203.767578"/>
    <use xlink:href="#DejaVuSans-6e" x="2265.046875"/>
    <use xlink:href="#DejaVuSans-63" x="2328.425781"/>
    <use xlink:href="#DejaVuSans-65" x="2383.40625"/>
   </g>
  </g>
 </g>
 <defs>
  <clipPath id="p810d5a1551">
   <rect x="115.2" y="52.4448" width="324.654545" height="336.5208"/>
  </clipPath>
  <clipPath id="pabb5caf028">
   <rect x="504.785455" y="52.4448" width="324.654545" height="336.5208"/>
  </clipPath>
 </defs>
</svg>
