<?xml version="1.0" encoding="utf-8" standalone="no"?>
<!DOCTYPE svg PUBLIC "-//W3C//DTD SVG 1.1//EN"
  "http://www.w3.org/Graphics/SVG/1.1/DTD/svg11.dtd">
<svg xmlns:xlink="http://www.w3.org/1999/xlink" width="921.6pt" height="437.04pt" viewBox="0 0 921.6 437.04" xmlns="http://www.w3.org/2000/svg" version="1.1">
 <metadata>
  <rdf:RDF xmlns:dc="http://purl.org/dc/elements/1.1/" xmlns:cc="http://creativecommons.org/ns#" xmlns:rdf="http://www.w3.org/1999/02/22-rdf-syntax-ns#">
   <cc:Work>
    <dc:type rdf:resource="http://purl.org/dc/dcmitype/StillImage"/>
    <dc:date>2022-08-11T18:48:32.662687</dc:date>
    <dc:format>image/svg+xml</dc:format>
    <dc:creator>
     <cc:Agent>
      <dc:title>Matplotlib v3.5.2, https://matplotlib.org/</dc:title>
     </cc:Agent>
    </dc:creator>
   </cc:Work>
  </rdf:RDF>
 </metadata>
 <defs>
  <style type="text/css">*{stroke-linejoin: round; stroke-linecap: butt}</style>
 </defs>
 <g id="figure_1">
  <g id="patch_1">
   <path d="M 0 437.04 
L 921.6 437.04 
L 921.6 0 
L 0 0 
z
" style="fill: #ffffff"/>
  </g>
  <g id="axes_1">
   <g id="patch_2">
    <path d="M 115.2 388.9656 
L 439.854545 388.9656 
L 439.854545 52.4448 
L 115.2 52.4448 
z
" style="fill: #ffffff"/>
   </g>
   <g id="matplotlib.axis_1">
    <g id="xtick_1">
     <g id="line2d_1">
      <defs>
       <path id="m16877b109b" d="M 0 0 
L 0 3.5 
" style="stroke: #000000; stroke-width: 0.8"/>
      </defs>
      <g>
       <use xlink:href="#m16877b109b" x="129.957025" y="388.9656" style="stroke: #000000; stroke-width: 0.8"/>
      </g>
     </g>
     <g id="text_1">
      <!-- −1.5 -->
      <g transform="translate(117.815619 403.564038)scale(0.1 -0.1)">
       <defs>
        <path id="DejaVuSans-2212" d="M 678 2272 
L 4684 2272 
L 4684 1741 
L 678 1741 
L 678 2272 
z
" transform="scale(0.015625)"/>
        <path id="DejaVuSans-31" d="M 794 531 
L 1825 531 
L 1825 4091 
L 703 3866 
L 703 4441 
L 1819 4666 
L 2450 4666 
L 2450 531 
L 3481 531 
L 3481 0 
L 794 0 
L 794 531 
z
" transform="scale(0.015625)"/>
        <path id="DejaVuSans-2e" d="M 684 794 
L 1344 794 
L 1344 0 
L 684 0 
L 684 794 
z
" transform="scale(0.015625)"/>
        <path id="DejaVuSans-35" d="M 691 4666 
L 3169 4666 
L 3169 4134 
L 1269 4134 
L 1269 2991 
Q 1406 3038 1543 3061 
Q 1681 3084 1819 3084 
Q 2600 3084 3056 2656 
Q 3513 2228 3513 1497 
Q 3513 744 3044 326 
Q 2575 -91 1722 -91 
Q 1428 -91 1123 -41 
Q 819 9 494 109 
L 494 744 
Q 775 591 1075 516 
Q 1375 441 1709 441 
Q 2250 441 2565 725 
Q 2881 1009 2881 1497 
Q 2881 1984 2565 2268 
Q 2250 2553 1709 2553 
Q 1456 2553 1204 2497 
Q 953 2441 691 2322 
L 691 4666 
z
" transform="scale(0.015625)"/>
       </defs>
       <use xlink:href="#DejaVuSans-2212"/>
       <use xlink:href="#DejaVuSans-31" x="83.789062"/>
       <use xlink:href="#DejaVuSans-2e" x="147.412109"/>
       <use xlink:href="#DejaVuSans-35" x="179.199219"/>
      </g>
     </g>
    </g>
    <g id="xtick_2">
     <g id="line2d_2">
      <g>
       <use xlink:href="#m16877b109b" x="179.147107" y="388.9656" style="stroke: #000000; stroke-width: 0.8"/>
      </g>
     </g>
     <g id="text_2">
      <!-- −1.0 -->
      <g transform="translate(167.005701 403.564038)scale(0.1 -0.1)">
       <defs>
        <path id="DejaVuSans-30" d="M 2034 4250 
Q 1547 4250 1301 3770 
Q 1056 3291 1056 2328 
Q 1056 1369 1301 889 
Q 1547 409 2034 409 
Q 2525 409 2770 889 
Q 3016 1369 3016 2328 
Q 3016 3291 2770 3770 
Q 2525 4250 2034 4250 
z
M 2034 4750 
Q 2819 4750 3233 4129 
Q 3647 3509 3647 2328 
Q 3647 1150 3233 529 
Q 2819 -91 2034 -91 
Q 1250 -91 836 529 
Q 422 1150 422 2328 
Q 422 3509 836 4129 
Q 1250 4750 2034 4750 
z
" transform="scale(0.015625)"/>
       </defs>
       <use xlink:href="#DejaVuSans-2212"/>
       <use xlink:href="#DejaVuSans-31" x="83.789062"/>
       <use xlink:href="#DejaVuSans-2e" x="147.412109"/>
       <use xlink:href="#DejaVuSans-30" x="179.199219"/>
      </g>
     </g>
    </g>
    <g id="xtick_3">
     <g id="line2d_3">
      <g>
       <use xlink:href="#m16877b109b" x="228.33719" y="388.9656" style="stroke: #000000; stroke-width: 0.8"/>
      </g>
     </g>
     <g id="text_3">
      <!-- −0.5 -->
      <g transform="translate(216.195784 403.564038)scale(0.1 -0.1)">
       <use xlink:href="#DejaVuSans-2212"/>
       <use xlink:href="#DejaVuSans-30" x="83.789062"/>
       <use xlink:href="#DejaVuSans-2e" x="147.412109"/>
       <use xlink:href="#DejaVuSans-35" x="179.199219"/>
      </g>
     </g>
    </g>
    <g id="xtick_4">
     <g id="line2d_4">
      <g>
       <use xlink:href="#m16877b109b" x="277.527273" y="388.9656" style="stroke: #000000; stroke-width: 0.8"/>
      </g>
     </g>
     <g id="text_4">
      <!-- 0.0 -->
      <g transform="translate(269.57571 403.564038)scale(0.1 -0.1)">
       <use xlink:href="#DejaVuSans-30"/>
       <use xlink:href="#DejaVuSans-2e" x="63.623047"/>
       <use xlink:href="#DejaVuSans-30" x="95.410156"/>
      </g>
     </g>
    </g>
    <g id="xtick_5">
     <g id="line2d_5">
      <g>
       <use xlink:href="#m16877b109b" x="326.717355" y="388.9656" style="stroke: #000000; stroke-width: 0.8"/>
      </g>
     </g>
     <g id="text_5">
      <!-- 0.5 -->
      <g transform="translate(318.765793 403.564038)scale(0.1 -0.1)">
       <use xlink:href="#DejaVuSans-30"/>
       <use xlink:href="#DejaVuSans-2e" x="63.623047"/>
       <use xlink:href="#DejaVuSans-35" x="95.410156"/>
      </g>
     </g>
    </g>
    <g id="xtick_6">
     <g id="line2d_6">
      <g>
       <use xlink:href="#m16877b109b" x="375.907438" y="388.9656" style="stroke: #000000; stroke-width: 0.8"/>
      </g>
     </g>
     <g id="text_6">
      <!-- 1.0 -->
      <g transform="translate(367.955876 403.564038)scale(0.1 -0.1)">
       <use xlink:href="#DejaVuSans-31"/>
       <use xlink:href="#DejaVuSans-2e" x="63.623047"/>
       <use xlink:href="#DejaVuSans-30" x="95.410156"/>
      </g>
     </g>
    </g>
    <g id="xtick_7">
     <g id="line2d_7">
      <g>
       <use xlink:href="#m16877b109b" x="425.097521" y="388.9656" style="stroke: #000000; stroke-width: 0.8"/>
      </g>
     </g>
     <g id="text_7">
      <!-- 1.5 -->
      <g transform="translate(417.145958 403.564038)scale(0.1 -0.1)">
       <use xlink:href="#DejaVuSans-31"/>
       <use xlink:href="#DejaVuSans-2e" x="63.623047"/>
       <use xlink:href="#DejaVuSans-35" x="95.410156"/>
      </g>
     </g>
    </g>
   </g>
   <g id="matplotlib.axis_2">
    <g id="ytick_1">
     <g id="line2d_8">
      <defs>
       <path id="m99df1cf93e" d="M 0 0 
L -3.5 0 
" style="stroke: #000000; stroke-width: 0.8"/>
      </defs>
      <g>
       <use xlink:href="#m99df1cf93e" x="115.2" y="373.6692" style="stroke: #000000; stroke-width: 0.8"/>
      </g>
     </g>
     <g id="text_8">
      <!-- 0.0 -->
      <g transform="translate(92.296875 377.468419)scale(0.1 -0.1)">
       <use xlink:href="#DejaVuSans-30"/>
       <use xlink:href="#DejaVuSans-2e" x="63.623047"/>
       <use xlink:href="#DejaVuSans-30" x="95.410156"/>
      </g>
     </g>
    </g>
    <g id="ytick_2">
     <g id="line2d_9">
      <g>
       <use xlink:href="#m99df1cf93e" x="115.2" y="312.4836" style="stroke: #000000; stroke-width: 0.8"/>
      </g>
     </g>
     <g id="text_9">
      <!-- 0.2 -->
      <g transform="translate(92.296875 316.282819)scale(0.1 -0.1)">
       <defs>
        <path id="DejaVuSans-32" d="M 1228 531 
L 3431 531 
L 3431 0 
L 469 0 
L 469 531 
Q 828 903 1448 1529 
Q 2069 2156 2228 2338 
Q 2531 2678 2651 2914 
Q 2772 3150 2772 3378 
Q 2772 3750 2511 3984 
Q 2250 4219 1831 4219 
Q 1534 4219 1204 4116 
Q 875 4013 500 3803 
L 500 4441 
Q 881 4594 1212 4672 
Q 1544 4750 1819 4750 
Q 2544 4750 2975 4387 
Q 3406 4025 3406 3419 
Q 3406 3131 3298 2873 
Q 3191 2616 2906 2266 
Q 2828 2175 2409 1742 
Q 1991 1309 1228 531 
z
" transform="scale(0.015625)"/>
       </defs>
       <use xlink:href="#DejaVuSans-30"/>
       <use xlink:href="#DejaVuSans-2e" x="63.623047"/>
       <use xlink:href="#DejaVuSans-32" x="95.410156"/>
      </g>
     </g>
    </g>
    <g id="ytick_3">
     <g id="line2d_10">
      <g>
       <use xlink:href="#m99df1cf93e" x="115.2" y="251.298" style="stroke: #000000; stroke-width: 0.8"/>
      </g>
     </g>
     <g id="text_10">
      <!-- 0.4 -->
      <g transform="translate(92.296875 255.097219)scale(0.1 -0.1)">
       <defs>
        <path id="DejaVuSans-34" d="M 2419 4116 
L 825 1625 
L 2419 1625 
L 2419 4116 
z
M 2253 4666 
L 3047 4666 
L 3047 1625 
L 3713 1625 
L 3713 1100 
L 3047 1100 
L 3047 0 
L 2419 0 
L 2419 1100 
L 313 1100 
L 313 1709 
L 2253 4666 
z
" transform="scale(0.015625)"/>
       </defs>
       <use xlink:href="#DejaVuSans-30"/>
       <use xlink:href="#DejaVuSans-2e" x="63.623047"/>
       <use xlink:href="#DejaVuSans-34" x="95.410156"/>
      </g>
     </g>
    </g>
    <g id="ytick_4">
     <g id="line2d_11">
      <g>
       <use xlink:href="#m99df1cf93e" x="115.2" y="190.1124" style="stroke: #000000; stroke-width: 0.8"/>
      </g>
     </g>
     <g id="text_11">
      <!-- 0.6 -->
      <g transform="translate(92.296875 193.911619)scale(0.1 -0.1)">
       <defs>
        <path id="DejaVuSans-36" d="M 2113 2584 
Q 1688 2584 1439 2293 
Q 1191 2003 1191 1497 
Q 1191 994 1439 701 
Q 1688 409 2113 409 
Q 2538 409 2786 701 
Q 3034 994 3034 1497 
Q 3034 2003 2786 2293 
Q 2538 2584 2113 2584 
z
M 3366 4563 
L 3366 3988 
Q 3128 4100 2886 4159 
Q 2644 4219 2406 4219 
Q 1781 4219 1451 3797 
Q 1122 3375 1075 2522 
Q 1259 2794 1537 2939 
Q 1816 3084 2150 3084 
Q 2853 3084 3261 2657 
Q 3669 2231 3669 1497 
Q 3669 778 3244 343 
Q 2819 -91 2113 -91 
Q 1303 -91 875 529 
Q 447 1150 447 2328 
Q 447 3434 972 4092 
Q 1497 4750 2381 4750 
Q 2619 4750 2861 4703 
Q 3103 4656 3366 4563 
z
" transform="scale(0.015625)"/>
       </defs>
       <use xlink:href="#DejaVuSans-30"/>
       <use xlink:href="#DejaVuSans-2e" x="63.623047"/>
       <use xlink:href="#DejaVuSans-36" x="95.410156"/>
      </g>
     </g>
    </g>
    <g id="ytick_5">
     <g id="line2d_12">
      <g>
       <use xlink:href="#m99df1cf93e" x="115.2" y="128.9268" style="stroke: #000000; stroke-width: 0.8"/>
      </g>
     </g>
     <g id="text_12">
      <!-- 0.8 -->
      <g transform="translate(92.296875 132.726019)scale(0.1 -0.1)">
       <defs>
        <path id="DejaVuSans-38" d="M 2034 2216 
Q 1584 2216 1326 1975 
Q 1069 1734 1069 1313 
Q 1069 891 1326 650 
Q 1584 409 2034 409 
Q 2484 409 2743 651 
Q 3003 894 3003 1313 
Q 3003 1734 2745 1975 
Q 2488 2216 2034 2216 
z
M 1403 2484 
Q 997 2584 770 2862 
Q 544 3141 544 3541 
Q 544 4100 942 4425 
Q 1341 4750 2034 4750 
Q 2731 4750 3128 4425 
Q 3525 4100 3525 3541 
Q 3525 3141 3298 2862 
Q 3072 2584 2669 2484 
Q 3125 2378 3379 2068 
Q 3634 1759 3634 1313 
Q 3634 634 3220 271 
Q 2806 -91 2034 -91 
Q 1263 -91 848 271 
Q 434 634 434 1313 
Q 434 1759 690 2068 
Q 947 2378 1403 2484 
z
M 1172 3481 
Q 1172 3119 1398 2916 
Q 1625 2713 2034 2713 
Q 2441 2713 2670 2916 
Q 2900 3119 2900 3481 
Q 2900 3844 2670 4047 
Q 2441 4250 2034 4250 
Q 1625 4250 1398 4047 
Q 1172 3844 1172 3481 
z
" transform="scale(0.015625)"/>
       </defs>
       <use xlink:href="#DejaVuSans-30"/>
       <use xlink:href="#DejaVuSans-2e" x="63.623047"/>
       <use xlink:href="#DejaVuSans-38" x="95.410156"/>
      </g>
     </g>
    </g>
    <g id="ytick_6">
     <g id="line2d_13">
      <g>
       <use xlink:href="#m99df1cf93e" x="115.2" y="67.7412" style="stroke: #000000; stroke-width: 0.8"/>
      </g>
     </g>
     <g id="text_13">
      <!-- 1.0 -->
      <g transform="translate(92.296875 71.540419)scale(0.1 -0.1)">
       <use xlink:href="#DejaVuSans-31"/>
       <use xlink:href="#DejaVuSans-2e" x="63.623047"/>
       <use xlink:href="#DejaVuSans-30" x="95.410156"/>
      </g>
     </g>
    </g>
   </g>
   <g id="line2d_14">
    <path d="M 129.957025 373.6692 
L 276.543471 373.6692 
L 277.527273 67.7412 
L 282.446281 82.661485 
L 287.365289 96.854098 
L 292.284298 110.35453 
L 297.203306 123.196538 
L 302.122314 135.412234 
L 307.041322 147.032163 
L 311.960331 158.085382 
L 316.879339 168.599529 
L 321.798347 178.600895 
L 326.717355 188.114488 
L 331.636364 197.164098 
L 336.555372 205.772354 
L 341.47438 213.96078 
L 346.393388 221.749851 
L 351.312397 229.159045 
L 356.231405 236.206889 
L 361.150413 242.911005 
L 366.069421 249.288157 
L 370.98843 255.354292 
L 375.907438 261.124578 
L 381.810248 267.678667 
L 387.713058 273.851075 
L 393.615868 279.66403 
L 399.518678 285.138465 
L 405.421488 290.294094 
L 411.324298 295.149482 
L 417.227107 299.722114 
L 423.129917 304.028457 
L 424.113719 304.721394 
L 424.113719 304.721394 
" clip-path="url(#p1e95f75625)" style="fill: none; stroke-dasharray: 7.4,3.2; stroke-dashoffset: 0; stroke: #ff0000; stroke-width: 2"/>
   </g>
   <g id="line2d_15">
    <path d="M 129.957025 361.526604 
L 130.940826 361.461152 
L 131.924628 361.565981 
L 132.90843 361.534064 
L 137.827438 361.962706 
L 138.81124 361.987644 
L 139.795041 361.801098 
L 144.71405 362.149621 
L 145.697851 362.090921 
L 146.681653 362.189893 
L 148.649256 362.161759 
L 153.568264 362.38705 
L 154.552066 362.49931 
L 159.471074 362.433748 
L 161.438678 362.584211 
L 164.390083 362.628716 
L 167.341488 362.280912 
L 169.309091 362.357454 
L 171.276694 362.483701 
L 173.244298 362.534338 
L 175.211901 362.68435 
L 177.179504 362.626278 
L 190.952727 362.64877 
L 191.936529 362.583438 
L 192.920331 362.685945 
L 194.887934 362.546978 
L 196.855537 362.554918 
L 198.82314 362.657764 
L 202.758347 362.412926 
L 206.693554 362.324793 
L 211.612562 362.145342 
L 213.580165 362.164169 
L 215.547769 362.059603 
L 217.515372 362.214323 
L 220.466777 361.98762 
L 221.450579 361.737231 
L 222.43438 361.706222 
L 225.385785 361.8814 
L 229.320992 361.646065 
L 232.272397 361.323738 
L 234.24 361.559218 
L 236.207603 361.231005 
L 237.191405 361.323337 
L 238.175207 361.090892 
L 240.14281 361.117528 
L 241.126612 360.948478 
L 243.094215 360.795 
L 245.061818 360.740501 
L 246.04562 360.500362 
L 248.997025 360.247611 
L 249.980826 360.297662 
L 250.964628 360.161037 
L 252.932231 360.10504 
L 254.899835 359.970193 
L 255.883636 359.96038 
L 256.867438 359.746244 
L 257.85124 359.731629 
L 258.835041 359.435508 
L 261.786446 359.012738 
L 263.75405 358.449558 
L 264.737851 358.454347 
L 265.721653 358.279813 
L 269.65686 358.38062 
L 270.640661 358.301911 
L 273.592066 358.445113 
L 276.543471 357.927898 
L 277.527273 67.7412 
L 282.446281 82.654544 
L 287.365289 96.84525 
L 292.284298 110.324932 
L 297.203306 123.116624 
L 302.122314 135.294609 
L 308.025124 149.075002 
L 312.944132 159.95277 
L 318.846942 172.261014 
L 322.782149 180.075274 
L 328.684959 191.217454 
L 335.57157 203.320328 
L 340.490579 211.475225 
L 345.409587 219.158626 
L 356.231405 234.830515 
L 362.134215 242.720035 
L 370.004628 252.557262 
L 379.842645 263.671424 
L 386.729256 270.642405 
L 397.551074 280.800091 
L 400.502479 283.331673 
L 407.389091 289.244638 
L 411.324298 292.34046 
L 414.275702 294.55522 
L 415.259504 295.342417 
L 417.227107 296.693084 
L 425.097521 302.126435 
L 425.097521 302.126435 
" clip-path="url(#p1e95f75625)" style="fill: none; stroke: #0000ff; stroke-linecap: square"/>
   </g>
   <g id="line2d_16">
    <path d="M 129.957025 337.308745 
L 131.924628 337.267463 
L 136.843636 336.682933 
L 138.81124 336.565599 
L 139.795041 336.705344 
L 143.730248 336.455597 
L 145.697851 336.505285 
L 146.681653 336.433325 
L 147.665455 336.212165 
L 150.61686 336.11362 
L 151.600661 335.905695 
L 152.584463 337.338895 
L 156.519669 337.126887 
L 157.503471 336.966544 
L 158.487273 336.673393 
L 159.471074 336.981054 
L 160.454876 336.923217 
L 165.373884 337.241153 
L 166.357686 337.552753 
L 167.341488 337.310249 
L 170.292893 337.229283 
L 171.276694 336.91833 
L 172.260496 336.934488 
L 174.228099 336.697505 
L 177.179504 336.426565 
L 180.130909 336.688815 
L 181.114711 337.264155 
L 182.098512 337.444678 
L 183.082314 337.31294 
L 184.066116 337.535906 
L 185.049917 337.473786 
L 187.017521 337.10567 
L 188.001322 337.253152 
L 188.985124 337.285872 
L 189.968926 337.205101 
L 191.936529 337.295514 
L 192.920331 337.251849 
L 193.904132 337.477676 
L 194.887934 337.373574 
L 195.871736 337.72031 
L 197.839339 337.499765 
L 198.82314 337.381154 
L 199.806942 337.525284 
L 202.758347 337.420598 
L 203.742149 337.671741 
L 205.709752 337.805294 
L 209.644959 337.97808 
L 211.612562 337.519914 
L 212.596364 337.380871 
L 213.580165 337.507394 
L 215.547769 337.275169 
L 217.515372 336.978911 
L 219.482975 337.405359 
L 220.466777 337.458702 
L 221.450579 337.696793 
L 223.418182 337.335305 
L 224.401983 337.49163 
L 225.385785 337.509289 
L 226.369587 337.916822 
L 227.353388 338.586765 
L 229.320992 338.453205 
L 230.304793 338.45134 
L 231.288595 338.225732 
L 232.272397 338.30863 
L 234.24 338.265181 
L 236.207603 338.478388 
L 237.191405 338.401524 
L 238.175207 338.008007 
L 241.126612 337.988032 
L 243.094215 338.063609 
L 245.061818 337.822428 
L 246.04562 337.922076 
L 248.013223 337.512941 
L 248.997025 337.704579 
L 250.964628 337.496763 
L 252.932231 336.902059 
L 258.835041 335.58365 
L 259.818843 335.084124 
L 261.786446 334.996535 
L 262.770248 334.606465 
L 263.75405 334.694519 
L 271.624463 333.099643 
L 272.608264 333.142405 
L 273.592066 333.0201 
L 274.575868 333.118574 
L 275.559669 332.969084 
L 276.543471 332.647909 
L 277.527273 67.7412 
L 313.927934 67.845375 
L 332.620165 68.107903 
L 345.409587 68.646094 
L 347.37719 68.928326 
L 351.312397 68.970173 
L 354.263802 69.150911 
L 370.004628 69.942419 
L 370.98843 70.172335 
L 375.907438 70.434116 
L 376.89124 70.635858 
L 378.858843 70.702614 
L 381.810248 71.406482 
L 382.79405 71.725502 
L 384.761653 71.732906 
L 386.729256 72.272768 
L 387.713058 72.673485 
L 388.69686 72.723561 
L 389.680661 73.180445 
L 391.648264 73.284155 
L 392.632066 73.63699 
L 395.583471 73.828302 
L 397.551074 74.780287 
L 399.518678 75.190269 
L 400.502479 75.62769 
L 401.486281 75.723092 
L 402.470083 76.022839 
L 403.453884 76.181097 
L 406.405289 76.195239 
L 407.389091 76.532652 
L 409.356694 76.671027 
L 410.340496 77.591194 
L 411.324298 77.591194 
L 412.308099 77.959532 
L 413.291901 77.959466 
L 414.275702 78.454856 
L 415.259504 78.454856 
L 416.243306 79.470927 
L 418.210909 80.333954 
L 419.194711 81.138026 
L 420.178512 81.70893 
L 421.162314 82.135117 
L 422.146116 82.178598 
L 424.113719 83.32443 
L 425.097521 83.355562 
L 425.097521 83.355562 
" clip-path="url(#p1e95f75625)" style="fill: none; stroke-dasharray: 1,1.65; stroke-dashoffset: 0; stroke: #0000ff"/>
   </g>
   <g id="line2d_17">
    <path d="M 129.957025 312.100413 
L 130.940826 312.08148 
L 131.924628 311.742933 
L 132.90843 311.855907 
L 133.892231 311.778788 
L 134.876033 311.889824 
L 136.843636 311.737135 
L 138.81124 311.627484 
L 139.795041 311.392892 
L 142.746446 311.098258 
L 143.730248 310.900924 
L 144.71405 310.94875 
L 146.681653 310.598554 
L 150.61686 310.612512 
L 153.568264 310.053869 
L 154.552066 309.927837 
L 155.535868 309.688326 
L 156.519669 309.867922 
L 159.471074 309.683592 
L 160.454876 309.877812 
L 162.422479 309.607489 
L 164.390083 309.120184 
L 165.373884 308.947545 
L 166.357686 309.012776 
L 169.309091 308.83752 
L 170.292893 308.509355 
L 171.276694 308.394813 
L 174.228099 307.670457 
L 175.211901 307.516084 
L 177.179504 307.456644 
L 178.163306 307.385916 
L 179.147107 307.196386 
L 183.082314 307.090846 
L 184.066116 306.793056 
L 185.049917 306.644906 
L 186.033719 306.722272 
L 188.001322 306.376983 
L 190.952727 305.459763 
L 192.920331 305.164639 
L 193.904132 305.233705 
L 194.887934 305.005499 
L 195.871736 304.972685 
L 197.839339 304.472893 
L 203.742149 303.037127 
L 205.709752 302.351561 
L 206.693554 302.114147 
L 208.661157 301.229055 
L 210.62876 300.737658 
L 211.612562 300.532578 
L 212.596364 300.002375 
L 214.563967 299.40429 
L 215.547769 299.279186 
L 217.515372 298.55971 
L 218.499174 297.962008 
L 224.401983 296.692623 
L 229.320992 294.792273 
L 230.304793 294.593479 
L 231.288595 294.165175 
L 233.256198 293.625091 
L 235.223802 292.779794 
L 236.207603 292.47057 
L 239.159008 291.019822 
L 241.126612 289.711971 
L 242.110413 289.184403 
L 243.094215 288.441642 
L 245.061818 287.427707 
L 246.04562 287.107772 
L 247.029421 286.435688 
L 248.997025 284.641577 
L 250.964628 283.24711 
L 251.94843 282.15541 
L 254.899835 279.576539 
L 258.835041 276.958692 
L 261.786446 274.26632 
L 262.770248 273.496282 
L 264.737851 270.885405 
L 265.721653 270.11491 
L 267.689256 267.666335 
L 268.673058 266.39543 
L 269.65686 264.663372 
L 271.624463 261.75901 
L 276.543471 252.524443 
L 277.527273 67.7412 
L 282.446281 82.621465 
L 287.365289 96.636619 
L 292.284298 109.772173 
L 298.187107 124.394663 
L 303.106116 135.849536 
L 307.041322 144.371722 
L 311.960331 154.498964 
L 317.86314 165.851537 
L 323.76595 176.219665 
L 331.636364 189.055284 
L 335.57157 194.992146 
L 340.490579 201.718014 
L 343.441983 205.700379 
L 348.360992 212.420026 
L 350.328595 214.934856 
L 353.28 218.400522 
L 359.18281 225.408042 
L 362.134215 228.262047 
L 365.08562 231.383352 
L 366.069421 232.270541 
L 367.053223 233.367309 
L 370.98843 237.129661 
L 373.939835 240.119275 
L 375.907438 241.855295 
L 381.810248 247.039844 
L 390.664463 254.530614 
L 392.632066 255.947569 
L 393.615868 256.900399 
L 396.567273 258.981868 
L 397.551074 259.577983 
L 400.502479 261.792247 
L 408.372893 266.495554 
L 412.308099 268.831174 
L 415.259504 270.782018 
L 418.210909 272.363596 
L 419.194711 272.733569 
L 423.129917 275.01028 
L 424.113719 275.351496 
L 425.097521 275.938022 
L 425.097521 275.938022 
" clip-path="url(#p1e95f75625)" style="fill: none; stroke: #ff00ff; stroke-linecap: square"/>
   </g>
   <g id="line2d_18">
    <path d="M 129.957025 204.736397 
L 131.924628 204.951506 
L 132.90843 204.840427 
L 133.892231 205.239862 
L 134.876033 205.854197 
L 135.859835 206.125675 
L 136.843636 205.733225 
L 137.827438 205.549917 
L 138.81124 205.12552 
L 139.795041 204.905817 
L 141.762645 204.859936 
L 142.746446 204.62137 
L 144.71405 204.446855 
L 145.697851 204.662441 
L 147.665455 204.308484 
L 148.649256 204.074996 
L 151.600661 204.029332 
L 152.584463 204.564555 
L 153.568264 204.546011 
L 154.552066 204.081632 
L 155.535868 204.080938 
L 156.519669 203.955636 
L 157.503471 204.011928 
L 158.487273 204.436414 
L 159.471074 204.704507 
L 160.454876 204.501869 
L 161.438678 204.533485 
L 164.390083 204.2438 
L 165.373884 203.825088 
L 166.357686 203.803395 
L 168.325289 203.442628 
L 169.309091 202.941611 
L 171.276694 202.748405 
L 173.244298 202.254908 
L 174.228099 202.460137 
L 175.211901 202.16442 
L 176.195702 201.637399 
L 177.179504 201.436681 
L 180.130909 201.503731 
L 183.082314 200.055017 
L 184.066116 199.647684 
L 188.001322 198.995132 
L 188.985124 198.638841 
L 189.968926 198.584053 
L 190.952727 198.377636 
L 191.936529 198.40531 
L 192.920331 198.731054 
L 193.904132 198.435585 
L 194.887934 198.494172 
L 195.871736 198.305063 
L 196.855537 197.558239 
L 197.839339 197.900316 
L 198.82314 197.36683 
L 199.806942 197.705552 
L 203.742149 197.137491 
L 204.72595 196.957725 
L 205.709752 196.270041 
L 206.693554 196.60337 
L 207.677355 196.393241 
L 208.661157 196.319694 
L 209.644959 195.852228 
L 211.612562 195.676698 
L 212.596364 195.781672 
L 213.580165 195.366679 
L 214.563967 195.147572 
L 216.53157 194.399148 
L 218.499174 194.114775 
L 219.482975 193.568993 
L 220.466777 192.848742 
L 223.418182 191.759807 
L 224.401983 191.685175 
L 225.385785 191.455819 
L 227.353388 191.486088 
L 228.33719 191.075445 
L 229.320992 190.931436 
L 230.304793 190.459518 
L 231.288595 190.249221 
L 232.272397 190.157031 
L 233.256198 189.340123 
L 234.24 189.158213 
L 235.223802 188.483747 
L 238.175207 187.696414 
L 239.159008 187.547006 
L 240.14281 187.264059 
L 241.126612 186.663271 
L 242.110413 185.809731 
L 243.094215 185.419132 
L 245.061818 184.330257 
L 246.04562 183.975063 
L 247.029421 183.357166 
L 248.997025 181.852445 
L 249.980826 181.207153 
L 250.964628 180.772365 
L 251.94843 180.159283 
L 252.932231 179.7282 
L 253.916033 178.995081 
L 254.899835 178.618452 
L 257.85124 176.671265 
L 258.835041 176.209025 
L 259.818843 175.302959 
L 260.802645 174.229212 
L 261.786446 173.902495 
L 262.770248 173.002483 
L 263.75405 172.295154 
L 264.737851 171.32569 
L 265.721653 170.684836 
L 266.705455 169.899828 
L 267.689256 168.78036 
L 268.673058 167.903925 
L 269.65686 166.557764 
L 270.640661 165.798791 
L 271.624463 164.775007 
L 272.608264 163.342399 
L 273.592066 162.225373 
L 274.575868 161.378285 
L 275.559669 160.250891 
L 276.543471 158.814772 
L 277.527273 67.7412 
L 294.251901 67.824821 
L 308.025124 68.302909 
L 318.846942 69.160238 
L 323.76595 69.754243 
L 330.652562 70.761443 
L 332.620165 71.037213 
L 333.603967 71.312999 
L 334.587769 71.4143 
L 344.425785 73.669113 
L 347.37719 74.123154 
L 351.312397 75.178818 
L 353.28 75.694819 
L 356.231405 76.387764 
L 357.215207 76.758009 
L 359.18281 77.173476 
L 360.166612 77.972201 
L 361.150413 78.314508 
L 363.118017 79.280608 
L 364.101818 79.539874 
L 366.069421 80.447108 
L 367.053223 80.657237 
L 368.037025 81.095677 
L 370.004628 81.807208 
L 370.98843 82.294226 
L 371.972231 82.488002 
L 375.907438 84.21405 
L 376.89124 84.74103 
L 377.875041 85.138046 
L 378.858843 85.698549 
L 380.826446 86.432039 
L 381.810248 86.724767 
L 386.729256 88.805565 
L 389.680661 89.901821 
L 392.632066 91.079781 
L 393.615868 91.217118 
L 396.567273 92.75273 
L 398.534876 94.027253 
L 400.502479 95.106489 
L 403.453884 96.851302 
L 406.405289 98.691476 
L 409.356694 100.902319 
L 410.340496 101.488225 
L 411.324298 102.533386 
L 413.291901 103.681986 
L 416.243306 104.984534 
L 417.227107 106.132128 
L 420.178512 108.052726 
L 421.162314 108.208172 
L 423.129917 108.841957 
L 424.113719 109.975829 
L 425.097521 110.443035 
L 425.097521 110.443035 
" clip-path="url(#p1e95f75625)" style="fill: none; stroke-dasharray: 1,1.65; stroke-dashoffset: 0; stroke: #ff00ff"/>
   </g>
   <g id="line2d_19">
    <path d="M 129.957025 216.892629 
L 132.90843 216.296721 
L 133.892231 216.217706 
L 134.876033 215.939734 
L 135.859835 215.813747 
L 136.843636 215.567775 
L 140.778843 215.037759 
L 141.762645 214.612041 
L 143.730248 214.396367 
L 146.681653 213.712971 
L 147.665455 213.344603 
L 150.61686 212.910919 
L 151.600661 212.767966 
L 152.584463 212.75082 
L 154.552066 212.097617 
L 161.438678 211.013427 
L 164.390083 210.194685 
L 165.373884 210.074246 
L 168.325289 208.805838 
L 170.292893 208.233964 
L 171.276694 208.216151 
L 172.260496 207.869659 
L 173.244298 207.745864 
L 174.228099 207.432832 
L 175.211901 207.322228 
L 176.195702 207.02559 
L 178.163306 206.704959 
L 180.130909 206.252192 
L 181.114711 206.188623 
L 182.098512 205.951298 
L 183.082314 205.479722 
L 188.001322 203.982073 
L 189.968926 203.26427 
L 190.952727 202.604527 
L 192.920331 201.73713 
L 193.904132 201.471236 
L 194.887934 201.073699 
L 200.790744 199.451286 
L 201.774545 199.317867 
L 202.758347 198.830069 
L 203.742149 198.468549 
L 206.693554 197.683045 
L 207.677355 197.13931 
L 209.644959 196.626201 
L 211.612562 195.722631 
L 213.580165 195.04863 
L 215.547769 193.897184 
L 217.515372 192.799432 
L 221.450579 191.011643 
L 222.43438 190.265774 
L 223.418182 189.789198 
L 225.385785 188.388438 
L 227.353388 187.049899 
L 230.304793 184.792745 
L 232.272397 183.394224 
L 233.256198 182.525998 
L 234.24 182.016511 
L 236.207603 180.569082 
L 237.191405 179.907068 
L 241.126612 176.685962 
L 242.110413 175.942554 
L 243.094215 174.888932 
L 246.04562 172.121352 
L 248.013223 170.026814 
L 249.980826 168.533211 
L 252.932231 165.086982 
L 253.916033 163.584966 
L 254.899835 162.31609 
L 258.835041 156.503466 
L 259.818843 155.239115 
L 260.802645 153.371144 
L 261.786446 152.01197 
L 264.737851 147.257122 
L 265.721653 144.817245 
L 266.705455 142.963479 
L 268.673058 138.386011 
L 272.608264 126.335633 
L 274.575868 119.126864 
L 275.559669 115.316884 
L 276.543471 110.713185 
L 277.527273 67.7412 
L 280.478678 76.522371 
L 283.430083 84.429376 
L 286.381488 91.51666 
L 289.332893 97.800281 
L 292.284298 103.592843 
L 297.203306 112.111097 
L 302.122314 119.988136 
L 307.041322 127.127724 
L 309.008926 129.875084 
L 310.976529 132.281613 
L 312.944132 134.840408 
L 314.911736 137.227872 
L 318.846942 141.589109 
L 320.814545 143.637739 
L 322.782149 145.670458 
L 323.76595 146.443747 
L 324.749752 147.540431 
L 334.587769 156.478851 
L 336.555372 158.370547 
L 338.522975 159.925045 
L 340.490579 161.392828 
L 345.409587 165.15882 
L 347.37719 166.631328 
L 350.328595 169.033215 
L 352.296198 170.230851 
L 355.247603 171.973427 
L 357.215207 173.086535 
L 359.18281 174.476824 
L 365.08562 178.071141 
L 367.053223 179.161289 
L 368.037025 179.850513 
L 370.004628 180.851339 
L 370.98843 181.445558 
L 371.972231 181.881347 
L 374.923636 183.533851 
L 376.89124 184.47535 
L 384.761653 188.200791 
L 385.745455 188.536373 
L 386.729256 189.104452 
L 389.680661 190.176728 
L 392.632066 191.682844 
L 393.615868 191.940455 
L 395.583471 192.652867 
L 397.551074 193.231139 
L 406.405289 197.301067 
L 409.356694 198.046722 
L 411.324298 198.761338 
L 413.291901 199.374526 
L 414.275702 199.764506 
L 418.210909 200.841342 
L 419.194711 201.150171 
L 421.162314 201.442285 
L 423.129917 202.069464 
L 425.097521 202.654549 
L 425.097521 202.654549 
" clip-path="url(#p1e95f75625)" style="fill: none; stroke: #008000; stroke-linecap: square"/>
   </g>
   <g id="line2d_20">
    <path d="M 129.957025 92.009565 
L 133.892231 91.865732 
L 134.876033 91.98376 
L 136.843636 91.891666 
L 137.827438 91.807347 
L 138.81124 91.982179 
L 149.633058 91.42215 
L 150.61686 91.476729 
L 152.584463 91.215039 
L 153.568264 91.378516 
L 162.422479 90.949393 
L 164.390083 90.913335 
L 165.373884 91.003719 
L 166.357686 90.84159 
L 167.341488 90.894385 
L 169.309091 90.699801 
L 170.292893 90.6672 
L 171.276694 90.368126 
L 173.244298 90.342611 
L 174.228099 90.092542 
L 175.211901 90.026293 
L 179.147107 89.361098 
L 182.098512 89.220165 
L 183.082314 89.2849 
L 184.066116 89.141019 
L 185.049917 89.128624 
L 186.033719 88.839035 
L 188.985124 88.707446 
L 190.952727 88.49937 
L 191.936529 88.148208 
L 194.887934 88.083722 
L 196.855537 87.934533 
L 198.82314 87.704658 
L 199.806942 87.759408 
L 201.774545 87.364142 
L 203.742149 87.060061 
L 205.709752 86.774971 
L 206.693554 86.582096 
L 208.661157 86.533054 
L 211.612562 86.472957 
L 212.596364 86.268276 
L 214.563967 86.068225 
L 215.547769 85.858266 
L 219.482975 85.857029 
L 222.43438 85.256987 
L 227.353388 84.698063 
L 228.33719 84.669757 
L 238.175207 83.035957 
L 239.159008 82.996156 
L 241.126612 82.593596 
L 243.094215 82.084934 
L 250.964628 80.814367 
L 252.932231 80.431425 
L 253.916033 80.350661 
L 264.737851 77.175423 
L 266.705455 76.331317 
L 269.65686 75.260922 
L 272.608264 73.888066 
L 276.543471 71.410249 
L 277.527273 67.7412 
L 286.381488 67.835222 
L 294.251901 68.173364 
L 300.154711 68.561418 
L 311.960331 69.577418 
L 316.879339 70.099554 
L 319.830744 70.501915 
L 326.717355 71.242369 
L 330.652562 71.698897 
L 341.47438 72.899457 
L 354.263802 74.689297 
L 357.215207 75.129693 
L 359.18281 75.345598 
L 362.134215 75.834677 
L 368.037025 76.441323 
L 371.972231 77.0756 
L 375.907438 77.407601 
L 377.875041 77.722981 
L 380.826446 78.082302 
L 381.810248 78.287946 
L 382.79405 78.364144 
L 383.777851 78.561575 
L 385.745455 78.744241 
L 389.680661 79.187921 
L 391.648264 79.373903 
L 395.583471 79.821854 
L 396.567273 79.889698 
L 397.551074 80.080653 
L 398.534876 80.156402 
L 400.502479 80.430939 
L 403.453884 80.667228 
L 409.356694 81.583189 
L 411.324298 81.864699 
L 413.291901 82.074385 
L 414.275702 82.082537 
L 416.243306 82.416571 
L 420.178512 82.892098 
L 421.162314 83.069349 
L 425.097521 83.356276 
L 425.097521 83.356276 
" clip-path="url(#p1e95f75625)" style="fill: none; stroke-dasharray: 1,1.65; stroke-dashoffset: 0; stroke: #008000"/>
   </g>
   <g id="line2d_21">
    <path d="M 130.940812 333.355106 
L 131.924614 332.741814 
L 133.892217 332.418771 
L 134.876019 331.550327 
L 135.859821 331.005594 
L 136.843622 330.686696 
L 137.827424 329.483171 
L 139.795028 328.132711 
L 142.746433 325.5135 
L 143.730235 324.748828 
L 144.714036 324.18216 
L 145.697838 323.79489 
L 146.68164 323.992821 
L 148.649243 323.269527 
L 149.633045 322.797768 
L 150.616847 321.479622 
L 151.600649 320.602838 
L 153.568252 319.872694 
L 155.535856 318.824314 
L 156.519657 318.027678 
L 157.503459 316.950619 
L 158.487261 316.259699 
L 159.471063 315.76121 
L 164.390071 312.511524 
L 165.373873 311.167881 
L 166.357675 310.807401 
L 168.325278 308.63338 
L 169.30908 308.417399 
L 170.292882 307.618085 
L 172.260485 306.241479 
L 173.244287 305.828572 
L 174.228089 304.66794 
L 175.211891 303.715995 
L 176.195692 302.996638 
L 177.179494 301.990322 
L 178.163296 301.190982 
L 179.147098 300.152689 
L 181.114701 298.623537 
L 182.098503 297.328198 
L 184.066106 295.786363 
L 185.049908 294.754288 
L 186.03371 294.112119 
L 187.017512 293.629982 
L 188.985115 291.828159 
L 189.968917 290.726651 
L 191.93652 287.786189 
L 192.920322 286.580057 
L 193.904124 285.782352 
L 194.887926 284.822683 
L 195.871727 283.285214 
L 197.839331 281.112704 
L 201.774538 276.508178 
L 202.75834 274.936204 
L 204.725943 272.570169 
L 207.677348 267.632744 
L 212.596357 261.957197 
L 214.563961 259.038413 
L 216.531564 256.82421 
L 217.515366 255.8806 
L 218.499168 254.336136 
L 219.482969 253.101968 
L 220.466771 250.99525 
L 223.418176 246.406537 
L 224.401978 244.873702 
L 225.38578 243.069794 
L 226.369582 241.764811 
L 230.304789 234.475761 
L 231.28859 232.285803 
L 232.272392 230.807606 
L 237.191401 221.350157 
L 238.175203 219.837752 
L 239.159004 217.64124 
L 240.142806 216.019498 
L 243.094211 209.39064 
L 245.061815 205.327872 
L 246.045617 203.495517 
L 247.029418 201.050656 
L 248.01322 198.128596 
L 248.997022 195.934301 
L 249.980824 193.123351 
L 250.964625 190.869079 
L 251.948427 187.956196 
L 253.916031 183.148824 
L 259.818841 165.69505 
L 260.802643 162.227212 
L 262.770246 155.938258 
L 265.721652 144.480136 
L 266.705453 140.771224 
L 271.624462 119.152395 
L 272.608264 113.959308 
L 274.575867 101.24404 
L 275.559669 93.391963 
L 276.543471 83.417458 
L 277.527273 67.7412 
L 278.511074 83.589107 
L 279.494876 93.445743 
L 280.478678 101.637181 
L 281.46248 108.696811 
L 283.430083 119.639096 
L 284.413885 124.758576 
L 285.397687 128.802258 
L 286.381488 133.630294 
L 288.349092 141.745919 
L 289.332894 145.711613 
L 295.235704 166.059395 
L 296.219506 168.756354 
L 298.18711 173.579847 
L 302.122317 184.658122 
L 303.106118 187.006788 
L 306.057524 194.840601 
L 311.960334 209.476924 
L 312.944136 211.465452 
L 313.927938 212.826883 
L 315.895541 216.670362 
L 318.846946 223.062147 
L 319.830748 225.390037 
L 320.81455 227.224722 
L 321.798352 229.330049 
L 323.765955 232.713604 
L 324.749757 234.743496 
L 326.71736 237.798916 
L 327.701162 239.475571 
L 328.684964 240.918747 
L 329.668766 242.760828 
L 334.587774 249.763547 
L 335.571576 251.038553 
L 337.53918 254.295373 
L 338.522981 256.195547 
L 341.474387 261.11624 
L 342.458188 262.403034 
L 343.44199 264.123869 
L 345.409594 266.182365 
L 348.360999 272.22407 
L 351.312404 275.903295 
L 352.296206 276.777839 
L 356.231413 281.876788 
L 357.215215 282.619952 
L 358.199016 283.541721 
L 359.182818 284.222394 
L 360.16662 285.242508 
L 361.150422 286.660156 
L 362.134223 287.84798 
L 363.118025 288.580404 
L 364.101827 289.969813 
L 371.972241 297.884237 
L 372.956043 298.713204 
L 373.939844 299.936948 
L 375.907448 302.920063 
L 376.89125 303.898109 
L 377.875051 305.174541 
L 378.858853 306.141752 
L 379.842655 306.804464 
L 382.79406 309.320726 
L 383.777862 310.493349 
L 385.745465 311.936592 
L 386.729267 312.860315 
L 387.713069 313.559127 
L 389.680672 314.485314 
L 391.648276 316.010432 
L 392.632078 317.169001 
L 393.615879 317.721686 
L 395.583483 318.336367 
L 396.567285 318.747712 
L 399.51869 321.13439 
L 400.502492 321.772189 
L 401.486293 322.717738 
L 403.453897 323.200253 
L 404.437699 324.183981 
L 405.4215 324.811006 
L 407.389104 326.608794 
L 408.372906 327.16993 
L 409.356707 328.250371 
L 410.340509 328.941527 
L 411.324311 329.428406 
L 412.308113 330.673846 
L 413.291914 331.058056 
L 414.275716 331.818494 
L 415.259518 332.209945 
L 417.227121 333.357573 
L 418.210923 334.359829 
L 419.194725 334.660484 
L 420.178527 335.297963 
L 421.162328 336.171182 
L 422.14613 336.851151 
L 424.113734 337.230642 
L 424.113734 337.230642 
" clip-path="url(#p1e95f75625)" style="fill: none; stroke: #ffa500; stroke-linecap: square"/>
   </g>
   <g id="line2d_22">
    <path d="M 130.940812 326.146251 
L 131.924614 324.666084 
L 132.908415 324.373868 
L 133.892217 324.206783 
L 134.876019 322.176416 
L 136.843622 319.916707 
L 137.827424 317.419805 
L 138.811226 316.71738 
L 139.795028 315.703391 
L 141.762631 312.137524 
L 142.746433 309.501438 
L 143.730235 307.732672 
L 144.714036 306.263887 
L 145.697838 305.931403 
L 146.68164 306.498928 
L 147.665442 305.603685 
L 149.633045 303.128631 
L 150.616847 299.813107 
L 151.600649 297.498275 
L 152.58445 297.262577 
L 153.568252 296.449346 
L 154.552054 295.276188 
L 155.535856 293.84836 
L 156.519657 292.035161 
L 157.503459 289.709201 
L 158.487261 288.7271 
L 160.454864 285.800998 
L 161.438666 283.606735 
L 163.40627 280.803478 
L 164.390071 278.673907 
L 165.373873 276.073764 
L 166.357675 274.573079 
L 168.325278 269.588137 
L 169.30908 269.189988 
L 170.292882 266.767013 
L 171.276684 265.189641 
L 172.260485 262.698696 
L 173.244287 261.968433 
L 175.211891 257.176306 
L 176.195692 255.686482 
L 178.163296 251.213446 
L 179.147098 248.135507 
L 181.114701 245.237236 
L 183.082305 240.09405 
L 184.066106 238.270055 
L 185.049908 236.174198 
L 186.03371 235.801335 
L 187.017512 235.129739 
L 188.001313 233.72814 
L 188.985115 230.443744 
L 189.968917 227.823477 
L 191.93652 221.081128 
L 192.920322 218.177886 
L 193.904124 216.610034 
L 195.871727 210.901723 
L 197.839331 206.367982 
L 199.806934 200.659309 
L 200.790736 198.013473 
L 201.774538 195.847548 
L 202.75834 193.271847 
L 203.742141 190.360764 
L 206.693547 182.711726 
L 207.677348 179.166067 
L 208.66115 177.611912 
L 209.644952 175.795428 
L 212.596357 169.423531 
L 214.563961 164.841745 
L 215.547762 163.112592 
L 216.531564 161.969479 
L 217.515366 160.152866 
L 218.499168 157.717142 
L 219.482969 155.624051 
L 222.434375 148.006238 
L 223.418176 145.730747 
L 224.401978 142.828107 
L 225.38578 140.58357 
L 226.369582 139.544398 
L 227.353383 137.14096 
L 229.320987 132.987602 
L 230.304789 130.684504 
L 231.28859 127.968205 
L 232.272392 126.500602 
L 233.256194 124.383766 
L 236.207599 119.116752 
L 237.191401 116.969629 
L 238.175203 115.383858 
L 239.159004 113.05998 
L 240.142806 111.419687 
L 242.11041 107.568873 
L 244.078013 103.872469 
L 247.029418 99.601254 
L 248.01322 97.654044 
L 249.980824 94.422799 
L 250.964625 93.185481 
L 252.932229 90.347576 
L 253.916031 89.29151 
L 254.899832 87.69451 
L 255.883634 86.404254 
L 256.867436 85.382205 
L 260.802643 80.496144 
L 261.786445 79.384198 
L 262.770246 78.498156 
L 264.73785 76.373648 
L 267.689255 73.585502 
L 271.624462 70.82202 
L 274.575867 69.070579 
L 276.543471 68.135666 
L 277.527273 67.7412 
L 279.494876 68.597971 
L 282.446281 70.341633 
L 284.413885 71.611177 
L 287.36529 73.700569 
L 288.349092 74.804187 
L 289.332894 75.711014 
L 290.316695 76.364443 
L 291.300497 77.440522 
L 292.284299 78.203747 
L 293.268101 79.303056 
L 294.251902 80.22637 
L 296.219506 82.660486 
L 297.203308 83.668424 
L 299.170911 86.12022 
L 301.138515 89.063661 
L 303.106118 91.539213 
L 304.08992 92.707975 
L 307.041325 97.028756 
L 309.008929 100.701912 
L 309.992731 102.217657 
L 310.976532 103.511068 
L 312.944136 107.134329 
L 313.927938 108.145252 
L 314.911739 110.488205 
L 315.895541 111.977368 
L 316.879343 114.082872 
L 317.863145 115.826663 
L 319.830748 121.015483 
L 320.81455 122.591192 
L 321.798352 124.588529 
L 322.782153 125.945789 
L 323.765955 127.616675 
L 324.749757 130.793441 
L 325.733559 132.692229 
L 326.71736 133.640559 
L 328.684964 137.287086 
L 329.668766 139.447318 
L 330.652567 141.938992 
L 331.636369 143.219064 
L 332.620171 145.899576 
L 333.603973 148.037399 
L 334.587774 149.659782 
L 335.571576 151.500402 
L 336.555378 154.270992 
L 337.53918 155.927647 
L 339.506783 161.756579 
L 341.474387 168.701105 
L 342.458188 170.52474 
L 343.44199 173.139695 
L 345.409594 177.31988 
L 346.393395 180.419986 
L 347.377197 182.915891 
L 348.360999 187.431305 
L 349.344801 189.179914 
L 353.280008 198.729389 
L 354.263809 200.647395 
L 355.247611 203.142718 
L 356.231413 206.471156 
L 357.215215 207.518577 
L 358.199016 209.976687 
L 359.182818 211.523923 
L 360.16662 213.502869 
L 361.150422 216.702546 
L 362.134223 219.056087 
L 363.118025 220.834563 
L 364.101827 223.300191 
L 365.085629 225.44084 
L 366.06943 228.329734 
L 368.037034 233.201975 
L 370.004637 238.142177 
L 370.988439 240.195137 
L 371.972241 243.373873 
L 372.956043 244.979589 
L 373.939844 247.184988 
L 374.923646 250.724445 
L 375.907448 253.601101 
L 376.89125 255.484415 
L 377.875051 258.565608 
L 378.858853 260.283383 
L 379.842655 261.707169 
L 380.826457 263.825386 
L 381.810258 264.930005 
L 382.79406 266.948281 
L 383.777862 270.670537 
L 384.761664 272.514491 
L 385.745465 275.236059 
L 387.713069 279.946161 
L 389.680672 282.841815 
L 390.664474 284.589492 
L 391.648276 286.685262 
L 392.632078 289.681698 
L 394.599681 292.158163 
L 395.583483 292.730222 
L 396.567285 293.557083 
L 397.551086 295.73499 
L 398.534888 297.4499 
L 399.51869 298.876595 
L 400.502492 300.619459 
L 401.486293 302.719679 
L 402.470095 303.189367 
L 403.453897 304.050739 
L 404.437699 306.079732 
L 405.4215 307.738919 
L 410.340509 317.11567 
L 411.324311 318.319735 
L 412.308113 320.836951 
L 413.291914 321.602822 
L 414.275716 322.654136 
L 415.259518 323.475722 
L 416.24332 324.7767 
L 417.227121 326.524776 
L 418.210923 328.505656 
L 419.194725 329.359722 
L 421.162328 332.508343 
L 422.14613 333.795539 
L 423.129932 334.220813 
L 424.113734 334.514056 
L 424.113734 334.514056 
" clip-path="url(#p1e95f75625)" style="fill: none; stroke-dasharray: 1,1.65; stroke-dashoffset: 0; stroke: #ffa500"/>
   </g>
   <g id="patch_3">
    <path d="M 115.2 388.9656 
L 115.2 52.4448 
" style="fill: none; stroke: #000000; stroke-width: 0.8; stroke-linejoin: miter; stroke-linecap: square"/>
   </g>
   <g id="patch_4">
    <path d="M 439.854545 388.9656 
L 439.854545 52.4448 
" style="fill: none; stroke: #000000; stroke-width: 0.8; stroke-linejoin: miter; stroke-linecap: square"/>
   </g>
   <g id="patch_5">
    <path d="M 115.2 388.9656 
L 439.854545 388.9656 
" style="fill: none; stroke: #000000; stroke-width: 0.8; stroke-linejoin: miter; stroke-linecap: square"/>
   </g>
   <g id="patch_6">
    <path d="M 115.2 52.4448 
L 439.854545 52.4448 
" style="fill: none; stroke: #000000; stroke-width: 0.8; stroke-linejoin: miter; stroke-linecap: square"/>
   </g>
   <g id="text_14">
    <!-- lambda=0 -->
    <g transform="translate(246.198835 46.4448)scale(0.12 -0.12)">
     <defs>
      <path id="DejaVuSans-6c" d="M 603 4863 
L 1178 4863 
L 1178 0 
L 603 0 
L 603 4863 
z
" transform="scale(0.015625)"/>
      <path id="DejaVuSans-61" d="M 2194 1759 
Q 1497 1759 1228 1600 
Q 959 1441 959 1056 
Q 959 750 1161 570 
Q 1363 391 1709 391 
Q 2188 391 2477 730 
Q 2766 1069 2766 1631 
L 2766 1759 
L 2194 1759 
z
M 3341 1997 
L 3341 0 
L 2766 0 
L 2766 531 
Q 2569 213 2275 61 
Q 1981 -91 1556 -91 
Q 1019 -91 701 211 
Q 384 513 384 1019 
Q 384 1609 779 1909 
Q 1175 2209 1959 2209 
L 2766 2209 
L 2766 2266 
Q 2766 2663 2505 2880 
Q 2244 3097 1772 3097 
Q 1472 3097 1187 3025 
Q 903 2953 641 2809 
L 641 3341 
Q 956 3463 1253 3523 
Q 1550 3584 1831 3584 
Q 2591 3584 2966 3190 
Q 3341 2797 3341 1997 
z
" transform="scale(0.015625)"/>
      <path id="DejaVuSans-6d" d="M 3328 2828 
Q 3544 3216 3844 3400 
Q 4144 3584 4550 3584 
Q 5097 3584 5394 3201 
Q 5691 2819 5691 2113 
L 5691 0 
L 5113 0 
L 5113 2094 
Q 5113 2597 4934 2840 
Q 4756 3084 4391 3084 
Q 3944 3084 3684 2787 
Q 3425 2491 3425 1978 
L 3425 0 
L 2847 0 
L 2847 2094 
Q 2847 2600 2669 2842 
Q 2491 3084 2119 3084 
Q 1678 3084 1418 2786 
Q 1159 2488 1159 1978 
L 1159 0 
L 581 0 
L 581 3500 
L 1159 3500 
L 1159 2956 
Q 1356 3278 1631 3431 
Q 1906 3584 2284 3584 
Q 2666 3584 2933 3390 
Q 3200 3197 3328 2828 
z
" transform="scale(0.015625)"/>
      <path id="DejaVuSans-62" d="M 3116 1747 
Q 3116 2381 2855 2742 
Q 2594 3103 2138 3103 
Q 1681 3103 1420 2742 
Q 1159 2381 1159 1747 
Q 1159 1113 1420 752 
Q 1681 391 2138 391 
Q 2594 391 2855 752 
Q 3116 1113 3116 1747 
z
M 1159 2969 
Q 1341 3281 1617 3432 
Q 1894 3584 2278 3584 
Q 2916 3584 3314 3078 
Q 3713 2572 3713 1747 
Q 3713 922 3314 415 
Q 2916 -91 2278 -91 
Q 1894 -91 1617 61 
Q 1341 213 1159 525 
L 1159 0 
L 581 0 
L 581 4863 
L 1159 4863 
L 1159 2969 
z
" transform="scale(0.015625)"/>
      <path id="DejaVuSans-64" d="M 2906 2969 
L 2906 4863 
L 3481 4863 
L 3481 0 
L 2906 0 
L 2906 525 
Q 2725 213 2448 61 
Q 2172 -91 1784 -91 
Q 1150 -91 751 415 
Q 353 922 353 1747 
Q 353 2572 751 3078 
Q 1150 3584 1784 3584 
Q 2172 3584 2448 3432 
Q 2725 3281 2906 2969 
z
M 947 1747 
Q 947 1113 1208 752 
Q 1469 391 1925 391 
Q 2381 391 2643 752 
Q 2906 1113 2906 1747 
Q 2906 2381 2643 2742 
Q 2381 3103 1925 3103 
Q 1469 3103 1208 2742 
Q 947 2381 947 1747 
z
" transform="scale(0.015625)"/>
      <path id="DejaVuSans-3d" d="M 678 2906 
L 4684 2906 
L 4684 2381 
L 678 2381 
L 678 2906 
z
M 678 1631 
L 4684 1631 
L 4684 1100 
L 678 1100 
L 678 1631 
z
" transform="scale(0.015625)"/>
     </defs>
     <use xlink:href="#DejaVuSans-6c"/>
     <use xlink:href="#DejaVuSans-61" x="27.783203"/>
     <use xlink:href="#DejaVuSans-6d" x="89.0625"/>
     <use xlink:href="#DejaVuSans-62" x="186.474609"/>
     <use xlink:href="#DejaVuSans-64" x="249.951172"/>
     <use xlink:href="#DejaVuSans-61" x="313.427734"/>
     <use xlink:href="#DejaVuSans-3d" x="374.707031"/>
     <use xlink:href="#DejaVuSans-30" x="458.496094"/>
    </g>
   </g>
   <g id="legend_1">
    <g id="patch_7">
     <path d="M 379.62017 383.9656 
L 432.854545 383.9656 
Q 434.854545 383.9656 434.854545 381.9656 
L 434.854545 309.574975 
Q 434.854545 307.574975 432.854545 307.574975 
L 379.62017 307.574975 
Q 377.62017 307.574975 377.62017 309.574975 
L 377.62017 381.9656 
Q 377.62017 383.9656 379.62017 383.9656 
z
" style="fill: #ffffff; opacity: 0.8; stroke: #cccccc; stroke-linejoin: miter"/>
    </g>
    <g id="line2d_23">
     <path d="M 381.62017 315.673413 
L 391.62017 315.673413 
L 401.62017 315.673413 
" style="fill: none; stroke-dasharray: 7.4,3.2; stroke-dashoffset: 0; stroke: #ff0000; stroke-width: 2"/>
    </g>
    <g id="text_15">
     <!-- True -->
     <g transform="translate(409.62017 319.173413)scale(0.1 -0.1)">
      <defs>
       <path id="DejaVuSans-54" d="M -19 4666 
L 3928 4666 
L 3928 4134 
L 2272 4134 
L 2272 0 
L 1638 0 
L 1638 4134 
L -19 4134 
L -19 4666 
z
" transform="scale(0.015625)"/>
       <path id="DejaVuSans-72" d="M 2631 2963 
Q 2534 3019 2420 3045 
Q 2306 3072 2169 3072 
Q 1681 3072 1420 2755 
Q 1159 2438 1159 1844 
L 1159 0 
L 581 0 
L 581 3500 
L 1159 3500 
L 1159 2956 
Q 1341 3275 1631 3429 
Q 1922 3584 2338 3584 
Q 2397 3584 2469 3576 
Q 2541 3569 2628 3553 
L 2631 2963 
z
" transform="scale(0.015625)"/>
       <path id="DejaVuSans-75" d="M 544 1381 
L 544 3500 
L 1119 3500 
L 1119 1403 
Q 1119 906 1312 657 
Q 1506 409 1894 409 
Q 2359 409 2629 706 
Q 2900 1003 2900 1516 
L 2900 3500 
L 3475 3500 
L 3475 0 
L 2900 0 
L 2900 538 
Q 2691 219 2414 64 
Q 2138 -91 1772 -91 
Q 1169 -91 856 284 
Q 544 659 544 1381 
z
M 1991 3584 
L 1991 3584 
z
" transform="scale(0.015625)"/>
       <path id="DejaVuSans-65" d="M 3597 1894 
L 3597 1613 
L 953 1613 
Q 991 1019 1311 708 
Q 1631 397 2203 397 
Q 2534 397 2845 478 
Q 3156 559 3463 722 
L 3463 178 
Q 3153 47 2828 -22 
Q 2503 -91 2169 -91 
Q 1331 -91 842 396 
Q 353 884 353 1716 
Q 353 2575 817 3079 
Q 1281 3584 2069 3584 
Q 2775 3584 3186 3129 
Q 3597 2675 3597 1894 
z
M 3022 2063 
Q 3016 2534 2758 2815 
Q 2500 3097 2075 3097 
Q 1594 3097 1305 2825 
Q 1016 2553 972 2059 
L 3022 2063 
z
" transform="scale(0.015625)"/>
      </defs>
      <use xlink:href="#DejaVuSans-54"/>
      <use xlink:href="#DejaVuSans-72" x="46.333984"/>
      <use xlink:href="#DejaVuSans-75" x="87.447266"/>
      <use xlink:href="#DejaVuSans-65" x="150.826172"/>
     </g>
    </g>
    <g id="line2d_24">
     <path d="M 381.62017 330.351538 
L 391.62017 330.351538 
L 401.62017 330.351538 
" style="fill: none; stroke: #0000ff; stroke-linecap: square"/>
    </g>
    <g id="text_16">
     <!-- 0.1 -->
     <g transform="translate(409.62017 333.851538)scale(0.1 -0.1)">
      <use xlink:href="#DejaVuSans-30"/>
      <use xlink:href="#DejaVuSans-2e" x="63.623047"/>
      <use xlink:href="#DejaVuSans-31" x="95.410156"/>
     </g>
    </g>
    <g id="line2d_25">
     <path d="M 381.62017 345.029663 
L 391.62017 345.029663 
L 401.62017 345.029663 
" style="fill: none; stroke: #ff00ff; stroke-linecap: square"/>
    </g>
    <g id="text_17">
     <!-- 1 -->
     <g transform="translate(409.62017 348.529663)scale(0.1 -0.1)">
      <use xlink:href="#DejaVuSans-31"/>
     </g>
    </g>
    <g id="line2d_26">
     <path d="M 381.62017 359.707787 
L 391.62017 359.707787 
L 401.62017 359.707787 
" style="fill: none; stroke: #008000; stroke-linecap: square"/>
    </g>
    <g id="text_18">
     <!-- 10 -->
     <g transform="translate(409.62017 363.207787)scale(0.1 -0.1)">
      <use xlink:href="#DejaVuSans-31"/>
      <use xlink:href="#DejaVuSans-30" x="63.623047"/>
     </g>
    </g>
    <g id="line2d_27">
     <path d="M 381.62017 374.385913 
L 391.62017 374.385913 
L 401.62017 374.385913 
" style="fill: none; stroke: #ffa500; stroke-linecap: square"/>
    </g>
    <g id="text_19">
     <!-- inf -->
     <g transform="translate(409.62017 377.885913)scale(0.1 -0.1)">
      <defs>
       <path id="DejaVuSans-69" d="M 603 3500 
L 1178 3500 
L 1178 0 
L 603 0 
L 603 3500 
z
M 603 4863 
L 1178 4863 
L 1178 4134 
L 603 4134 
L 603 4863 
z
" transform="scale(0.015625)"/>
       <path id="DejaVuSans-6e" d="M 3513 2113 
L 3513 0 
L 2938 0 
L 2938 2094 
Q 2938 2591 2744 2837 
Q 2550 3084 2163 3084 
Q 1697 3084 1428 2787 
Q 1159 2491 1159 1978 
L 1159 0 
L 581 0 
L 581 3500 
L 1159 3500 
L 1159 2956 
Q 1366 3272 1645 3428 
Q 1925 3584 2291 3584 
Q 2894 3584 3203 3211 
Q 3513 2838 3513 2113 
z
" transform="scale(0.015625)"/>
       <path id="DejaVuSans-66" d="M 2375 4863 
L 2375 4384 
L 1825 4384 
Q 1516 4384 1395 4259 
Q 1275 4134 1275 3809 
L 1275 3500 
L 2222 3500 
L 2222 3053 
L 1275 3053 
L 1275 0 
L 697 0 
L 697 3053 
L 147 3053 
L 147 3500 
L 697 3500 
L 697 3744 
Q 697 4328 969 4595 
Q 1241 4863 1831 4863 
L 2375 4863 
z
" transform="scale(0.015625)"/>
      </defs>
      <use xlink:href="#DejaVuSans-69"/>
      <use xlink:href="#DejaVuSans-6e" x="27.783203"/>
      <use xlink:href="#DejaVuSans-66" x="91.162109"/>
     </g>
    </g>
   </g>
  </g>
  <g id="axes_2">
   <g id="patch_8">
    <path d="M 504.785455 388.9656 
L 829.44 388.9656 
L 829.44 52.4448 
L 504.785455 52.4448 
z
" style="fill: #ffffff"/>
   </g>
   <g id="matplotlib.axis_3">
    <g id="xtick_8">
     <g id="line2d_28">
      <g>
       <use xlink:href="#m16877b109b" x="519.542479" y="388.9656" style="stroke: #000000; stroke-width: 0.8"/>
      </g>
     </g>
     <g id="text_20">
      <!-- −1.5 -->
      <g transform="translate(507.401073 403.564038)scale(0.1 -0.1)">
       <use xlink:href="#DejaVuSans-2212"/>
       <use xlink:href="#DejaVuSans-31" x="83.789062"/>
       <use xlink:href="#DejaVuSans-2e" x="147.412109"/>
       <use xlink:href="#DejaVuSans-35" x="179.199219"/>
      </g>
     </g>
    </g>
    <g id="xtick_9">
     <g id="line2d_29">
      <g>
       <use xlink:href="#m16877b109b" x="568.732562" y="388.9656" style="stroke: #000000; stroke-width: 0.8"/>
      </g>
     </g>
     <g id="text_21">
      <!-- −1.0 -->
      <g transform="translate(556.591156 403.564038)scale(0.1 -0.1)">
       <use xlink:href="#DejaVuSans-2212"/>
       <use xlink:href="#DejaVuSans-31" x="83.789062"/>
       <use xlink:href="#DejaVuSans-2e" x="147.412109"/>
       <use xlink:href="#DejaVuSans-30" x="179.199219"/>
      </g>
     </g>
    </g>
    <g id="xtick_10">
     <g id="line2d_30">
      <g>
       <use xlink:href="#m16877b109b" x="617.922645" y="388.9656" style="stroke: #000000; stroke-width: 0.8"/>
      </g>
     </g>
     <g id="text_22">
      <!-- −0.5 -->
      <g transform="translate(605.781238 403.564038)scale(0.1 -0.1)">
       <use xlink:href="#DejaVuSans-2212"/>
       <use xlink:href="#DejaVuSans-30" x="83.789062"/>
       <use xlink:href="#DejaVuSans-2e" x="147.412109"/>
       <use xlink:href="#DejaVuSans-35" x="179.199219"/>
      </g>
     </g>
    </g>
    <g id="xtick_11">
     <g id="line2d_31">
      <g>
       <use xlink:href="#m16877b109b" x="667.112727" y="388.9656" style="stroke: #000000; stroke-width: 0.8"/>
      </g>
     </g>
     <g id="text_23">
      <!-- 0.0 -->
      <g transform="translate(659.161165 403.564038)scale(0.1 -0.1)">
       <use xlink:href="#DejaVuSans-30"/>
       <use xlink:href="#DejaVuSans-2e" x="63.623047"/>
       <use xlink:href="#DejaVuSans-30" x="95.410156"/>
      </g>
     </g>
    </g>
    <g id="xtick_12">
     <g id="line2d_32">
      <g>
       <use xlink:href="#m16877b109b" x="716.30281" y="388.9656" style="stroke: #000000; stroke-width: 0.8"/>
      </g>
     </g>
     <g id="text_24">
      <!-- 0.5 -->
      <g transform="translate(708.351247 403.564038)scale(0.1 -0.1)">
       <use xlink:href="#DejaVuSans-30"/>
       <use xlink:href="#DejaVuSans-2e" x="63.623047"/>
       <use xlink:href="#DejaVuSans-35" x="95.410156"/>
      </g>
     </g>
    </g>
    <g id="xtick_13">
     <g id="line2d_33">
      <g>
       <use xlink:href="#m16877b109b" x="765.492893" y="388.9656" style="stroke: #000000; stroke-width: 0.8"/>
      </g>
     </g>
     <g id="text_25">
      <!-- 1.0 -->
      <g transform="translate(757.54133 403.564038)scale(0.1 -0.1)">
       <use xlink:href="#DejaVuSans-31"/>
       <use xlink:href="#DejaVuSans-2e" x="63.623047"/>
       <use xlink:href="#DejaVuSans-30" x="95.410156"/>
      </g>
     </g>
    </g>
    <g id="xtick_14">
     <g id="line2d_34">
      <g>
       <use xlink:href="#m16877b109b" x="814.682975" y="388.9656" style="stroke: #000000; stroke-width: 0.8"/>
      </g>
     </g>
     <g id="text_26">
      <!-- 1.5 -->
      <g transform="translate(806.731413 403.564038)scale(0.1 -0.1)">
       <use xlink:href="#DejaVuSans-31"/>
       <use xlink:href="#DejaVuSans-2e" x="63.623047"/>
       <use xlink:href="#DejaVuSans-35" x="95.410156"/>
      </g>
     </g>
    </g>
   </g>
   <g id="matplotlib.axis_4">
    <g id="ytick_7">
     <g id="line2d_35">
      <g>
       <use xlink:href="#m99df1cf93e" x="504.785455" y="373.6692" style="stroke: #000000; stroke-width: 0.8"/>
      </g>
     </g>
    </g>
    <g id="ytick_8">
     <g id="line2d_36">
      <g>
       <use xlink:href="#m99df1cf93e" x="504.785455" y="312.4836" style="stroke: #000000; stroke-width: 0.8"/>
      </g>
     </g>
    </g>
    <g id="ytick_9">
     <g id="line2d_37">
      <g>
       <use xlink:href="#m99df1cf93e" x="504.785455" y="251.298" style="stroke: #000000; stroke-width: 0.8"/>
      </g>
     </g>
    </g>
    <g id="ytick_10">
     <g id="line2d_38">
      <g>
       <use xlink:href="#m99df1cf93e" x="504.785455" y="190.1124" style="stroke: #000000; stroke-width: 0.8"/>
      </g>
     </g>
    </g>
    <g id="ytick_11">
     <g id="line2d_39">
      <g>
       <use xlink:href="#m99df1cf93e" x="504.785455" y="128.9268" style="stroke: #000000; stroke-width: 0.8"/>
      </g>
     </g>
    </g>
    <g id="ytick_12">
     <g id="line2d_40">
      <g>
       <use xlink:href="#m99df1cf93e" x="504.785455" y="67.7412" style="stroke: #000000; stroke-width: 0.8"/>
      </g>
     </g>
    </g>
   </g>
   <g id="line2d_41">
    <path d="M 519.542479 373.499996 
L 538.234711 373.231688 
L 551.024132 372.831127 
L 559.878347 372.35484 
L 567.74876 371.708405 
L 573.65157 371.022404 
L 579.55438 370.096399 
L 584.473388 369.081633 
L 588.408595 368.065933 
L 592.343802 366.825355 
L 596.279008 365.310108 
L 599.230413 363.957321 
L 602.181818 362.385606 
L 605.133223 360.559535 
L 608.084628 358.437942 
L 611.036033 355.973003 
L 613.987438 353.109152 
L 615.955041 350.946833 
L 617.922645 348.557101 
L 619.890248 345.916038 
L 621.857851 342.997212 
L 623.825455 339.771411 
L 625.793058 336.20635 
L 627.760661 332.266347 
L 629.728264 327.911971 
L 631.695868 323.099642 
L 633.663471 317.781195 
L 635.631074 311.903402 
L 637.598678 305.407436 
L 639.566281 298.228284 
L 641.533884 290.294094 
L 643.501488 281.525457 
L 645.469091 271.834615 
L 647.436694 261.124578 
L 649.404298 249.288157 
L 651.371901 236.206889 
L 653.339504 221.749851 
L 655.307107 205.772354 
L 657.274711 188.114488 
L 659.242314 168.599529 
L 661.209917 147.032163 
L 663.177521 123.196538 
L 665.145124 96.854098 
L 667.112727 67.7412 
L 671.047934 82.661485 
L 674.98314 96.854098 
L 678.918347 110.35453 
L 682.853554 123.196538 
L 686.78876 135.412234 
L 690.723967 147.032163 
L 694.659174 158.085382 
L 698.59438 168.599529 
L 702.529587 178.600895 
L 706.464793 188.114488 
L 711.383802 199.35668 
L 716.30281 209.917742 
L 721.221818 219.838941 
L 726.140826 229.159045 
L 731.059835 237.914473 
L 735.978843 246.139436 
L 740.897851 253.866074 
L 745.81686 261.124578 
L 750.735868 267.943312 
L 755.654876 274.34892 
L 760.573884 280.366432 
L 765.492893 286.019361 
L 770.411901 291.329796 
L 775.330909 296.318488 
L 780.249917 301.004931 
L 785.168926 305.407436 
L 790.087934 309.543208 
L 795.006942 313.428405 
L 800.909752 317.781195 
L 806.812562 321.819467 
L 812.715372 325.565948 
L 813.699174 326.163496 
L 813.699174 326.163496 
" clip-path="url(#p05673bc5e7)" style="fill: none; stroke-dasharray: 7.4,3.2; stroke-dashoffset: 0; stroke: #ff0000; stroke-width: 2"/>
   </g>
   <g id="line2d_42">
    <path d="M 519.542479 381.495157 
L 523.477686 381.511987 
L 552.991736 381.531137 
L 563.813554 381.022645 
L 569.716364 380.476596 
L 574.635372 379.822039 
L 579.55438 378.92704 
L 585.45719 377.541949 
L 589.392397 376.396036 
L 593.327603 375.007425 
L 596.279008 373.762652 
L 599.230413 372.33174 
L 602.181818 370.673361 
L 605.133223 368.720086 
L 608.084628 366.43031 
L 611.036033 363.749258 
L 613.987438 360.638502 
L 616.938843 357.108852 
L 618.906446 354.462012 
L 620.87405 351.525546 
L 622.841653 348.278067 
L 624.809256 344.697357 
L 626.77686 340.738338 
L 628.744463 336.381387 
L 630.712066 331.578579 
L 632.679669 326.273635 
L 634.647273 320.394871 
L 636.614876 313.889868 
L 638.582479 306.696801 
L 640.550083 298.754321 
L 642.517686 289.995569 
L 644.485289 280.347475 
L 646.452893 269.696384 
L 648.420496 257.911965 
L 650.388099 244.871788 
L 652.355702 230.444982 
L 654.323306 214.488671 
L 656.290909 196.858467 
L 658.258512 177.372716 
L 660.226116 155.866954 
L 662.193719 132.117891 
L 664.161322 105.897856 
L 666.128926 76.951333 
L 667.112727 67.7412 
L 669.080331 75.321147 
L 673.015537 90.738504 
L 676.950744 105.391674 
L 680.88595 119.327351 
L 684.821157 132.581762 
L 688.756364 145.175541 
L 692.69157 157.139621 
L 696.626777 168.502009 
L 700.561983 179.288261 
L 704.49719 189.536133 
L 708.432397 199.2786 
L 712.367603 208.534886 
L 717.286612 219.469144 
L 721.221818 227.717422 
L 726.140826 237.475087 
L 730.076033 244.820991 
L 734.995041 253.470036 
L 739.91405 261.61864 
L 743.849256 267.780187 
L 748.768264 275.043787 
L 753.687273 281.910861 
L 758.606281 288.356779 
L 763.525289 294.397273 
L 768.444298 300.063552 
L 773.363306 305.338617 
L 778.282314 310.294843 
L 784.185124 315.862316 
L 789.104132 320.169518 
L 794.02314 324.202376 
L 798.942149 327.973869 
L 805.82876 332.871856 
L 810.747769 336.066042 
L 814.682975 338.454779 
L 814.682975 338.454779 
" clip-path="url(#p05673bc5e7)" style="fill: none; stroke: #0000ff; stroke-linecap: square"/>
   </g>
   <g id="line2d_43">
    <path d="M 519.542479 357.652971 
L 520.526281 357.743874 
L 523.477686 357.549567 
L 525.445289 357.611785 
L 529.380496 358.078986 
L 530.364298 358.21319 
L 532.331901 358.249291 
L 534.299504 357.969974 
L 538.234711 357.181914 
L 541.186116 356.818365 
L 544.137521 356.438116 
L 546.105124 356.111706 
L 548.072727 355.951047 
L 550.040331 355.984345 
L 552.991736 356.25047 
L 554.959339 356.564795 
L 558.894545 356.904727 
L 560.862149 357.126209 
L 563.813554 357.77754 
L 567.74876 358.900114 
L 569.716364 359.682734 
L 572.667769 361.05797 
L 575.619174 362.704014 
L 578.570579 364.621105 
L 582.505785 367.365323 
L 587.424793 370.337753 
L 590.376198 371.920095 
L 592.343802 372.782086 
L 594.311405 373.398028 
L 596.279008 373.666549 
L 597.26281 373.630038 
L 598.246612 373.457109 
L 599.230413 373.125274 
L 600.214215 372.613182 
L 601.198017 371.89322 
L 602.181818 370.933514 
L 603.16562 369.703753 
L 604.149421 368.170895 
L 605.133223 366.305446 
L 606.117025 364.078945 
L 607.100826 361.464078 
L 608.084628 358.442361 
L 609.06843 354.985653 
L 611.036033 346.762796 
L 613.003636 336.686188 
L 613.987438 330.922135 
L 615.955041 317.337431 
L 617.922645 301.096344 
L 619.890248 282.823795 
L 622.841653 252.934999 
L 630.712066 170.381033 
L 632.679669 152.380575 
L 634.647273 136.697767 
L 636.614876 123.340534 
L 638.582479 112.104862 
L 640.550083 102.803021 
L 642.517686 94.937837 
L 644.485289 88.260575 
L 645.469091 85.361356 
L 646.452893 82.80816 
L 647.436694 80.569513 
L 648.420496 78.620403 
L 649.404298 76.928356 
L 650.388099 75.468258 
L 652.355702 73.125383 
L 654.323306 71.400673 
L 656.290909 70.123783 
L 658.258512 69.222338 
L 660.226116 68.580411 
L 662.193719 68.163108 
L 664.161322 67.925849 
L 668.096529 67.744468 
L 687.772562 67.860511 
L 698.59438 68.109563 
L 707.448595 68.555867 
L 715.319008 69.162185 
L 720.238017 69.673022 
L 728.10843 70.747494 
L 732.043636 71.57238 
L 735.978843 72.622162 
L 743.849256 74.916371 
L 751.719669 78.025104 
L 755.654876 79.528843 
L 760.573884 81.653355 
L 765.492893 84.281575 
L 768.444298 86.089355 
L 770.411901 87.51982 
L 772.379504 89.200893 
L 782.217521 98.713042 
L 784.185124 100.832455 
L 791.071736 109.547153 
L 795.006942 115.527406 
L 796.974545 118.785355 
L 798.942149 122.579096 
L 800.909752 126.53439 
L 804.844959 134.345884 
L 806.812562 138.942761 
L 808.780165 143.983415 
L 810.747769 149.795759 
L 812.715372 155.92356 
L 814.682975 161.544539 
L 814.682975 161.544539 
" clip-path="url(#p05673bc5e7)" style="fill: none; stroke-dasharray: 1,1.65; stroke-dashoffset: 0; stroke: #0000ff"/>
   </g>
   <g id="line2d_44">
    <path d="M 519.542479 378.563727 
L 525.445289 377.717714 
L 532.331901 376.66712 
L 545.121322 374.480717 
L 553.975537 372.467872 
L 562.829752 370.003981 
L 565.781157 369.032636 
L 571.683967 366.703579 
L 578.570579 363.636595 
L 582.505785 361.5868 
L 586.440992 359.39547 
L 590.376198 356.892793 
L 594.311405 354.053291 
L 597.26281 351.685585 
L 600.214215 349.048997 
L 603.16562 346.19504 
L 606.117025 343.044197 
L 609.06843 339.566573 
L 612.019835 335.679938 
L 614.97124 331.385082 
L 617.922645 326.585691 
L 620.87405 321.204973 
L 623.825455 315.201265 
L 626.77686 308.521102 
L 628.744463 303.601698 
L 631.695868 295.442016 
L 633.663471 289.476257 
L 635.631074 283.03817 
L 637.598678 276.002482 
L 640.550083 264.344655 
L 642.517686 255.843246 
L 644.485289 246.636338 
L 646.452893 236.644602 
L 648.420496 225.805562 
L 650.388099 214.058645 
L 652.355702 201.341022 
L 654.323306 187.548165 
L 656.290909 172.525983 
L 658.258512 156.206088 
L 660.226116 138.437488 
L 662.193719 119.127352 
L 664.161322 98.125576 
L 666.128926 75.270246 
L 667.112727 67.7412 
L 668.096529 71.434992 
L 672.031736 88.332314 
L 675.966942 104.371829 
L 679.902149 119.580198 
L 683.837355 133.988064 
L 687.772562 147.627935 
L 691.707769 160.542308 
L 695.642975 172.738762 
L 699.578182 184.324994 
L 703.513388 195.257373 
L 707.448595 205.611529 
L 711.383802 215.446604 
L 715.319008 224.74578 
L 719.254215 233.528833 
L 723.189421 241.816412 
L 728.10843 251.607827 
L 732.043636 258.943754 
L 735.978843 265.872258 
L 740.897851 274.072375 
L 744.833058 280.25756 
L 748.768264 286.091688 
L 752.703471 291.589059 
L 757.622479 298.034229 
L 761.557686 302.850969 
L 765.492893 307.331919 
L 770.411901 312.588558 
L 775.330909 317.531968 
L 779.266116 321.246925 
L 784.185124 325.56647 
L 790.087934 330.405081 
L 796.974545 335.704527 
L 801.893554 339.111891 
L 808.780165 343.505992 
L 813.699174 346.434792 
L 814.682975 346.986451 
L 814.682975 346.986451 
" clip-path="url(#p05673bc5e7)" style="fill: none; stroke: #ff00ff; stroke-linecap: square"/>
   </g>
   <g id="line2d_45">
    <path d="M 519.542479 372.197167 
L 525.445289 372.675579 
L 537.250909 373.375897 
L 547.088926 373.660169 
L 552.991736 373.618006 
L 557.910744 373.377817 
L 562.829752 372.913192 
L 565.781157 372.46938 
L 569.716364 371.601918 
L 572.667769 370.729425 
L 575.619174 369.682168 
L 578.570579 368.395711 
L 580.538182 367.366302 
L 583.489587 365.540517 
L 585.45719 364.161491 
L 587.424793 362.575522 
L 589.392397 360.775295 
L 591.36 358.717814 
L 593.327603 356.411423 
L 595.295207 353.836911 
L 597.26281 350.942145 
L 599.230413 347.672423 
L 601.198017 344.045449 
L 603.16562 340.000963 
L 605.133223 335.468732 
L 607.100826 330.436686 
L 609.06843 324.867665 
L 611.036033 318.670649 
L 613.003636 311.813023 
L 614.97124 304.261463 
L 616.938843 296.047436 
L 618.906446 286.990355 
L 621.857851 271.975678 
L 624.809256 255.428392 
L 627.760661 237.261057 
L 631.695868 211.548166 
L 638.582479 165.203384 
L 642.517686 140.415816 
L 645.469091 123.391796 
L 647.436694 113.210594 
L 649.404298 103.994769 
L 651.371901 95.791703 
L 653.339504 88.616003 
L 655.307107 82.584232 
L 657.274711 77.658026 
L 658.258512 75.597043 
L 659.242314 73.808567 
L 660.226116 72.263356 
L 661.209917 70.960555 
L 662.193719 69.896628 
L 663.177521 69.059483 
L 664.161322 68.442886 
L 665.145124 68.036699 
L 667.112727 67.7412 
L 673.999339 67.888581 
L 678.918347 68.204296 
L 683.837355 68.741666 
L 687.772562 69.365667 
L 691.707769 70.194417 
L 694.659174 70.997754 
L 699.578182 72.640828 
L 702.529587 73.87319 
L 705.480992 75.317853 
L 709.416198 77.505956 
L 712.367603 79.398308 
L 715.319008 81.566134 
L 718.270413 84.024194 
L 721.221818 86.85973 
L 725.157025 91.10453 
L 728.10843 94.563995 
L 731.059835 98.454257 
L 734.01124 102.830975 
L 736.962645 107.620401 
L 739.91405 112.812063 
L 742.865455 118.306518 
L 745.81686 124.291304 
L 747.784463 128.564111 
L 751.719669 137.848141 
L 755.654876 148.144834 
L 759.590083 159.146265 
L 763.525289 171.042762 
L 778.282314 218.167169 
L 789.104132 253.867017 
L 793.039339 265.871849 
L 799.92595 285.506773 
L 803.861157 296.132693 
L 808.780165 308.470106 
L 811.73157 315.132457 
L 814.682975 321.398795 
L 814.682975 321.398795 
" clip-path="url(#p05673bc5e7)" style="fill: none; stroke-dasharray: 1,1.65; stroke-dashoffset: 0; stroke: #ff00ff"/>
   </g>
   <g id="line2d_46">
    <path d="M 519.542479 358.975556 
L 535.283306 353.2689 
L 543.153719 349.677019 
L 547.088926 347.729184 
L 552.991736 344.590285 
L 556.926942 342.278348 
L 561.84595 339.117988 
L 565.781157 336.299786 
L 572.667769 330.77489 
L 575.619174 328.082924 
L 579.55438 324.22291 
L 583.489587 320.159835 
L 587.424793 315.616753 
L 590.376198 311.822627 
L 594.311405 306.298206 
L 597.26281 301.750478 
L 601.198017 295.24063 
L 605.133223 288.277973 
L 609.06843 280.795553 
L 613.003636 272.684742 
L 616.938843 264.054761 
L 620.87405 254.7369 
L 623.825455 247.014319 
L 626.77686 238.708617 
L 629.728264 229.906455 
L 632.679669 220.475769 
L 635.631074 210.340838 
L 638.582479 199.601565 
L 641.533884 188.136678 
L 645.469091 171.750816 
L 648.420496 158.699656 
L 652.355702 140.10887 
L 657.274711 115.710149 
L 666.128926 70.926736 
L 667.112727 67.7412 
L 668.096529 70.213538 
L 673.015537 87.450398 
L 682.853554 121.974208 
L 687.772562 138.361434 
L 693.675372 157.338068 
L 697.610579 169.336785 
L 701.545785 180.715574 
L 706.464793 194.15431 
L 710.4 204.383887 
L 714.335207 213.93985 
L 719.254215 225.10798 
L 723.189421 233.554781 
L 727.124628 241.475923 
L 731.059835 248.861127 
L 735.978843 257.8031 
L 739.91405 264.488553 
L 745.81686 273.866515 
L 749.752066 279.68508 
L 755.654876 287.749475 
L 759.590083 292.78854 
L 765.492893 299.808175 
L 768.444298 303.053718 
L 773.363306 308.034253 
L 779.266116 313.446545 
L 784.185124 317.626403 
L 791.071736 323.354201 
L 795.990744 327.160859 
L 803.861157 332.802159 
L 808.780165 336.098109 
L 814.682975 339.79502 
L 814.682975 339.79502 
" clip-path="url(#p05673bc5e7)" style="fill: none; stroke: #008000; stroke-linecap: square"/>
   </g>
   <g id="line2d_47">
    <path d="M 519.542479 366.421672 
L 526.429091 363.963565 
L 530.364298 362.268176 
L 534.299504 360.415962 
L 537.250909 358.699263 
L 541.186116 356.04532 
L 544.137521 353.911105 
L 547.088926 351.455919 
L 551.024132 347.934053 
L 553.975537 345.000052 
L 556.926942 341.718222 
L 559.878347 338.122858 
L 561.84595 335.486029 
L 564.797355 331.157917 
L 567.74876 326.323294 
L 570.700165 321.203882 
L 573.65157 315.619391 
L 577.586777 307.420423 
L 580.538182 300.661546 
L 583.489587 293.431334 
L 586.440992 285.505327 
L 590.376198 273.983312 
L 594.311405 261.583247 
L 598.246612 248.152888 
L 602.181818 233.883456 
L 608.084628 211.558237 
L 620.87405 162.156958 
L 625.793058 144.145036 
L 629.728264 130.372759 
L 632.679669 120.640882 
L 635.631074 111.712971 
L 638.582479 103.472442 
L 641.533884 95.921764 
L 643.501488 91.42704 
L 645.469091 87.38384 
L 647.436694 83.740537 
L 649.404298 80.486837 
L 651.371901 77.657821 
L 653.339504 75.205975 
L 655.307107 73.095137 
L 657.274711 71.360009 
L 659.242314 70.005457 
L 661.209917 68.967414 
L 663.177521 68.24586 
L 665.145124 67.847397 
L 667.112727 67.7412 
L 671.047934 67.884156 
L 673.999339 68.203426 
L 676.950744 68.711438 
L 679.902149 69.401839 
L 682.853554 70.30061 
L 685.804959 71.436526 
L 688.756364 72.818854 
L 691.707769 74.436051 
L 694.659174 76.345887 
L 696.626777 77.79826 
L 699.578182 80.279526 
L 702.529587 83.137525 
L 705.480992 86.365457 
L 708.432397 89.935865 
L 711.383802 93.898732 
L 714.335207 98.241123 
L 717.286612 103.031927 
L 721.221818 109.927156 
L 724.173223 115.537785 
L 727.124628 121.560639 
L 730.076033 128.082412 
L 734.01124 137.285145 
L 737.946446 147.171168 
L 743.849256 162.794412 
L 750.735868 181.937051 
L 757.622479 201.566135 
L 767.460496 228.798374 
L 772.379504 242.419531 
L 778.282314 258.128069 
L 783.201322 270.466861 
L 792.055537 291.781226 
L 795.006942 298.307735 
L 798.942149 306.317066 
L 802.877355 313.856931 
L 806.812562 320.742722 
L 809.763967 325.557822 
L 814.682975 332.905405 
L 814.682975 332.905405 
" clip-path="url(#p05673bc5e7)" style="fill: none; stroke-dasharray: 1,1.65; stroke-dashoffset: 0; stroke: #008000"/>
   </g>
   <g id="line2d_48">
    <path d="M 520.526266 327.511646 
L 522.49387 326.321835 
L 525.445275 324.338182 
L 530.364284 320.523956 
L 533.315689 318.106333 
L 540.202301 312.070544 
L 544.137508 308.510477 
L 558.894535 294.230687 
L 564.797345 287.79723 
L 570.700156 280.865379 
L 575.619164 274.750686 
L 578.57057 270.708854 
L 582.505777 264.897815 
L 585.457182 260.22215 
L 589.392389 253.699222 
L 596.279001 241.820782 
L 600.214208 234.497215 
L 608.084622 218.666196 
L 613.003631 208.093913 
L 615.955036 201.328244 
L 619.890243 191.691067 
L 624.809252 179.194751 
L 631.695864 160.920281 
L 637.598675 144.512304 
L 643.501485 127.242175 
L 651.371899 103.556352 
L 656.290908 89.530762 
L 659.242313 81.764331 
L 661.209917 77.104096 
L 663.17752 72.980242 
L 665.145124 69.677456 
L 666.128926 68.458134 
L 667.112727 67.7412 
L 668.096529 68.44467 
L 669.080331 69.679998 
L 670.064133 71.235631 
L 672.031736 75.037804 
L 673.99934 79.439601 
L 676.950745 86.922314 
L 679.90215 95.187316 
L 683.837357 106.784994 
L 699.578185 154.696407 
L 704.497194 168.470892 
L 712.367608 189.204389 
L 717.286617 201.290663 
L 723.189427 214.812147 
L 727.124634 223.388536 
L 733.027445 235.642555 
L 736.962652 243.320572 
L 741.88166 252.310853 
L 744.833066 257.224965 
L 748.768273 263.419774 
L 754.671083 272.265964 
L 758.60629 277.75398 
L 765.492902 286.64449 
L 769.428109 291.409458 
L 777.298523 300.190722 
L 792.05555 315.041709 
L 795.006955 317.631952 
L 801.893567 323.11532 
L 805.828774 326.140726 
L 813.699188 331.819337 
L 813.699188 331.819337 
" clip-path="url(#p05673bc5e7)" style="fill: none; stroke: #ffa500; stroke-linecap: square"/>
   </g>
   <g id="line2d_49">
    <path d="M 520.526266 316.119356 
L 522.49387 313.645593 
L 524.461473 310.810675 
L 526.429077 307.661364 
L 532.331887 297.365242 
L 539.2185 284.46259 
L 541.186103 280.837621 
L 545.12131 273.007467 
L 553.975526 255.076937 
L 561.84594 236.835486 
L 571.683957 212.612939 
L 575.619164 202.40801 
L 584.47338 177.967423 
L 588.408587 167.336447 
L 594.311398 151.798976 
L 598.246605 142.095177 
L 606.117019 123.65416 
L 608.084622 119.363558 
L 613.003631 109.347731 
L 616.938838 101.919296 
L 619.890243 96.728943 
L 622.841648 92.079563 
L 625.793054 87.935943 
L 628.744459 84.197145 
L 630.712062 81.971019 
L 633.663468 79.140766 
L 636.614873 76.656387 
L 639.566278 74.516524 
L 642.517683 72.721202 
L 645.469089 71.254481 
L 648.420494 70.106409 
L 651.371899 69.211483 
L 654.323305 68.556992 
L 657.27471 68.128983 
L 661.209917 67.834522 
L 666.128926 67.742195 
L 673.015538 67.83567 
L 675.966943 68.043353 
L 678.918348 68.443552 
L 681.869754 69.060539 
L 684.821159 69.936442 
L 687.772564 71.047089 
L 690.723969 72.425885 
L 693.675375 74.13764 
L 696.62678 76.259837 
L 699.578185 78.696653 
L 701.545789 80.542453 
L 704.497194 83.620233 
L 707.448599 86.972862 
L 710.400004 90.656295 
L 713.35141 94.78721 
L 716.302815 99.372211 
L 719.25422 104.387373 
L 722.205625 109.922834 
L 727.124634 119.86839 
L 730.076039 126.496799 
L 734.011246 135.97022 
L 740.897859 153.680713 
L 746.800669 169.636747 
L 753.687281 187.97736 
L 781.23373 262.846069 
L 786.152739 275.379419 
L 791.071748 287.486452 
L 793.039351 292.108868 
L 795.990757 298.553762 
L 799.925964 306.382514 
L 803.861171 313.353767 
L 805.828774 316.465762 
L 811.731585 325.144982 
L 813.699188 327.607968 
L 813.699188 327.607968 
" clip-path="url(#p05673bc5e7)" style="fill: none; stroke-dasharray: 1,1.65; stroke-dashoffset: 0; stroke: #ffa500"/>
   </g>
   <g id="patch_9">
    <path d="M 504.785455 388.9656 
L 504.785455 52.4448 
" style="fill: none; stroke: #000000; stroke-width: 0.8; stroke-linejoin: miter; stroke-linecap: square"/>
   </g>
   <g id="patch_10">
    <path d="M 829.44 388.9656 
L 829.44 52.4448 
" style="fill: none; stroke: #000000; stroke-width: 0.8; stroke-linejoin: miter; stroke-linecap: square"/>
   </g>
   <g id="patch_11">
    <path d="M 504.785455 388.9656 
L 829.44 388.9656 
" style="fill: none; stroke: #000000; stroke-width: 0.8; stroke-linejoin: miter; stroke-linecap: square"/>
   </g>
   <g id="patch_12">
    <path d="M 504.785455 52.4448 
L 829.44 52.4448 
" style="fill: none; stroke: #000000; stroke-width: 0.8; stroke-linejoin: miter; stroke-linecap: square"/>
   </g>
   <g id="text_27">
    <!-- lambda=0.2 -->
    <g transform="translate(630.059915 46.4448)scale(0.12 -0.12)">
     <use xlink:href="#DejaVuSans-6c"/>
     <use xlink:href="#DejaVuSans-61" x="27.783203"/>
     <use xlink:href="#DejaVuSans-6d" x="89.0625"/>
     <use xlink:href="#DejaVuSans-62" x="186.474609"/>
     <use xlink:href="#DejaVuSans-64" x="249.951172"/>
     <use xlink:href="#DejaVuSans-61" x="313.427734"/>
     <use xlink:href="#DejaVuSans-3d" x="374.707031"/>
     <use xlink:href="#DejaVuSans-30" x="458.496094"/>
     <use xlink:href="#DejaVuSans-2e" x="522.119141"/>
     <use xlink:href="#DejaVuSans-32" x="553.90625"/>
    </g>
   </g>
  </g>
  <g id="text_28">
   <!-- Conditionally averaged waveforms with variance -->
   <g transform="translate(314.102813 17.858925)scale(0.12 -0.12)">
    <defs>
     <path id="DejaVuSans-43" d="M 4122 4306 
L 4122 3641 
Q 3803 3938 3442 4084 
Q 3081 4231 2675 4231 
Q 1875 4231 1450 3742 
Q 1025 3253 1025 2328 
Q 1025 1406 1450 917 
Q 1875 428 2675 428 
Q 3081 428 3442 575 
Q 3803 722 4122 1019 
L 4122 359 
Q 3791 134 3420 21 
Q 3050 -91 2638 -91 
Q 1578 -91 968 557 
Q 359 1206 359 2328 
Q 359 3453 968 4101 
Q 1578 4750 2638 4750 
Q 3056 4750 3426 4639 
Q 3797 4528 4122 4306 
z
" transform="scale(0.015625)"/>
     <path id="DejaVuSans-6f" d="M 1959 3097 
Q 1497 3097 1228 2736 
Q 959 2375 959 1747 
Q 959 1119 1226 758 
Q 1494 397 1959 397 
Q 2419 397 2687 759 
Q 2956 1122 2956 1747 
Q 2956 2369 2687 2733 
Q 2419 3097 1959 3097 
z
M 1959 3584 
Q 2709 3584 3137 3096 
Q 3566 2609 3566 1747 
Q 3566 888 3137 398 
Q 2709 -91 1959 -91 
Q 1206 -91 779 398 
Q 353 888 353 1747 
Q 353 2609 779 3096 
Q 1206 3584 1959 3584 
z
" transform="scale(0.015625)"/>
     <path id="DejaVuSans-74" d="M 1172 4494 
L 1172 3500 
L 2356 3500 
L 2356 3053 
L 1172 3053 
L 1172 1153 
Q 1172 725 1289 603 
Q 1406 481 1766 481 
L 2356 481 
L 2356 0 
L 1766 0 
Q 1100 0 847 248 
Q 594 497 594 1153 
L 594 3053 
L 172 3053 
L 172 3500 
L 594 3500 
L 594 4494 
L 1172 4494 
z
" transform="scale(0.015625)"/>
     <path id="DejaVuSans-79" d="M 2059 -325 
Q 1816 -950 1584 -1140 
Q 1353 -1331 966 -1331 
L 506 -1331 
L 506 -850 
L 844 -850 
Q 1081 -850 1212 -737 
Q 1344 -625 1503 -206 
L 1606 56 
L 191 3500 
L 800 3500 
L 1894 763 
L 2988 3500 
L 3597 3500 
L 2059 -325 
z
" transform="scale(0.015625)"/>
     <path id="DejaVuSans-20" transform="scale(0.015625)"/>
     <path id="DejaVuSans-76" d="M 191 3500 
L 800 3500 
L 1894 563 
L 2988 3500 
L 3597 3500 
L 2284 0 
L 1503 0 
L 191 3500 
z
" transform="scale(0.015625)"/>
     <path id="DejaVuSans-67" d="M 2906 1791 
Q 2906 2416 2648 2759 
Q 2391 3103 1925 3103 
Q 1463 3103 1205 2759 
Q 947 2416 947 1791 
Q 947 1169 1205 825 
Q 1463 481 1925 481 
Q 2391 481 2648 825 
Q 2906 1169 2906 1791 
z
M 3481 434 
Q 3481 -459 3084 -895 
Q 2688 -1331 1869 -1331 
Q 1566 -1331 1297 -1286 
Q 1028 -1241 775 -1147 
L 775 -588 
Q 1028 -725 1275 -790 
Q 1522 -856 1778 -856 
Q 2344 -856 2625 -561 
Q 2906 -266 2906 331 
L 2906 616 
Q 2728 306 2450 153 
Q 2172 0 1784 0 
Q 1141 0 747 490 
Q 353 981 353 1791 
Q 353 2603 747 3093 
Q 1141 3584 1784 3584 
Q 2172 3584 2450 3431 
Q 2728 3278 2906 2969 
L 2906 3500 
L 3481 3500 
L 3481 434 
z
" transform="scale(0.015625)"/>
     <path id="DejaVuSans-77" d="M 269 3500 
L 844 3500 
L 1563 769 
L 2278 3500 
L 2956 3500 
L 3675 769 
L 4391 3500 
L 4966 3500 
L 4050 0 
L 3372 0 
L 2619 2869 
L 1863 0 
L 1184 0 
L 269 3500 
z
" transform="scale(0.015625)"/>
     <path id="DejaVuSans-73" d="M 2834 3397 
L 2834 2853 
Q 2591 2978 2328 3040 
Q 2066 3103 1784 3103 
Q 1356 3103 1142 2972 
Q 928 2841 928 2578 
Q 928 2378 1081 2264 
Q 1234 2150 1697 2047 
L 1894 2003 
Q 2506 1872 2764 1633 
Q 3022 1394 3022 966 
Q 3022 478 2636 193 
Q 2250 -91 1575 -91 
Q 1294 -91 989 -36 
Q 684 19 347 128 
L 347 722 
Q 666 556 975 473 
Q 1284 391 1588 391 
Q 1994 391 2212 530 
Q 2431 669 2431 922 
Q 2431 1156 2273 1281 
Q 2116 1406 1581 1522 
L 1381 1569 
Q 847 1681 609 1914 
Q 372 2147 372 2553 
Q 372 3047 722 3315 
Q 1072 3584 1716 3584 
Q 2034 3584 2315 3537 
Q 2597 3491 2834 3397 
z
" transform="scale(0.015625)"/>
     <path id="DejaVuSans-68" d="M 3513 2113 
L 3513 0 
L 2938 0 
L 2938 2094 
Q 2938 2591 2744 2837 
Q 2550 3084 2163 3084 
Q 1697 3084 1428 2787 
Q 1159 2491 1159 1978 
L 1159 0 
L 581 0 
L 581 4863 
L 1159 4863 
L 1159 2956 
Q 1366 3272 1645 3428 
Q 1925 3584 2291 3584 
Q 2894 3584 3203 3211 
Q 3513 2838 3513 2113 
z
" transform="scale(0.015625)"/>
     <path id="DejaVuSans-63" d="M 3122 3366 
L 3122 2828 
Q 2878 2963 2633 3030 
Q 2388 3097 2138 3097 
Q 1578 3097 1268 2742 
Q 959 2388 959 1747 
Q 959 1106 1268 751 
Q 1578 397 2138 397 
Q 2388 397 2633 464 
Q 2878 531 3122 666 
L 3122 134 
Q 2881 22 2623 -34 
Q 2366 -91 2075 -91 
Q 1284 -91 818 406 
Q 353 903 353 1747 
Q 353 2603 823 3093 
Q 1294 3584 2113 3584 
Q 2378 3584 2631 3529 
Q 2884 3475 3122 3366 
z
" transform="scale(0.015625)"/>
    </defs>
    <use xlink:href="#DejaVuSans-43"/>
    <use xlink:href="#DejaVuSans-6f" x="69.824219"/>
    <use xlink:href="#DejaVuSans-6e" x="131.005859"/>
    <use xlink:href="#DejaVuSans-64" x="194.384766"/>
    <use xlink:href="#DejaVuSans-69" x="257.861328"/>
    <use xlink:href="#DejaVuSans-74" x="285.644531"/>
    <use xlink:href="#DejaVuSans-69" x="324.853516"/>
    <use xlink:href="#DejaVuSans-6f" x="352.636719"/>
    <use xlink:href="#DejaVuSans-6e" x="413.818359"/>
    <use xlink:href="#DejaVuSans-61" x="477.197266"/>
    <use xlink:href="#DejaVuSans-6c" x="538.476562"/>
    <use xlink:href="#DejaVuSans-6c" x="566.259766"/>
    <use xlink:href="#DejaVuSans-79" x="594.042969"/>
    <use xlink:href="#DejaVuSans-20" x="653.222656"/>
    <use xlink:href="#DejaVuSans-61" x="685.009766"/>
    <use xlink:href="#DejaVuSans-76" x="746.289062"/>
    <use xlink:href="#DejaVuSans-65" x="805.46875"/>
    <use xlink:href="#DejaVuSans-72" x="866.992188"/>
    <use xlink:href="#DejaVuSans-61" x="908.105469"/>
    <use xlink:href="#DejaVuSans-67" x="969.384766"/>
    <use xlink:href="#DejaVuSans-65" x="1032.861328"/>
    <use xlink:href="#DejaVuSans-64" x="1094.384766"/>
    <use xlink:href="#DejaVuSans-20" x="1157.861328"/>
    <use xlink:href="#DejaVuSans-77" x="1189.648438"/>
    <use xlink:href="#DejaVuSans-61" x="1271.435547"/>
    <use xlink:href="#DejaVuSans-76" x="1332.714844"/>
    <use xlink:href="#DejaVuSans-65" x="1391.894531"/>
    <use xlink:href="#DejaVuSans-66" x="1453.417969"/>
    <use xlink:href="#DejaVuSans-6f" x="1488.623047"/>
    <use xlink:href="#DejaVuSans-72" x="1549.804688"/>
    <use xlink:href="#DejaVuSans-6d" x="1589.167969"/>
    <use xlink:href="#DejaVuSans-73" x="1686.580078"/>
    <use xlink:href="#DejaVuSans-20" x="1738.679688"/>
    <use xlink:href="#DejaVuSans-77" x="1770.466797"/>
    <use xlink:href="#DejaVuSans-69" x="1852.253906"/>
    <use xlink:href="#DejaVuSans-74" x="1880.037109"/>
    <use xlink:href="#DejaVuSans-68" x="1919.246094"/>
    <use xlink:href="#DejaVuSans-20" x="1982.625"/>
    <use xlink:href="#DejaVuSans-76" x="2014.412109"/>
    <use xlink:href="#DejaVuSans-61" x="2073.591797"/>
    <use xlink:href="#DejaVuSans-72" x="2134.871094"/>
    <use xlink:href="#DejaVuSans-69" x="2175.984375"/>
    <use xlink:href="#DejaVuSans-61" x="2203.767578"/>
    <use xlink:href="#DejaVuSans-6e" x="2265.046875"/>
    <use xlink:href="#DejaVuSans-63" x="2328.425781"/>
    <use xlink:href="#DejaVuSans-65" x="2383.40625"/>
   </g>
  </g>
 </g>
 <defs>
  <clipPath id="p1e95f75625">
   <rect x="115.2" y="52.4448" width="324.654545" height="336.5208"/>
  </clipPath>
  <clipPath id="p05673bc5e7">
   <rect x="504.785455" y="52.4448" width="324.654545" height="336.5208"/>
  </clipPath>
 </defs>
</svg>
