<?xml version="1.0" encoding="utf-8" standalone="no"?>
<!DOCTYPE svg PUBLIC "-//W3C//DTD SVG 1.1//EN"
  "http://www.w3.org/Graphics/SVG/1.1/DTD/svg11.dtd">
<svg xmlns:xlink="http://www.w3.org/1999/xlink" width="460.8pt" height="345.6pt" viewBox="0 0 460.8 345.6" xmlns="http://www.w3.org/2000/svg" version="1.1">
 <metadata>
  <rdf:RDF xmlns:dc="http://purl.org/dc/elements/1.1/" xmlns:cc="http://creativecommons.org/ns#" xmlns:rdf="http://www.w3.org/1999/02/22-rdf-syntax-ns#">
   <cc:Work>
    <dc:type rdf:resource="http://purl.org/dc/dcmitype/StillImage"/>
    <dc:date>2022-08-12T12:48:26.770471</dc:date>
    <dc:format>image/svg+xml</dc:format>
    <dc:creator>
     <cc:Agent>
      <dc:title>Matplotlib v3.5.2, https://matplotlib.org/</dc:title>
     </cc:Agent>
    </dc:creator>
   </cc:Work>
  </rdf:RDF>
 </metadata>
 <defs>
  <style type="text/css">*{stroke-linejoin: round; stroke-linecap: butt}</style>
 </defs>
 <g id="figure_1">
  <g id="patch_1">
   <path d="M 0 345.6 
L 460.8 345.6 
L 460.8 0 
L 0 0 
z
" style="fill: #ffffff"/>
  </g>
  <g id="axes_1">
   <g id="patch_2">
    <path d="M 57.6 307.584 
L 414.72 307.584 
L 414.72 41.472 
L 57.6 41.472 
z
" style="fill: #ffffff"/>
   </g>
   <g id="matplotlib.axis_1">
    <g id="xtick_1">
     <g id="line2d_1">
      <defs>
       <path id="me68afb55ad" d="M 0 0 
L 0 3.5 
" style="stroke: #000000; stroke-width: 0.8"/>
      </defs>
      <g>
       <use xlink:href="#me68afb55ad" x="73.832744" y="307.584" style="stroke: #000000; stroke-width: 0.8"/>
      </g>
     </g>
     <g id="text_1">
      <!-- −1.5 -->
      <g transform="translate(61.691337 322.182437)scale(0.1 -0.1)">
       <defs>
        <path id="DejaVuSans-2212" d="M 678 2272 
L 4684 2272 
L 4684 1741 
L 678 1741 
L 678 2272 
z
" transform="scale(0.015625)"/>
        <path id="DejaVuSans-31" d="M 794 531 
L 1825 531 
L 1825 4091 
L 703 3866 
L 703 4441 
L 1819 4666 
L 2450 4666 
L 2450 531 
L 3481 531 
L 3481 0 
L 794 0 
L 794 531 
z
" transform="scale(0.015625)"/>
        <path id="DejaVuSans-2e" d="M 684 794 
L 1344 794 
L 1344 0 
L 684 0 
L 684 794 
z
" transform="scale(0.015625)"/>
        <path id="DejaVuSans-35" d="M 691 4666 
L 3169 4666 
L 3169 4134 
L 1269 4134 
L 1269 2991 
Q 1406 3038 1543 3061 
Q 1681 3084 1819 3084 
Q 2600 3084 3056 2656 
Q 3513 2228 3513 1497 
Q 3513 744 3044 326 
Q 2575 -91 1722 -91 
Q 1428 -91 1123 -41 
Q 819 9 494 109 
L 494 744 
Q 775 591 1075 516 
Q 1375 441 1709 441 
Q 2250 441 2565 725 
Q 2881 1009 2881 1497 
Q 2881 1984 2565 2268 
Q 2250 2553 1709 2553 
Q 1456 2553 1204 2497 
Q 953 2441 691 2322 
L 691 4666 
z
" transform="scale(0.015625)"/>
       </defs>
       <use xlink:href="#DejaVuSans-2212"/>
       <use xlink:href="#DejaVuSans-31" x="83.789062"/>
       <use xlink:href="#DejaVuSans-2e" x="147.412109"/>
       <use xlink:href="#DejaVuSans-35" x="179.199219"/>
      </g>
     </g>
    </g>
    <g id="xtick_2">
     <g id="line2d_2">
      <g>
       <use xlink:href="#me68afb55ad" x="128.122796" y="307.584" style="stroke: #000000; stroke-width: 0.8"/>
      </g>
     </g>
     <g id="text_2">
      <!-- −1.0 -->
      <g transform="translate(115.98139 322.182437)scale(0.1 -0.1)">
       <defs>
        <path id="DejaVuSans-30" d="M 2034 4250 
Q 1547 4250 1301 3770 
Q 1056 3291 1056 2328 
Q 1056 1369 1301 889 
Q 1547 409 2034 409 
Q 2525 409 2770 889 
Q 3016 1369 3016 2328 
Q 3016 3291 2770 3770 
Q 2525 4250 2034 4250 
z
M 2034 4750 
Q 2819 4750 3233 4129 
Q 3647 3509 3647 2328 
Q 3647 1150 3233 529 
Q 2819 -91 2034 -91 
Q 1250 -91 836 529 
Q 422 1150 422 2328 
Q 422 3509 836 4129 
Q 1250 4750 2034 4750 
z
" transform="scale(0.015625)"/>
       </defs>
       <use xlink:href="#DejaVuSans-2212"/>
       <use xlink:href="#DejaVuSans-31" x="83.789062"/>
       <use xlink:href="#DejaVuSans-2e" x="147.412109"/>
       <use xlink:href="#DejaVuSans-30" x="179.199219"/>
      </g>
     </g>
    </g>
    <g id="xtick_3">
     <g id="line2d_3">
      <g>
       <use xlink:href="#me68afb55ad" x="182.412848" y="307.584" style="stroke: #000000; stroke-width: 0.8"/>
      </g>
     </g>
     <g id="text_3">
      <!-- −0.5 -->
      <g transform="translate(170.271442 322.182437)scale(0.1 -0.1)">
       <use xlink:href="#DejaVuSans-2212"/>
       <use xlink:href="#DejaVuSans-30" x="83.789062"/>
       <use xlink:href="#DejaVuSans-2e" x="147.412109"/>
       <use xlink:href="#DejaVuSans-35" x="179.199219"/>
      </g>
     </g>
    </g>
    <g id="xtick_4">
     <g id="line2d_4">
      <g>
       <use xlink:href="#me68afb55ad" x="236.702901" y="307.584" style="stroke: #000000; stroke-width: 0.8"/>
      </g>
     </g>
     <g id="text_4">
      <!-- 0.0 -->
      <g transform="translate(228.751338 322.182437)scale(0.1 -0.1)">
       <use xlink:href="#DejaVuSans-30"/>
       <use xlink:href="#DejaVuSans-2e" x="63.623047"/>
       <use xlink:href="#DejaVuSans-30" x="95.410156"/>
      </g>
     </g>
    </g>
    <g id="xtick_5">
     <g id="line2d_5">
      <g>
       <use xlink:href="#me68afb55ad" x="290.992953" y="307.584" style="stroke: #000000; stroke-width: 0.8"/>
      </g>
     </g>
     <g id="text_5">
      <!-- 0.5 -->
      <g transform="translate(283.04139 322.182437)scale(0.1 -0.1)">
       <use xlink:href="#DejaVuSans-30"/>
       <use xlink:href="#DejaVuSans-2e" x="63.623047"/>
       <use xlink:href="#DejaVuSans-35" x="95.410156"/>
      </g>
     </g>
    </g>
    <g id="xtick_6">
     <g id="line2d_6">
      <g>
       <use xlink:href="#me68afb55ad" x="345.283005" y="307.584" style="stroke: #000000; stroke-width: 0.8"/>
      </g>
     </g>
     <g id="text_6">
      <!-- 1.0 -->
      <g transform="translate(337.331443 322.182437)scale(0.1 -0.1)">
       <use xlink:href="#DejaVuSans-31"/>
       <use xlink:href="#DejaVuSans-2e" x="63.623047"/>
       <use xlink:href="#DejaVuSans-30" x="95.410156"/>
      </g>
     </g>
    </g>
    <g id="xtick_7">
     <g id="line2d_7">
      <g>
       <use xlink:href="#me68afb55ad" x="399.573058" y="307.584" style="stroke: #000000; stroke-width: 0.8"/>
      </g>
     </g>
     <g id="text_7">
      <!-- 1.5 -->
      <g transform="translate(391.621495 322.182437)scale(0.1 -0.1)">
       <use xlink:href="#DejaVuSans-31"/>
       <use xlink:href="#DejaVuSans-2e" x="63.623047"/>
       <use xlink:href="#DejaVuSans-35" x="95.410156"/>
      </g>
     </g>
    </g>
   </g>
   <g id="matplotlib.axis_2">
    <g id="ytick_1">
     <g id="line2d_8">
      <defs>
       <path id="me8621f876d" d="M 0 0 
L -3.5 0 
" style="stroke: #000000; stroke-width: 0.8"/>
      </defs>
      <g>
       <use xlink:href="#me8621f876d" x="57.6" y="295.621876" style="stroke: #000000; stroke-width: 0.8"/>
      </g>
     </g>
     <g id="text_8">
      <!-- 0.0 -->
      <g transform="translate(34.696875 299.421095)scale(0.1 -0.1)">
       <use xlink:href="#DejaVuSans-30"/>
       <use xlink:href="#DejaVuSans-2e" x="63.623047"/>
       <use xlink:href="#DejaVuSans-30" x="95.410156"/>
      </g>
     </g>
    </g>
    <g id="ytick_2">
     <g id="line2d_9">
      <g>
       <use xlink:href="#me8621f876d" x="57.6" y="247.211101" style="stroke: #000000; stroke-width: 0.8"/>
      </g>
     </g>
     <g id="text_9">
      <!-- 0.2 -->
      <g transform="translate(34.696875 251.01032)scale(0.1 -0.1)">
       <defs>
        <path id="DejaVuSans-32" d="M 1228 531 
L 3431 531 
L 3431 0 
L 469 0 
L 469 531 
Q 828 903 1448 1529 
Q 2069 2156 2228 2338 
Q 2531 2678 2651 2914 
Q 2772 3150 2772 3378 
Q 2772 3750 2511 3984 
Q 2250 4219 1831 4219 
Q 1534 4219 1204 4116 
Q 875 4013 500 3803 
L 500 4441 
Q 881 4594 1212 4672 
Q 1544 4750 1819 4750 
Q 2544 4750 2975 4387 
Q 3406 4025 3406 3419 
Q 3406 3131 3298 2873 
Q 3191 2616 2906 2266 
Q 2828 2175 2409 1742 
Q 1991 1309 1228 531 
z
" transform="scale(0.015625)"/>
       </defs>
       <use xlink:href="#DejaVuSans-30"/>
       <use xlink:href="#DejaVuSans-2e" x="63.623047"/>
       <use xlink:href="#DejaVuSans-32" x="95.410156"/>
      </g>
     </g>
    </g>
    <g id="ytick_3">
     <g id="line2d_10">
      <g>
       <use xlink:href="#me8621f876d" x="57.6" y="198.800326" style="stroke: #000000; stroke-width: 0.8"/>
      </g>
     </g>
     <g id="text_10">
      <!-- 0.4 -->
      <g transform="translate(34.696875 202.599544)scale(0.1 -0.1)">
       <defs>
        <path id="DejaVuSans-34" d="M 2419 4116 
L 825 1625 
L 2419 1625 
L 2419 4116 
z
M 2253 4666 
L 3047 4666 
L 3047 1625 
L 3713 1625 
L 3713 1100 
L 3047 1100 
L 3047 0 
L 2419 0 
L 2419 1100 
L 313 1100 
L 313 1709 
L 2253 4666 
z
" transform="scale(0.015625)"/>
       </defs>
       <use xlink:href="#DejaVuSans-30"/>
       <use xlink:href="#DejaVuSans-2e" x="63.623047"/>
       <use xlink:href="#DejaVuSans-34" x="95.410156"/>
      </g>
     </g>
    </g>
    <g id="ytick_4">
     <g id="line2d_11">
      <g>
       <use xlink:href="#me8621f876d" x="57.6" y="150.38955" style="stroke: #000000; stroke-width: 0.8"/>
      </g>
     </g>
     <g id="text_11">
      <!-- 0.6 -->
      <g transform="translate(34.696875 154.188769)scale(0.1 -0.1)">
       <defs>
        <path id="DejaVuSans-36" d="M 2113 2584 
Q 1688 2584 1439 2293 
Q 1191 2003 1191 1497 
Q 1191 994 1439 701 
Q 1688 409 2113 409 
Q 2538 409 2786 701 
Q 3034 994 3034 1497 
Q 3034 2003 2786 2293 
Q 2538 2584 2113 2584 
z
M 3366 4563 
L 3366 3988 
Q 3128 4100 2886 4159 
Q 2644 4219 2406 4219 
Q 1781 4219 1451 3797 
Q 1122 3375 1075 2522 
Q 1259 2794 1537 2939 
Q 1816 3084 2150 3084 
Q 2853 3084 3261 2657 
Q 3669 2231 3669 1497 
Q 3669 778 3244 343 
Q 2819 -91 2113 -91 
Q 1303 -91 875 529 
Q 447 1150 447 2328 
Q 447 3434 972 4092 
Q 1497 4750 2381 4750 
Q 2619 4750 2861 4703 
Q 3103 4656 3366 4563 
z
" transform="scale(0.015625)"/>
       </defs>
       <use xlink:href="#DejaVuSans-30"/>
       <use xlink:href="#DejaVuSans-2e" x="63.623047"/>
       <use xlink:href="#DejaVuSans-36" x="95.410156"/>
      </g>
     </g>
    </g>
    <g id="ytick_5">
     <g id="line2d_12">
      <g>
       <use xlink:href="#me8621f876d" x="57.6" y="101.978775" style="stroke: #000000; stroke-width: 0.8"/>
      </g>
     </g>
     <g id="text_12">
      <!-- 0.8 -->
      <g transform="translate(34.696875 105.777994)scale(0.1 -0.1)">
       <defs>
        <path id="DejaVuSans-38" d="M 2034 2216 
Q 1584 2216 1326 1975 
Q 1069 1734 1069 1313 
Q 1069 891 1326 650 
Q 1584 409 2034 409 
Q 2484 409 2743 651 
Q 3003 894 3003 1313 
Q 3003 1734 2745 1975 
Q 2488 2216 2034 2216 
z
M 1403 2484 
Q 997 2584 770 2862 
Q 544 3141 544 3541 
Q 544 4100 942 4425 
Q 1341 4750 2034 4750 
Q 2731 4750 3128 4425 
Q 3525 4100 3525 3541 
Q 3525 3141 3298 2862 
Q 3072 2584 2669 2484 
Q 3125 2378 3379 2068 
Q 3634 1759 3634 1313 
Q 3634 634 3220 271 
Q 2806 -91 2034 -91 
Q 1263 -91 848 271 
Q 434 634 434 1313 
Q 434 1759 690 2068 
Q 947 2378 1403 2484 
z
M 1172 3481 
Q 1172 3119 1398 2916 
Q 1625 2713 2034 2713 
Q 2441 2713 2670 2916 
Q 2900 3119 2900 3481 
Q 2900 3844 2670 4047 
Q 2441 4250 2034 4250 
Q 1625 4250 1398 4047 
Q 1172 3844 1172 3481 
z
" transform="scale(0.015625)"/>
       </defs>
       <use xlink:href="#DejaVuSans-30"/>
       <use xlink:href="#DejaVuSans-2e" x="63.623047"/>
       <use xlink:href="#DejaVuSans-38" x="95.410156"/>
      </g>
     </g>
    </g>
    <g id="ytick_6">
     <g id="line2d_13">
      <g>
       <use xlink:href="#me8621f876d" x="57.6" y="53.568" style="stroke: #000000; stroke-width: 0.8"/>
      </g>
     </g>
     <g id="text_13">
      <!-- 1.0 -->
      <g transform="translate(34.696875 57.367219)scale(0.1 -0.1)">
       <use xlink:href="#DejaVuSans-31"/>
       <use xlink:href="#DejaVuSans-2e" x="63.623047"/>
       <use xlink:href="#DejaVuSans-30" x="95.410156"/>
      </g>
     </g>
    </g>
   </g>
   <g id="line2d_14">
    <path d="M 73.832744 295.488 
L 96.634566 295.239305 
L 110.749979 294.889045 
L 121.60799 294.413642 
L 130.294398 293.819402 
L 137.895005 293.064043 
L 144.409812 292.169163 
L 149.838817 291.188505 
L 154.182021 290.206944 
L 158.525225 289.008063 
L 162.868429 287.543747 
L 166.125833 286.236429 
L 169.383236 284.717542 
L 172.640639 282.952848 
L 175.898042 280.902565 
L 179.155445 278.520476 
L 182.412848 275.752884 
L 184.58445 273.663244 
L 186.756052 271.353834 
L 188.927655 268.801542 
L 191.099257 265.980823 
L 193.270859 262.863446 
L 195.442461 259.418212 
L 197.614063 255.61064 
L 199.785665 251.402621 
L 201.957267 246.752041 
L 204.128869 241.612356 
L 206.300471 235.932125 
L 208.472073 229.654499 
L 210.643675 222.71665 
L 212.815278 215.04914 
L 214.98688 206.575232 
L 217.158482 197.210114 
L 219.330084 186.860059 
L 221.501686 175.421479 
L 223.673288 162.779892 
L 225.84489 148.808779 
L 228.016492 133.368311 
L 230.188094 116.303954 
L 232.359696 97.444924 
L 234.531298 76.602472 
L 236.702901 53.568 
L 241.046105 65.373107 
L 245.389309 76.602472 
L 249.732513 87.284174 
L 254.075717 97.444924 
L 258.418922 107.110128 
L 262.762126 116.303954 
L 267.10533 125.049393 
L 271.448534 133.368311 
L 275.791738 141.281511 
L 280.134942 148.808779 
L 284.478147 155.968938 
L 288.821351 162.779892 
L 293.164555 169.258672 
L 298.59356 176.914632 
L 304.022565 184.10674 
L 309.451571 190.863101 
L 314.880576 197.210114 
L 320.309581 203.172581 
L 325.738586 208.773801 
L 331.167592 214.03566 
L 336.596597 218.978719 
L 342.025602 223.622293 
L 347.454607 227.984527 
L 352.883613 232.082467 
L 358.312618 235.932125 
L 363.741623 239.548544 
L 370.256429 243.600208 
L 376.771236 247.359112 
L 383.286042 250.846411 
L 389.800848 254.08173 
L 396.315654 257.083276 
L 398.487257 258.034798 
L 398.487257 258.034798 
" clip-path="url(#pb5da0c5219)" style="fill: none; stroke-dasharray: 7.4,3.2; stroke-dashoffset: 0; stroke: #ff0000; stroke-width: 2"/>
   </g>
   <g id="line2d_15">
    <path d="M 74.918528 259.10147 
L 78.175932 257.649113 
L 81.433335 256.007805 
L 86.862341 252.967662 
L 90.119745 250.961183 
L 105.320961 241.107972 
L 111.835768 236.706552 
L 117.264773 232.769179 
L 123.77958 227.678951 
L 130.294387 222.194388 
L 135.723393 217.35637 
L 138.980797 214.158425 
L 143.324001 209.560661 
L 146.581405 205.861219 
L 150.924609 200.700201 
L 158.525217 191.301838 
L 162.868422 185.507344 
L 171.554831 172.981654 
L 176.983837 164.616737 
L 180.24124 159.26366 
L 184.584445 151.638611 
L 190.013451 141.751376 
L 196.528258 129.41582 
L 204.128866 114.310212 
L 210.643673 100.64588 
L 219.330082 81.905375 
L 224.759088 70.808161 
L 228.016491 64.663268 
L 230.188094 60.976035 
L 232.359696 57.713193 
L 234.531298 55.099989 
L 235.617099 54.135246 
L 236.702901 53.568 
L 237.788702 54.124594 
L 238.874503 55.102 
L 239.960304 56.332836 
L 242.131906 59.34116 
L 244.303509 62.823914 
L 246.475111 66.691224 
L 249.732514 73.043964 
L 255.16152 84.459915 
L 272.534339 122.367995 
L 276.877543 131.148773 
L 283.39235 143.670247 
L 287.735555 151.613695 
L 292.07876 159.233925 
L 298.593566 169.932285 
L 302.936771 176.718026 
L 309.451578 186.413551 
L 313.794783 192.48849 
L 319.223788 199.601707 
L 322.481192 203.489811 
L 326.824396 208.391218 
L 333.339203 215.390429 
L 337.682408 219.732612 
L 345.283016 226.766889 
L 349.626221 230.536989 
L 358.31263 237.484829 
L 374.599647 249.235107 
L 378.942852 251.919539 
L 390.886665 258.589237 
L 397.401472 262.007194 
L 398.487273 262.509766 
L 398.487273 262.509766 
" clip-path="url(#pb5da0c5219)" style="fill: none; stroke: #0000ff; stroke-linecap: square"/>
   </g>
   <g id="line2d_16">
    <path d="M 74.918528 250.087754 
L 77.090131 248.130483 
L 79.261733 245.887463 
L 81.433335 243.395691 
L 87.948142 235.249276 
L 95.54875 225.040544 
L 97.720353 222.172426 
L 102.063557 215.977114 
L 111.835768 201.790266 
L 120.522177 187.357412 
L 130.294387 170.153547 
L 135.723393 160.117983 
L 144.409802 142.936032 
L 149.838808 132.368945 
L 156.353615 120.075514 
L 160.69682 112.397752 
L 169.383229 97.807 
L 171.554831 94.412225 
L 176.983837 86.487583 
L 181.327042 80.610117 
L 184.584445 76.503448 
L 187.841849 72.824802 
L 191.099252 69.546321 
L 194.356656 66.58814 
L 196.528258 64.826802 
L 199.785661 62.587472 
L 203.043065 60.621802 
L 206.300468 58.928717 
L 209.557872 57.508237 
L 212.815275 56.34775 
L 216.072679 55.439381 
L 219.330082 54.731305 
L 222.587486 54.213465 
L 225.844889 53.874819 
L 230.188094 53.641837 
L 236.702901 53.568 
L 244.303509 53.682874 
L 248.646713 53.999633 
L 251.904117 54.426915 
L 255.16152 55.051385 
L 258.418924 55.865709 
L 261.676327 56.882555 
L 264.933731 58.146676 
L 267.105333 59.153441 
L 270.362736 60.927169 
L 273.62014 62.940528 
L 276.877543 65.29635 
L 280.134947 67.863282 
L 283.39235 70.687182 
L 286.649754 73.826603 
L 289.907157 77.365225 
L 293.164561 81.194966 
L 296.421964 85.436734 
L 300.765169 91.612072 
L 302.936771 94.811653 
L 306.194175 100.056129 
L 310.537379 107.551613 
L 318.137987 121.564366 
L 324.652794 134.18897 
L 332.253402 148.700281 
L 362.655835 207.937296 
L 368.08484 217.853831 
L 373.513846 227.43306 
L 375.685448 231.09037 
L 378.942852 236.189647 
L 383.286057 242.383849 
L 387.629261 247.899588 
L 389.800863 250.361835 
L 396.31567 257.228937 
L 398.487273 259.177681 
L 398.487273 259.177681 
" clip-path="url(#pb5da0c5219)" style="fill: none; stroke-dasharray: 1,1.65; stroke-dashoffset: 0; stroke: #0000ff"/>
   </g>
   <g id="line2d_17">
    <path d="M 74.918528 271.61564 
L 77.090131 270.572477 
L 78.175932 269.91721 
L 83.604938 267.200021 
L 86.862341 265.425159 
L 90.119745 263.648205 
L 91.205546 263.155395 
L 93.377148 262.032152 
L 96.634552 260.500896 
L 99.891955 258.93517 
L 107.492563 254.758071 
L 109.664165 253.351674 
L 110.749967 252.652733 
L 111.835768 251.786093 
L 114.00737 250.335918 
L 116.178972 248.830854 
L 117.264773 247.749841 
L 119.436376 246.114664 
L 121.607978 244.119802 
L 123.77958 242.350663 
L 124.865382 241.515424 
L 125.951183 240.369385 
L 129.208586 237.505399 
L 135.723393 231.673597 
L 138.980797 228.474485 
L 147.667206 218.535797 
L 149.838808 216.014059 
L 158.525217 205.994338 
L 163.954223 198.842356 
L 170.46903 189.204639 
L 174.812235 182.322877 
L 178.069638 177.187758 
L 179.155439 175.442613 
L 181.327042 171.551982 
L 184.584445 165.789443 
L 185.670246 163.550864 
L 187.841849 159.518378 
L 191.099252 153.403333 
L 192.185053 151.390823 
L 196.528258 142.224894 
L 197.614059 139.287661 
L 199.785661 134.633923 
L 205.214667 122.795396 
L 206.300468 119.751521 
L 210.643673 110.167717 
L 214.986877 100.375749 
L 217.15848 95.114695 
L 218.244281 92.747355 
L 221.501684 84.894602 
L 232.359696 62.131634 
L 233.445497 60.19419 
L 235.617099 57.360512 
L 236.702901 53.568 
L 237.788702 56.268487 
L 238.874503 57.535869 
L 239.960304 55.967078 
L 241.046105 57.600332 
L 244.303509 63.63113 
L 245.38931 65.885912 
L 246.475111 65.128729 
L 247.560912 67.385821 
L 248.646713 67.31035 
L 250.818316 72.157813 
L 251.904117 72.257645 
L 255.16152 80.190198 
L 256.247321 80.423671 
L 261.676327 93.255799 
L 262.762128 93.139652 
L 264.933731 98.171003 
L 267.105333 103.523133 
L 268.191134 106.170042 
L 269.276935 106.631208 
L 273.62014 116.897491 
L 274.705941 115.929992 
L 276.877543 120.825712 
L 279.049146 125.277478 
L 280.134947 123.223845 
L 282.306549 127.78394 
L 283.39235 127.777993 
L 284.478151 129.989411 
L 285.563953 128.4983 
L 286.649754 128.917818 
L 287.735555 131.186477 
L 288.821356 129.858635 
L 290.992958 134.56546 
L 295.336163 143.351165 
L 296.421964 141.280138 
L 297.507765 140.226073 
L 298.593566 141.187408 
L 301.85097 147.26534 
L 304.022572 144.069574 
L 306.194175 148.857554 
L 307.279976 153.432437 
L 311.62318 162.021559 
L 312.708981 164.055522 
L 313.794783 165.477002 
L 314.880584 166.509762 
L 317.052186 168.18194 
L 318.137987 170.235263 
L 319.223788 171.01293 
L 320.30959 172.031722 
L 321.395391 172.463176 
L 324.652794 178.139947 
L 326.824396 181.278525 
L 327.910198 182.496537 
L 328.995999 181.671158 
L 330.0818 185.111217 
L 331.167601 186.374833 
L 332.253402 186.638734 
L 333.339203 185.443688 
L 334.425005 184.915341 
L 335.510806 186.640546 
L 336.596607 188.146078 
L 338.768209 190.719509 
L 342.025613 195.123716 
L 343.111414 196.189905 
L 344.197215 196.84483 
L 345.283016 195.17107 
L 347.454618 197.818783 
L 348.54042 196.490336 
L 349.626221 195.513047 
L 350.712022 196.221786 
L 351.797823 197.579567 
L 352.883624 197.22776 
L 353.969425 198.008897 
L 355.055227 198.961408 
L 358.31263 194.433228 
L 359.398431 193.12583 
L 360.484232 193.260312 
L 361.570033 195.716941 
L 362.655835 197.065998 
L 364.827437 195.304119 
L 365.913238 189.626556 
L 366.999039 190.636156 
L 368.08484 189.913019 
L 369.170642 189.916957 
L 370.256443 194.510909 
L 371.342244 196.326173 
L 372.428045 196.648284 
L 373.513846 197.607798 
L 374.599647 198.169739 
L 375.685448 197.263301 
L 376.77125 198.342912 
L 377.857051 199.914702 
L 378.942852 203.262014 
L 380.028653 203.187735 
L 381.114454 205.559767 
L 382.200255 205.853864 
L 383.286057 204.081056 
L 384.371858 207.669619 
L 385.457659 203.971105 
L 386.54346 205.959725 
L 387.629261 208.760869 
L 388.715062 212.380985 
L 389.800863 213.814642 
L 390.886665 212.193555 
L 391.972466 213.235611 
L 393.058267 212.994471 
L 394.144068 212.076472 
L 395.229869 213.300909 
L 396.31567 212.866619 
L 397.401472 213.910431 
L 398.487273 214.76857 
L 398.487273 214.76857 
" clip-path="url(#pb5da0c5219)" style="fill: none; stroke: #ff00ff; stroke-linecap: square"/>
   </g>
   <g id="line2d_18">
    <path d="M 74.918528 277.13775 
L 77.090131 275.555509 
L 78.175932 274.582356 
L 81.433335 272.17332 
L 83.604938 270.314142 
L 86.862341 267.448459 
L 90.119745 264.37908 
L 91.205546 263.500265 
L 93.377148 261.505544 
L 99.891955 255.55389 
L 102.063557 253.246598 
L 103.149358 252.133929 
L 105.320961 249.602744 
L 107.492563 246.931474 
L 109.664165 243.910197 
L 110.749967 242.382545 
L 111.835768 240.581643 
L 112.921569 239.139571 
L 116.178972 233.969842 
L 117.264773 231.783083 
L 120.522177 226.068618 
L 123.77958 219.813159 
L 124.865382 217.788956 
L 129.208586 208.802682 
L 133.551791 199.825861 
L 140.066598 185.560775 
L 146.581405 170.373276 
L 148.753007 165.759447 
L 150.924609 160.776608 
L 153.096212 156.282352 
L 155.267814 151.590811 
L 158.525217 145.306381 
L 168.297428 123.948614 
L 171.554831 117.309087 
L 173.726434 113.047639 
L 176.983837 107.037974 
L 179.155439 103.473827 
L 180.24124 101.388645 
L 183.498644 96.484372 
L 184.584445 94.957589 
L 185.670246 93.164137 
L 187.841849 90.125831 
L 188.92765 88.575796 
L 193.270854 83.094843 
L 194.356656 81.427632 
L 196.528258 79.001166 
L 197.614059 77.119903 
L 201.957264 72.881419 
L 204.128866 71.140056 
L 205.214667 70.006309 
L 206.300468 68.39324 
L 210.643673 65.586152 
L 211.729474 65.032137 
L 212.815275 64.349166 
L 214.986877 63.409936 
L 216.072679 62.651521 
L 217.15848 62.104357 
L 218.244281 61.767256 
L 219.330082 61.127946 
L 220.415883 60.856256 
L 221.501684 60.091103 
L 226.93069 59.116863 
L 228.016491 59.026985 
L 229.102292 58.257726 
L 230.188094 57.859224 
L 231.273895 57.648538 
L 233.445497 56.912658 
L 234.531298 56.904575 
L 235.617099 56.551497 
L 236.702901 53.568 
L 237.788702 55.500147 
L 238.874503 55.679672 
L 239.960304 94.171129 
L 242.131906 93.646027 
L 245.38931 93.102703 
L 246.475111 120.942084 
L 247.560912 120.518011 
L 248.646713 134.938639 
L 250.818316 132.890129 
L 251.904117 144.589172 
L 252.989918 143.276309 
L 254.075719 141.651564 
L 255.16152 140.566207 
L 256.247321 153.403033 
L 257.333123 152.254477 
L 258.418924 151.458373 
L 259.504725 150.937578 
L 260.590526 150.265472 
L 261.676327 149.88796 
L 262.762128 166.113405 
L 263.847929 165.630441 
L 264.933731 165.530385 
L 267.105333 164.527149 
L 268.191134 164.497127 
L 269.276935 174.014094 
L 270.362736 174.469761 
L 271.448538 175.28476 
L 273.62014 176.238017 
L 274.705941 196.587862 
L 276.877543 198.577322 
L 277.963344 199.802543 
L 279.049146 200.742814 
L 280.134947 212.494827 
L 282.306549 213.696477 
L 283.39235 218.372712 
L 284.478151 218.718773 
L 285.563953 223.691412 
L 286.649754 226.04407 
L 287.735555 226.407066 
L 288.821356 230.260998 
L 292.07876 231.127727 
L 295.336163 231.977039 
L 297.507765 242.646006 
L 298.593566 243.254428 
L 300.765169 244.047542 
L 301.85097 244.757871 
L 302.936771 247.348225 
L 304.022572 249.060416 
L 306.194175 249.62254 
L 307.279976 247.942334 
L 308.365777 248.146256 
L 309.451578 248.474564 
L 310.537379 248.964866 
L 312.708981 250.220479 
L 314.880584 251.446447 
L 315.966385 252.400601 
L 317.052186 252.91532 
L 318.137987 253.592119 
L 319.223788 254.904129 
L 320.30959 255.442695 
L 321.395391 256.43453 
L 323.566993 257.885946 
L 326.824396 260.505576 
L 327.910198 261.323956 
L 328.995999 263.193956 
L 330.0818 263.273831 
L 331.167601 264.592921 
L 332.253402 265.437551 
L 334.425005 267.687599 
L 335.510806 268.776331 
L 337.682408 270.396537 
L 339.85401 271.812058 
L 340.939811 272.764078 
L 343.111414 273.953953 
L 344.197215 274.336342 
L 345.283016 275.394036 
L 347.454618 276.460059 
L 348.54042 277.628841 
L 349.626221 278.306625 
L 351.797823 279.183046 
L 352.883624 279.737923 
L 355.055227 280.308155 
L 356.141028 280.780676 
L 358.31263 280.763325 
L 359.398431 281.111142 
L 360.484232 281.225818 
L 362.655835 282.596528 
L 364.827437 282.612089 
L 365.913238 282.522124 
L 366.999039 282.76355 
L 369.170642 282.929157 
L 370.256443 284.379725 
L 371.342244 284.781948 
L 376.77125 285.895085 
L 377.857051 286.678863 
L 378.942852 287.274885 
L 380.028653 287.311801 
L 381.114454 287.728246 
L 382.200255 287.941081 
L 383.286057 287.75158 
L 384.371858 288.40095 
L 385.457659 288.148957 
L 387.629261 288.958623 
L 388.715062 289.53085 
L 389.800863 289.736493 
L 390.886665 289.765336 
L 391.972466 289.92327 
L 394.144068 289.941513 
L 395.229869 290.091441 
L 396.31567 290.081324 
L 398.487273 290.287442 
L 398.487273 290.287442 
" clip-path="url(#pb5da0c5219)" style="fill: none; stroke-dasharray: 1,1.65; stroke-dashoffset: 0; stroke: #ff00ff"/>
   </g>
   <g id="line2d_19">
    <path d="M 74.918528 273.157995 
L 77.090131 272.240695 
L 78.175932 271.640789 
L 86.862341 268.019151 
L 90.119745 266.306333 
L 95.54875 263.73937 
L 102.063557 260.508562 
L 103.149358 259.965283 
L 105.320961 258.717734 
L 107.492563 257.468185 
L 109.664165 256.029867 
L 115.093171 252.34772 
L 116.178972 251.580194 
L 117.264773 250.564346 
L 120.522177 248.10815 
L 122.693779 246.252441 
L 127.036984 242.784201 
L 132.46599 238.06215 
L 136.809194 234.012182 
L 138.980797 231.837783 
L 143.324001 226.784779 
L 145.495604 224.465379 
L 146.581405 223.016144 
L 148.753007 220.620322 
L 150.924609 218.019717 
L 153.096212 215.544243 
L 154.182013 214.10705 
L 158.525217 209.145159 
L 160.69682 206.431242 
L 165.040024 200.186349 
L 167.211627 196.903125 
L 171.554831 190.26221 
L 174.812235 185.009176 
L 178.069638 179.660077 
L 179.155439 177.881868 
L 181.327042 173.87912 
L 184.584445 167.995841 
L 190.013451 157.476706 
L 193.270854 151.268017 
L 194.356656 148.6135 
L 196.528258 144.082468 
L 198.69986 139.333435 
L 204.128866 127.540202 
L 205.214667 125.043727 
L 206.300468 121.781829 
L 208.472071 116.955945 
L 210.643673 111.876816 
L 214.986877 101.870897 
L 217.15848 96.446785 
L 220.415883 88.909757 
L 221.501684 85.855275 
L 230.188094 66.654007 
L 233.445497 60.847472 
L 235.617099 57.84778 
L 236.702901 53.568 
L 237.788702 56.845485 
L 239.960304 59.645809 
L 241.046105 61.290223 
L 244.303509 67.566761 
L 246.475111 72.148222 
L 249.732514 79.203098 
L 254.075719 89.132316 
L 256.247321 94.188135 
L 258.418924 99.237895 
L 260.590526 104.252556 
L 264.933731 114.00146 
L 266.019532 116.69163 
L 268.191134 121.605437 
L 271.448538 129.16689 
L 273.62014 134.039214 
L 275.791742 138.763895 
L 279.049146 145.43549 
L 284.478151 155.855114 
L 290.992958 167.604162 
L 296.421964 176.46462 
L 302.936771 186.452221 
L 304.022572 187.935506 
L 306.194175 191.542469 
L 310.537379 197.701329 
L 313.794783 202.507047 
L 318.137987 208.668082 
L 319.223788 210.469568 
L 324.652794 217.360978 
L 327.910198 221.079421 
L 334.425005 228.121503 
L 340.939811 234.1922 
L 346.368817 238.813272 
L 347.454618 239.666906 
L 348.54042 240.707566 
L 358.31263 248.379289 
L 366.999039 254.527095 
L 374.599647 259.08242 
L 375.685448 259.970415 
L 378.942852 261.927028 
L 382.200255 263.836004 
L 386.54346 266.383195 
L 387.629261 267.19474 
L 394.144068 270.470352 
L 398.487273 272.046763 
L 398.487273 272.046763 
" clip-path="url(#pb5da0c5219)" style="fill: none; stroke: #008000; stroke-linecap: square"/>
   </g>
   <g id="line2d_20">
    <path d="M 74.918528 279.133184 
L 77.090131 277.702743 
L 78.175932 276.814147 
L 83.604938 273.187324 
L 87.948142 269.771488 
L 90.119745 267.799266 
L 93.377148 265.061811 
L 96.634552 262.07702 
L 98.806154 260.121464 
L 99.891955 259.068786 
L 102.063557 256.699134 
L 103.149358 255.560635 
L 105.320961 252.897216 
L 107.492563 250.116247 
L 111.835768 243.571966 
L 112.921569 242.078241 
L 117.264773 234.664458 
L 120.522177 228.918478 
L 122.693779 224.61566 
L 124.865382 220.396717 
L 130.294387 208.945483 
L 138.980797 189.24202 
L 141.152399 183.888279 
L 144.409802 176.056795 
L 152.01041 158.709545 
L 153.096212 156.44965 
L 154.182013 153.856318 
L 159.611019 143.084168 
L 160.69682 140.747141 
L 162.868422 135.674039 
L 169.383229 121.432064 
L 171.554831 116.894271 
L 173.726434 112.404503 
L 176.983837 106.230018 
L 179.155439 102.616337 
L 180.24124 100.435414 
L 183.498644 95.489044 
L 186.756047 90.817586 
L 188.92765 87.545478 
L 192.185053 83.490598 
L 193.270854 82.234283 
L 194.356656 80.458243 
L 195.442457 79.286124 
L 197.614059 76.674174 
L 200.871462 73.441108 
L 205.214667 69.821551 
L 206.300468 68.080884 
L 210.643673 65.339353 
L 213.901076 63.849251 
L 214.986877 63.421884 
L 217.15848 62.288982 
L 218.244281 61.969657 
L 219.330082 61.485064 
L 220.415883 61.235262 
L 221.501684 60.390406 
L 226.93069 59.447656 
L 228.016491 59.36322 
L 229.102292 58.669163 
L 230.188094 58.406538 
L 231.273895 58.364246 
L 233.445497 57.889613 
L 234.531298 57.876986 
L 235.617099 57.456512 
L 236.702901 54.125659 
L 237.788702 56.368985 
L 238.874503 56.567964 
L 241.046105 56.600865 
L 243.217708 57.071548 
L 244.303509 57.127702 
L 245.38931 57.39905 
L 248.646713 57.735339 
L 251.904117 58.274789 
L 252.989918 58.709678 
L 254.075719 58.963262 
L 255.16152 59.453578 
L 257.333123 60.11184 
L 260.590526 61.740049 
L 261.676327 62.209733 
L 262.762128 62.925858 
L 264.933731 64.102291 
L 266.019532 65.188416 
L 267.105333 65.898731 
L 270.362736 68.786483 
L 274.705941 73.10195 
L 280.134947 78.785724 
L 281.220748 80.058043 
L 283.39235 82.949165 
L 286.649754 87.191287 
L 288.821356 90.253517 
L 290.992958 93.686037 
L 294.250362 98.616784 
L 296.421964 102.243742 
L 297.507765 104.030104 
L 299.679368 107.885121 
L 300.765169 109.681872 
L 302.936771 114.242476 
L 304.022572 116.2904 
L 306.194175 121.108365 
L 309.451578 128.019986 
L 311.62318 133.059053 
L 313.794783 138.176479 
L 315.966385 143.168368 
L 321.395391 156.854535 
L 324.652794 164.601184 
L 334.425005 186.417737 
L 342.025613 201.776835 
L 344.197215 205.980366 
L 345.283016 208.306195 
L 349.626221 216.432972 
L 351.797823 220.207984 
L 356.141028 228.172658 
L 359.398431 233.571686 
L 366.999039 245.690277 
L 372.428045 253.078955 
L 374.599647 255.672001 
L 375.685448 257.236584 
L 382.200255 264.890241 
L 386.54346 269.511222 
L 387.629261 270.805965 
L 391.972466 274.543314 
L 395.229869 276.692077 
L 396.31567 277.379188 
L 398.487273 278.414257 
L 398.487273 278.414257 
" clip-path="url(#pb5da0c5219)" style="fill: none; stroke-dasharray: 1,1.65; stroke-dashoffset: 0; stroke: #008000"/>
   </g>
   <g id="line2d_21">
    <path d="M 73.832727 273.821792 
L 77.090131 272.57001 
L 78.175932 271.967407 
L 86.862341 268.417031 
L 91.205546 266.253408 
L 97.720353 263.186562 
L 100.977756 261.497283 
L 104.23516 259.70514 
L 107.492563 257.85187 
L 110.749967 255.78328 
L 117.264773 251.022255 
L 120.522177 248.558709 
L 122.693779 246.700743 
L 127.036984 243.208982 
L 132.46599 238.478993 
L 136.809194 234.352939 
L 138.980797 232.144678 
L 143.324001 226.979957 
L 145.495604 224.60046 
L 146.581405 223.112751 
L 148.753007 220.665337 
L 152.01041 216.77393 
L 153.096212 215.514125 
L 154.182013 214.074676 
L 158.525217 209.015827 
L 160.69682 206.255528 
L 165.040024 199.939222 
L 167.211627 196.637886 
L 171.554831 189.975948 
L 174.812235 184.693638 
L 178.069638 179.368501 
L 179.155439 177.580389 
L 181.327042 173.555429 
L 184.584445 167.612963 
L 190.013451 156.978965 
L 193.270854 150.713445 
L 194.356656 148.247764 
L 196.528258 143.676017 
L 200.871462 134.119421 
L 205.214667 124.46644 
L 206.300468 121.356806 
L 209.557872 113.854187 
L 214.986877 101.318806 
L 217.15848 95.913986 
L 220.415883 88.326049 
L 221.501684 85.455836 
L 226.93069 73.457251 
L 228.016491 71.285962 
L 229.102292 68.504192 
L 230.188094 66.231141 
L 233.445497 60.387123 
L 235.617099 57.389644 
L 236.702901 53.568 
L 237.788702 56.490467 
L 239.960304 59.253491 
L 241.046105 60.900541 
L 244.303509 67.160607 
L 254.075719 88.787725 
L 256.247321 93.849846 
L 258.418924 98.917534 
L 260.590526 103.900167 
L 264.933731 113.674805 
L 266.019532 116.370057 
L 268.191134 121.313902 
L 273.62014 133.753103 
L 275.791742 138.460206 
L 279.049146 145.156935 
L 284.478151 155.606747 
L 290.992958 167.379772 
L 296.421964 176.295924 
L 302.936771 186.315488 
L 304.022572 187.806531 
L 306.194175 191.395253 
L 311.62318 199.153997 
L 313.794783 202.269972 
L 318.137987 208.277071 
L 319.223788 210.099905 
L 324.652794 217.005585 
L 327.910198 220.744925 
L 333.339203 226.679581 
L 336.596607 229.824938 
L 345.283016 237.615579 
L 356.141028 246.499381 
L 363.741636 252.06964 
L 370.256443 256.350622 
L 374.599647 258.906528 
L 375.685448 259.741279 
L 386.54346 266.03872 
L 387.629261 266.817565 
L 394.144068 270.004137 
L 398.487273 271.540454 
L 398.487273 271.540454 
" clip-path="url(#pb5da0c5219)" style="fill: none; stroke: #00ffff; stroke-linecap: square"/>
   </g>
   <g id="line2d_22">
    <path d="M 73.832727 280.469118 
L 77.090131 278.55594 
L 78.175932 277.688335 
L 83.604938 274.195351 
L 87.948142 270.904084 
L 90.119745 268.990109 
L 92.291347 267.255259 
L 97.720353 262.426628 
L 99.891955 260.377686 
L 102.063557 258.014022 
L 103.149358 256.873891 
L 105.320961 254.216403 
L 107.492563 251.441204 
L 110.749967 246.817356 
L 111.835768 245.096415 
L 112.921569 243.611717 
L 116.178972 238.25571 
L 118.350575 234.207449 
L 120.522177 230.356938 
L 122.693779 226.008533 
L 124.865382 221.705179 
L 130.294387 209.998849 
L 138.980797 189.685468 
L 141.152399 184.20258 
L 146.581405 170.714559 
L 155.267814 151.127299 
L 158.525217 144.646156 
L 160.69682 139.890426 
L 162.868422 134.756518 
L 169.383229 120.386432 
L 171.554831 115.790074 
L 173.726434 111.21083 
L 176.983837 104.8917 
L 179.155439 101.232858 
L 180.24124 99.021727 
L 183.498644 94.003071 
L 186.756047 89.255824 
L 188.92765 85.918992 
L 192.185053 81.814849 
L 193.270854 80.555508 
L 194.356656 78.934939 
L 195.442457 77.771303 
L 197.614059 75.137098 
L 200.871462 71.94606 
L 205.214667 68.397645 
L 206.300468 66.842044 
L 210.643673 64.136525 
L 213.901076 62.690521 
L 214.986877 62.274693 
L 217.15848 61.140454 
L 218.244281 60.836266 
L 219.330082 60.356065 
L 220.415883 60.118534 
L 221.501684 59.483207 
L 228.016491 58.494806 
L 229.102292 57.78704 
L 230.188094 57.525208 
L 231.273895 57.487018 
L 233.445497 57.016486 
L 234.531298 57.008857 
L 235.617099 56.577704 
L 236.702901 53.568 
L 237.788702 55.710255 
L 238.874503 55.928823 
L 241.046105 55.952798 
L 243.217708 56.452799 
L 244.303509 56.505522 
L 245.38931 56.78638 
L 248.646713 57.113004 
L 251.904117 57.63643 
L 252.989918 58.070497 
L 254.075719 58.323756 
L 255.16152 58.818472 
L 257.333123 59.476178 
L 260.590526 61.100283 
L 261.676327 61.569379 
L 262.762128 62.284932 
L 264.933731 63.444744 
L 266.019532 64.52272 
L 267.105333 65.213894 
L 270.362736 68.106769 
L 274.705941 72.364262 
L 281.220748 79.273234 
L 283.39235 82.156251 
L 286.649754 86.369277 
L 288.821356 89.401791 
L 290.992958 92.814412 
L 294.250362 97.754429 
L 296.421964 101.408943 
L 297.507765 103.213587 
L 299.679368 107.107443 
L 300.765169 108.94006 
L 302.936771 113.591537 
L 304.022572 115.704066 
L 306.194175 120.679157 
L 310.537379 130.180574 
L 313.794783 137.993967 
L 317.052186 145.623787 
L 320.30959 153.919539 
L 325.738595 166.683918 
L 328.995999 173.811264 
L 331.167601 178.802764 
L 335.510806 188.073327 
L 339.85401 196.970629 
L 344.197215 205.466505 
L 346.368817 209.94009 
L 355.055227 226.014395 
L 358.31263 231.529271 
L 362.655835 238.7077 
L 365.913238 243.939033 
L 368.08484 247.118574 
L 370.256443 250.144445 
L 374.599647 255.547129 
L 375.685448 257.100444 
L 381.114454 263.43605 
L 388.715062 271.232066 
L 391.972466 273.95821 
L 396.31567 276.791545 
L 398.487273 277.800395 
L 398.487273 277.800395 
" clip-path="url(#pb5da0c5219)" style="fill: none; stroke-dasharray: 1,1.65; stroke-dashoffset: 0; stroke: #00ffff"/>
   </g>
   <g id="patch_3">
    <path d="M 57.6 307.584 
L 57.6 41.472 
" style="fill: none; stroke: #000000; stroke-width: 0.8; stroke-linejoin: miter; stroke-linecap: square"/>
   </g>
   <g id="patch_4">
    <path d="M 414.72 307.584 
L 414.72 41.472 
" style="fill: none; stroke: #000000; stroke-width: 0.8; stroke-linejoin: miter; stroke-linecap: square"/>
   </g>
   <g id="patch_5">
    <path d="M 57.6 307.584 
L 414.72 307.584 
" style="fill: none; stroke: #000000; stroke-width: 0.8; stroke-linejoin: miter; stroke-linecap: square"/>
   </g>
   <g id="patch_6">
    <path d="M 57.6 41.472 
L 414.72 41.472 
" style="fill: none; stroke: #000000; stroke-width: 0.8; stroke-linejoin: miter; stroke-linecap: square"/>
   </g>
   <g id="legend_1">
    <g id="patch_7">
     <path d="M 182.501406 302.584 
L 289.818594 302.584 
Q 291.818594 302.584 291.818594 300.584 
L 291.818594 228.193375 
Q 291.818594 226.193375 289.818594 226.193375 
L 182.501406 226.193375 
Q 180.501406 226.193375 180.501406 228.193375 
L 180.501406 300.584 
Q 180.501406 302.584 182.501406 302.584 
z
" style="fill: #ffffff; opacity: 0.8; stroke: #cccccc; stroke-linejoin: miter"/>
    </g>
    <g id="line2d_23">
     <path d="M 184.501406 234.291812 
L 194.501406 234.291812 
L 204.501406 234.291812 
" style="fill: none; stroke-dasharray: 7.4,3.2; stroke-dashoffset: 0; stroke: #ff0000; stroke-width: 2"/>
    </g>
    <g id="text_14">
     <!-- true -->
     <g transform="translate(212.501406 237.791812)scale(0.1 -0.1)">
      <defs>
       <path id="DejaVuSans-74" d="M 1172 4494 
L 1172 3500 
L 2356 3500 
L 2356 3053 
L 1172 3053 
L 1172 1153 
Q 1172 725 1289 603 
Q 1406 481 1766 481 
L 2356 481 
L 2356 0 
L 1766 0 
Q 1100 0 847 248 
Q 594 497 594 1153 
L 594 3053 
L 172 3053 
L 172 3500 
L 594 3500 
L 594 4494 
L 1172 4494 
z
" transform="scale(0.015625)"/>
       <path id="DejaVuSans-72" d="M 2631 2963 
Q 2534 3019 2420 3045 
Q 2306 3072 2169 3072 
Q 1681 3072 1420 2755 
Q 1159 2438 1159 1844 
L 1159 0 
L 581 0 
L 581 3500 
L 1159 3500 
L 1159 2956 
Q 1341 3275 1631 3429 
Q 1922 3584 2338 3584 
Q 2397 3584 2469 3576 
Q 2541 3569 2628 3553 
L 2631 2963 
z
" transform="scale(0.015625)"/>
       <path id="DejaVuSans-75" d="M 544 1381 
L 544 3500 
L 1119 3500 
L 1119 1403 
Q 1119 906 1312 657 
Q 1506 409 1894 409 
Q 2359 409 2629 706 
Q 2900 1003 2900 1516 
L 2900 3500 
L 3475 3500 
L 3475 0 
L 2900 0 
L 2900 538 
Q 2691 219 2414 64 
Q 2138 -91 1772 -91 
Q 1169 -91 856 284 
Q 544 659 544 1381 
z
M 1991 3584 
L 1991 3584 
z
" transform="scale(0.015625)"/>
       <path id="DejaVuSans-65" d="M 3597 1894 
L 3597 1613 
L 953 1613 
Q 991 1019 1311 708 
Q 1631 397 2203 397 
Q 2534 397 2845 478 
Q 3156 559 3463 722 
L 3463 178 
Q 3153 47 2828 -22 
Q 2503 -91 2169 -91 
Q 1331 -91 842 396 
Q 353 884 353 1716 
Q 353 2575 817 3079 
Q 1281 3584 2069 3584 
Q 2775 3584 3186 3129 
Q 3597 2675 3597 1894 
z
M 3022 2063 
Q 3016 2534 2758 2815 
Q 2500 3097 2075 3097 
Q 1594 3097 1305 2825 
Q 1016 2553 972 2059 
L 3022 2063 
z
" transform="scale(0.015625)"/>
      </defs>
      <use xlink:href="#DejaVuSans-74"/>
      <use xlink:href="#DejaVuSans-72" x="39.208984"/>
      <use xlink:href="#DejaVuSans-75" x="80.322266"/>
      <use xlink:href="#DejaVuSans-65" x="143.701172"/>
     </g>
    </g>
    <g id="line2d_24">
     <path d="M 184.501406 248.969937 
L 194.501406 248.969937 
L 204.501406 248.969937 
" style="fill: none; stroke: #0000ff; stroke-linecap: square"/>
    </g>
    <g id="text_15">
     <!-- base -->
     <g transform="translate(212.501406 252.469937)scale(0.1 -0.1)">
      <defs>
       <path id="DejaVuSans-62" d="M 3116 1747 
Q 3116 2381 2855 2742 
Q 2594 3103 2138 3103 
Q 1681 3103 1420 2742 
Q 1159 2381 1159 1747 
Q 1159 1113 1420 752 
Q 1681 391 2138 391 
Q 2594 391 2855 752 
Q 3116 1113 3116 1747 
z
M 1159 2969 
Q 1341 3281 1617 3432 
Q 1894 3584 2278 3584 
Q 2916 3584 3314 3078 
Q 3713 2572 3713 1747 
Q 3713 922 3314 415 
Q 2916 -91 2278 -91 
Q 1894 -91 1617 61 
Q 1341 213 1159 525 
L 1159 0 
L 581 0 
L 581 4863 
L 1159 4863 
L 1159 2969 
z
" transform="scale(0.015625)"/>
       <path id="DejaVuSans-61" d="M 2194 1759 
Q 1497 1759 1228 1600 
Q 959 1441 959 1056 
Q 959 750 1161 570 
Q 1363 391 1709 391 
Q 2188 391 2477 730 
Q 2766 1069 2766 1631 
L 2766 1759 
L 2194 1759 
z
M 3341 1997 
L 3341 0 
L 2766 0 
L 2766 531 
Q 2569 213 2275 61 
Q 1981 -91 1556 -91 
Q 1019 -91 701 211 
Q 384 513 384 1019 
Q 384 1609 779 1909 
Q 1175 2209 1959 2209 
L 2766 2209 
L 2766 2266 
Q 2766 2663 2505 2880 
Q 2244 3097 1772 3097 
Q 1472 3097 1187 3025 
Q 903 2953 641 2809 
L 641 3341 
Q 956 3463 1253 3523 
Q 1550 3584 1831 3584 
Q 2591 3584 2966 3190 
Q 3341 2797 3341 1997 
z
" transform="scale(0.015625)"/>
       <path id="DejaVuSans-73" d="M 2834 3397 
L 2834 2853 
Q 2591 2978 2328 3040 
Q 2066 3103 1784 3103 
Q 1356 3103 1142 2972 
Q 928 2841 928 2578 
Q 928 2378 1081 2264 
Q 1234 2150 1697 2047 
L 1894 2003 
Q 2506 1872 2764 1633 
Q 3022 1394 3022 966 
Q 3022 478 2636 193 
Q 2250 -91 1575 -91 
Q 1294 -91 989 -36 
Q 684 19 347 128 
L 347 722 
Q 666 556 975 473 
Q 1284 391 1588 391 
Q 1994 391 2212 530 
Q 2431 669 2431 922 
Q 2431 1156 2273 1281 
Q 2116 1406 1581 1522 
L 1381 1569 
Q 847 1681 609 1914 
Q 372 2147 372 2553 
Q 372 3047 722 3315 
Q 1072 3584 1716 3584 
Q 2034 3584 2315 3537 
Q 2597 3491 2834 3397 
z
" transform="scale(0.015625)"/>
      </defs>
      <use xlink:href="#DejaVuSans-62"/>
      <use xlink:href="#DejaVuSans-61" x="63.476562"/>
      <use xlink:href="#DejaVuSans-73" x="124.755859"/>
      <use xlink:href="#DejaVuSans-65" x="176.855469"/>
     </g>
    </g>
    <g id="line2d_25">
     <path d="M 184.501406 263.648062 
L 194.501406 263.648062 
L 204.501406 263.648062 
" style="fill: none; stroke: #ff00ff; stroke-linecap: square"/>
    </g>
    <g id="text_16">
     <!-- win false -->
     <g transform="translate(212.501406 267.148062)scale(0.1 -0.1)">
      <defs>
       <path id="DejaVuSans-77" d="M 269 3500 
L 844 3500 
L 1563 769 
L 2278 3500 
L 2956 3500 
L 3675 769 
L 4391 3500 
L 4966 3500 
L 4050 0 
L 3372 0 
L 2619 2869 
L 1863 0 
L 1184 0 
L 269 3500 
z
" transform="scale(0.015625)"/>
       <path id="DejaVuSans-69" d="M 603 3500 
L 1178 3500 
L 1178 0 
L 603 0 
L 603 3500 
z
M 603 4863 
L 1178 4863 
L 1178 4134 
L 603 4134 
L 603 4863 
z
" transform="scale(0.015625)"/>
       <path id="DejaVuSans-6e" d="M 3513 2113 
L 3513 0 
L 2938 0 
L 2938 2094 
Q 2938 2591 2744 2837 
Q 2550 3084 2163 3084 
Q 1697 3084 1428 2787 
Q 1159 2491 1159 1978 
L 1159 0 
L 581 0 
L 581 3500 
L 1159 3500 
L 1159 2956 
Q 1366 3272 1645 3428 
Q 1925 3584 2291 3584 
Q 2894 3584 3203 3211 
Q 3513 2838 3513 2113 
z
" transform="scale(0.015625)"/>
       <path id="DejaVuSans-20" transform="scale(0.015625)"/>
       <path id="DejaVuSans-66" d="M 2375 4863 
L 2375 4384 
L 1825 4384 
Q 1516 4384 1395 4259 
Q 1275 4134 1275 3809 
L 1275 3500 
L 2222 3500 
L 2222 3053 
L 1275 3053 
L 1275 0 
L 697 0 
L 697 3053 
L 147 3053 
L 147 3500 
L 697 3500 
L 697 3744 
Q 697 4328 969 4595 
Q 1241 4863 1831 4863 
L 2375 4863 
z
" transform="scale(0.015625)"/>
       <path id="DejaVuSans-6c" d="M 603 4863 
L 1178 4863 
L 1178 0 
L 603 0 
L 603 4863 
z
" transform="scale(0.015625)"/>
      </defs>
      <use xlink:href="#DejaVuSans-77"/>
      <use xlink:href="#DejaVuSans-69" x="81.787109"/>
      <use xlink:href="#DejaVuSans-6e" x="109.570312"/>
      <use xlink:href="#DejaVuSans-20" x="172.949219"/>
      <use xlink:href="#DejaVuSans-66" x="204.736328"/>
      <use xlink:href="#DejaVuSans-61" x="239.941406"/>
      <use xlink:href="#DejaVuSans-6c" x="301.220703"/>
      <use xlink:href="#DejaVuSans-73" x="329.003906"/>
      <use xlink:href="#DejaVuSans-65" x="381.103516"/>
     </g>
    </g>
    <g id="line2d_26">
     <path d="M 184.501406 278.326188 
L 194.501406 278.326188 
L 204.501406 278.326188 
" style="fill: none; stroke: #008000; stroke-linecap: square"/>
    </g>
    <g id="text_17">
     <!-- normamp false -->
     <g transform="translate(212.501406 281.826188)scale(0.1 -0.1)">
      <defs>
       <path id="DejaVuSans-6f" d="M 1959 3097 
Q 1497 3097 1228 2736 
Q 959 2375 959 1747 
Q 959 1119 1226 758 
Q 1494 397 1959 397 
Q 2419 397 2687 759 
Q 2956 1122 2956 1747 
Q 2956 2369 2687 2733 
Q 2419 3097 1959 3097 
z
M 1959 3584 
Q 2709 3584 3137 3096 
Q 3566 2609 3566 1747 
Q 3566 888 3137 398 
Q 2709 -91 1959 -91 
Q 1206 -91 779 398 
Q 353 888 353 1747 
Q 353 2609 779 3096 
Q 1206 3584 1959 3584 
z
" transform="scale(0.015625)"/>
       <path id="DejaVuSans-6d" d="M 3328 2828 
Q 3544 3216 3844 3400 
Q 4144 3584 4550 3584 
Q 5097 3584 5394 3201 
Q 5691 2819 5691 2113 
L 5691 0 
L 5113 0 
L 5113 2094 
Q 5113 2597 4934 2840 
Q 4756 3084 4391 3084 
Q 3944 3084 3684 2787 
Q 3425 2491 3425 1978 
L 3425 0 
L 2847 0 
L 2847 2094 
Q 2847 2600 2669 2842 
Q 2491 3084 2119 3084 
Q 1678 3084 1418 2786 
Q 1159 2488 1159 1978 
L 1159 0 
L 581 0 
L 581 3500 
L 1159 3500 
L 1159 2956 
Q 1356 3278 1631 3431 
Q 1906 3584 2284 3584 
Q 2666 3584 2933 3390 
Q 3200 3197 3328 2828 
z
" transform="scale(0.015625)"/>
       <path id="DejaVuSans-70" d="M 1159 525 
L 1159 -1331 
L 581 -1331 
L 581 3500 
L 1159 3500 
L 1159 2969 
Q 1341 3281 1617 3432 
Q 1894 3584 2278 3584 
Q 2916 3584 3314 3078 
Q 3713 2572 3713 1747 
Q 3713 922 3314 415 
Q 2916 -91 2278 -91 
Q 1894 -91 1617 61 
Q 1341 213 1159 525 
z
M 3116 1747 
Q 3116 2381 2855 2742 
Q 2594 3103 2138 3103 
Q 1681 3103 1420 2742 
Q 1159 2381 1159 1747 
Q 1159 1113 1420 752 
Q 1681 391 2138 391 
Q 2594 391 2855 752 
Q 3116 1113 3116 1747 
z
" transform="scale(0.015625)"/>
      </defs>
      <use xlink:href="#DejaVuSans-6e"/>
      <use xlink:href="#DejaVuSans-6f" x="63.378906"/>
      <use xlink:href="#DejaVuSans-72" x="124.560547"/>
      <use xlink:href="#DejaVuSans-6d" x="163.923828"/>
      <use xlink:href="#DejaVuSans-61" x="261.335938"/>
      <use xlink:href="#DejaVuSans-6d" x="322.615234"/>
      <use xlink:href="#DejaVuSans-70" x="420.027344"/>
      <use xlink:href="#DejaVuSans-20" x="483.503906"/>
      <use xlink:href="#DejaVuSans-66" x="515.291016"/>
      <use xlink:href="#DejaVuSans-61" x="550.496094"/>
      <use xlink:href="#DejaVuSans-6c" x="611.775391"/>
      <use xlink:href="#DejaVuSans-73" x="639.558594"/>
      <use xlink:href="#DejaVuSans-65" x="691.658203"/>
     </g>
    </g>
    <g id="line2d_27">
     <path d="M 184.501406 293.004312 
L 194.501406 293.004312 
L 204.501406 293.004312 
" style="fill: none; stroke: #00ffff; stroke-linecap: square"/>
    </g>
    <g id="text_18">
     <!-- delta 6 -->
     <g transform="translate(212.501406 296.504312)scale(0.1 -0.1)">
      <defs>
       <path id="DejaVuSans-64" d="M 2906 2969 
L 2906 4863 
L 3481 4863 
L 3481 0 
L 2906 0 
L 2906 525 
Q 2725 213 2448 61 
Q 2172 -91 1784 -91 
Q 1150 -91 751 415 
Q 353 922 353 1747 
Q 353 2572 751 3078 
Q 1150 3584 1784 3584 
Q 2172 3584 2448 3432 
Q 2725 3281 2906 2969 
z
M 947 1747 
Q 947 1113 1208 752 
Q 1469 391 1925 391 
Q 2381 391 2643 752 
Q 2906 1113 2906 1747 
Q 2906 2381 2643 2742 
Q 2381 3103 1925 3103 
Q 1469 3103 1208 2742 
Q 947 2381 947 1747 
z
" transform="scale(0.015625)"/>
      </defs>
      <use xlink:href="#DejaVuSans-64"/>
      <use xlink:href="#DejaVuSans-65" x="63.476562"/>
      <use xlink:href="#DejaVuSans-6c" x="125"/>
      <use xlink:href="#DejaVuSans-74" x="152.783203"/>
      <use xlink:href="#DejaVuSans-61" x="191.992188"/>
      <use xlink:href="#DejaVuSans-20" x="253.271484"/>
      <use xlink:href="#DejaVuSans-36" x="285.058594"/>
     </g>
    </g>
   </g>
  </g>
  <g id="text_19">
   <!-- Conditionally averaged waveforms with variance -->
   <g transform="translate(83.702813 16.030125)scale(0.12 -0.12)">
    <defs>
     <path id="DejaVuSans-43" d="M 4122 4306 
L 4122 3641 
Q 3803 3938 3442 4084 
Q 3081 4231 2675 4231 
Q 1875 4231 1450 3742 
Q 1025 3253 1025 2328 
Q 1025 1406 1450 917 
Q 1875 428 2675 428 
Q 3081 428 3442 575 
Q 3803 722 4122 1019 
L 4122 359 
Q 3791 134 3420 21 
Q 3050 -91 2638 -91 
Q 1578 -91 968 557 
Q 359 1206 359 2328 
Q 359 3453 968 4101 
Q 1578 4750 2638 4750 
Q 3056 4750 3426 4639 
Q 3797 4528 4122 4306 
z
" transform="scale(0.015625)"/>
     <path id="DejaVuSans-79" d="M 2059 -325 
Q 1816 -950 1584 -1140 
Q 1353 -1331 966 -1331 
L 506 -1331 
L 506 -850 
L 844 -850 
Q 1081 -850 1212 -737 
Q 1344 -625 1503 -206 
L 1606 56 
L 191 3500 
L 800 3500 
L 1894 763 
L 2988 3500 
L 3597 3500 
L 2059 -325 
z
" transform="scale(0.015625)"/>
     <path id="DejaVuSans-76" d="M 191 3500 
L 800 3500 
L 1894 563 
L 2988 3500 
L 3597 3500 
L 2284 0 
L 1503 0 
L 191 3500 
z
" transform="scale(0.015625)"/>
     <path id="DejaVuSans-67" d="M 2906 1791 
Q 2906 2416 2648 2759 
Q 2391 3103 1925 3103 
Q 1463 3103 1205 2759 
Q 947 2416 947 1791 
Q 947 1169 1205 825 
Q 1463 481 1925 481 
Q 2391 481 2648 825 
Q 2906 1169 2906 1791 
z
M 3481 434 
Q 3481 -459 3084 -895 
Q 2688 -1331 1869 -1331 
Q 1566 -1331 1297 -1286 
Q 1028 -1241 775 -1147 
L 775 -588 
Q 1028 -725 1275 -790 
Q 1522 -856 1778 -856 
Q 2344 -856 2625 -561 
Q 2906 -266 2906 331 
L 2906 616 
Q 2728 306 2450 153 
Q 2172 0 1784 0 
Q 1141 0 747 490 
Q 353 981 353 1791 
Q 353 2603 747 3093 
Q 1141 3584 1784 3584 
Q 2172 3584 2450 3431 
Q 2728 3278 2906 2969 
L 2906 3500 
L 3481 3500 
L 3481 434 
z
" transform="scale(0.015625)"/>
     <path id="DejaVuSans-68" d="M 3513 2113 
L 3513 0 
L 2938 0 
L 2938 2094 
Q 2938 2591 2744 2837 
Q 2550 3084 2163 3084 
Q 1697 3084 1428 2787 
Q 1159 2491 1159 1978 
L 1159 0 
L 581 0 
L 581 4863 
L 1159 4863 
L 1159 2956 
Q 1366 3272 1645 3428 
Q 1925 3584 2291 3584 
Q 2894 3584 3203 3211 
Q 3513 2838 3513 2113 
z
" transform="scale(0.015625)"/>
     <path id="DejaVuSans-63" d="M 3122 3366 
L 3122 2828 
Q 2878 2963 2633 3030 
Q 2388 3097 2138 3097 
Q 1578 3097 1268 2742 
Q 959 2388 959 1747 
Q 959 1106 1268 751 
Q 1578 397 2138 397 
Q 2388 397 2633 464 
Q 2878 531 3122 666 
L 3122 134 
Q 2881 22 2623 -34 
Q 2366 -91 2075 -91 
Q 1284 -91 818 406 
Q 353 903 353 1747 
Q 353 2603 823 3093 
Q 1294 3584 2113 3584 
Q 2378 3584 2631 3529 
Q 2884 3475 3122 3366 
z
" transform="scale(0.015625)"/>
    </defs>
    <use xlink:href="#DejaVuSans-43"/>
    <use xlink:href="#DejaVuSans-6f" x="69.824219"/>
    <use xlink:href="#DejaVuSans-6e" x="131.005859"/>
    <use xlink:href="#DejaVuSans-64" x="194.384766"/>
    <use xlink:href="#DejaVuSans-69" x="257.861328"/>
    <use xlink:href="#DejaVuSans-74" x="285.644531"/>
    <use xlink:href="#DejaVuSans-69" x="324.853516"/>
    <use xlink:href="#DejaVuSans-6f" x="352.636719"/>
    <use xlink:href="#DejaVuSans-6e" x="413.818359"/>
    <use xlink:href="#DejaVuSans-61" x="477.197266"/>
    <use xlink:href="#DejaVuSans-6c" x="538.476562"/>
    <use xlink:href="#DejaVuSans-6c" x="566.259766"/>
    <use xlink:href="#DejaVuSans-79" x="594.042969"/>
    <use xlink:href="#DejaVuSans-20" x="653.222656"/>
    <use xlink:href="#DejaVuSans-61" x="685.009766"/>
    <use xlink:href="#DejaVuSans-76" x="746.289062"/>
    <use xlink:href="#DejaVuSans-65" x="805.46875"/>
    <use xlink:href="#DejaVuSans-72" x="866.992188"/>
    <use xlink:href="#DejaVuSans-61" x="908.105469"/>
    <use xlink:href="#DejaVuSans-67" x="969.384766"/>
    <use xlink:href="#DejaVuSans-65" x="1032.861328"/>
    <use xlink:href="#DejaVuSans-64" x="1094.384766"/>
    <use xlink:href="#DejaVuSans-20" x="1157.861328"/>
    <use xlink:href="#DejaVuSans-77" x="1189.648438"/>
    <use xlink:href="#DejaVuSans-61" x="1271.435547"/>
    <use xlink:href="#DejaVuSans-76" x="1332.714844"/>
    <use xlink:href="#DejaVuSans-65" x="1391.894531"/>
    <use xlink:href="#DejaVuSans-66" x="1453.417969"/>
    <use xlink:href="#DejaVuSans-6f" x="1488.623047"/>
    <use xlink:href="#DejaVuSans-72" x="1549.804688"/>
    <use xlink:href="#DejaVuSans-6d" x="1589.167969"/>
    <use xlink:href="#DejaVuSans-73" x="1686.580078"/>
    <use xlink:href="#DejaVuSans-20" x="1738.679688"/>
    <use xlink:href="#DejaVuSans-77" x="1770.466797"/>
    <use xlink:href="#DejaVuSans-69" x="1852.253906"/>
    <use xlink:href="#DejaVuSans-74" x="1880.037109"/>
    <use xlink:href="#DejaVuSans-68" x="1919.246094"/>
    <use xlink:href="#DejaVuSans-20" x="1982.625"/>
    <use xlink:href="#DejaVuSans-76" x="2014.412109"/>
    <use xlink:href="#DejaVuSans-61" x="2073.591797"/>
    <use xlink:href="#DejaVuSans-72" x="2134.871094"/>
    <use xlink:href="#DejaVuSans-69" x="2175.984375"/>
    <use xlink:href="#DejaVuSans-61" x="2203.767578"/>
    <use xlink:href="#DejaVuSans-6e" x="2265.046875"/>
    <use xlink:href="#DejaVuSans-63" x="2328.425781"/>
    <use xlink:href="#DejaVuSans-65" x="2383.40625"/>
   </g>
   <!-- gamma=inf lambda=0.2 -->
   <g transform="translate(155.979375 29.4675)scale(0.12 -0.12)">
    <defs>
     <path id="DejaVuSans-3d" d="M 678 2906 
L 4684 2906 
L 4684 2381 
L 678 2381 
L 678 2906 
z
M 678 1631 
L 4684 1631 
L 4684 1100 
L 678 1100 
L 678 1631 
z
" transform="scale(0.015625)"/>
    </defs>
    <use xlink:href="#DejaVuSans-67"/>
    <use xlink:href="#DejaVuSans-61" x="63.476562"/>
    <use xlink:href="#DejaVuSans-6d" x="124.755859"/>
    <use xlink:href="#DejaVuSans-6d" x="222.167969"/>
    <use xlink:href="#DejaVuSans-61" x="319.580078"/>
    <use xlink:href="#DejaVuSans-3d" x="380.859375"/>
    <use xlink:href="#DejaVuSans-69" x="464.648438"/>
    <use xlink:href="#DejaVuSans-6e" x="492.431641"/>
    <use xlink:href="#DejaVuSans-66" x="555.810547"/>
    <use xlink:href="#DejaVuSans-20" x="591.015625"/>
    <use xlink:href="#DejaVuSans-6c" x="622.802734"/>
    <use xlink:href="#DejaVuSans-61" x="650.585938"/>
    <use xlink:href="#DejaVuSans-6d" x="711.865234"/>
    <use xlink:href="#DejaVuSans-62" x="809.277344"/>
    <use xlink:href="#DejaVuSans-64" x="872.753906"/>
    <use xlink:href="#DejaVuSans-61" x="936.230469"/>
    <use xlink:href="#DejaVuSans-3d" x="997.509766"/>
    <use xlink:href="#DejaVuSans-30" x="1081.298828"/>
    <use xlink:href="#DejaVuSans-2e" x="1144.921875"/>
    <use xlink:href="#DejaVuSans-32" x="1176.708984"/>
   </g>
  </g>
 </g>
 <defs>
  <clipPath id="pb5da0c5219">
   <rect x="57.6" y="41.472" width="357.12" height="266.112"/>
  </clipPath>
 </defs>
</svg>
