<?xml version="1.0" encoding="utf-8" standalone="no"?>
<!DOCTYPE svg PUBLIC "-//W3C//DTD SVG 1.1//EN"
  "http://www.w3.org/Graphics/SVG/1.1/DTD/svg11.dtd">
<svg xmlns:xlink="http://www.w3.org/1999/xlink" width="460.8pt" height="345.6pt" viewBox="0 0 460.8 345.6" xmlns="http://www.w3.org/2000/svg" version="1.1">
 <metadata>
  <rdf:RDF xmlns:dc="http://purl.org/dc/elements/1.1/" xmlns:cc="http://creativecommons.org/ns#" xmlns:rdf="http://www.w3.org/1999/02/22-rdf-syntax-ns#">
   <cc:Work>
    <dc:type rdf:resource="http://purl.org/dc/dcmitype/StillImage"/>
    <dc:date>2022-08-12T12:45:54.215911</dc:date>
    <dc:format>image/svg+xml</dc:format>
    <dc:creator>
     <cc:Agent>
      <dc:title>Matplotlib v3.5.2, https://matplotlib.org/</dc:title>
     </cc:Agent>
    </dc:creator>
   </cc:Work>
  </rdf:RDF>
 </metadata>
 <defs>
  <style type="text/css">*{stroke-linejoin: round; stroke-linecap: butt}</style>
 </defs>
 <g id="figure_1">
  <g id="patch_1">
   <path d="M 0 345.6 
L 460.8 345.6 
L 460.8 0 
L 0 0 
z
" style="fill: #ffffff"/>
  </g>
  <g id="axes_1">
   <g id="patch_2">
    <path d="M 57.6 307.584 
L 414.72 307.584 
L 414.72 41.472 
L 57.6 41.472 
z
" style="fill: #ffffff"/>
   </g>
   <g id="matplotlib.axis_1">
    <g id="xtick_1">
     <g id="line2d_1">
      <defs>
       <path id="m94f8fc7e13" d="M 0 0 
L 0 3.5 
" style="stroke: #000000; stroke-width: 0.8"/>
      </defs>
      <g>
       <use xlink:href="#m94f8fc7e13" x="73.832727" y="307.584" style="stroke: #000000; stroke-width: 0.8"/>
      </g>
     </g>
     <g id="text_1">
      <!-- −1.5 -->
      <g transform="translate(61.691321 322.182437)scale(0.1 -0.1)">
       <defs>
        <path id="DejaVuSans-2212" d="M 678 2272 
L 4684 2272 
L 4684 1741 
L 678 1741 
L 678 2272 
z
" transform="scale(0.015625)"/>
        <path id="DejaVuSans-31" d="M 794 531 
L 1825 531 
L 1825 4091 
L 703 3866 
L 703 4441 
L 1819 4666 
L 2450 4666 
L 2450 531 
L 3481 531 
L 3481 0 
L 794 0 
L 794 531 
z
" transform="scale(0.015625)"/>
        <path id="DejaVuSans-2e" d="M 684 794 
L 1344 794 
L 1344 0 
L 684 0 
L 684 794 
z
" transform="scale(0.015625)"/>
        <path id="DejaVuSans-35" d="M 691 4666 
L 3169 4666 
L 3169 4134 
L 1269 4134 
L 1269 2991 
Q 1406 3038 1543 3061 
Q 1681 3084 1819 3084 
Q 2600 3084 3056 2656 
Q 3513 2228 3513 1497 
Q 3513 744 3044 326 
Q 2575 -91 1722 -91 
Q 1428 -91 1123 -41 
Q 819 9 494 109 
L 494 744 
Q 775 591 1075 516 
Q 1375 441 1709 441 
Q 2250 441 2565 725 
Q 2881 1009 2881 1497 
Q 2881 1984 2565 2268 
Q 2250 2553 1709 2553 
Q 1456 2553 1204 2497 
Q 953 2441 691 2322 
L 691 4666 
z
" transform="scale(0.015625)"/>
       </defs>
       <use xlink:href="#DejaVuSans-2212"/>
       <use xlink:href="#DejaVuSans-31" x="83.789062"/>
       <use xlink:href="#DejaVuSans-2e" x="147.412109"/>
       <use xlink:href="#DejaVuSans-35" x="179.199219"/>
      </g>
     </g>
    </g>
    <g id="xtick_2">
     <g id="line2d_2">
      <g>
       <use xlink:href="#m94f8fc7e13" x="128.122785" y="307.584" style="stroke: #000000; stroke-width: 0.8"/>
      </g>
     </g>
     <g id="text_2">
      <!-- −1.0 -->
      <g transform="translate(115.981379 322.182437)scale(0.1 -0.1)">
       <defs>
        <path id="DejaVuSans-30" d="M 2034 4250 
Q 1547 4250 1301 3770 
Q 1056 3291 1056 2328 
Q 1056 1369 1301 889 
Q 1547 409 2034 409 
Q 2525 409 2770 889 
Q 3016 1369 3016 2328 
Q 3016 3291 2770 3770 
Q 2525 4250 2034 4250 
z
M 2034 4750 
Q 2819 4750 3233 4129 
Q 3647 3509 3647 2328 
Q 3647 1150 3233 529 
Q 2819 -91 2034 -91 
Q 1250 -91 836 529 
Q 422 1150 422 2328 
Q 422 3509 836 4129 
Q 1250 4750 2034 4750 
z
" transform="scale(0.015625)"/>
       </defs>
       <use xlink:href="#DejaVuSans-2212"/>
       <use xlink:href="#DejaVuSans-31" x="83.789062"/>
       <use xlink:href="#DejaVuSans-2e" x="147.412109"/>
       <use xlink:href="#DejaVuSans-30" x="179.199219"/>
      </g>
     </g>
    </g>
    <g id="xtick_3">
     <g id="line2d_3">
      <g>
       <use xlink:href="#m94f8fc7e13" x="182.412843" y="307.584" style="stroke: #000000; stroke-width: 0.8"/>
      </g>
     </g>
     <g id="text_3">
      <!-- −0.5 -->
      <g transform="translate(170.271437 322.182437)scale(0.1 -0.1)">
       <use xlink:href="#DejaVuSans-2212"/>
       <use xlink:href="#DejaVuSans-30" x="83.789062"/>
       <use xlink:href="#DejaVuSans-2e" x="147.412109"/>
       <use xlink:href="#DejaVuSans-35" x="179.199219"/>
      </g>
     </g>
    </g>
    <g id="xtick_4">
     <g id="line2d_4">
      <g>
       <use xlink:href="#m94f8fc7e13" x="236.702901" y="307.584" style="stroke: #000000; stroke-width: 0.8"/>
      </g>
     </g>
     <g id="text_4">
      <!-- 0.0 -->
      <g transform="translate(228.751338 322.182437)scale(0.1 -0.1)">
       <use xlink:href="#DejaVuSans-30"/>
       <use xlink:href="#DejaVuSans-2e" x="63.623047"/>
       <use xlink:href="#DejaVuSans-30" x="95.410156"/>
      </g>
     </g>
    </g>
    <g id="xtick_5">
     <g id="line2d_5">
      <g>
       <use xlink:href="#m94f8fc7e13" x="290.992958" y="307.584" style="stroke: #000000; stroke-width: 0.8"/>
      </g>
     </g>
     <g id="text_5">
      <!-- 0.5 -->
      <g transform="translate(283.041396 322.182437)scale(0.1 -0.1)">
       <use xlink:href="#DejaVuSans-30"/>
       <use xlink:href="#DejaVuSans-2e" x="63.623047"/>
       <use xlink:href="#DejaVuSans-35" x="95.410156"/>
      </g>
     </g>
    </g>
    <g id="xtick_6">
     <g id="line2d_6">
      <g>
       <use xlink:href="#m94f8fc7e13" x="345.283016" y="307.584" style="stroke: #000000; stroke-width: 0.8"/>
      </g>
     </g>
     <g id="text_6">
      <!-- 1.0 -->
      <g transform="translate(337.331454 322.182437)scale(0.1 -0.1)">
       <use xlink:href="#DejaVuSans-31"/>
       <use xlink:href="#DejaVuSans-2e" x="63.623047"/>
       <use xlink:href="#DejaVuSans-30" x="95.410156"/>
      </g>
     </g>
    </g>
    <g id="xtick_7">
     <g id="line2d_7">
      <g>
       <use xlink:href="#m94f8fc7e13" x="399.573074" y="307.584" style="stroke: #000000; stroke-width: 0.8"/>
      </g>
     </g>
     <g id="text_7">
      <!-- 1.5 -->
      <g transform="translate(391.621511 322.182437)scale(0.1 -0.1)">
       <use xlink:href="#DejaVuSans-31"/>
       <use xlink:href="#DejaVuSans-2e" x="63.623047"/>
       <use xlink:href="#DejaVuSans-35" x="95.410156"/>
      </g>
     </g>
    </g>
   </g>
   <g id="matplotlib.axis_2">
    <g id="ytick_1">
     <g id="line2d_8">
      <defs>
       <path id="m9e3fc2dea2" d="M 0 0 
L -3.5 0 
" style="stroke: #000000; stroke-width: 0.8"/>
      </defs>
      <g>
       <use xlink:href="#m9e3fc2dea2" x="57.6" y="285.018171" style="stroke: #000000; stroke-width: 0.8"/>
      </g>
     </g>
     <g id="text_8">
      <!-- 0.0 -->
      <g transform="translate(34.696875 288.81739)scale(0.1 -0.1)">
       <use xlink:href="#DejaVuSans-30"/>
       <use xlink:href="#DejaVuSans-2e" x="63.623047"/>
       <use xlink:href="#DejaVuSans-30" x="95.410156"/>
      </g>
     </g>
    </g>
    <g id="ytick_2">
     <g id="line2d_9">
      <g>
       <use xlink:href="#m9e3fc2dea2" x="57.6" y="238.728137" style="stroke: #000000; stroke-width: 0.8"/>
      </g>
     </g>
     <g id="text_9">
      <!-- 0.2 -->
      <g transform="translate(34.696875 242.527356)scale(0.1 -0.1)">
       <defs>
        <path id="DejaVuSans-32" d="M 1228 531 
L 3431 531 
L 3431 0 
L 469 0 
L 469 531 
Q 828 903 1448 1529 
Q 2069 2156 2228 2338 
Q 2531 2678 2651 2914 
Q 2772 3150 2772 3378 
Q 2772 3750 2511 3984 
Q 2250 4219 1831 4219 
Q 1534 4219 1204 4116 
Q 875 4013 500 3803 
L 500 4441 
Q 881 4594 1212 4672 
Q 1544 4750 1819 4750 
Q 2544 4750 2975 4387 
Q 3406 4025 3406 3419 
Q 3406 3131 3298 2873 
Q 3191 2616 2906 2266 
Q 2828 2175 2409 1742 
Q 1991 1309 1228 531 
z
" transform="scale(0.015625)"/>
       </defs>
       <use xlink:href="#DejaVuSans-30"/>
       <use xlink:href="#DejaVuSans-2e" x="63.623047"/>
       <use xlink:href="#DejaVuSans-32" x="95.410156"/>
      </g>
     </g>
    </g>
    <g id="ytick_3">
     <g id="line2d_10">
      <g>
       <use xlink:href="#m9e3fc2dea2" x="57.6" y="192.438103" style="stroke: #000000; stroke-width: 0.8"/>
      </g>
     </g>
     <g id="text_10">
      <!-- 0.4 -->
      <g transform="translate(34.696875 196.237321)scale(0.1 -0.1)">
       <defs>
        <path id="DejaVuSans-34" d="M 2419 4116 
L 825 1625 
L 2419 1625 
L 2419 4116 
z
M 2253 4666 
L 3047 4666 
L 3047 1625 
L 3713 1625 
L 3713 1100 
L 3047 1100 
L 3047 0 
L 2419 0 
L 2419 1100 
L 313 1100 
L 313 1709 
L 2253 4666 
z
" transform="scale(0.015625)"/>
       </defs>
       <use xlink:href="#DejaVuSans-30"/>
       <use xlink:href="#DejaVuSans-2e" x="63.623047"/>
       <use xlink:href="#DejaVuSans-34" x="95.410156"/>
      </g>
     </g>
    </g>
    <g id="ytick_4">
     <g id="line2d_11">
      <g>
       <use xlink:href="#m9e3fc2dea2" x="57.6" y="146.148068" style="stroke: #000000; stroke-width: 0.8"/>
      </g>
     </g>
     <g id="text_11">
      <!-- 0.6 -->
      <g transform="translate(34.696875 149.947287)scale(0.1 -0.1)">
       <defs>
        <path id="DejaVuSans-36" d="M 2113 2584 
Q 1688 2584 1439 2293 
Q 1191 2003 1191 1497 
Q 1191 994 1439 701 
Q 1688 409 2113 409 
Q 2538 409 2786 701 
Q 3034 994 3034 1497 
Q 3034 2003 2786 2293 
Q 2538 2584 2113 2584 
z
M 3366 4563 
L 3366 3988 
Q 3128 4100 2886 4159 
Q 2644 4219 2406 4219 
Q 1781 4219 1451 3797 
Q 1122 3375 1075 2522 
Q 1259 2794 1537 2939 
Q 1816 3084 2150 3084 
Q 2853 3084 3261 2657 
Q 3669 2231 3669 1497 
Q 3669 778 3244 343 
Q 2819 -91 2113 -91 
Q 1303 -91 875 529 
Q 447 1150 447 2328 
Q 447 3434 972 4092 
Q 1497 4750 2381 4750 
Q 2619 4750 2861 4703 
Q 3103 4656 3366 4563 
z
" transform="scale(0.015625)"/>
       </defs>
       <use xlink:href="#DejaVuSans-30"/>
       <use xlink:href="#DejaVuSans-2e" x="63.623047"/>
       <use xlink:href="#DejaVuSans-36" x="95.410156"/>
      </g>
     </g>
    </g>
    <g id="ytick_5">
     <g id="line2d_12">
      <g>
       <use xlink:href="#m9e3fc2dea2" x="57.6" y="99.858034" style="stroke: #000000; stroke-width: 0.8"/>
      </g>
     </g>
     <g id="text_12">
      <!-- 0.8 -->
      <g transform="translate(34.696875 103.657253)scale(0.1 -0.1)">
       <defs>
        <path id="DejaVuSans-38" d="M 2034 2216 
Q 1584 2216 1326 1975 
Q 1069 1734 1069 1313 
Q 1069 891 1326 650 
Q 1584 409 2034 409 
Q 2484 409 2743 651 
Q 3003 894 3003 1313 
Q 3003 1734 2745 1975 
Q 2488 2216 2034 2216 
z
M 1403 2484 
Q 997 2584 770 2862 
Q 544 3141 544 3541 
Q 544 4100 942 4425 
Q 1341 4750 2034 4750 
Q 2731 4750 3128 4425 
Q 3525 4100 3525 3541 
Q 3525 3141 3298 2862 
Q 3072 2584 2669 2484 
Q 3125 2378 3379 2068 
Q 3634 1759 3634 1313 
Q 3634 634 3220 271 
Q 2806 -91 2034 -91 
Q 1263 -91 848 271 
Q 434 634 434 1313 
Q 434 1759 690 2068 
Q 947 2378 1403 2484 
z
M 1172 3481 
Q 1172 3119 1398 2916 
Q 1625 2713 2034 2713 
Q 2441 2713 2670 2916 
Q 2900 3119 2900 3481 
Q 2900 3844 2670 4047 
Q 2441 4250 2034 4250 
Q 1625 4250 1398 4047 
Q 1172 3844 1172 3481 
z
" transform="scale(0.015625)"/>
       </defs>
       <use xlink:href="#DejaVuSans-30"/>
       <use xlink:href="#DejaVuSans-2e" x="63.623047"/>
       <use xlink:href="#DejaVuSans-38" x="95.410156"/>
      </g>
     </g>
    </g>
    <g id="ytick_6">
     <g id="line2d_13">
      <g>
       <use xlink:href="#m9e3fc2dea2" x="57.6" y="53.568" style="stroke: #000000; stroke-width: 0.8"/>
      </g>
     </g>
     <g id="text_13">
      <!-- 1.0 -->
      <g transform="translate(34.696875 57.367219)scale(0.1 -0.1)">
       <use xlink:href="#DejaVuSans-31"/>
       <use xlink:href="#DejaVuSans-2e" x="63.623047"/>
       <use xlink:href="#DejaVuSans-30" x="95.410156"/>
      </g>
     </g>
    </g>
   </g>
   <g id="line2d_14">
    <path d="M 73.832727 284.890159 
L 96.634552 284.652359 
L 111.835768 284.281516 
L 122.693779 283.803632 
L 131.380189 283.206292 
L 138.980797 282.446992 
L 145.495604 281.547442 
L 150.924609 280.561667 
L 155.267814 279.574985 
L 159.611019 278.369848 
L 163.954223 276.897891 
L 167.211627 275.583752 
L 170.46903 274.05694 
L 173.726434 272.283037 
L 176.983837 270.222057 
L 180.24124 267.827539 
L 183.498644 265.045506 
L 185.670246 262.944962 
L 187.841849 260.623502 
L 190.013451 258.057893 
L 192.185053 255.222456 
L 194.356656 252.088813 
L 196.528258 248.625602 
L 198.69986 244.798162 
L 200.871462 240.568187 
L 203.043065 235.893341 
L 205.214667 230.726838 
L 207.386269 225.016968 
L 209.557872 218.706587 
L 211.729474 211.732537 
L 213.901076 204.025019 
L 216.072679 195.506895 
L 218.244281 186.092912 
L 220.415883 175.688852 
L 222.587486 164.190587 
L 224.759088 151.483039 
L 226.93069 137.439026 
L 229.102292 121.917992 
L 231.273895 104.764597 
L 233.445497 85.807163 
L 235.617099 64.855958 
L 236.702901 53.568 
L 241.046105 64.855958 
L 245.38931 75.593396 
L 249.732514 85.807163 
L 254.075719 95.522798 
L 258.418924 104.764597 
L 262.762128 113.555667 
L 267.105333 121.917992 
L 271.448538 129.872482 
L 275.791742 137.439026 
L 280.134947 144.636546 
L 284.478151 151.483039 
L 288.821356 157.995624 
L 294.250362 165.691531 
L 299.679368 172.921167 
L 305.108373 179.712781 
L 310.537379 186.092912 
L 315.966385 192.08649 
L 321.395391 197.716936 
L 326.824396 203.006251 
L 332.253402 207.975102 
L 337.682408 212.642905 
L 343.111414 217.027901 
L 348.54042 221.147223 
L 353.969425 225.016968 
L 359.398431 228.652257 
L 365.913238 232.725062 
L 372.428045 236.50358 
L 378.942852 240.009075 
L 385.457659 243.261275 
L 391.972466 246.278483 
L 398.487273 249.077678 
L 398.487273 249.077678 
" clip-path="url(#pcfd61ceb00)" style="fill: none; stroke-dasharray: 7.4,3.2; stroke-dashoffset: 0; stroke: #ff0000; stroke-width: 2"/>
   </g>
   <g id="line2d_15">
    <path d="M 73.832727 290.938907 
L 80.347534 290.953453 
L 93.377148 291.003971 
L 106.406762 291.040555 
L 117.264773 290.795969 
L 124.865382 290.462296 
L 131.380189 289.988405 
L 137.894995 289.295 
L 144.409802 288.319956 
L 149.838808 287.314062 
L 154.182013 286.312307 
L 158.525217 285.088873 
L 162.868422 283.608611 
L 166.125825 282.287069 
L 169.383229 280.727804 
L 172.640632 278.900264 
L 175.898036 276.766949 
L 179.155439 274.308348 
L 182.412843 271.512937 
L 184.584445 269.404011 
L 186.756047 267.066814 
L 188.92765 264.486186 
L 191.099252 261.640507 
L 193.270854 258.49839 
L 195.442457 255.034304 
L 197.614059 251.218896 
L 199.785661 246.993381 
L 201.957264 242.31605 
L 204.128866 237.137115 
L 206.300468 231.421357 
L 208.472071 225.106725 
L 210.643673 218.155433 
L 212.815275 210.487926 
L 214.986877 202.012984 
L 217.15848 192.633825 
L 219.330082 182.256459 
L 221.501684 170.777225 
L 223.673287 158.088605 
L 225.844889 144.064865 
L 228.016491 128.574763 
L 230.188094 111.480159 
L 232.359696 92.599892 
L 234.531298 71.758871 
L 235.617099 60.535937 
L 236.702901 53.568 
L 238.874503 59.302617 
L 243.217708 70.966636 
L 247.560912 82.052509 
L 251.904117 92.595561 
L 256.247321 102.6232 
L 260.590526 112.151038 
L 264.933731 121.202475 
L 269.276935 129.798703 
L 273.62014 137.959054 
L 277.963344 145.712093 
L 282.306549 153.082767 
L 286.649754 160.085621 
L 290.992958 166.746405 
L 295.336163 173.067241 
L 300.765169 180.54294 
L 305.108373 186.176992 
L 310.537379 192.807758 
L 315.966385 199.041871 
L 321.395391 204.90772 
L 326.824396 210.403005 
L 332.253402 215.598297 
L 337.682408 220.474963 
L 343.111414 225.044906 
L 348.54042 229.331736 
L 353.969425 233.322592 
L 360.484232 237.793464 
L 366.999039 241.952518 
L 372.428045 245.169543 
L 378.942852 248.760698 
L 384.371858 251.533041 
L 390.886665 254.653036 
L 396.31567 257.027331 
L 398.487273 257.931127 
L 398.487273 257.931127 
" clip-path="url(#pcfd61ceb00)" style="fill: none; stroke: #0000ff; stroke-linecap: square"/>
   </g>
   <g id="line2d_16">
    <path d="M 73.832727 272.901075 
L 74.918528 272.969848 
L 78.175932 272.822845 
L 81.433335 272.941813 
L 87.948142 273.352221 
L 90.119745 273.140904 
L 94.462949 272.544697 
L 97.720353 272.269653 
L 100.977756 271.981975 
L 104.23516 271.657785 
L 106.406762 271.601131 
L 110.749967 271.840011 
L 114.00737 272.123921 
L 119.436376 272.502553 
L 122.693779 272.995318 
L 127.036984 273.844602 
L 130.294387 274.763595 
L 133.551791 275.865454 
L 136.809194 277.175612 
L 140.066598 278.708813 
L 143.324001 280.248966 
L 148.753007 282.497761 
L 153.096212 284.043194 
L 155.267814 284.606875 
L 157.439416 284.954513 
L 159.611019 284.988543 
L 160.69682 284.857713 
L 161.782621 284.606663 
L 162.868422 284.21924 
L 163.954223 283.674552 
L 165.040024 282.948485 
L 166.125825 282.018107 
L 167.211627 280.858422 
L 168.297428 279.447114 
L 169.383229 277.762652 
L 170.46903 275.784372 
L 171.554831 273.498289 
L 172.640632 270.883113 
L 173.726434 267.93664 
L 174.812235 264.662101 
L 176.983837 257.038631 
L 178.069638 252.677831 
L 179.155439 247.795343 
L 181.327042 236.471349 
L 183.498644 223.34708 
L 185.670246 208.957734 
L 188.92765 185.807364 
L 194.356656 146.167782 
L 197.614059 124.196966 
L 199.785661 111.466924 
L 201.957264 100.448687 
L 204.128866 91.214488 
L 206.300468 83.430977 
L 208.472071 77.032582 
L 210.643673 71.494651 
L 212.815275 66.898549 
L 213.901076 64.966925 
L 214.986877 63.273275 
L 216.072679 61.798673 
L 217.15848 60.518553 
L 219.330082 58.464114 
L 221.501684 56.939545 
L 223.673287 55.812275 
L 225.844889 54.99828 
L 228.016491 54.42408 
L 230.188094 54.024753 
L 233.445497 53.707697 
L 238.874503 53.570873 
L 262.762128 53.693522 
L 274.705941 53.940512 
L 285.563953 54.397265 
L 296.421964 55.121942 
L 305.108373 55.985043 
L 310.537379 56.843691 
L 322.481192 59.299188 
L 326.824396 60.502387 
L 340.939811 64.478859 
L 348.54042 67.449317 
L 350.712022 68.531537 
L 352.883624 69.803354 
L 363.741636 76.999782 
L 365.913238 78.603226 
L 373.513846 85.196341 
L 377.857051 89.720707 
L 380.028653 92.185513 
L 382.200255 95.055672 
L 384.371858 98.048054 
L 388.715062 103.957848 
L 390.886665 107.435621 
L 393.058267 111.249133 
L 395.229869 115.646468 
L 397.401472 120.282463 
L 398.487273 122.432011 
L 398.487273 122.432011 
" clip-path="url(#pcfd61ceb00)" style="fill: none; stroke-dasharray: 1,1.65; stroke-dashoffset: 0; stroke: #0000ff"/>
   </g>
   <g id="line2d_17">
    <path d="M 73.832727 270.748444 
L 81.433335 273.235262 
L 93.377148 276.532183 
L 99.891955 278.047865 
L 110.749967 280.428047 
L 119.436376 282.079564 
L 125.951183 283.078572 
L 131.380189 283.639009 
L 135.723393 283.933661 
L 140.066598 284.105567 
L 149.838808 284.020237 
L 153.096212 283.772485 
L 156.353615 283.462674 
L 161.782621 282.597707 
L 165.040024 281.950312 
L 167.211627 281.395153 
L 172.640632 279.522542 
L 175.898036 278.038995 
L 178.069638 276.909805 
L 181.327042 274.908931 
L 183.498644 273.384372 
L 185.670246 271.605006 
L 188.92765 268.554509 
L 191.099252 266.254794 
L 193.270854 263.68045 
L 196.528258 259.253926 
L 198.69986 255.871368 
L 200.871462 252.081993 
L 203.043065 247.853446 
L 205.214667 243.078071 
L 207.386269 237.763513 
L 209.557872 231.996535 
L 211.729474 225.836181 
L 213.901076 218.702815 
L 216.072679 210.819982 
L 219.330082 197.38914 
L 222.587486 181.963363 
L 224.759088 170.278524 
L 226.93069 157.193654 
L 229.102292 142.674595 
L 231.273895 126.531458 
L 233.445497 108.583876 
L 235.617099 88.931407 
L 236.702901 53.568 
L 237.788702 57.644327 
L 243.217708 73.484975 
L 246.475111 82.772945 
L 251.904117 96.771078 
L 256.247321 107.557607 
L 260.590526 117.88867 
L 270.362736 139.035085 
L 273.62014 145.679367 
L 281.220748 159.608296 
L 287.735555 170.836465 
L 292.07876 177.921313 
L 298.593566 187.691667 
L 302.936771 193.825293 
L 311.62318 204.80845 
L 320.30959 214.895461 
L 324.652794 219.351279 
L 326.824396 221.44546 
L 328.995999 223.584192 
L 330.0818 224.526895 
L 333.339203 227.723024 
L 342.025613 235.419361 
L 347.454618 239.856628 
L 351.797823 243.115988 
L 357.226829 246.880626 
L 361.570033 249.589419 
L 369.170642 254.036758 
L 374.599647 256.924304 
L 380.028653 259.747088 
L 382.200255 260.719976 
L 384.371858 261.703273 
L 387.629261 262.967419 
L 389.800863 263.981505 
L 390.886665 264.676571 
L 396.31567 266.964974 
L 398.487273 267.80188 
L 398.487273 267.80188 
" clip-path="url(#pcfd61ceb00)" style="fill: none; stroke: #ff00ff; stroke-linecap: square"/>
   </g>
   <g id="line2d_18">
    <path d="M 73.832727 279.066714 
L 87.948142 281.309653 
L 94.462949 282.212668 
L 105.320961 283.415246 
L 112.921569 284.081281 
L 120.522177 284.558175 
L 128.122785 284.822891 
L 140.066598 284.95253 
L 154.182013 284.858812 
L 159.611019 284.605593 
L 163.954223 284.180894 
L 166.125825 283.820213 
L 168.297428 283.247143 
L 170.46903 282.511139 
L 172.640632 281.418719 
L 174.812235 279.897606 
L 175.898036 278.959288 
L 176.983837 277.866902 
L 178.069638 276.5771 
L 179.155439 275.080778 
L 180.24124 273.38333 
L 181.327042 271.382233 
L 182.412843 269.110748 
L 183.498644 266.481925 
L 184.584445 263.470405 
L 185.670246 260.02809 
L 186.756047 256.160583 
L 188.92765 247.188701 
L 191.099252 236.305016 
L 193.270854 223.481168 
L 195.442457 208.890941 
L 199.785661 174.098385 
L 201.957264 157.415188 
L 204.128866 142.238451 
L 205.214667 135.211861 
L 206.300468 132.932717 
L 207.386269 127.154752 
L 209.557872 117.278535 
L 210.643673 107.925229 
L 211.729474 101.171084 
L 212.815275 97.915165 
L 213.901076 95.147258 
L 216.072679 90.428874 
L 217.15848 88.993252 
L 218.244281 84.042264 
L 219.330082 83.044913 
L 220.415883 82.398644 
L 221.501684 81.586374 
L 222.587486 78.523103 
L 224.759088 76.005505 
L 228.016491 76.322136 
L 231.273895 77.287642 
L 235.617099 78.906989 
L 236.702901 53.568 
L 237.788702 54.485056 
L 241.046105 54.54242 
L 247.560912 54.9997 
L 250.818316 55.160244 
L 251.904117 61.412058 
L 254.075719 61.875538 
L 257.333123 62.122864 
L 259.504725 62.406544 
L 260.590526 62.678081 
L 261.676327 64.157942 
L 264.933731 64.618985 
L 266.019532 65.193907 
L 268.191134 65.530547 
L 269.276935 67.144676 
L 273.62014 67.943613 
L 274.705941 68.814134 
L 275.791742 71.204795 
L 276.877543 71.448452 
L 277.963344 74.168394 
L 279.049146 74.683131 
L 280.134947 75.753281 
L 281.220748 76.107544 
L 282.306549 76.833803 
L 283.39235 78.311043 
L 285.563953 78.924424 
L 292.07876 81.242443 
L 293.164561 82.10194 
L 294.250362 85.348209 
L 298.593566 87.395206 
L 300.765169 88.455652 
L 301.85097 89.203169 
L 302.936771 89.770345 
L 304.022572 91.282822 
L 306.194175 92.64696 
L 307.279976 94.603451 
L 308.365777 95.83579 
L 309.451578 97.469554 
L 310.537379 98.377287 
L 311.62318 100.591739 
L 312.708981 102.379278 
L 313.794783 103.596806 
L 314.880584 105.554091 
L 318.137987 109.037855 
L 320.30959 111.395393 
L 321.395391 113.650447 
L 323.566993 119.178049 
L 324.652794 120.632211 
L 325.738595 125.269312 
L 327.910198 128.308727 
L 328.995999 130.34804 
L 330.0818 137.291232 
L 332.253402 141.484862 
L 333.339203 143.269948 
L 337.682408 151.521904 
L 338.768209 153.249897 
L 339.85401 156.229387 
L 342.025613 160.280737 
L 344.197215 164.68244 
L 346.368817 169.609336 
L 349.626221 177.805504 
L 351.797823 183.572692 
L 353.969425 189.969088 
L 357.226829 200.209546 
L 359.398431 207.594623 
L 363.741636 222.151903 
L 366.999039 231.919258 
L 368.08484 234.414952 
L 370.256443 238.368282 
L 372.428045 241.701349 
L 373.513846 244.086613 
L 380.028653 252.651465 
L 381.114454 254.731429 
L 384.371858 258.510936 
L 385.457659 260.069577 
L 387.629261 262.358371 
L 389.800863 263.849791 
L 390.886665 262.738712 
L 397.401472 267.016684 
L 398.487273 267.683832 
L 398.487273 267.683832 
" clip-path="url(#pcfd61ceb00)" style="fill: none; stroke-dasharray: 1,1.65; stroke-dashoffset: 0; stroke: #ff00ff"/>
   </g>
   <g id="line2d_19">
    <path d="M 73.832727 281.989689 
L 89.033943 285.54318 
L 91.205546 285.943328 
L 94.462949 286.57806 
L 108.578364 288.81889 
L 122.693779 290.648223 
L 128.122785 291.093411 
L 135.723393 291.357423 
L 140.066598 291.347117 
L 143.324001 291.265058 
L 147.667206 291.097621 
L 152.01041 290.718638 
L 155.267814 290.295149 
L 160.69682 289.125076 
L 166.125825 287.634203 
L 169.383229 286.440746 
L 171.554831 285.565138 
L 174.812235 283.862406 
L 178.069638 282.07447 
L 181.327042 279.884479 
L 183.498644 278.26818 
L 185.670246 276.337761 
L 188.92765 273.048322 
L 192.185053 269.381472 
L 194.356656 266.541928 
L 196.528258 263.371992 
L 198.69986 259.745421 
L 201.957264 253.724113 
L 204.128866 249.104308 
L 208.472071 238.214158 
L 210.643673 232.10533 
L 212.815275 225.311259 
L 216.072679 213.455504 
L 218.244281 204.436428 
L 221.501684 189.118879 
L 223.673287 177.68673 
L 226.93069 157.900081 
L 229.102292 142.995144 
L 231.273895 126.534988 
L 233.445497 108.171696 
L 235.617099 88.082451 
L 236.702901 53.568 
L 237.788702 58.216706 
L 239.960304 64.741075 
L 248.646713 89.70097 
L 251.904117 98.311504 
L 262.762128 125.016805 
L 264.933731 129.991832 
L 273.62014 148.929056 
L 280.134947 161.49445 
L 282.306549 165.733969 
L 290.992958 180.440039 
L 300.765169 195.417443 
L 302.936771 198.44005 
L 311.62318 209.956335 
L 314.880584 213.967217 
L 318.137987 217.739544 
L 323.566993 223.878316 
L 326.824396 227.28298 
L 334.425005 234.847944 
L 340.939811 240.643805 
L 346.368817 245.255691 
L 350.712022 248.654271 
L 359.398431 254.909043 
L 365.913238 259.051074 
L 371.342244 262.226807 
L 378.942852 266.318118 
L 385.457659 269.444761 
L 390.886665 271.762869 
L 396.31567 273.783689 
L 398.487273 274.531833 
L 398.487273 274.531833 
" clip-path="url(#pcfd61ceb00)" style="fill: none; stroke: #008000; stroke-linecap: square"/>
   </g>
   <g id="line2d_20">
    <path d="M 73.832727 284.565767 
L 81.433335 284.949914 
L 87.948142 285.012439 
L 94.462949 284.85348 
L 100.977756 284.497102 
L 109.664165 283.743855 
L 114.00737 283.233824 
L 131.380189 280.759551 
L 133.551791 280.602475 
L 138.980797 280.289529 
L 143.324001 280.259189 
L 146.581405 280.242231 
L 149.838808 280.3655 
L 152.01041 280.630609 
L 155.267814 281.109941 
L 157.439416 281.687053 
L 168.297428 284.524798 
L 171.554831 284.971606 
L 173.726434 284.96732 
L 175.898036 284.576756 
L 176.983837 284.211654 
L 178.069638 283.703979 
L 179.155439 283.005785 
L 180.24124 282.146715 
L 181.327042 281.035549 
L 182.412843 279.719861 
L 183.498644 278.093806 
L 184.584445 276.098499 
L 185.670246 273.708941 
L 187.841849 267.915875 
L 188.92765 264.45115 
L 191.099252 256.130263 
L 193.270854 246.113034 
L 195.442457 234.682397 
L 203.043065 192.097401 
L 204.128866 186.336822 
L 205.214667 183.183401 
L 206.300468 177.793357 
L 209.557872 163.776108 
L 211.729474 155.727601 
L 212.815275 152.308319 
L 213.901076 149.963588 
L 214.986877 147.085834 
L 216.072679 144.686828 
L 218.244281 140.766495 
L 219.330082 139.524945 
L 221.501684 136.385577 
L 222.587486 135.105109 
L 223.673287 134.146993 
L 224.759088 133.853105 
L 225.844889 132.944662 
L 226.93069 132.191284 
L 228.016491 132.094945 
L 229.102292 131.441021 
L 231.273895 130.461547 
L 233.445497 129.604366 
L 235.617099 129.12732 
L 236.702901 111.865687 
L 237.788702 112.427325 
L 238.874503 112.270488 
L 241.046105 112.4778 
L 243.217708 112.710128 
L 244.303509 112.829692 
L 245.38931 112.721009 
L 247.560912 113.013833 
L 256.247321 114.123117 
L 258.418924 114.200595 
L 259.504725 113.493716 
L 262.762128 114.111048 
L 263.847929 114.037593 
L 268.191134 114.723903 
L 269.276935 114.824819 
L 273.62014 114.051333 
L 276.877543 114.614064 
L 279.049146 114.524466 
L 280.134947 114.812612 
L 281.220748 114.279872 
L 282.306549 113.901128 
L 285.563953 114.649198 
L 288.821356 115.523822 
L 290.992958 115.766727 
L 295.336163 116.990186 
L 298.593566 116.501497 
L 300.765169 117.203599 
L 301.85097 117.290159 
L 304.022572 118.023045 
L 305.108373 118.173378 
L 307.279976 119.021462 
L 308.365777 118.857662 
L 311.62318 120.358441 
L 313.794783 121.548161 
L 315.966385 122.651398 
L 318.137987 123.836094 
L 320.30959 125.169194 
L 321.395391 125.398707 
L 322.481192 125.96642 
L 323.566993 126.669561 
L 324.652794 127.100348 
L 331.167601 131.312775 
L 332.253402 130.8125 
L 334.425005 132.232461 
L 338.768209 135.471327 
L 339.85401 136.050928 
L 344.197215 140.001062 
L 345.283016 139.535316 
L 346.368817 140.03891 
L 349.626221 143.5047 
L 351.797823 146.031487 
L 353.969425 148.738312 
L 357.226829 152.880318 
L 361.570033 159.548576 
L 363.741636 163.40045 
L 365.913238 167.677729 
L 370.256443 177.2316 
L 377.857051 195.345656 
L 380.028653 200.951268 
L 381.114454 202.969299 
L 384.371858 212.136617 
L 387.629261 221.902906 
L 390.886665 231.774291 
L 396.31567 246.649201 
L 398.487273 252.058997 
L 398.487273 252.058997 
" clip-path="url(#pcfd61ceb00)" style="fill: none; stroke-dasharray: 1,1.65; stroke-dashoffset: 0; stroke: #008000"/>
   </g>
   <g id="line2d_21">
    <path d="M 73.832727 287.749528 
L 78.175932 288.712699 
L 83.604938 289.875161 
L 89.033943 290.848741 
L 91.205546 291.170861 
L 95.54875 291.898912 
L 108.578364 293.688056 
L 118.350575 294.789714 
L 123.77958 295.188897 
L 128.122785 295.387437 
L 134.637592 295.471353 
L 141.152399 295.20631 
L 147.667206 294.801266 
L 152.01041 294.293066 
L 156.353615 293.558182 
L 160.69682 292.509829 
L 166.125825 290.897134 
L 169.383229 289.59692 
L 171.554831 288.62123 
L 175.898036 286.256028 
L 178.069638 284.921038 
L 181.327042 282.586216 
L 183.498644 280.842347 
L 185.670246 278.831325 
L 188.92765 275.387555 
L 191.099252 272.846113 
L 193.270854 270.040195 
L 195.442457 266.896955 
L 197.614059 263.36739 
L 199.785661 259.444128 
L 201.957264 255.179784 
L 204.128866 250.361838 
L 207.386269 242.172073 
L 209.557872 236.044357 
L 211.729474 229.308744 
L 213.901076 221.763461 
L 216.072679 213.384559 
L 218.244281 204.035583 
L 220.415883 193.751688 
L 222.587486 182.415007 
L 224.759088 169.791209 
L 226.93069 155.888153 
L 229.102292 140.518607 
L 231.273895 123.460986 
L 233.445497 104.472396 
L 235.617099 83.701108 
L 236.702901 53.568 
L 237.788702 57.531388 
L 242.131906 70.399344 
L 247.560912 85.802651 
L 254.075719 102.774882 
L 259.504725 116.091076 
L 263.847929 126.301141 
L 270.362736 140.595087 
L 273.62014 147.352038 
L 281.220748 161.983609 
L 285.563953 169.675728 
L 289.907157 177.101461 
L 294.250362 184.042934 
L 299.679368 192.343265 
L 304.022572 198.511149 
L 309.451578 205.856238 
L 313.794783 211.354219 
L 317.052186 215.321422 
L 322.481192 221.623677 
L 328.995999 228.563053 
L 333.339203 232.986369 
L 338.768209 238.079368 
L 343.111414 241.984911 
L 349.626221 247.448714 
L 356.141028 252.457997 
L 361.570033 256.304993 
L 366.999039 259.889173 
L 372.428045 263.211245 
L 378.942852 266.916793 
L 385.457659 270.294911 
L 390.886665 272.83759 
L 396.31567 275.139109 
L 398.487273 276.001042 
L 398.487273 276.001042 
" clip-path="url(#pcfd61ceb00)" style="fill: none; stroke: #00ffff; stroke-linecap: square"/>
   </g>
   <g id="line2d_22">
    <path d="M 73.832727 284.639232 
L 78.175932 284.273111 
L 84.690739 283.461599 
L 91.205546 282.507474 
L 103.149358 280.065307 
L 112.921569 277.573322 
L 121.607978 275.136695 
L 123.77958 274.68918 
L 127.036984 273.985766 
L 132.46599 273.046233 
L 136.809194 272.722576 
L 138.980797 272.682426 
L 143.324001 272.823133 
L 146.581405 272.921291 
L 148.753007 273.08539 
L 150.924609 273.417946 
L 155.267814 274.480529 
L 157.439416 275.400249 
L 160.69682 276.90122 
L 166.125825 279.619582 
L 172.640632 283.458603 
L 174.812235 284.425182 
L 175.898036 284.74994 
L 176.983837 284.956762 
L 178.069638 285.016468 
L 179.155439 284.884817 
L 180.24124 284.539887 
L 181.327042 283.908985 
L 182.412843 282.969361 
L 183.498644 281.64342 
L 184.584445 279.856969 
L 185.670246 277.475755 
L 186.756047 274.475651 
L 187.841849 270.889237 
L 188.92765 266.670336 
L 190.013451 261.66613 
L 191.099252 255.890164 
L 192.185053 249.306053 
L 193.270854 241.848871 
L 195.442457 224.389004 
L 197.614059 204.282816 
L 204.128866 141.302287 
L 206.300468 123.712268 
L 207.386269 116.000591 
L 209.557872 103.001075 
L 210.643673 97.52373 
L 211.729474 92.745641 
L 212.815275 88.644616 
L 213.901076 85.146119 
L 214.986877 82.345173 
L 216.072679 80.099279 
L 218.244281 76.736424 
L 219.330082 75.49761 
L 220.415883 74.582509 
L 221.501684 73.882414 
L 222.587486 73.392794 
L 224.759088 72.781067 
L 226.93069 72.705726 
L 229.102292 72.908087 
L 234.531298 73.961248 
L 235.617099 74.281788 
L 236.702901 53.568 
L 237.788702 54.38546 
L 244.303509 54.579472 
L 248.646713 54.789877 
L 259.504725 55.397626 
L 267.105333 56.220073 
L 271.448538 56.912281 
L 272.534339 57.006978 
L 273.62014 57.215319 
L 275.791742 57.435995 
L 277.963344 57.721888 
L 280.134947 58.054613 
L 282.306549 58.435897 
L 284.478151 58.676973 
L 287.735555 59.303299 
L 304.022572 62.789727 
L 307.279976 63.727222 
L 314.880584 66.874791 
L 318.137987 68.380195 
L 322.481192 70.883826 
L 323.566993 71.834832 
L 325.738595 73.251477 
L 327.910198 74.70565 
L 328.995999 75.484152 
L 331.167601 77.202831 
L 332.253402 77.93935 
L 337.682408 83.008765 
L 340.939811 86.270408 
L 345.283016 91.471866 
L 347.454618 94.456917 
L 349.626221 97.707694 
L 351.797823 101.179783 
L 353.969425 105.218823 
L 357.226829 111.910313 
L 360.484232 119.181124 
L 362.655835 124.59351 
L 363.741636 126.746041 
L 365.913238 132.817943 
L 368.08484 139.402267 
L 371.342244 150.102712 
L 374.599647 161.829425 
L 383.286057 195.190835 
L 390.886665 226.252979 
L 394.144068 238.302071 
L 396.31567 245.712569 
L 398.487273 252.498286 
L 398.487273 252.498286 
" clip-path="url(#pcfd61ceb00)" style="fill: none; stroke-dasharray: 1,1.65; stroke-dashoffset: 0; stroke: #00ffff"/>
   </g>
   <g id="patch_3">
    <path d="M 57.6 307.584 
L 57.6 41.472 
" style="fill: none; stroke: #000000; stroke-width: 0.8; stroke-linejoin: miter; stroke-linecap: square"/>
   </g>
   <g id="patch_4">
    <path d="M 414.72 307.584 
L 414.72 41.472 
" style="fill: none; stroke: #000000; stroke-width: 0.8; stroke-linejoin: miter; stroke-linecap: square"/>
   </g>
   <g id="patch_5">
    <path d="M 57.6 307.584 
L 414.72 307.584 
" style="fill: none; stroke: #000000; stroke-width: 0.8; stroke-linejoin: miter; stroke-linecap: square"/>
   </g>
   <g id="patch_6">
    <path d="M 57.6 41.472 
L 414.72 41.472 
" style="fill: none; stroke: #000000; stroke-width: 0.8; stroke-linejoin: miter; stroke-linecap: square"/>
   </g>
   <g id="legend_1">
    <g id="patch_7">
     <path d="M 64.6 122.862625 
L 171.917188 122.862625 
Q 173.917188 122.862625 173.917188 120.862625 
L 173.917188 48.472 
Q 173.917188 46.472 171.917188 46.472 
L 64.6 46.472 
Q 62.6 46.472 62.6 48.472 
L 62.6 120.862625 
Q 62.6 122.862625 64.6 122.862625 
z
" style="fill: #ffffff; opacity: 0.8; stroke: #cccccc; stroke-linejoin: miter"/>
    </g>
    <g id="line2d_23">
     <path d="M 66.6 54.570438 
L 76.6 54.570438 
L 86.6 54.570438 
" style="fill: none; stroke-dasharray: 7.4,3.2; stroke-dashoffset: 0; stroke: #ff0000; stroke-width: 2"/>
    </g>
    <g id="text_14">
     <!-- true -->
     <g transform="translate(94.6 58.070438)scale(0.1 -0.1)">
      <defs>
       <path id="DejaVuSans-74" d="M 1172 4494 
L 1172 3500 
L 2356 3500 
L 2356 3053 
L 1172 3053 
L 1172 1153 
Q 1172 725 1289 603 
Q 1406 481 1766 481 
L 2356 481 
L 2356 0 
L 1766 0 
Q 1100 0 847 248 
Q 594 497 594 1153 
L 594 3053 
L 172 3053 
L 172 3500 
L 594 3500 
L 594 4494 
L 1172 4494 
z
" transform="scale(0.015625)"/>
       <path id="DejaVuSans-72" d="M 2631 2963 
Q 2534 3019 2420 3045 
Q 2306 3072 2169 3072 
Q 1681 3072 1420 2755 
Q 1159 2438 1159 1844 
L 1159 0 
L 581 0 
L 581 3500 
L 1159 3500 
L 1159 2956 
Q 1341 3275 1631 3429 
Q 1922 3584 2338 3584 
Q 2397 3584 2469 3576 
Q 2541 3569 2628 3553 
L 2631 2963 
z
" transform="scale(0.015625)"/>
       <path id="DejaVuSans-75" d="M 544 1381 
L 544 3500 
L 1119 3500 
L 1119 1403 
Q 1119 906 1312 657 
Q 1506 409 1894 409 
Q 2359 409 2629 706 
Q 2900 1003 2900 1516 
L 2900 3500 
L 3475 3500 
L 3475 0 
L 2900 0 
L 2900 538 
Q 2691 219 2414 64 
Q 2138 -91 1772 -91 
Q 1169 -91 856 284 
Q 544 659 544 1381 
z
M 1991 3584 
L 1991 3584 
z
" transform="scale(0.015625)"/>
       <path id="DejaVuSans-65" d="M 3597 1894 
L 3597 1613 
L 953 1613 
Q 991 1019 1311 708 
Q 1631 397 2203 397 
Q 2534 397 2845 478 
Q 3156 559 3463 722 
L 3463 178 
Q 3153 47 2828 -22 
Q 2503 -91 2169 -91 
Q 1331 -91 842 396 
Q 353 884 353 1716 
Q 353 2575 817 3079 
Q 1281 3584 2069 3584 
Q 2775 3584 3186 3129 
Q 3597 2675 3597 1894 
z
M 3022 2063 
Q 3016 2534 2758 2815 
Q 2500 3097 2075 3097 
Q 1594 3097 1305 2825 
Q 1016 2553 972 2059 
L 3022 2063 
z
" transform="scale(0.015625)"/>
      </defs>
      <use xlink:href="#DejaVuSans-74"/>
      <use xlink:href="#DejaVuSans-72" x="39.208984"/>
      <use xlink:href="#DejaVuSans-75" x="80.322266"/>
      <use xlink:href="#DejaVuSans-65" x="143.701172"/>
     </g>
    </g>
    <g id="line2d_24">
     <path d="M 66.6 69.248563 
L 76.6 69.248563 
L 86.6 69.248563 
" style="fill: none; stroke: #0000ff; stroke-linecap: square"/>
    </g>
    <g id="text_15">
     <!-- base -->
     <g transform="translate(94.6 72.748563)scale(0.1 -0.1)">
      <defs>
       <path id="DejaVuSans-62" d="M 3116 1747 
Q 3116 2381 2855 2742 
Q 2594 3103 2138 3103 
Q 1681 3103 1420 2742 
Q 1159 2381 1159 1747 
Q 1159 1113 1420 752 
Q 1681 391 2138 391 
Q 2594 391 2855 752 
Q 3116 1113 3116 1747 
z
M 1159 2969 
Q 1341 3281 1617 3432 
Q 1894 3584 2278 3584 
Q 2916 3584 3314 3078 
Q 3713 2572 3713 1747 
Q 3713 922 3314 415 
Q 2916 -91 2278 -91 
Q 1894 -91 1617 61 
Q 1341 213 1159 525 
L 1159 0 
L 581 0 
L 581 4863 
L 1159 4863 
L 1159 2969 
z
" transform="scale(0.015625)"/>
       <path id="DejaVuSans-61" d="M 2194 1759 
Q 1497 1759 1228 1600 
Q 959 1441 959 1056 
Q 959 750 1161 570 
Q 1363 391 1709 391 
Q 2188 391 2477 730 
Q 2766 1069 2766 1631 
L 2766 1759 
L 2194 1759 
z
M 3341 1997 
L 3341 0 
L 2766 0 
L 2766 531 
Q 2569 213 2275 61 
Q 1981 -91 1556 -91 
Q 1019 -91 701 211 
Q 384 513 384 1019 
Q 384 1609 779 1909 
Q 1175 2209 1959 2209 
L 2766 2209 
L 2766 2266 
Q 2766 2663 2505 2880 
Q 2244 3097 1772 3097 
Q 1472 3097 1187 3025 
Q 903 2953 641 2809 
L 641 3341 
Q 956 3463 1253 3523 
Q 1550 3584 1831 3584 
Q 2591 3584 2966 3190 
Q 3341 2797 3341 1997 
z
" transform="scale(0.015625)"/>
       <path id="DejaVuSans-73" d="M 2834 3397 
L 2834 2853 
Q 2591 2978 2328 3040 
Q 2066 3103 1784 3103 
Q 1356 3103 1142 2972 
Q 928 2841 928 2578 
Q 928 2378 1081 2264 
Q 1234 2150 1697 2047 
L 1894 2003 
Q 2506 1872 2764 1633 
Q 3022 1394 3022 966 
Q 3022 478 2636 193 
Q 2250 -91 1575 -91 
Q 1294 -91 989 -36 
Q 684 19 347 128 
L 347 722 
Q 666 556 975 473 
Q 1284 391 1588 391 
Q 1994 391 2212 530 
Q 2431 669 2431 922 
Q 2431 1156 2273 1281 
Q 2116 1406 1581 1522 
L 1381 1569 
Q 847 1681 609 1914 
Q 372 2147 372 2553 
Q 372 3047 722 3315 
Q 1072 3584 1716 3584 
Q 2034 3584 2315 3537 
Q 2597 3491 2834 3397 
z
" transform="scale(0.015625)"/>
      </defs>
      <use xlink:href="#DejaVuSans-62"/>
      <use xlink:href="#DejaVuSans-61" x="63.476562"/>
      <use xlink:href="#DejaVuSans-73" x="124.755859"/>
      <use xlink:href="#DejaVuSans-65" x="176.855469"/>
     </g>
    </g>
    <g id="line2d_25">
     <path d="M 66.6 83.926688 
L 76.6 83.926688 
L 86.6 83.926688 
" style="fill: none; stroke: #ff00ff; stroke-linecap: square"/>
    </g>
    <g id="text_16">
     <!-- win false -->
     <g transform="translate(94.6 87.426688)scale(0.1 -0.1)">
      <defs>
       <path id="DejaVuSans-77" d="M 269 3500 
L 844 3500 
L 1563 769 
L 2278 3500 
L 2956 3500 
L 3675 769 
L 4391 3500 
L 4966 3500 
L 4050 0 
L 3372 0 
L 2619 2869 
L 1863 0 
L 1184 0 
L 269 3500 
z
" transform="scale(0.015625)"/>
       <path id="DejaVuSans-69" d="M 603 3500 
L 1178 3500 
L 1178 0 
L 603 0 
L 603 3500 
z
M 603 4863 
L 1178 4863 
L 1178 4134 
L 603 4134 
L 603 4863 
z
" transform="scale(0.015625)"/>
       <path id="DejaVuSans-6e" d="M 3513 2113 
L 3513 0 
L 2938 0 
L 2938 2094 
Q 2938 2591 2744 2837 
Q 2550 3084 2163 3084 
Q 1697 3084 1428 2787 
Q 1159 2491 1159 1978 
L 1159 0 
L 581 0 
L 581 3500 
L 1159 3500 
L 1159 2956 
Q 1366 3272 1645 3428 
Q 1925 3584 2291 3584 
Q 2894 3584 3203 3211 
Q 3513 2838 3513 2113 
z
" transform="scale(0.015625)"/>
       <path id="DejaVuSans-20" transform="scale(0.015625)"/>
       <path id="DejaVuSans-66" d="M 2375 4863 
L 2375 4384 
L 1825 4384 
Q 1516 4384 1395 4259 
Q 1275 4134 1275 3809 
L 1275 3500 
L 2222 3500 
L 2222 3053 
L 1275 3053 
L 1275 0 
L 697 0 
L 697 3053 
L 147 3053 
L 147 3500 
L 697 3500 
L 697 3744 
Q 697 4328 969 4595 
Q 1241 4863 1831 4863 
L 2375 4863 
z
" transform="scale(0.015625)"/>
       <path id="DejaVuSans-6c" d="M 603 4863 
L 1178 4863 
L 1178 0 
L 603 0 
L 603 4863 
z
" transform="scale(0.015625)"/>
      </defs>
      <use xlink:href="#DejaVuSans-77"/>
      <use xlink:href="#DejaVuSans-69" x="81.787109"/>
      <use xlink:href="#DejaVuSans-6e" x="109.570312"/>
      <use xlink:href="#DejaVuSans-20" x="172.949219"/>
      <use xlink:href="#DejaVuSans-66" x="204.736328"/>
      <use xlink:href="#DejaVuSans-61" x="239.941406"/>
      <use xlink:href="#DejaVuSans-6c" x="301.220703"/>
      <use xlink:href="#DejaVuSans-73" x="329.003906"/>
      <use xlink:href="#DejaVuSans-65" x="381.103516"/>
     </g>
    </g>
    <g id="line2d_26">
     <path d="M 66.6 98.604813 
L 76.6 98.604813 
L 86.6 98.604813 
" style="fill: none; stroke: #008000; stroke-linecap: square"/>
    </g>
    <g id="text_17">
     <!-- normamp false -->
     <g transform="translate(94.6 102.104813)scale(0.1 -0.1)">
      <defs>
       <path id="DejaVuSans-6f" d="M 1959 3097 
Q 1497 3097 1228 2736 
Q 959 2375 959 1747 
Q 959 1119 1226 758 
Q 1494 397 1959 397 
Q 2419 397 2687 759 
Q 2956 1122 2956 1747 
Q 2956 2369 2687 2733 
Q 2419 3097 1959 3097 
z
M 1959 3584 
Q 2709 3584 3137 3096 
Q 3566 2609 3566 1747 
Q 3566 888 3137 398 
Q 2709 -91 1959 -91 
Q 1206 -91 779 398 
Q 353 888 353 1747 
Q 353 2609 779 3096 
Q 1206 3584 1959 3584 
z
" transform="scale(0.015625)"/>
       <path id="DejaVuSans-6d" d="M 3328 2828 
Q 3544 3216 3844 3400 
Q 4144 3584 4550 3584 
Q 5097 3584 5394 3201 
Q 5691 2819 5691 2113 
L 5691 0 
L 5113 0 
L 5113 2094 
Q 5113 2597 4934 2840 
Q 4756 3084 4391 3084 
Q 3944 3084 3684 2787 
Q 3425 2491 3425 1978 
L 3425 0 
L 2847 0 
L 2847 2094 
Q 2847 2600 2669 2842 
Q 2491 3084 2119 3084 
Q 1678 3084 1418 2786 
Q 1159 2488 1159 1978 
L 1159 0 
L 581 0 
L 581 3500 
L 1159 3500 
L 1159 2956 
Q 1356 3278 1631 3431 
Q 1906 3584 2284 3584 
Q 2666 3584 2933 3390 
Q 3200 3197 3328 2828 
z
" transform="scale(0.015625)"/>
       <path id="DejaVuSans-70" d="M 1159 525 
L 1159 -1331 
L 581 -1331 
L 581 3500 
L 1159 3500 
L 1159 2969 
Q 1341 3281 1617 3432 
Q 1894 3584 2278 3584 
Q 2916 3584 3314 3078 
Q 3713 2572 3713 1747 
Q 3713 922 3314 415 
Q 2916 -91 2278 -91 
Q 1894 -91 1617 61 
Q 1341 213 1159 525 
z
M 3116 1747 
Q 3116 2381 2855 2742 
Q 2594 3103 2138 3103 
Q 1681 3103 1420 2742 
Q 1159 2381 1159 1747 
Q 1159 1113 1420 752 
Q 1681 391 2138 391 
Q 2594 391 2855 752 
Q 3116 1113 3116 1747 
z
" transform="scale(0.015625)"/>
      </defs>
      <use xlink:href="#DejaVuSans-6e"/>
      <use xlink:href="#DejaVuSans-6f" x="63.378906"/>
      <use xlink:href="#DejaVuSans-72" x="124.560547"/>
      <use xlink:href="#DejaVuSans-6d" x="163.923828"/>
      <use xlink:href="#DejaVuSans-61" x="261.335938"/>
      <use xlink:href="#DejaVuSans-6d" x="322.615234"/>
      <use xlink:href="#DejaVuSans-70" x="420.027344"/>
      <use xlink:href="#DejaVuSans-20" x="483.503906"/>
      <use xlink:href="#DejaVuSans-66" x="515.291016"/>
      <use xlink:href="#DejaVuSans-61" x="550.496094"/>
      <use xlink:href="#DejaVuSans-6c" x="611.775391"/>
      <use xlink:href="#DejaVuSans-73" x="639.558594"/>
      <use xlink:href="#DejaVuSans-65" x="691.658203"/>
     </g>
    </g>
    <g id="line2d_27">
     <path d="M 66.6 113.282938 
L 76.6 113.282938 
L 86.6 113.282938 
" style="fill: none; stroke: #00ffff; stroke-linecap: square"/>
    </g>
    <g id="text_18">
     <!-- delta 6 -->
     <g transform="translate(94.6 116.782938)scale(0.1 -0.1)">
      <defs>
       <path id="DejaVuSans-64" d="M 2906 2969 
L 2906 4863 
L 3481 4863 
L 3481 0 
L 2906 0 
L 2906 525 
Q 2725 213 2448 61 
Q 2172 -91 1784 -91 
Q 1150 -91 751 415 
Q 353 922 353 1747 
Q 353 2572 751 3078 
Q 1150 3584 1784 3584 
Q 2172 3584 2448 3432 
Q 2725 3281 2906 2969 
z
M 947 1747 
Q 947 1113 1208 752 
Q 1469 391 1925 391 
Q 2381 391 2643 752 
Q 2906 1113 2906 1747 
Q 2906 2381 2643 2742 
Q 2381 3103 1925 3103 
Q 1469 3103 1208 2742 
Q 947 2381 947 1747 
z
" transform="scale(0.015625)"/>
      </defs>
      <use xlink:href="#DejaVuSans-64"/>
      <use xlink:href="#DejaVuSans-65" x="63.476562"/>
      <use xlink:href="#DejaVuSans-6c" x="125"/>
      <use xlink:href="#DejaVuSans-74" x="152.783203"/>
      <use xlink:href="#DejaVuSans-61" x="191.992188"/>
      <use xlink:href="#DejaVuSans-20" x="253.271484"/>
      <use xlink:href="#DejaVuSans-36" x="285.058594"/>
     </g>
    </g>
   </g>
  </g>
  <g id="text_19">
   <!-- Conditionally averaged waveforms with variance -->
   <g transform="translate(83.702813 16.030125)scale(0.12 -0.12)">
    <defs>
     <path id="DejaVuSans-43" d="M 4122 4306 
L 4122 3641 
Q 3803 3938 3442 4084 
Q 3081 4231 2675 4231 
Q 1875 4231 1450 3742 
Q 1025 3253 1025 2328 
Q 1025 1406 1450 917 
Q 1875 428 2675 428 
Q 3081 428 3442 575 
Q 3803 722 4122 1019 
L 4122 359 
Q 3791 134 3420 21 
Q 3050 -91 2638 -91 
Q 1578 -91 968 557 
Q 359 1206 359 2328 
Q 359 3453 968 4101 
Q 1578 4750 2638 4750 
Q 3056 4750 3426 4639 
Q 3797 4528 4122 4306 
z
" transform="scale(0.015625)"/>
     <path id="DejaVuSans-79" d="M 2059 -325 
Q 1816 -950 1584 -1140 
Q 1353 -1331 966 -1331 
L 506 -1331 
L 506 -850 
L 844 -850 
Q 1081 -850 1212 -737 
Q 1344 -625 1503 -206 
L 1606 56 
L 191 3500 
L 800 3500 
L 1894 763 
L 2988 3500 
L 3597 3500 
L 2059 -325 
z
" transform="scale(0.015625)"/>
     <path id="DejaVuSans-76" d="M 191 3500 
L 800 3500 
L 1894 563 
L 2988 3500 
L 3597 3500 
L 2284 0 
L 1503 0 
L 191 3500 
z
" transform="scale(0.015625)"/>
     <path id="DejaVuSans-67" d="M 2906 1791 
Q 2906 2416 2648 2759 
Q 2391 3103 1925 3103 
Q 1463 3103 1205 2759 
Q 947 2416 947 1791 
Q 947 1169 1205 825 
Q 1463 481 1925 481 
Q 2391 481 2648 825 
Q 2906 1169 2906 1791 
z
M 3481 434 
Q 3481 -459 3084 -895 
Q 2688 -1331 1869 -1331 
Q 1566 -1331 1297 -1286 
Q 1028 -1241 775 -1147 
L 775 -588 
Q 1028 -725 1275 -790 
Q 1522 -856 1778 -856 
Q 2344 -856 2625 -561 
Q 2906 -266 2906 331 
L 2906 616 
Q 2728 306 2450 153 
Q 2172 0 1784 0 
Q 1141 0 747 490 
Q 353 981 353 1791 
Q 353 2603 747 3093 
Q 1141 3584 1784 3584 
Q 2172 3584 2450 3431 
Q 2728 3278 2906 2969 
L 2906 3500 
L 3481 3500 
L 3481 434 
z
" transform="scale(0.015625)"/>
     <path id="DejaVuSans-68" d="M 3513 2113 
L 3513 0 
L 2938 0 
L 2938 2094 
Q 2938 2591 2744 2837 
Q 2550 3084 2163 3084 
Q 1697 3084 1428 2787 
Q 1159 2491 1159 1978 
L 1159 0 
L 581 0 
L 581 4863 
L 1159 4863 
L 1159 2956 
Q 1366 3272 1645 3428 
Q 1925 3584 2291 3584 
Q 2894 3584 3203 3211 
Q 3513 2838 3513 2113 
z
" transform="scale(0.015625)"/>
     <path id="DejaVuSans-63" d="M 3122 3366 
L 3122 2828 
Q 2878 2963 2633 3030 
Q 2388 3097 2138 3097 
Q 1578 3097 1268 2742 
Q 959 2388 959 1747 
Q 959 1106 1268 751 
Q 1578 397 2138 397 
Q 2388 397 2633 464 
Q 2878 531 3122 666 
L 3122 134 
Q 2881 22 2623 -34 
Q 2366 -91 2075 -91 
Q 1284 -91 818 406 
Q 353 903 353 1747 
Q 353 2603 823 3093 
Q 1294 3584 2113 3584 
Q 2378 3584 2631 3529 
Q 2884 3475 3122 3366 
z
" transform="scale(0.015625)"/>
    </defs>
    <use xlink:href="#DejaVuSans-43"/>
    <use xlink:href="#DejaVuSans-6f" x="69.824219"/>
    <use xlink:href="#DejaVuSans-6e" x="131.005859"/>
    <use xlink:href="#DejaVuSans-64" x="194.384766"/>
    <use xlink:href="#DejaVuSans-69" x="257.861328"/>
    <use xlink:href="#DejaVuSans-74" x="285.644531"/>
    <use xlink:href="#DejaVuSans-69" x="324.853516"/>
    <use xlink:href="#DejaVuSans-6f" x="352.636719"/>
    <use xlink:href="#DejaVuSans-6e" x="413.818359"/>
    <use xlink:href="#DejaVuSans-61" x="477.197266"/>
    <use xlink:href="#DejaVuSans-6c" x="538.476562"/>
    <use xlink:href="#DejaVuSans-6c" x="566.259766"/>
    <use xlink:href="#DejaVuSans-79" x="594.042969"/>
    <use xlink:href="#DejaVuSans-20" x="653.222656"/>
    <use xlink:href="#DejaVuSans-61" x="685.009766"/>
    <use xlink:href="#DejaVuSans-76" x="746.289062"/>
    <use xlink:href="#DejaVuSans-65" x="805.46875"/>
    <use xlink:href="#DejaVuSans-72" x="866.992188"/>
    <use xlink:href="#DejaVuSans-61" x="908.105469"/>
    <use xlink:href="#DejaVuSans-67" x="969.384766"/>
    <use xlink:href="#DejaVuSans-65" x="1032.861328"/>
    <use xlink:href="#DejaVuSans-64" x="1094.384766"/>
    <use xlink:href="#DejaVuSans-20" x="1157.861328"/>
    <use xlink:href="#DejaVuSans-77" x="1189.648438"/>
    <use xlink:href="#DejaVuSans-61" x="1271.435547"/>
    <use xlink:href="#DejaVuSans-76" x="1332.714844"/>
    <use xlink:href="#DejaVuSans-65" x="1391.894531"/>
    <use xlink:href="#DejaVuSans-66" x="1453.417969"/>
    <use xlink:href="#DejaVuSans-6f" x="1488.623047"/>
    <use xlink:href="#DejaVuSans-72" x="1549.804688"/>
    <use xlink:href="#DejaVuSans-6d" x="1589.167969"/>
    <use xlink:href="#DejaVuSans-73" x="1686.580078"/>
    <use xlink:href="#DejaVuSans-20" x="1738.679688"/>
    <use xlink:href="#DejaVuSans-77" x="1770.466797"/>
    <use xlink:href="#DejaVuSans-69" x="1852.253906"/>
    <use xlink:href="#DejaVuSans-74" x="1880.037109"/>
    <use xlink:href="#DejaVuSans-68" x="1919.246094"/>
    <use xlink:href="#DejaVuSans-20" x="1982.625"/>
    <use xlink:href="#DejaVuSans-76" x="2014.412109"/>
    <use xlink:href="#DejaVuSans-61" x="2073.591797"/>
    <use xlink:href="#DejaVuSans-72" x="2134.871094"/>
    <use xlink:href="#DejaVuSans-69" x="2175.984375"/>
    <use xlink:href="#DejaVuSans-61" x="2203.767578"/>
    <use xlink:href="#DejaVuSans-6e" x="2265.046875"/>
    <use xlink:href="#DejaVuSans-63" x="2328.425781"/>
    <use xlink:href="#DejaVuSans-65" x="2383.40625"/>
   </g>
   <!-- gamma=0.1 lambda=0.2 -->
   <g transform="translate(154.019063 29.4675)scale(0.12 -0.12)">
    <defs>
     <path id="DejaVuSans-3d" d="M 678 2906 
L 4684 2906 
L 4684 2381 
L 678 2381 
L 678 2906 
z
M 678 1631 
L 4684 1631 
L 4684 1100 
L 678 1100 
L 678 1631 
z
" transform="scale(0.015625)"/>
    </defs>
    <use xlink:href="#DejaVuSans-67"/>
    <use xlink:href="#DejaVuSans-61" x="63.476562"/>
    <use xlink:href="#DejaVuSans-6d" x="124.755859"/>
    <use xlink:href="#DejaVuSans-6d" x="222.167969"/>
    <use xlink:href="#DejaVuSans-61" x="319.580078"/>
    <use xlink:href="#DejaVuSans-3d" x="380.859375"/>
    <use xlink:href="#DejaVuSans-30" x="464.648438"/>
    <use xlink:href="#DejaVuSans-2e" x="528.271484"/>
    <use xlink:href="#DejaVuSans-31" x="560.058594"/>
    <use xlink:href="#DejaVuSans-20" x="623.681641"/>
    <use xlink:href="#DejaVuSans-6c" x="655.46875"/>
    <use xlink:href="#DejaVuSans-61" x="683.251953"/>
    <use xlink:href="#DejaVuSans-6d" x="744.53125"/>
    <use xlink:href="#DejaVuSans-62" x="841.943359"/>
    <use xlink:href="#DejaVuSans-64" x="905.419922"/>
    <use xlink:href="#DejaVuSans-61" x="968.896484"/>
    <use xlink:href="#DejaVuSans-3d" x="1030.175781"/>
    <use xlink:href="#DejaVuSans-30" x="1113.964844"/>
    <use xlink:href="#DejaVuSans-2e" x="1177.587891"/>
    <use xlink:href="#DejaVuSans-32" x="1209.375"/>
   </g>
  </g>
 </g>
 <defs>
  <clipPath id="pcfd61ceb00">
   <rect x="57.6" y="41.472" width="357.12" height="266.112"/>
  </clipPath>
 </defs>
</svg>
