<?xml version="1.0" encoding="utf-8" standalone="no"?>
<!DOCTYPE svg PUBLIC "-//W3C//DTD SVG 1.1//EN"
  "http://www.w3.org/Graphics/SVG/1.1/DTD/svg11.dtd">
<svg xmlns:xlink="http://www.w3.org/1999/xlink" width="460.8pt" height="345.6pt" viewBox="0 0 460.8 345.6" xmlns="http://www.w3.org/2000/svg" version="1.1">
 <metadata>
  <rdf:RDF xmlns:dc="http://purl.org/dc/elements/1.1/" xmlns:cc="http://creativecommons.org/ns#" xmlns:rdf="http://www.w3.org/1999/02/22-rdf-syntax-ns#">
   <cc:Work>
    <dc:type rdf:resource="http://purl.org/dc/dcmitype/StillImage"/>
    <dc:date>2022-08-12T12:46:30.259767</dc:date>
    <dc:format>image/svg+xml</dc:format>
    <dc:creator>
     <cc:Agent>
      <dc:title>Matplotlib v3.5.2, https://matplotlib.org/</dc:title>
     </cc:Agent>
    </dc:creator>
   </cc:Work>
  </rdf:RDF>
 </metadata>
 <defs>
  <style type="text/css">*{stroke-linejoin: round; stroke-linecap: butt}</style>
 </defs>
 <g id="figure_1">
  <g id="patch_1">
   <path d="M 0 345.6 
L 460.8 345.6 
L 460.8 0 
L 0 0 
z
" style="fill: #ffffff"/>
  </g>
  <g id="axes_1">
   <g id="patch_2">
    <path d="M 57.6 307.584 
L 414.72 307.584 
L 414.72 41.472 
L 57.6 41.472 
z
" style="fill: #ffffff"/>
   </g>
   <g id="matplotlib.axis_1">
    <g id="xtick_1">
     <g id="line2d_1">
      <defs>
       <path id="ma7490f274c" d="M 0 0 
L 0 3.5 
" style="stroke: #000000; stroke-width: 0.8"/>
      </defs>
      <g>
       <use xlink:href="#ma7490f274c" x="73.832727" y="307.584" style="stroke: #000000; stroke-width: 0.8"/>
      </g>
     </g>
     <g id="text_1">
      <!-- −1.5 -->
      <g transform="translate(61.691321 322.182437)scale(0.1 -0.1)">
       <defs>
        <path id="DejaVuSans-2212" d="M 678 2272 
L 4684 2272 
L 4684 1741 
L 678 1741 
L 678 2272 
z
" transform="scale(0.015625)"/>
        <path id="DejaVuSans-31" d="M 794 531 
L 1825 531 
L 1825 4091 
L 703 3866 
L 703 4441 
L 1819 4666 
L 2450 4666 
L 2450 531 
L 3481 531 
L 3481 0 
L 794 0 
L 794 531 
z
" transform="scale(0.015625)"/>
        <path id="DejaVuSans-2e" d="M 684 794 
L 1344 794 
L 1344 0 
L 684 0 
L 684 794 
z
" transform="scale(0.015625)"/>
        <path id="DejaVuSans-35" d="M 691 4666 
L 3169 4666 
L 3169 4134 
L 1269 4134 
L 1269 2991 
Q 1406 3038 1543 3061 
Q 1681 3084 1819 3084 
Q 2600 3084 3056 2656 
Q 3513 2228 3513 1497 
Q 3513 744 3044 326 
Q 2575 -91 1722 -91 
Q 1428 -91 1123 -41 
Q 819 9 494 109 
L 494 744 
Q 775 591 1075 516 
Q 1375 441 1709 441 
Q 2250 441 2565 725 
Q 2881 1009 2881 1497 
Q 2881 1984 2565 2268 
Q 2250 2553 1709 2553 
Q 1456 2553 1204 2497 
Q 953 2441 691 2322 
L 691 4666 
z
" transform="scale(0.015625)"/>
       </defs>
       <use xlink:href="#DejaVuSans-2212"/>
       <use xlink:href="#DejaVuSans-31" x="83.789062"/>
       <use xlink:href="#DejaVuSans-2e" x="147.412109"/>
       <use xlink:href="#DejaVuSans-35" x="179.199219"/>
      </g>
     </g>
    </g>
    <g id="xtick_2">
     <g id="line2d_2">
      <g>
       <use xlink:href="#ma7490f274c" x="128.122785" y="307.584" style="stroke: #000000; stroke-width: 0.8"/>
      </g>
     </g>
     <g id="text_2">
      <!-- −1.0 -->
      <g transform="translate(115.981379 322.182437)scale(0.1 -0.1)">
       <defs>
        <path id="DejaVuSans-30" d="M 2034 4250 
Q 1547 4250 1301 3770 
Q 1056 3291 1056 2328 
Q 1056 1369 1301 889 
Q 1547 409 2034 409 
Q 2525 409 2770 889 
Q 3016 1369 3016 2328 
Q 3016 3291 2770 3770 
Q 2525 4250 2034 4250 
z
M 2034 4750 
Q 2819 4750 3233 4129 
Q 3647 3509 3647 2328 
Q 3647 1150 3233 529 
Q 2819 -91 2034 -91 
Q 1250 -91 836 529 
Q 422 1150 422 2328 
Q 422 3509 836 4129 
Q 1250 4750 2034 4750 
z
" transform="scale(0.015625)"/>
       </defs>
       <use xlink:href="#DejaVuSans-2212"/>
       <use xlink:href="#DejaVuSans-31" x="83.789062"/>
       <use xlink:href="#DejaVuSans-2e" x="147.412109"/>
       <use xlink:href="#DejaVuSans-30" x="179.199219"/>
      </g>
     </g>
    </g>
    <g id="xtick_3">
     <g id="line2d_3">
      <g>
       <use xlink:href="#ma7490f274c" x="182.412843" y="307.584" style="stroke: #000000; stroke-width: 0.8"/>
      </g>
     </g>
     <g id="text_3">
      <!-- −0.5 -->
      <g transform="translate(170.271437 322.182437)scale(0.1 -0.1)">
       <use xlink:href="#DejaVuSans-2212"/>
       <use xlink:href="#DejaVuSans-30" x="83.789062"/>
       <use xlink:href="#DejaVuSans-2e" x="147.412109"/>
       <use xlink:href="#DejaVuSans-35" x="179.199219"/>
      </g>
     </g>
    </g>
    <g id="xtick_4">
     <g id="line2d_4">
      <g>
       <use xlink:href="#ma7490f274c" x="236.702901" y="307.584" style="stroke: #000000; stroke-width: 0.8"/>
      </g>
     </g>
     <g id="text_4">
      <!-- 0.0 -->
      <g transform="translate(228.751338 322.182437)scale(0.1 -0.1)">
       <use xlink:href="#DejaVuSans-30"/>
       <use xlink:href="#DejaVuSans-2e" x="63.623047"/>
       <use xlink:href="#DejaVuSans-30" x="95.410156"/>
      </g>
     </g>
    </g>
    <g id="xtick_5">
     <g id="line2d_5">
      <g>
       <use xlink:href="#ma7490f274c" x="290.992958" y="307.584" style="stroke: #000000; stroke-width: 0.8"/>
      </g>
     </g>
     <g id="text_5">
      <!-- 0.5 -->
      <g transform="translate(283.041396 322.182437)scale(0.1 -0.1)">
       <use xlink:href="#DejaVuSans-30"/>
       <use xlink:href="#DejaVuSans-2e" x="63.623047"/>
       <use xlink:href="#DejaVuSans-35" x="95.410156"/>
      </g>
     </g>
    </g>
    <g id="xtick_6">
     <g id="line2d_6">
      <g>
       <use xlink:href="#ma7490f274c" x="345.283016" y="307.584" style="stroke: #000000; stroke-width: 0.8"/>
      </g>
     </g>
     <g id="text_6">
      <!-- 1.0 -->
      <g transform="translate(337.331454 322.182437)scale(0.1 -0.1)">
       <use xlink:href="#DejaVuSans-31"/>
       <use xlink:href="#DejaVuSans-2e" x="63.623047"/>
       <use xlink:href="#DejaVuSans-30" x="95.410156"/>
      </g>
     </g>
    </g>
    <g id="xtick_7">
     <g id="line2d_7">
      <g>
       <use xlink:href="#ma7490f274c" x="399.573074" y="307.584" style="stroke: #000000; stroke-width: 0.8"/>
      </g>
     </g>
     <g id="text_7">
      <!-- 1.5 -->
      <g transform="translate(391.621511 322.182437)scale(0.1 -0.1)">
       <use xlink:href="#DejaVuSans-31"/>
       <use xlink:href="#DejaVuSans-2e" x="63.623047"/>
       <use xlink:href="#DejaVuSans-35" x="95.410156"/>
      </g>
     </g>
    </g>
   </g>
   <g id="matplotlib.axis_2">
    <g id="ytick_1">
     <g id="line2d_8">
      <defs>
       <path id="m3fb6ff0df6" d="M 0 0 
L -3.5 0 
" style="stroke: #000000; stroke-width: 0.8"/>
      </defs>
      <g>
       <use xlink:href="#m3fb6ff0df6" x="57.6" y="290.319455" style="stroke: #000000; stroke-width: 0.8"/>
      </g>
     </g>
     <g id="text_8">
      <!-- 0.0 -->
      <g transform="translate(34.696875 294.118674)scale(0.1 -0.1)">
       <use xlink:href="#DejaVuSans-30"/>
       <use xlink:href="#DejaVuSans-2e" x="63.623047"/>
       <use xlink:href="#DejaVuSans-30" x="95.410156"/>
      </g>
     </g>
    </g>
    <g id="ytick_2">
     <g id="line2d_9">
      <g>
       <use xlink:href="#m3fb6ff0df6" x="57.6" y="242.969164" style="stroke: #000000; stroke-width: 0.8"/>
      </g>
     </g>
     <g id="text_9">
      <!-- 0.2 -->
      <g transform="translate(34.696875 246.768383)scale(0.1 -0.1)">
       <defs>
        <path id="DejaVuSans-32" d="M 1228 531 
L 3431 531 
L 3431 0 
L 469 0 
L 469 531 
Q 828 903 1448 1529 
Q 2069 2156 2228 2338 
Q 2531 2678 2651 2914 
Q 2772 3150 2772 3378 
Q 2772 3750 2511 3984 
Q 2250 4219 1831 4219 
Q 1534 4219 1204 4116 
Q 875 4013 500 3803 
L 500 4441 
Q 881 4594 1212 4672 
Q 1544 4750 1819 4750 
Q 2544 4750 2975 4387 
Q 3406 4025 3406 3419 
Q 3406 3131 3298 2873 
Q 3191 2616 2906 2266 
Q 2828 2175 2409 1742 
Q 1991 1309 1228 531 
z
" transform="scale(0.015625)"/>
       </defs>
       <use xlink:href="#DejaVuSans-30"/>
       <use xlink:href="#DejaVuSans-2e" x="63.623047"/>
       <use xlink:href="#DejaVuSans-32" x="95.410156"/>
      </g>
     </g>
    </g>
    <g id="ytick_3">
     <g id="line2d_10">
      <g>
       <use xlink:href="#m3fb6ff0df6" x="57.6" y="195.618873" style="stroke: #000000; stroke-width: 0.8"/>
      </g>
     </g>
     <g id="text_10">
      <!-- 0.4 -->
      <g transform="translate(34.696875 199.418092)scale(0.1 -0.1)">
       <defs>
        <path id="DejaVuSans-34" d="M 2419 4116 
L 825 1625 
L 2419 1625 
L 2419 4116 
z
M 2253 4666 
L 3047 4666 
L 3047 1625 
L 3713 1625 
L 3713 1100 
L 3047 1100 
L 3047 0 
L 2419 0 
L 2419 1100 
L 313 1100 
L 313 1709 
L 2253 4666 
z
" transform="scale(0.015625)"/>
       </defs>
       <use xlink:href="#DejaVuSans-30"/>
       <use xlink:href="#DejaVuSans-2e" x="63.623047"/>
       <use xlink:href="#DejaVuSans-34" x="95.410156"/>
      </g>
     </g>
    </g>
    <g id="ytick_4">
     <g id="line2d_11">
      <g>
       <use xlink:href="#m3fb6ff0df6" x="57.6" y="148.268582" style="stroke: #000000; stroke-width: 0.8"/>
      </g>
     </g>
     <g id="text_11">
      <!-- 0.6 -->
      <g transform="translate(34.696875 152.067801)scale(0.1 -0.1)">
       <defs>
        <path id="DejaVuSans-36" d="M 2113 2584 
Q 1688 2584 1439 2293 
Q 1191 2003 1191 1497 
Q 1191 994 1439 701 
Q 1688 409 2113 409 
Q 2538 409 2786 701 
Q 3034 994 3034 1497 
Q 3034 2003 2786 2293 
Q 2538 2584 2113 2584 
z
M 3366 4563 
L 3366 3988 
Q 3128 4100 2886 4159 
Q 2644 4219 2406 4219 
Q 1781 4219 1451 3797 
Q 1122 3375 1075 2522 
Q 1259 2794 1537 2939 
Q 1816 3084 2150 3084 
Q 2853 3084 3261 2657 
Q 3669 2231 3669 1497 
Q 3669 778 3244 343 
Q 2819 -91 2113 -91 
Q 1303 -91 875 529 
Q 447 1150 447 2328 
Q 447 3434 972 4092 
Q 1497 4750 2381 4750 
Q 2619 4750 2861 4703 
Q 3103 4656 3366 4563 
z
" transform="scale(0.015625)"/>
       </defs>
       <use xlink:href="#DejaVuSans-30"/>
       <use xlink:href="#DejaVuSans-2e" x="63.623047"/>
       <use xlink:href="#DejaVuSans-36" x="95.410156"/>
      </g>
     </g>
    </g>
    <g id="ytick_5">
     <g id="line2d_12">
      <g>
       <use xlink:href="#m3fb6ff0df6" x="57.6" y="100.918291" style="stroke: #000000; stroke-width: 0.8"/>
      </g>
     </g>
     <g id="text_12">
      <!-- 0.8 -->
      <g transform="translate(34.696875 104.71751)scale(0.1 -0.1)">
       <defs>
        <path id="DejaVuSans-38" d="M 2034 2216 
Q 1584 2216 1326 1975 
Q 1069 1734 1069 1313 
Q 1069 891 1326 650 
Q 1584 409 2034 409 
Q 2484 409 2743 651 
Q 3003 894 3003 1313 
Q 3003 1734 2745 1975 
Q 2488 2216 2034 2216 
z
M 1403 2484 
Q 997 2584 770 2862 
Q 544 3141 544 3541 
Q 544 4100 942 4425 
Q 1341 4750 2034 4750 
Q 2731 4750 3128 4425 
Q 3525 4100 3525 3541 
Q 3525 3141 3298 2862 
Q 3072 2584 2669 2484 
Q 3125 2378 3379 2068 
Q 3634 1759 3634 1313 
Q 3634 634 3220 271 
Q 2806 -91 2034 -91 
Q 1263 -91 848 271 
Q 434 634 434 1313 
Q 434 1759 690 2068 
Q 947 2378 1403 2484 
z
M 1172 3481 
Q 1172 3119 1398 2916 
Q 1625 2713 2034 2713 
Q 2441 2713 2670 2916 
Q 2900 3119 2900 3481 
Q 2900 3844 2670 4047 
Q 2441 4250 2034 4250 
Q 1625 4250 1398 4047 
Q 1172 3844 1172 3481 
z
" transform="scale(0.015625)"/>
       </defs>
       <use xlink:href="#DejaVuSans-30"/>
       <use xlink:href="#DejaVuSans-2e" x="63.623047"/>
       <use xlink:href="#DejaVuSans-38" x="95.410156"/>
      </g>
     </g>
    </g>
    <g id="ytick_6">
     <g id="line2d_13">
      <g>
       <use xlink:href="#m3fb6ff0df6" x="57.6" y="53.568" style="stroke: #000000; stroke-width: 0.8"/>
      </g>
     </g>
     <g id="text_13">
      <!-- 1.0 -->
      <g transform="translate(34.696875 57.367219)scale(0.1 -0.1)">
       <use xlink:href="#DejaVuSans-31"/>
       <use xlink:href="#DejaVuSans-2e" x="63.623047"/>
       <use xlink:href="#DejaVuSans-30" x="95.410156"/>
      </g>
     </g>
    </g>
   </g>
   <g id="line2d_14">
    <path d="M 73.832727 290.188512 
L 96.634552 289.945264 
L 111.835768 289.565927 
L 122.693779 289.077098 
L 131.380189 288.466075 
L 138.980797 287.689384 
L 145.495604 286.769231 
L 150.924609 285.760877 
L 155.267814 284.751595 
L 159.611019 283.518855 
L 163.954223 282.013183 
L 167.211627 280.668944 
L 170.46903 279.107161 
L 173.726434 277.292628 
L 176.983837 275.184441 
L 180.24124 272.735078 
L 183.498644 269.889323 
L 185.670246 267.740667 
L 187.841849 265.366035 
L 190.013451 262.741661 
L 192.185053 259.841279 
L 194.356656 256.635862 
L 196.528258 253.093327 
L 198.69986 249.178221 
L 200.871462 244.85136 
L 203.043065 240.069439 
L 205.214667 234.784598 
L 207.386269 228.943946 
L 209.557872 222.489028 
L 211.729474 215.355239 
L 213.901076 207.471184 
L 216.072679 198.757955 
L 218.244281 189.128348 
L 220.415883 178.485986 
L 222.587486 166.724358 
L 224.759088 153.725748 
L 226.93069 139.360062 
L 229.102292 123.483525 
L 231.273895 105.937237 
L 233.445497 86.545589 
L 235.617099 65.114505 
L 236.702901 53.568 
L 241.046105 65.114505 
L 245.38931 76.09788 
L 249.732514 86.545589 
L 254.075719 96.483758 
L 258.418924 105.937237 
L 262.762128 114.929663 
L 267.105333 123.483525 
L 271.448538 131.620209 
L 275.791742 139.360062 
L 280.134947 146.722439 
L 284.478151 153.725748 
L 288.821356 160.387502 
L 294.250362 168.259681 
L 299.679368 175.654909 
L 305.108373 182.602082 
L 310.537379 189.128348 
L 315.966385 195.259207 
L 321.395391 201.018617 
L 326.824396 206.429081 
L 332.253402 211.511742 
L 337.682408 216.28646 
L 343.111414 220.771892 
L 348.54042 224.985566 
L 353.969425 228.943946 
L 359.398431 232.6625 
L 365.913238 236.828591 
L 372.428045 240.693654 
L 378.942852 244.279442 
L 385.457659 247.606133 
L 391.972466 250.692448 
L 398.487273 253.555758 
L 398.487273 253.555758 
" clip-path="url(#p3a05ef674f)" style="fill: none; stroke-dasharray: 7.4,3.2; stroke-dashoffset: 0; stroke: #ff0000; stroke-width: 2"/>
   </g>
   <g id="line2d_15">
    <path d="M 73.832727 294.10723 
L 83.604938 293.123949 
L 97.720353 291.542839 
L 107.492563 290.136109 
L 114.00737 288.984466 
L 122.693779 287.251937 
L 127.036984 286.153629 
L 132.46599 284.600337 
L 138.980797 282.555426 
L 143.324001 280.969132 
L 148.753007 278.809942 
L 153.096212 276.805987 
L 157.439416 274.550273 
L 161.782621 271.966906 
L 166.125825 269.057761 
L 169.383229 266.619389 
L 172.640632 263.928126 
L 175.898036 260.920338 
L 179.155439 257.596637 
L 182.412843 253.882485 
L 185.670246 249.718458 
L 188.92765 245.07231 
L 192.185053 239.902667 
L 194.356656 236.095641 
L 196.528258 231.965639 
L 199.785661 225.16425 
L 201.957264 220.181945 
L 204.128866 214.73717 
L 206.300468 208.834584 
L 208.472071 202.48554 
L 210.643673 195.649514 
L 212.815275 188.229803 
L 214.986877 180.166143 
L 217.15848 171.436514 
L 219.330082 161.97718 
L 221.501684 151.735118 
L 223.673287 140.590345 
L 225.844889 128.478964 
L 228.016491 115.292718 
L 230.188094 100.965472 
L 232.359696 85.38078 
L 234.531298 68.424409 
L 235.617099 59.394575 
L 236.702901 53.568 
L 237.788702 56.42655 
L 242.131906 69.503044 
L 246.475111 81.915699 
L 250.818316 93.685146 
L 255.16152 104.8351 
L 259.504725 115.390719 
L 263.847929 125.38489 
L 268.191134 134.823477 
L 272.534339 143.789826 
L 276.877543 152.250172 
L 281.220748 160.263043 
L 285.563953 167.874207 
L 289.907157 175.07065 
L 294.250362 181.867676 
L 298.593566 188.281265 
L 304.022572 195.858642 
L 308.365777 201.535766 
L 313.794783 208.196565 
L 319.223788 214.46887 
L 323.566993 219.185391 
L 327.910198 223.637277 
L 332.253402 227.821186 
L 337.682408 232.745516 
L 342.025613 236.406004 
L 346.368817 239.815327 
L 352.883624 244.610445 
L 358.31263 248.341238 
L 363.741636 251.785871 
L 370.256443 255.620494 
L 377.857051 259.807948 
L 383.286057 262.552042 
L 389.800863 265.549329 
L 397.401472 268.807035 
L 398.487273 269.243301 
L 398.487273 269.243301 
" clip-path="url(#p3a05ef674f)" style="fill: none; stroke: #0000ff; stroke-linecap: square"/>
   </g>
   <g id="line2d_16">
    <path d="M 73.832727 289.180279 
L 81.433335 289.602561 
L 93.377148 290.092474 
L 105.320961 290.317741 
L 112.921569 290.223982 
L 119.436376 289.899385 
L 123.77958 289.523628 
L 128.122785 288.907898 
L 132.46599 288.044423 
L 136.809194 286.923533 
L 140.066598 285.855476 
L 143.324001 284.522364 
L 146.581405 282.961633 
L 149.838808 281.063375 
L 152.01041 279.571164 
L 154.182013 277.878725 
L 156.353615 275.999661 
L 158.525217 273.880542 
L 160.69682 271.504867 
L 162.868422 268.829806 
L 165.040024 265.874667 
L 167.211627 262.561418 
L 169.383229 258.859479 
L 171.554831 254.766255 
L 173.726434 250.219639 
L 175.898036 245.16691 
L 178.069638 239.597188 
L 180.24124 233.494648 
L 182.412843 226.818653 
L 184.584445 219.509114 
L 187.841849 207.489192 
L 190.013451 198.815299 
L 193.270854 184.755969 
L 197.614059 164.857285 
L 205.214667 128.992001 
L 209.557872 109.809407 
L 212.815275 96.634864 
L 214.986877 88.755839 
L 217.15848 81.623899 
L 219.330082 75.275714 
L 221.501684 69.722585 
L 223.673287 65.05472 
L 225.844889 61.24243 
L 226.93069 59.647477 
L 228.016491 58.263412 
L 229.102292 57.067605 
L 230.188094 56.059394 
L 231.273895 55.236042 
L 232.359696 54.588192 
L 233.445497 54.11102 
L 234.531298 53.796681 
L 236.702901 53.568 
L 245.38931 53.718734 
L 251.904117 54.070755 
L 257.333123 54.565174 
L 262.762128 55.288408 
L 267.105333 56.088181 
L 272.534339 57.359722 
L 276.877543 58.66641 
L 281.220748 60.246351 
L 284.478151 61.598503 
L 287.735555 63.122937 
L 290.992958 64.878402 
L 294.250362 66.866859 
L 297.507765 69.158361 
L 302.936771 73.392217 
L 306.194175 76.28702 
L 309.451578 79.561713 
L 312.708981 83.178226 
L 315.966385 87.084454 
L 320.30959 92.699471 
L 323.566993 97.330975 
L 325.738595 100.637613 
L 330.0818 107.822336 
L 334.425005 115.790736 
L 338.768209 124.30452 
L 343.111414 133.510977 
L 359.398431 169.979597 
L 371.342244 197.606983 
L 375.685448 206.897278 
L 383.286057 222.092346 
L 387.629261 230.31553 
L 391.972466 238.025206 
L 395.229869 243.340723 
L 398.487273 248.290034 
L 398.487273 248.290034 
" clip-path="url(#p3a05ef674f)" style="fill: none; stroke-dasharray: 1,1.65; stroke-dashoffset: 0; stroke: #0000ff"/>
   </g>
   <g id="line2d_17">
    <path d="M 73.832727 288.830712 
L 84.690739 286.337955 
L 89.033943 285.278219 
L 94.462949 284.053894 
L 119.436376 278.094565 
L 131.380189 274.949612 
L 140.066598 272.141861 
L 146.581405 269.892455 
L 152.01041 267.767562 
L 156.353615 265.91795 
L 163.954223 262.088671 
L 168.297428 259.487173 
L 171.554831 257.258969 
L 174.812235 254.735541 
L 176.983837 252.869161 
L 180.24124 249.802581 
L 183.498644 246.403152 
L 185.670246 243.826032 
L 188.92765 239.596219 
L 192.185053 234.868684 
L 194.356656 231.422421 
L 197.614059 225.731382 
L 200.871462 219.274229 
L 203.043065 214.482218 
L 205.214667 209.348748 
L 207.386269 203.776667 
L 209.557872 197.567682 
L 211.729474 190.731439 
L 213.901076 183.371171 
L 216.072679 175.300408 
L 218.244281 166.432646 
L 220.415883 156.769485 
L 222.587486 146.218832 
L 224.759088 134.661742 
L 226.93069 122.175679 
L 229.102292 108.582303 
L 231.273895 93.681651 
L 233.445497 77.369879 
L 235.617099 59.503417 
L 236.702901 53.568 
L 237.788702 55.979732 
L 239.960304 61.858238 
L 242.131906 67.555756 
L 244.303509 73.153637 
L 249.732514 86.812245 
L 251.904117 91.91324 
L 252.989918 94.266773 
L 255.16152 99.559723 
L 257.333123 104.187768 
L 262.762128 115.787859 
L 267.105333 124.26709 
L 271.448538 132.551394 
L 276.877543 141.833276 
L 277.963344 143.453346 
L 280.134947 147.072759 
L 281.220748 148.64463 
L 283.39235 152.22052 
L 285.563953 155.564602 
L 288.821356 160.422154 
L 290.992958 163.56259 
L 294.250362 168.188247 
L 297.507765 172.436747 
L 302.936771 179.529458 
L 306.194175 183.426692 
L 308.365777 185.666702 
L 311.62318 189.419704 
L 313.794783 191.779873 
L 319.223788 197.110517 
L 332.253402 209.834986 
L 339.85401 216.51792 
L 350.712022 224.897874 
L 359.398431 231.077442 
L 368.08484 236.630252 
L 373.513846 239.803421 
L 378.942852 242.765765 
L 381.114454 243.849709 
L 385.457659 246.034995 
L 397.401472 251.713894 
L 398.487273 252.176673 
L 398.487273 252.176673 
" clip-path="url(#p3a05ef674f)" style="fill: none; stroke: #ff00ff; stroke-linecap: square"/>
   </g>
   <g id="line2d_18">
    <path d="M 73.832727 290.182017 
L 80.347534 289.82145 
L 85.77654 289.360242 
L 99.891955 287.730631 
L 110.749967 286.032308 
L 115.093171 285.242205 
L 124.865382 283.025984 
L 129.208586 281.803444 
L 133.551791 280.315321 
L 137.894995 278.582267 
L 142.2382 276.642408 
L 145.495604 275.024749 
L 148.753007 273.142699 
L 153.096212 270.187625 
L 156.353615 267.60067 
L 158.525217 265.622539 
L 160.69682 263.44453 
L 163.954223 259.741817 
L 167.211627 255.439287 
L 169.383229 252.210679 
L 171.554831 248.6846 
L 173.726434 244.713427 
L 175.898036 240.410431 
L 178.069638 235.574928 
L 180.24124 230.30522 
L 182.412843 224.501184 
L 184.584445 218.152145 
L 187.841849 207.656711 
L 190.013451 199.982835 
L 193.270854 187.47894 
L 196.528258 173.827006 
L 200.871462 154.264463 
L 209.557872 114.050182 
L 212.815275 100.387796 
L 214.986877 91.718711 
L 217.15848 84.105955 
L 219.330082 77.253172 
L 221.501684 71.33041 
L 223.673287 66.339094 
L 225.844889 62.210828 
L 226.93069 60.487024 
L 229.102292 57.72425 
L 230.188094 56.603486 
L 231.273895 55.701625 
L 232.359696 54.969036 
L 233.445497 54.378721 
L 235.617099 53.714944 
L 236.702901 53.568 
L 237.788702 54.590148 
L 238.874503 55.086762 
L 239.960304 56.476565 
L 241.046105 57.234569 
L 242.131906 59.333229 
L 243.217708 60.552516 
L 245.38931 61.774726 
L 246.475111 62.501512 
L 247.560912 62.851615 
L 248.646713 63.044664 
L 249.732514 65.338878 
L 250.818316 65.770256 
L 251.904117 67.146874 
L 252.989918 68.150321 
L 255.16152 68.802665 
L 256.247321 69.462271 
L 257.333123 70.819485 
L 258.418924 71.519552 
L 260.590526 73.302463 
L 261.676327 73.675843 
L 262.762128 74.446554 
L 264.933731 76.477641 
L 266.019532 77.211971 
L 267.105333 78.409061 
L 269.276935 80.00062 
L 271.448538 81.602592 
L 273.62014 83.829 
L 274.705941 85.574184 
L 275.791742 87.102094 
L 276.877543 88.075548 
L 277.963344 90.247756 
L 279.049146 91.09157 
L 280.134947 92.350767 
L 281.220748 94.164891 
L 282.306549 95.056721 
L 283.39235 96.115765 
L 284.478151 97.448948 
L 285.563953 98.403347 
L 288.821356 102.190678 
L 289.907157 103.781186 
L 290.992958 104.868139 
L 294.250362 108.675513 
L 299.679368 115.957904 
L 300.765169 118.141006 
L 304.022572 122.371338 
L 306.194175 125.369751 
L 307.279976 132.496543 
L 308.365777 134.590555 
L 310.537379 137.458642 
L 313.794783 142.553319 
L 314.880584 144.63671 
L 315.966385 148.415415 
L 317.052186 150.372895 
L 318.137987 153.039909 
L 333.339203 179.091141 
L 335.510806 182.440156 
L 339.85401 188.682003 
L 342.025613 192.295772 
L 345.283016 197.517367 
L 349.626221 204.703887 
L 357.226829 214.926875 
L 359.398431 217.729064 
L 362.655835 222.069686 
L 368.08484 228.338285 
L 371.342244 231.950015 
L 373.513846 234.403391 
L 383.286057 243.759584 
L 385.457659 245.658686 
L 387.629261 247.299368 
L 393.058267 250.946883 
L 398.487273 254.386034 
L 398.487273 254.386034 
" clip-path="url(#p3a05ef674f)" style="fill: none; stroke-dasharray: 1,1.65; stroke-dashoffset: 0; stroke: #ff00ff"/>
   </g>
   <g id="line2d_19">
    <path d="M 73.832727 291.930662 
L 93.377148 290.164797 
L 102.063557 289.195484 
L 111.835768 287.595112 
L 122.693779 285.637026 
L 128.122785 284.431946 
L 134.637592 282.68373 
L 140.066598 281.043833 
L 145.495604 279.079465 
L 149.838808 277.326475 
L 154.182013 275.336645 
L 157.439416 273.639163 
L 161.782621 271.105769 
L 165.040024 268.958491 
L 168.297428 266.567066 
L 171.554831 263.899077 
L 174.812235 260.955688 
L 178.069638 257.701678 
L 181.327042 254.032555 
L 184.584445 249.909451 
L 187.841849 245.320186 
L 191.099252 240.256891 
L 194.356656 234.618204 
L 197.614059 228.351018 
L 199.785661 223.759908 
L 201.957264 218.79191 
L 204.128866 213.394501 
L 206.300468 207.574237 
L 208.472071 201.256885 
L 210.643673 194.38459 
L 212.815275 186.942481 
L 214.986877 178.893988 
L 217.15848 170.190196 
L 219.330082 160.78385 
L 221.501684 150.538526 
L 223.673287 139.447419 
L 225.844889 127.42329 
L 228.016491 114.374655 
L 230.188094 100.245126 
L 232.359696 84.910965 
L 234.531298 68.166591 
L 235.617099 59.264146 
L 236.702901 53.568 
L 237.788702 56.361759 
L 242.131906 69.194415 
L 246.475111 81.34394 
L 250.818316 92.840177 
L 255.16152 103.720079 
L 259.504725 114.048119 
L 263.847929 123.835097 
L 268.191134 133.086349 
L 272.534339 141.887504 
L 276.877543 150.27669 
L 281.220748 158.238645 
L 286.649754 167.600504 
L 290.992958 174.634457 
L 295.336163 181.296287 
L 299.679368 187.621825 
L 304.022572 193.595094 
L 308.365777 199.182705 
L 313.794783 205.743926 
L 318.137987 210.678941 
L 322.481192 215.326349 
L 327.910198 220.767706 
L 333.339203 225.836387 
L 338.768209 230.615819 
L 344.197215 235.145491 
L 349.626221 239.401046 
L 353.969425 242.564785 
L 359.398431 246.226064 
L 364.827437 249.628035 
L 371.342244 253.333421 
L 377.857051 256.786115 
L 385.457659 260.472311 
L 394.144068 264.339955 
L 398.487273 266.106732 
L 398.487273 266.106732 
" clip-path="url(#p3a05ef674f)" style="fill: none; stroke: #008000; stroke-linecap: square"/>
   </g>
   <g id="line2d_20">
    <path d="M 73.832727 290.096904 
L 86.862341 290.298773 
L 98.806154 290.278731 
L 106.406762 290.05589 
L 114.00737 289.579152 
L 119.436376 289.066855 
L 124.865382 288.347893 
L 129.208586 287.536008 
L 133.551791 286.469169 
L 137.894995 285.139965 
L 141.152399 283.887098 
L 144.409802 282.377116 
L 147.667206 280.607945 
L 150.924609 278.504459 
L 154.182013 276.040891 
L 156.353615 274.141914 
L 158.525217 272.01688 
L 160.69682 269.661918 
L 162.868422 267.046241 
L 165.040024 264.141659 
L 167.211627 260.922566 
L 169.383229 257.368585 
L 171.554831 253.402615 
L 173.726434 249.005872 
L 175.898036 244.162924 
L 178.069638 238.888175 
L 181.327042 230.237141 
L 184.584445 220.688958 
L 187.841849 210.419523 
L 191.099252 199.339404 
L 195.442457 183.611188 
L 201.957264 158.846869 
L 208.472071 134.517485 
L 211.729474 123.312111 
L 214.986877 113.034227 
L 217.15848 106.774627 
L 219.330082 101.090905 
L 221.501684 96.056826 
L 223.673287 91.559761 
L 225.844889 87.641662 
L 228.016491 84.416765 
L 230.188094 81.731988 
L 231.273895 80.579137 
L 233.445497 78.741037 
L 235.617099 77.42189 
L 236.702901 77.070519 
L 242.131906 77.828276 
L 248.646713 78.93398 
L 254.075719 80.050008 
L 260.590526 81.645541 
L 264.933731 82.897168 
L 270.362736 84.699012 
L 276.877543 87.100732 
L 281.220748 88.856502 
L 286.649754 91.34198 
L 289.907157 93.036873 
L 296.421964 96.788571 
L 299.679368 98.880572 
L 302.936771 101.233011 
L 306.194175 103.871588 
L 311.62318 108.666745 
L 314.880584 111.840775 
L 319.223788 116.458192 
L 323.566993 121.489968 
L 328.995999 128.107829 
L 332.253402 132.519231 
L 338.768209 141.908358 
L 344.197215 149.903887 
L 350.712022 159.998004 
L 353.969425 165.316065 
L 364.827437 184.139289 
L 370.256443 193.654013 
L 382.200255 213.88481 
L 388.715062 224.200143 
L 393.058267 230.849911 
L 398.487273 238.64736 
L 398.487273 238.64736 
" clip-path="url(#p3a05ef674f)" style="fill: none; stroke-dasharray: 1,1.65; stroke-dashoffset: 0; stroke: #008000"/>
   </g>
   <g id="line2d_21">
    <path d="M 73.832727 295.488 
L 79.261733 295.096114 
L 90.119745 293.985145 
L 96.634552 293.129386 
L 102.063557 292.171437 
L 117.264773 289.029926 
L 129.208586 286.114108 
L 134.637592 284.56821 
L 138.980797 283.171341 
L 143.324001 281.55635 
L 147.667206 279.770925 
L 153.096212 277.215979 
L 158.525217 274.355181 
L 162.868422 271.7788 
L 166.125825 269.574819 
L 169.383229 267.091461 
L 172.640632 264.336973 
L 175.898036 261.362582 
L 179.155439 258.129225 
L 182.412843 254.492509 
L 185.670246 250.366041 
L 187.841849 247.31058 
L 190.013451 243.997768 
L 193.270854 238.490946 
L 195.442457 234.440568 
L 197.614059 230.020729 
L 199.785661 225.219669 
L 201.957264 220.033362 
L 204.128866 214.436064 
L 207.386269 205.260489 
L 209.557872 198.571122 
L 211.729474 191.346959 
L 213.901076 183.580092 
L 216.072679 175.178 
L 218.244281 166.049725 
L 220.415883 156.164396 
L 222.587486 145.468165 
L 224.759088 133.874025 
L 226.93069 121.321301 
L 229.102292 107.724029 
L 231.273895 92.954489 
L 233.445497 76.876927 
L 235.617099 59.343016 
L 236.702901 53.568 
L 237.788702 56.410791 
L 242.131906 69.419745 
L 246.475111 81.726932 
L 250.818316 93.3931 
L 255.16152 104.46691 
L 259.504725 114.970457 
L 263.847929 124.942551 
L 268.191134 134.391987 
L 272.534339 143.275404 
L 276.877543 151.675718 
L 281.220748 159.636133 
L 285.563953 167.191193 
L 289.907157 174.339138 
L 294.250362 181.08379 
L 299.679368 189.016341 
L 304.022572 194.999378 
L 308.365777 200.675926 
L 312.708981 206.030057 
L 317.052186 211.097557 
L 322.481192 217.06108 
L 326.824396 221.534333 
L 332.253402 226.818168 
L 337.682408 231.815876 
L 343.111414 236.494449 
L 347.454618 239.968322 
L 352.883624 243.968536 
L 357.226829 246.908429 
L 362.655835 250.330342 
L 369.170642 254.095613 
L 376.77125 258.136278 
L 382.200255 260.913043 
L 389.800863 264.540625 
L 398.487273 268.396738 
L 398.487273 268.396738 
" clip-path="url(#p3a05ef674f)" style="fill: none; stroke: #00ffff; stroke-linecap: square"/>
   </g>
   <g id="line2d_22">
    <path d="M 73.832727 288.13235 
L 79.261733 288.45594 
L 102.063557 290.050453 
L 107.492563 290.275304 
L 114.00737 290.298723 
L 119.436376 290.079868 
L 124.865382 289.625049 
L 129.208586 289.052155 
L 133.551791 288.242183 
L 136.809194 287.440845 
L 140.066598 286.415669 
L 143.324001 285.115761 
L 146.581405 283.538168 
L 149.838808 281.591817 
L 152.01041 280.090044 
L 154.182013 278.39468 
L 156.353615 276.501306 
L 158.525217 274.384858 
L 160.69682 272.023257 
L 162.868422 269.366386 
L 165.040024 266.362818 
L 167.211627 262.993477 
L 169.383229 259.253569 
L 171.554831 255.106305 
L 173.726434 250.50467 
L 175.898036 245.395853 
L 178.069638 239.705625 
L 180.24124 233.416091 
L 182.412843 226.521944 
L 184.584445 218.975931 
L 186.756047 210.845938 
L 190.013451 197.607245 
L 193.270854 183.41408 
L 198.69986 158.146223 
L 204.128866 132.900606 
L 208.472071 113.692962 
L 211.729474 100.454342 
L 213.901076 92.27587 
L 216.072679 84.826501 
L 218.244281 78.181706 
L 220.415883 72.343826 
L 222.587486 67.302837 
L 224.759088 63.102108 
L 226.93069 59.698473 
L 228.016491 58.297246 
L 229.102292 57.08346 
L 230.188094 56.064689 
L 231.273895 55.230037 
L 232.359696 54.576348 
L 233.445497 54.100762 
L 234.531298 53.791704 
L 236.702901 53.568 
L 245.38931 53.722673 
L 251.904117 54.086076 
L 257.333123 54.588804 
L 262.762128 55.302929 
L 267.105333 56.028861 
L 271.448538 57.004897 
L 275.791742 58.255611 
L 280.134947 59.78423 
L 284.478151 61.596165 
L 288.821356 63.689935 
L 292.07876 65.546169 
L 295.336163 67.722407 
L 301.85097 72.641447 
L 305.108373 75.53052 
L 308.365777 78.674378 
L 312.708981 83.386188 
L 315.966385 87.274455 
L 320.30959 92.981129 
L 323.566993 97.538798 
L 327.910198 104.08893 
L 332.253402 111.113351 
L 337.682408 120.466098 
L 343.111414 130.323433 
L 346.368817 136.642614 
L 350.712022 145.782733 
L 355.055227 155.30547 
L 361.570033 170.310527 
L 370.256443 190.55842 
L 374.599647 200.387063 
L 377.857051 207.327373 
L 381.114454 213.804217 
L 385.457659 222.03497 
L 390.886665 231.753661 
L 395.229869 239.154543 
L 398.487273 244.338997 
L 398.487273 244.338997 
" clip-path="url(#p3a05ef674f)" style="fill: none; stroke-dasharray: 1,1.65; stroke-dashoffset: 0; stroke: #00ffff"/>
   </g>
   <g id="patch_3">
    <path d="M 57.6 307.584 
L 57.6 41.472 
" style="fill: none; stroke: #000000; stroke-width: 0.8; stroke-linejoin: miter; stroke-linecap: square"/>
   </g>
   <g id="patch_4">
    <path d="M 414.72 307.584 
L 414.72 41.472 
" style="fill: none; stroke: #000000; stroke-width: 0.8; stroke-linejoin: miter; stroke-linecap: square"/>
   </g>
   <g id="patch_5">
    <path d="M 57.6 307.584 
L 414.72 307.584 
" style="fill: none; stroke: #000000; stroke-width: 0.8; stroke-linejoin: miter; stroke-linecap: square"/>
   </g>
   <g id="patch_6">
    <path d="M 57.6 41.472 
L 414.72 41.472 
" style="fill: none; stroke: #000000; stroke-width: 0.8; stroke-linejoin: miter; stroke-linecap: square"/>
   </g>
   <g id="legend_1">
    <g id="patch_7">
     <path d="M 64.6 122.862625 
L 171.917188 122.862625 
Q 173.917188 122.862625 173.917188 120.862625 
L 173.917188 48.472 
Q 173.917188 46.472 171.917188 46.472 
L 64.6 46.472 
Q 62.6 46.472 62.6 48.472 
L 62.6 120.862625 
Q 62.6 122.862625 64.6 122.862625 
z
" style="fill: #ffffff; opacity: 0.8; stroke: #cccccc; stroke-linejoin: miter"/>
    </g>
    <g id="line2d_23">
     <path d="M 66.6 54.570438 
L 76.6 54.570438 
L 86.6 54.570438 
" style="fill: none; stroke-dasharray: 7.4,3.2; stroke-dashoffset: 0; stroke: #ff0000; stroke-width: 2"/>
    </g>
    <g id="text_14">
     <!-- true -->
     <g transform="translate(94.6 58.070438)scale(0.1 -0.1)">
      <defs>
       <path id="DejaVuSans-74" d="M 1172 4494 
L 1172 3500 
L 2356 3500 
L 2356 3053 
L 1172 3053 
L 1172 1153 
Q 1172 725 1289 603 
Q 1406 481 1766 481 
L 2356 481 
L 2356 0 
L 1766 0 
Q 1100 0 847 248 
Q 594 497 594 1153 
L 594 3053 
L 172 3053 
L 172 3500 
L 594 3500 
L 594 4494 
L 1172 4494 
z
" transform="scale(0.015625)"/>
       <path id="DejaVuSans-72" d="M 2631 2963 
Q 2534 3019 2420 3045 
Q 2306 3072 2169 3072 
Q 1681 3072 1420 2755 
Q 1159 2438 1159 1844 
L 1159 0 
L 581 0 
L 581 3500 
L 1159 3500 
L 1159 2956 
Q 1341 3275 1631 3429 
Q 1922 3584 2338 3584 
Q 2397 3584 2469 3576 
Q 2541 3569 2628 3553 
L 2631 2963 
z
" transform="scale(0.015625)"/>
       <path id="DejaVuSans-75" d="M 544 1381 
L 544 3500 
L 1119 3500 
L 1119 1403 
Q 1119 906 1312 657 
Q 1506 409 1894 409 
Q 2359 409 2629 706 
Q 2900 1003 2900 1516 
L 2900 3500 
L 3475 3500 
L 3475 0 
L 2900 0 
L 2900 538 
Q 2691 219 2414 64 
Q 2138 -91 1772 -91 
Q 1169 -91 856 284 
Q 544 659 544 1381 
z
M 1991 3584 
L 1991 3584 
z
" transform="scale(0.015625)"/>
       <path id="DejaVuSans-65" d="M 3597 1894 
L 3597 1613 
L 953 1613 
Q 991 1019 1311 708 
Q 1631 397 2203 397 
Q 2534 397 2845 478 
Q 3156 559 3463 722 
L 3463 178 
Q 3153 47 2828 -22 
Q 2503 -91 2169 -91 
Q 1331 -91 842 396 
Q 353 884 353 1716 
Q 353 2575 817 3079 
Q 1281 3584 2069 3584 
Q 2775 3584 3186 3129 
Q 3597 2675 3597 1894 
z
M 3022 2063 
Q 3016 2534 2758 2815 
Q 2500 3097 2075 3097 
Q 1594 3097 1305 2825 
Q 1016 2553 972 2059 
L 3022 2063 
z
" transform="scale(0.015625)"/>
      </defs>
      <use xlink:href="#DejaVuSans-74"/>
      <use xlink:href="#DejaVuSans-72" x="39.208984"/>
      <use xlink:href="#DejaVuSans-75" x="80.322266"/>
      <use xlink:href="#DejaVuSans-65" x="143.701172"/>
     </g>
    </g>
    <g id="line2d_24">
     <path d="M 66.6 69.248563 
L 76.6 69.248563 
L 86.6 69.248563 
" style="fill: none; stroke: #0000ff; stroke-linecap: square"/>
    </g>
    <g id="text_15">
     <!-- base -->
     <g transform="translate(94.6 72.748563)scale(0.1 -0.1)">
      <defs>
       <path id="DejaVuSans-62" d="M 3116 1747 
Q 3116 2381 2855 2742 
Q 2594 3103 2138 3103 
Q 1681 3103 1420 2742 
Q 1159 2381 1159 1747 
Q 1159 1113 1420 752 
Q 1681 391 2138 391 
Q 2594 391 2855 752 
Q 3116 1113 3116 1747 
z
M 1159 2969 
Q 1341 3281 1617 3432 
Q 1894 3584 2278 3584 
Q 2916 3584 3314 3078 
Q 3713 2572 3713 1747 
Q 3713 922 3314 415 
Q 2916 -91 2278 -91 
Q 1894 -91 1617 61 
Q 1341 213 1159 525 
L 1159 0 
L 581 0 
L 581 4863 
L 1159 4863 
L 1159 2969 
z
" transform="scale(0.015625)"/>
       <path id="DejaVuSans-61" d="M 2194 1759 
Q 1497 1759 1228 1600 
Q 959 1441 959 1056 
Q 959 750 1161 570 
Q 1363 391 1709 391 
Q 2188 391 2477 730 
Q 2766 1069 2766 1631 
L 2766 1759 
L 2194 1759 
z
M 3341 1997 
L 3341 0 
L 2766 0 
L 2766 531 
Q 2569 213 2275 61 
Q 1981 -91 1556 -91 
Q 1019 -91 701 211 
Q 384 513 384 1019 
Q 384 1609 779 1909 
Q 1175 2209 1959 2209 
L 2766 2209 
L 2766 2266 
Q 2766 2663 2505 2880 
Q 2244 3097 1772 3097 
Q 1472 3097 1187 3025 
Q 903 2953 641 2809 
L 641 3341 
Q 956 3463 1253 3523 
Q 1550 3584 1831 3584 
Q 2591 3584 2966 3190 
Q 3341 2797 3341 1997 
z
" transform="scale(0.015625)"/>
       <path id="DejaVuSans-73" d="M 2834 3397 
L 2834 2853 
Q 2591 2978 2328 3040 
Q 2066 3103 1784 3103 
Q 1356 3103 1142 2972 
Q 928 2841 928 2578 
Q 928 2378 1081 2264 
Q 1234 2150 1697 2047 
L 1894 2003 
Q 2506 1872 2764 1633 
Q 3022 1394 3022 966 
Q 3022 478 2636 193 
Q 2250 -91 1575 -91 
Q 1294 -91 989 -36 
Q 684 19 347 128 
L 347 722 
Q 666 556 975 473 
Q 1284 391 1588 391 
Q 1994 391 2212 530 
Q 2431 669 2431 922 
Q 2431 1156 2273 1281 
Q 2116 1406 1581 1522 
L 1381 1569 
Q 847 1681 609 1914 
Q 372 2147 372 2553 
Q 372 3047 722 3315 
Q 1072 3584 1716 3584 
Q 2034 3584 2315 3537 
Q 2597 3491 2834 3397 
z
" transform="scale(0.015625)"/>
      </defs>
      <use xlink:href="#DejaVuSans-62"/>
      <use xlink:href="#DejaVuSans-61" x="63.476562"/>
      <use xlink:href="#DejaVuSans-73" x="124.755859"/>
      <use xlink:href="#DejaVuSans-65" x="176.855469"/>
     </g>
    </g>
    <g id="line2d_25">
     <path d="M 66.6 83.926688 
L 76.6 83.926688 
L 86.6 83.926688 
" style="fill: none; stroke: #ff00ff; stroke-linecap: square"/>
    </g>
    <g id="text_16">
     <!-- win false -->
     <g transform="translate(94.6 87.426688)scale(0.1 -0.1)">
      <defs>
       <path id="DejaVuSans-77" d="M 269 3500 
L 844 3500 
L 1563 769 
L 2278 3500 
L 2956 3500 
L 3675 769 
L 4391 3500 
L 4966 3500 
L 4050 0 
L 3372 0 
L 2619 2869 
L 1863 0 
L 1184 0 
L 269 3500 
z
" transform="scale(0.015625)"/>
       <path id="DejaVuSans-69" d="M 603 3500 
L 1178 3500 
L 1178 0 
L 603 0 
L 603 3500 
z
M 603 4863 
L 1178 4863 
L 1178 4134 
L 603 4134 
L 603 4863 
z
" transform="scale(0.015625)"/>
       <path id="DejaVuSans-6e" d="M 3513 2113 
L 3513 0 
L 2938 0 
L 2938 2094 
Q 2938 2591 2744 2837 
Q 2550 3084 2163 3084 
Q 1697 3084 1428 2787 
Q 1159 2491 1159 1978 
L 1159 0 
L 581 0 
L 581 3500 
L 1159 3500 
L 1159 2956 
Q 1366 3272 1645 3428 
Q 1925 3584 2291 3584 
Q 2894 3584 3203 3211 
Q 3513 2838 3513 2113 
z
" transform="scale(0.015625)"/>
       <path id="DejaVuSans-20" transform="scale(0.015625)"/>
       <path id="DejaVuSans-66" d="M 2375 4863 
L 2375 4384 
L 1825 4384 
Q 1516 4384 1395 4259 
Q 1275 4134 1275 3809 
L 1275 3500 
L 2222 3500 
L 2222 3053 
L 1275 3053 
L 1275 0 
L 697 0 
L 697 3053 
L 147 3053 
L 147 3500 
L 697 3500 
L 697 3744 
Q 697 4328 969 4595 
Q 1241 4863 1831 4863 
L 2375 4863 
z
" transform="scale(0.015625)"/>
       <path id="DejaVuSans-6c" d="M 603 4863 
L 1178 4863 
L 1178 0 
L 603 0 
L 603 4863 
z
" transform="scale(0.015625)"/>
      </defs>
      <use xlink:href="#DejaVuSans-77"/>
      <use xlink:href="#DejaVuSans-69" x="81.787109"/>
      <use xlink:href="#DejaVuSans-6e" x="109.570312"/>
      <use xlink:href="#DejaVuSans-20" x="172.949219"/>
      <use xlink:href="#DejaVuSans-66" x="204.736328"/>
      <use xlink:href="#DejaVuSans-61" x="239.941406"/>
      <use xlink:href="#DejaVuSans-6c" x="301.220703"/>
      <use xlink:href="#DejaVuSans-73" x="329.003906"/>
      <use xlink:href="#DejaVuSans-65" x="381.103516"/>
     </g>
    </g>
    <g id="line2d_26">
     <path d="M 66.6 98.604813 
L 76.6 98.604813 
L 86.6 98.604813 
" style="fill: none; stroke: #008000; stroke-linecap: square"/>
    </g>
    <g id="text_17">
     <!-- normamp false -->
     <g transform="translate(94.6 102.104813)scale(0.1 -0.1)">
      <defs>
       <path id="DejaVuSans-6f" d="M 1959 3097 
Q 1497 3097 1228 2736 
Q 959 2375 959 1747 
Q 959 1119 1226 758 
Q 1494 397 1959 397 
Q 2419 397 2687 759 
Q 2956 1122 2956 1747 
Q 2956 2369 2687 2733 
Q 2419 3097 1959 3097 
z
M 1959 3584 
Q 2709 3584 3137 3096 
Q 3566 2609 3566 1747 
Q 3566 888 3137 398 
Q 2709 -91 1959 -91 
Q 1206 -91 779 398 
Q 353 888 353 1747 
Q 353 2609 779 3096 
Q 1206 3584 1959 3584 
z
" transform="scale(0.015625)"/>
       <path id="DejaVuSans-6d" d="M 3328 2828 
Q 3544 3216 3844 3400 
Q 4144 3584 4550 3584 
Q 5097 3584 5394 3201 
Q 5691 2819 5691 2113 
L 5691 0 
L 5113 0 
L 5113 2094 
Q 5113 2597 4934 2840 
Q 4756 3084 4391 3084 
Q 3944 3084 3684 2787 
Q 3425 2491 3425 1978 
L 3425 0 
L 2847 0 
L 2847 2094 
Q 2847 2600 2669 2842 
Q 2491 3084 2119 3084 
Q 1678 3084 1418 2786 
Q 1159 2488 1159 1978 
L 1159 0 
L 581 0 
L 581 3500 
L 1159 3500 
L 1159 2956 
Q 1356 3278 1631 3431 
Q 1906 3584 2284 3584 
Q 2666 3584 2933 3390 
Q 3200 3197 3328 2828 
z
" transform="scale(0.015625)"/>
       <path id="DejaVuSans-70" d="M 1159 525 
L 1159 -1331 
L 581 -1331 
L 581 3500 
L 1159 3500 
L 1159 2969 
Q 1341 3281 1617 3432 
Q 1894 3584 2278 3584 
Q 2916 3584 3314 3078 
Q 3713 2572 3713 1747 
Q 3713 922 3314 415 
Q 2916 -91 2278 -91 
Q 1894 -91 1617 61 
Q 1341 213 1159 525 
z
M 3116 1747 
Q 3116 2381 2855 2742 
Q 2594 3103 2138 3103 
Q 1681 3103 1420 2742 
Q 1159 2381 1159 1747 
Q 1159 1113 1420 752 
Q 1681 391 2138 391 
Q 2594 391 2855 752 
Q 3116 1113 3116 1747 
z
" transform="scale(0.015625)"/>
      </defs>
      <use xlink:href="#DejaVuSans-6e"/>
      <use xlink:href="#DejaVuSans-6f" x="63.378906"/>
      <use xlink:href="#DejaVuSans-72" x="124.560547"/>
      <use xlink:href="#DejaVuSans-6d" x="163.923828"/>
      <use xlink:href="#DejaVuSans-61" x="261.335938"/>
      <use xlink:href="#DejaVuSans-6d" x="322.615234"/>
      <use xlink:href="#DejaVuSans-70" x="420.027344"/>
      <use xlink:href="#DejaVuSans-20" x="483.503906"/>
      <use xlink:href="#DejaVuSans-66" x="515.291016"/>
      <use xlink:href="#DejaVuSans-61" x="550.496094"/>
      <use xlink:href="#DejaVuSans-6c" x="611.775391"/>
      <use xlink:href="#DejaVuSans-73" x="639.558594"/>
      <use xlink:href="#DejaVuSans-65" x="691.658203"/>
     </g>
    </g>
    <g id="line2d_27">
     <path d="M 66.6 113.282938 
L 76.6 113.282938 
L 86.6 113.282938 
" style="fill: none; stroke: #00ffff; stroke-linecap: square"/>
    </g>
    <g id="text_18">
     <!-- delta 6 -->
     <g transform="translate(94.6 116.782938)scale(0.1 -0.1)">
      <defs>
       <path id="DejaVuSans-64" d="M 2906 2969 
L 2906 4863 
L 3481 4863 
L 3481 0 
L 2906 0 
L 2906 525 
Q 2725 213 2448 61 
Q 2172 -91 1784 -91 
Q 1150 -91 751 415 
Q 353 922 353 1747 
Q 353 2572 751 3078 
Q 1150 3584 1784 3584 
Q 2172 3584 2448 3432 
Q 2725 3281 2906 2969 
z
M 947 1747 
Q 947 1113 1208 752 
Q 1469 391 1925 391 
Q 2381 391 2643 752 
Q 2906 1113 2906 1747 
Q 2906 2381 2643 2742 
Q 2381 3103 1925 3103 
Q 1469 3103 1208 2742 
Q 947 2381 947 1747 
z
" transform="scale(0.015625)"/>
      </defs>
      <use xlink:href="#DejaVuSans-64"/>
      <use xlink:href="#DejaVuSans-65" x="63.476562"/>
      <use xlink:href="#DejaVuSans-6c" x="125"/>
      <use xlink:href="#DejaVuSans-74" x="152.783203"/>
      <use xlink:href="#DejaVuSans-61" x="191.992188"/>
      <use xlink:href="#DejaVuSans-20" x="253.271484"/>
      <use xlink:href="#DejaVuSans-36" x="285.058594"/>
     </g>
    </g>
   </g>
  </g>
  <g id="text_19">
   <!-- Conditionally averaged waveforms with variance -->
   <g transform="translate(83.702813 16.030125)scale(0.12 -0.12)">
    <defs>
     <path id="DejaVuSans-43" d="M 4122 4306 
L 4122 3641 
Q 3803 3938 3442 4084 
Q 3081 4231 2675 4231 
Q 1875 4231 1450 3742 
Q 1025 3253 1025 2328 
Q 1025 1406 1450 917 
Q 1875 428 2675 428 
Q 3081 428 3442 575 
Q 3803 722 4122 1019 
L 4122 359 
Q 3791 134 3420 21 
Q 3050 -91 2638 -91 
Q 1578 -91 968 557 
Q 359 1206 359 2328 
Q 359 3453 968 4101 
Q 1578 4750 2638 4750 
Q 3056 4750 3426 4639 
Q 3797 4528 4122 4306 
z
" transform="scale(0.015625)"/>
     <path id="DejaVuSans-79" d="M 2059 -325 
Q 1816 -950 1584 -1140 
Q 1353 -1331 966 -1331 
L 506 -1331 
L 506 -850 
L 844 -850 
Q 1081 -850 1212 -737 
Q 1344 -625 1503 -206 
L 1606 56 
L 191 3500 
L 800 3500 
L 1894 763 
L 2988 3500 
L 3597 3500 
L 2059 -325 
z
" transform="scale(0.015625)"/>
     <path id="DejaVuSans-76" d="M 191 3500 
L 800 3500 
L 1894 563 
L 2988 3500 
L 3597 3500 
L 2284 0 
L 1503 0 
L 191 3500 
z
" transform="scale(0.015625)"/>
     <path id="DejaVuSans-67" d="M 2906 1791 
Q 2906 2416 2648 2759 
Q 2391 3103 1925 3103 
Q 1463 3103 1205 2759 
Q 947 2416 947 1791 
Q 947 1169 1205 825 
Q 1463 481 1925 481 
Q 2391 481 2648 825 
Q 2906 1169 2906 1791 
z
M 3481 434 
Q 3481 -459 3084 -895 
Q 2688 -1331 1869 -1331 
Q 1566 -1331 1297 -1286 
Q 1028 -1241 775 -1147 
L 775 -588 
Q 1028 -725 1275 -790 
Q 1522 -856 1778 -856 
Q 2344 -856 2625 -561 
Q 2906 -266 2906 331 
L 2906 616 
Q 2728 306 2450 153 
Q 2172 0 1784 0 
Q 1141 0 747 490 
Q 353 981 353 1791 
Q 353 2603 747 3093 
Q 1141 3584 1784 3584 
Q 2172 3584 2450 3431 
Q 2728 3278 2906 2969 
L 2906 3500 
L 3481 3500 
L 3481 434 
z
" transform="scale(0.015625)"/>
     <path id="DejaVuSans-68" d="M 3513 2113 
L 3513 0 
L 2938 0 
L 2938 2094 
Q 2938 2591 2744 2837 
Q 2550 3084 2163 3084 
Q 1697 3084 1428 2787 
Q 1159 2491 1159 1978 
L 1159 0 
L 581 0 
L 581 4863 
L 1159 4863 
L 1159 2956 
Q 1366 3272 1645 3428 
Q 1925 3584 2291 3584 
Q 2894 3584 3203 3211 
Q 3513 2838 3513 2113 
z
" transform="scale(0.015625)"/>
     <path id="DejaVuSans-63" d="M 3122 3366 
L 3122 2828 
Q 2878 2963 2633 3030 
Q 2388 3097 2138 3097 
Q 1578 3097 1268 2742 
Q 959 2388 959 1747 
Q 959 1106 1268 751 
Q 1578 397 2138 397 
Q 2388 397 2633 464 
Q 2878 531 3122 666 
L 3122 134 
Q 2881 22 2623 -34 
Q 2366 -91 2075 -91 
Q 1284 -91 818 406 
Q 353 903 353 1747 
Q 353 2603 823 3093 
Q 1294 3584 2113 3584 
Q 2378 3584 2631 3529 
Q 2884 3475 3122 3366 
z
" transform="scale(0.015625)"/>
    </defs>
    <use xlink:href="#DejaVuSans-43"/>
    <use xlink:href="#DejaVuSans-6f" x="69.824219"/>
    <use xlink:href="#DejaVuSans-6e" x="131.005859"/>
    <use xlink:href="#DejaVuSans-64" x="194.384766"/>
    <use xlink:href="#DejaVuSans-69" x="257.861328"/>
    <use xlink:href="#DejaVuSans-74" x="285.644531"/>
    <use xlink:href="#DejaVuSans-69" x="324.853516"/>
    <use xlink:href="#DejaVuSans-6f" x="352.636719"/>
    <use xlink:href="#DejaVuSans-6e" x="413.818359"/>
    <use xlink:href="#DejaVuSans-61" x="477.197266"/>
    <use xlink:href="#DejaVuSans-6c" x="538.476562"/>
    <use xlink:href="#DejaVuSans-6c" x="566.259766"/>
    <use xlink:href="#DejaVuSans-79" x="594.042969"/>
    <use xlink:href="#DejaVuSans-20" x="653.222656"/>
    <use xlink:href="#DejaVuSans-61" x="685.009766"/>
    <use xlink:href="#DejaVuSans-76" x="746.289062"/>
    <use xlink:href="#DejaVuSans-65" x="805.46875"/>
    <use xlink:href="#DejaVuSans-72" x="866.992188"/>
    <use xlink:href="#DejaVuSans-61" x="908.105469"/>
    <use xlink:href="#DejaVuSans-67" x="969.384766"/>
    <use xlink:href="#DejaVuSans-65" x="1032.861328"/>
    <use xlink:href="#DejaVuSans-64" x="1094.384766"/>
    <use xlink:href="#DejaVuSans-20" x="1157.861328"/>
    <use xlink:href="#DejaVuSans-77" x="1189.648438"/>
    <use xlink:href="#DejaVuSans-61" x="1271.435547"/>
    <use xlink:href="#DejaVuSans-76" x="1332.714844"/>
    <use xlink:href="#DejaVuSans-65" x="1391.894531"/>
    <use xlink:href="#DejaVuSans-66" x="1453.417969"/>
    <use xlink:href="#DejaVuSans-6f" x="1488.623047"/>
    <use xlink:href="#DejaVuSans-72" x="1549.804688"/>
    <use xlink:href="#DejaVuSans-6d" x="1589.167969"/>
    <use xlink:href="#DejaVuSans-73" x="1686.580078"/>
    <use xlink:href="#DejaVuSans-20" x="1738.679688"/>
    <use xlink:href="#DejaVuSans-77" x="1770.466797"/>
    <use xlink:href="#DejaVuSans-69" x="1852.253906"/>
    <use xlink:href="#DejaVuSans-74" x="1880.037109"/>
    <use xlink:href="#DejaVuSans-68" x="1919.246094"/>
    <use xlink:href="#DejaVuSans-20" x="1982.625"/>
    <use xlink:href="#DejaVuSans-76" x="2014.412109"/>
    <use xlink:href="#DejaVuSans-61" x="2073.591797"/>
    <use xlink:href="#DejaVuSans-72" x="2134.871094"/>
    <use xlink:href="#DejaVuSans-69" x="2175.984375"/>
    <use xlink:href="#DejaVuSans-61" x="2203.767578"/>
    <use xlink:href="#DejaVuSans-6e" x="2265.046875"/>
    <use xlink:href="#DejaVuSans-63" x="2328.425781"/>
    <use xlink:href="#DejaVuSans-65" x="2383.40625"/>
   </g>
   <!-- gamma=1 lambda=0.2 -->
   <g transform="translate(159.743438 29.4675)scale(0.12 -0.12)">
    <defs>
     <path id="DejaVuSans-3d" d="M 678 2906 
L 4684 2906 
L 4684 2381 
L 678 2381 
L 678 2906 
z
M 678 1631 
L 4684 1631 
L 4684 1100 
L 678 1100 
L 678 1631 
z
" transform="scale(0.015625)"/>
    </defs>
    <use xlink:href="#DejaVuSans-67"/>
    <use xlink:href="#DejaVuSans-61" x="63.476562"/>
    <use xlink:href="#DejaVuSans-6d" x="124.755859"/>
    <use xlink:href="#DejaVuSans-6d" x="222.167969"/>
    <use xlink:href="#DejaVuSans-61" x="319.580078"/>
    <use xlink:href="#DejaVuSans-3d" x="380.859375"/>
    <use xlink:href="#DejaVuSans-31" x="464.648438"/>
    <use xlink:href="#DejaVuSans-20" x="528.271484"/>
    <use xlink:href="#DejaVuSans-6c" x="560.058594"/>
    <use xlink:href="#DejaVuSans-61" x="587.841797"/>
    <use xlink:href="#DejaVuSans-6d" x="649.121094"/>
    <use xlink:href="#DejaVuSans-62" x="746.533203"/>
    <use xlink:href="#DejaVuSans-64" x="810.009766"/>
    <use xlink:href="#DejaVuSans-61" x="873.486328"/>
    <use xlink:href="#DejaVuSans-3d" x="934.765625"/>
    <use xlink:href="#DejaVuSans-30" x="1018.554688"/>
    <use xlink:href="#DejaVuSans-2e" x="1082.177734"/>
    <use xlink:href="#DejaVuSans-32" x="1113.964844"/>
   </g>
  </g>
 </g>
 <defs>
  <clipPath id="p3a05ef674f">
   <rect x="57.6" y="41.472" width="357.12" height="266.112"/>
  </clipPath>
 </defs>
</svg>
